<svg width="268" height="322" viewBox="0 0 268 322" fill="none" xmlns="http://www.w3.org/2000/svg">
<path d="M34 305L22.5 319.5L2 312" stroke="#FCFCFC" stroke-width="4" stroke-linecap="round" stroke-linejoin="round"/>
<path d="M84.1211 50.9766H85.4453C86.5781 48.7109 87.4727 46.4492 88.1289 44.1914C88.7852 41.9258 89.2734 39.4844 89.5938 36.8672H99.5781V50.9766H101.863V58.9922H98.3594V54H87.625V58.9922H84.1211V50.9766ZM92.4766 39.8906C92.2266 41.6797 91.8086 43.5742 91.2227 45.5742C90.6445 47.5742 89.9922 49.375 89.2656 50.9766H95.957V39.8906H92.4766ZM102.355 40.8984H106.27L108.742 48.2695C108.953 48.9102 109.098 49.668 109.176 50.543H109.246C109.332 49.7383 109.5 48.9805 109.75 48.2695L112.176 40.8984H116.008L110.465 55.6758C109.957 57.043 109.23 58.0664 108.285 58.7461C107.348 59.4258 106.25 59.7656 104.992 59.7656C104.375 59.7656 103.77 59.6992 103.176 59.5664V56.7305C103.605 56.832 104.074 56.8828 104.582 56.8828C105.215 56.8828 105.766 56.6875 106.234 56.2969C106.711 55.9141 107.082 55.332 107.348 54.5508L107.559 53.9062L102.355 40.8984ZM134.406 54H131.066V43.6758L130.879 44.4023C130.457 46.0508 130.078 47.2969 129.742 48.1406L127.422 54H124.879L122.523 48.0938C122.188 47.2344 121.828 46.0273 121.445 44.4727L121.223 43.6758V54H117.895V40.8984H122.816L125.066 46.4883C125.301 47.0898 125.516 47.7812 125.711 48.5625C125.914 49.3438 126.051 50.0117 126.121 50.5664C126.379 49.3945 126.578 48.5547 126.719 48.0469C126.867 47.5312 127.027 47.0586 127.199 46.6289C127.371 46.1992 128.148 44.2891 129.531 40.8984H134.406V54ZM146.488 54L145.797 52.2188H145.703C145.102 52.9766 144.48 53.5039 143.84 53.8008C143.207 54.0898 142.379 54.2344 141.355 54.2344C140.098 54.2344 139.105 53.875 138.379 53.1562C137.66 52.4375 137.301 51.4141 137.301 50.0859C137.301 48.6953 137.785 47.6719 138.754 47.0156C139.73 46.3516 141.199 45.9844 143.16 45.9141L145.434 45.8438V45.2695C145.434 43.9414 144.754 43.2773 143.395 43.2773C142.348 43.2773 141.117 43.5938 139.703 44.2266L138.52 41.8125C140.027 41.0234 141.699 40.6289 143.535 40.6289C145.293 40.6289 146.641 41.0117 147.578 41.7773C148.516 42.543 148.984 43.707 148.984 45.2695V54H146.488ZM145.434 47.9297L144.051 47.9766C143.012 48.0078 142.238 48.1953 141.73 48.5391C141.223 48.8828 140.969 49.4062 140.969 50.1094C140.969 51.1172 141.547 51.6211 142.703 51.6211C143.531 51.6211 144.191 51.3828 144.684 50.9062C145.184 50.4297 145.434 49.7969 145.434 49.0078V47.9297ZM158.102 43.1953C157.344 43.1953 156.75 43.4375 156.32 43.9219C155.891 44.3984 155.645 45.0781 155.582 45.9609H160.598C160.582 45.0781 160.352 44.3984 159.906 43.9219C159.461 43.4375 158.859 43.1953 158.102 43.1953ZM158.605 54.2344C156.496 54.2344 154.848 53.6523 153.66 52.4883C152.473 51.3242 151.879 49.6758 151.879 47.543C151.879 45.3477 152.426 43.6523 153.52 42.457C154.621 41.2539 156.141 40.6523 158.078 40.6523C159.93 40.6523 161.371 41.1797 162.402 42.2344C163.434 43.2891 163.949 44.7461 163.949 46.6055V48.3398H155.5C155.539 49.3555 155.84 50.1484 156.402 50.7188C156.965 51.2891 157.754 51.5742 158.77 51.5742C159.559 51.5742 160.305 51.4922 161.008 51.3281C161.711 51.1641 162.445 50.9023 163.211 50.543V53.3086C162.586 53.6211 161.918 53.8516 161.207 54C160.496 54.1562 159.629 54.2344 158.605 54.2344ZM186.367 54H166.855V40.8984H170.43V51.3164H174.824V40.8984H178.398V51.3164H182.793V40.8984H186.367V54ZM193.703 45.9609H196.223C198.238 45.9609 199.73 46.2812 200.699 46.9219C201.668 47.5625 202.152 48.5312 202.152 49.8281C202.152 52.6094 200.223 54 196.363 54H190.129V40.8984H193.703V45.9609ZM198.578 49.875C198.578 49.3672 198.375 49 197.969 48.7734C197.562 48.5469 196.957 48.4336 196.152 48.4336H193.703V51.5273H196.199C197.785 51.5273 198.578 50.9766 198.578 49.875ZM98.3828 87.2344C96.7422 87.2344 95.3984 86.9648 94.3516 86.4258V83.6367C95.7109 84.2617 96.9883 84.5742 98.1836 84.5742C99.043 84.5742 99.707 84.3242 100.176 83.8242C100.645 83.3242 100.918 82.5742 100.996 81.5742H96.0508V79.1953H100.996C100.934 78.2344 100.691 77.5117 100.27 77.0273C99.8555 76.543 99.2578 76.3008 98.4766 76.3008C97.5469 76.3008 96.5312 76.5469 95.4297 77.0391L94.4219 74.5898C95.0078 74.3164 95.668 74.0938 96.4023 73.9219C97.1445 73.7422 97.8828 73.6523 98.6172 73.6523C100.664 73.6523 102.188 74.207 103.188 75.3164C104.188 76.4258 104.688 78.0898 104.688 80.3086C104.688 82.5898 104.156 84.3164 103.094 85.4883C102.039 86.6523 100.469 87.2344 98.3828 87.2344ZM118.504 73.8984V76.582H114.215V87H110.641V76.582H106.34V73.8984H118.504ZM123.801 80.4258C123.801 81.7227 124.012 82.7031 124.434 83.3672C124.863 84.0312 125.559 84.3633 126.52 84.3633C127.473 84.3633 128.156 84.0352 128.57 83.3789C128.992 82.7148 129.203 81.7305 129.203 80.4258C129.203 79.1289 128.992 78.1562 128.57 77.5078C128.148 76.8594 127.457 76.5352 126.496 76.5352C125.543 76.5352 124.855 76.8594 124.434 77.5078C124.012 78.1484 123.801 79.1211 123.801 80.4258ZM132.859 80.4258C132.859 82.5586 132.297 84.2266 131.172 85.4297C130.047 86.6328 128.48 87.2344 126.473 87.2344C125.215 87.2344 124.105 86.9609 123.145 86.4141C122.184 85.8594 121.445 85.0664 120.93 84.0352C120.414 83.0039 120.156 81.8008 120.156 80.4258C120.156 78.2852 120.715 76.6211 121.832 75.4336C122.949 74.2461 124.52 73.6523 126.543 73.6523C127.801 73.6523 128.91 73.9258 129.871 74.4727C130.832 75.0195 131.57 75.8047 132.086 76.8281C132.602 77.8516 132.859 79.0508 132.859 80.4258ZM154.141 77.332C154.141 78.0352 153.918 78.6367 153.473 79.1367C153.035 79.6289 152.387 79.9453 151.527 80.0859V80.1797C152.457 80.2891 153.191 80.6094 153.73 81.1406C154.277 81.6641 154.551 82.3125 154.551 83.0859C154.551 84.3594 154.051 85.332 153.051 86.0039C152.051 86.668 150.621 87 148.762 87H142.047V73.8984H148.762C150.559 73.8984 151.902 74.1914 152.793 74.7773C153.691 75.3555 154.141 76.207 154.141 77.332ZM150.848 82.8984C150.848 82.3828 150.648 82.0117 150.25 81.7852C149.852 81.5508 149.254 81.4336 148.457 81.4336H145.621V84.5273H148.527C149.285 84.5273 149.859 84.3867 150.25 84.1055C150.648 83.8164 150.848 83.4141 150.848 82.8984ZM150.52 77.6133C150.52 76.8164 149.887 76.418 148.621 76.418H145.621V79.0078H148.211C148.969 79.0078 149.543 78.8984 149.934 78.6797C150.324 78.4609 150.52 78.1055 150.52 77.6133ZM162.719 87.2344C158.641 87.2344 156.602 84.9961 156.602 80.5195C156.602 78.293 157.156 76.5938 158.266 75.4219C159.375 74.2422 160.965 73.6523 163.035 73.6523C164.551 73.6523 165.91 73.9492 167.113 74.543L166.059 77.3086C165.496 77.082 164.973 76.8984 164.488 76.7578C164.004 76.6094 163.52 76.5352 163.035 76.5352C161.176 76.5352 160.246 77.8555 160.246 80.4961C160.246 83.0586 161.176 84.3398 163.035 84.3398C163.723 84.3398 164.359 84.25 164.945 84.0703C165.531 83.8828 166.117 83.5938 166.703 83.2031V86.2617C166.125 86.6289 165.539 86.8828 164.945 87.0234C164.359 87.1641 163.617 87.2344 162.719 87.2344ZM175.176 76.1953C174.418 76.1953 173.824 76.4375 173.395 76.9219C172.965 77.3984 172.719 78.0781 172.656 78.9609H177.672C177.656 78.0781 177.426 77.3984 176.98 76.9219C176.535 76.4375 175.934 76.1953 175.176 76.1953ZM175.68 87.2344C173.57 87.2344 171.922 86.6523 170.734 85.4883C169.547 84.3242 168.953 82.6758 168.953 80.543C168.953 78.3477 169.5 76.6523 170.594 75.457C171.695 74.2539 173.215 73.6523 175.152 73.6523C177.004 73.6523 178.445 74.1797 179.477 75.2344C180.508 76.2891 181.023 77.7461 181.023 79.6055V81.3398H172.574C172.613 82.3555 172.914 83.1484 173.477 83.7188C174.039 84.2891 174.828 84.5742 175.844 84.5742C176.633 84.5742 177.379 84.4922 178.082 84.3281C178.785 84.1641 179.52 83.9023 180.285 83.543V86.3086C179.66 86.6211 178.992 86.8516 178.281 87C177.57 87.1562 176.703 87.2344 175.68 87.2344ZM171.168 70.5352C171.168 70.0273 171.312 69.6367 171.602 69.3633C171.898 69.0898 172.297 68.9531 172.797 68.9531C173.312 68.9531 173.715 69.0977 174.004 69.3867C174.301 69.6758 174.449 70.0586 174.449 70.5352C174.449 71.0039 174.301 71.3828 174.004 71.6719C173.707 71.9531 173.305 72.0938 172.797 72.0938C172.297 72.0938 171.898 71.957 171.602 71.6836C171.312 71.4102 171.168 71.0273 171.168 70.5352ZM175.891 70.5352C175.891 69.9883 176.047 69.5898 176.359 69.3398C176.68 69.082 177.074 68.9531 177.543 68.9531C178.051 68.9531 178.453 69.0938 178.75 69.375C179.055 69.6562 179.207 70.043 179.207 70.5352C179.207 71.0117 179.055 71.3906 178.75 71.6719C178.445 71.9531 178.043 72.0938 177.543 72.0938C177.074 72.0938 176.68 71.9688 176.359 71.7188C176.047 71.4609 175.891 71.0664 175.891 70.5352ZM185.289 81.3164V80.4492C185.289 79.6992 185.449 79.0469 185.77 78.4922C186.09 77.9375 186.676 77.3477 187.527 76.7227C188.348 76.1367 188.887 75.6602 189.145 75.293C189.41 74.9258 189.543 74.5156 189.543 74.0625C189.543 73.5547 189.355 73.168 188.98 72.9023C188.605 72.6367 188.082 72.5039 187.41 72.5039C186.238 72.5039 184.902 72.8867 183.402 73.6523L182.125 71.0859C183.867 70.1094 185.715 69.6211 187.668 69.6211C189.277 69.6211 190.555 70.0078 191.5 70.7812C192.453 71.5547 192.93 72.5859 192.93 73.875C192.93 74.7344 192.734 75.4766 192.344 76.1016C191.953 76.7266 191.211 77.4297 190.117 78.2109C189.367 78.7656 188.891 79.1875 188.688 79.4766C188.492 79.7656 188.395 80.1445 188.395 80.6133V81.3164H185.289ZM184.914 85.3242C184.914 84.668 185.09 84.1719 185.441 83.8359C185.793 83.5 186.305 83.332 186.977 83.332C187.625 83.332 188.125 83.5039 188.477 83.8477C188.836 84.1914 189.016 84.6836 189.016 85.3242C189.016 85.9414 188.836 86.4297 188.477 86.7891C188.117 87.1406 187.617 87.3164 186.977 87.3164C186.32 87.3164 185.812 87.1445 185.453 86.8008C185.094 86.4492 184.914 85.957 184.914 85.3242Z" fill="#FCFCFC"/>
<ellipse cx="146" cy="61" rx="120" ry="59" stroke="#FCFCFC" stroke-width="4" stroke-linecap="round"/>
<path d="M15 305C15 234.488 110.901 223.848 116.87 194.174C124.331 157.081 65.0179 151.648 66.51 184.636C68.0022 217.623 108.29 296.443 150.443 235.505C184.165 186.755 158.616 143.837 160.357 129" stroke="#FCFCFC" stroke-width="4" stroke-linecap="round"/>
</svg>
