<svg width="64" height="64" viewBox="0 0 64 64" fill="none" xmlns="http://www.w3.org/2000/svg">
<g clip-path="url(#clip0_1:50)">
<path fill-rule="evenodd" clip-rule="evenodd" d="M27.8171 44.8914C27.538 44.8914 27.2616 44.9464 27.0037 45.0532C26.7458 45.1601 26.5114 45.3166 26.314 45.514C26.1166 45.7114 25.9601 45.9458 25.8532 46.2037C25.7464 46.4616 25.6914 46.738 25.6914 47.0171C25.6914 47.2963 25.7464 47.5727 25.8532 47.8306C25.9601 48.0885 26.1166 48.3229 26.314 48.5202C26.5114 48.7176 26.7458 48.8742 27.0037 48.981C27.2616 49.0879 27.538 49.1429 27.8171 49.1429H32C32.5638 49.1429 33.1045 48.9189 33.5031 48.5202C33.9018 48.1216 34.1257 47.5809 34.1257 47.0171C34.1257 46.4534 33.9018 45.9127 33.5031 45.514C33.1045 45.1154 32.5638 44.8914 32 44.8914H27.8171ZM10.7429 44.8914C10.4637 44.8914 10.1873 44.9464 9.92938 45.0532C9.67148 45.1601 9.43714 45.3166 9.23975 45.514C9.04236 45.7114 8.88578 45.9458 8.77895 46.2037C8.67213 46.4616 8.61714 46.738 8.61714 47.0171C8.61714 47.2963 8.67213 47.5727 8.77895 47.8306C8.88578 48.0885 9.04236 48.3229 9.23975 48.5202C9.43714 48.7176 9.67148 48.8742 9.92938 48.981C10.1873 49.0879 10.4637 49.1429 10.7429 49.1429H19.2914C19.8552 49.1429 20.3959 48.9189 20.7945 48.5202C21.1932 48.1216 21.4171 47.5809 21.4171 47.0171C21.4171 46.4534 21.1932 45.9127 20.7945 45.514C20.3959 45.1154 19.8552 44.8914 19.2914 44.8914H10.7429ZM50.2857 44.7086C49.9984 44.717 49.7158 44.7836 49.4549 44.9044C49.1941 45.0252 48.9604 45.1977 48.7682 45.4113C48.5759 45.625 48.4289 45.8754 48.3362 46.1475C48.2434 46.4196 48.2068 46.7077 48.2286 46.9943V51.2C48.2257 51.7686 48.4349 52.3179 48.8153 52.7405C49.1957 53.1632 49.7199 53.4289 50.2857 53.4857H53.3486C53.8773 53.431 54.3669 53.1822 54.7229 52.7875C55.0788 52.3927 55.2758 51.8801 55.2758 51.3486C55.2758 50.8171 55.0788 50.3044 54.7229 49.9097C54.3669 49.5149 53.8773 49.2662 53.3486 49.2114H52.5714V46.9257C52.5536 46.3315 52.3049 45.7676 51.8782 45.3536C51.4515 44.9397 50.8802 44.7083 50.2857 44.7086ZM50.2857 40.96C51.5191 40.9479 52.7427 41.1801 53.886 41.643C55.0293 42.106 56.0697 42.7907 56.9472 43.6575C57.8247 44.5244 58.522 45.5564 58.9989 46.694C59.4757 47.8315 59.7228 49.0522 59.7257 50.2857C59.721 52.1188 59.1749 53.9096 58.1558 55.4333C57.1368 56.9571 55.6904 58.1458 53.9981 58.8503C52.3058 59.5547 50.4431 59.7436 48.6438 59.393C46.8446 59.0424 45.189 58.1682 43.885 56.8799C42.5809 55.5916 41.6865 53.9468 41.3141 52.152C40.9416 50.3571 41.1077 48.4923 41.7915 46.7915C42.4753 45.0908 43.6464 43.6299 45.1576 42.5924C46.6688 41.5549 48.4528 40.987 50.2857 40.96ZM29.7143 34.1029H33.9657V38.4H29.8743L29.7143 34.1029ZM12.64 34.1029H17.0743V38.4H12.8L12.64 34.1029ZM44.3886 29.8514C43.8248 29.8969 43.3022 30.1645 42.9357 30.5953C42.5692 31.0261 42.3888 31.5848 42.4343 32.1486C42.4798 32.7123 42.7473 33.235 43.1781 33.6015C43.6089 33.968 44.1677 34.1483 44.7314 34.1029H49.1429C49.7066 34.1029 50.2473 33.8789 50.646 33.4802C51.0446 33.0816 51.2686 32.5409 51.2686 31.9771C51.2686 31.4134 51.0446 30.8727 50.646 30.474C50.2473 30.0754 49.7066 29.8514 49.1429 29.8514H44.5714H44.3886ZM25.6 32V40.5257C25.6569 41.0915 25.9225 41.6157 26.3452 41.9961C26.7678 42.3765 27.3171 42.5857 27.8857 42.5829H36.3429C36.8866 42.5769 37.4064 42.3583 37.7909 41.9738C38.1754 41.5893 38.3941 41.0695 38.4 40.5257V32C38.4218 31.7134 38.3852 31.4253 38.2924 31.1532C38.1997 30.8812 38.0527 30.6307 37.8604 30.4171C37.6681 30.2034 37.4345 30.031 37.1737 29.9102C36.9128 29.7894 36.6302 29.7227 36.3429 29.7143H27.8171C27.5135 29.6886 27.208 29.7306 26.9226 29.8374C26.6372 29.9442 26.3791 30.1131 26.167 30.3318C25.9548 30.5505 25.7939 30.8136 25.6958 31.1021C25.5978 31.3906 25.5651 31.6973 25.6 32ZM8.52571 32V40.5257C8.58257 41.0915 8.84826 41.6157 9.27091 41.9961C9.69356 42.3765 10.2428 42.5857 10.8114 42.5829H19.36C19.8998 42.571 20.4138 42.3498 20.7934 41.9659C21.173 41.582 21.3885 41.0656 21.3943 40.5257V32C21.4193 31.7146 21.3858 31.427 21.2956 31.155C21.2055 30.883 21.0608 30.6323 20.8703 30.4182C20.6798 30.2042 20.4476 30.0313 20.1878 29.9103C19.9281 29.7892 19.6464 29.7225 19.36 29.7143H10.7429C10.4431 29.7041 10.1445 29.7568 9.86627 29.869C9.58807 29.9811 9.33645 30.1503 9.1276 30.3657C8.91875 30.581 8.75729 30.8376 8.65363 31.1191C8.54997 31.4006 8.50639 31.7007 8.52571 32ZM4.27429 25.6H55.4743V37.7143C53.8103 37.1013 52.0582 36.7617 50.2857 36.7086C48.4971 36.7144 46.7274 37.0749 45.079 37.769C43.4305 38.4631 41.936 39.4772 40.682 40.7525C39.4279 42.0278 38.4391 43.5391 37.7728 45.199C37.1064 46.8589 36.7758 48.6344 36.8 50.4229C36.744 51.4557 36.8599 52.4908 37.1429 53.4857H6.65143C6.07105 53.3667 5.54098 53.073 5.13239 52.644C4.72381 52.215 4.45627 51.6712 4.36571 51.0857L4.27429 25.6ZM6.56 12.8H8.43429C8.43429 14.5216 9.1182 16.1728 10.3356 17.3901C11.553 18.6075 13.2041 19.2914 14.9257 19.2914C15.2249 19.3224 15.5273 19.2902 15.8133 19.1969C16.0993 19.1036 16.3625 18.9513 16.5859 18.7499C16.8093 18.5484 16.9879 18.3023 17.1102 18.0274C17.2324 17.7526 17.2956 17.4551 17.2956 17.1543C17.2956 16.8535 17.2324 16.556 17.1102 16.2811C16.9879 16.0063 16.8093 15.7601 16.5859 15.5587C16.3625 15.3572 16.0993 15.2049 15.8133 15.1116C15.5273 15.0183 15.2249 14.9862 14.9257 15.0171C14.3195 15.0171 13.7381 14.7763 13.3095 14.3477C12.8808 13.919 12.64 13.3376 12.64 12.7314H38.4C38.4 14.4531 39.0839 16.1042 40.3013 17.3216C41.5187 18.5389 43.1698 19.2229 44.8914 19.2229C45.1906 19.2538 45.493 19.2216 45.779 19.1284C46.065 19.0351 46.3282 18.8828 46.5516 18.6813C46.775 18.4799 46.9536 18.2337 47.0759 17.9589C47.1981 17.684 47.2613 17.3865 47.2613 17.0857C47.2613 16.7849 47.1981 16.4874 47.0759 16.2126C46.9536 15.9377 46.775 15.6916 46.5516 15.4901C46.3282 15.2887 46.065 15.1364 45.779 15.0431C45.493 14.9498 45.1906 14.9176 44.8914 14.9486C44.2852 14.9486 43.7038 14.7078 43.2752 14.2791C42.8465 13.8504 42.6057 13.2691 42.6057 12.6629H53.0057C53.6171 12.7355 54.1862 13.0117 54.6215 13.4471C55.0568 13.8824 55.3331 14.4515 55.4057 15.0629V21.1886H4.27429V15.2C4.37057 14.6019 4.65153 14.049 5.07781 13.6186C5.50409 13.1882 6.05432 12.902 6.65143 12.8H6.56ZM44.8914 4.27429C45.1822 4.26825 45.4709 4.32537 45.7375 4.44168C46.0041 4.558 46.2423 4.73075 46.4357 4.94803C46.629 5.16531 46.773 5.42194 46.8576 5.70023C46.9422 5.97853 46.9654 6.27186 46.9257 6.56V8.59429H42.6743V6.49143C42.6613 6.19682 42.7098 5.90273 42.8166 5.62786C42.9235 5.35299 43.0863 5.10336 43.2948 4.89484C43.5034 4.68631 43.753 4.52346 44.0279 4.41662C44.3027 4.30979 44.5968 4.26132 44.8914 4.27429ZM15.0171 4.27429C15.3087 4.26877 15.5981 4.32601 15.8656 4.44214C16.1332 4.55827 16.3726 4.73056 16.5677 4.94734C16.7628 5.16412 16.909 5.42032 16.9964 5.69856C17.0838 5.97681 17.1104 6.27059 17.0743 6.56V8.59429H12.8V6.49143C12.7905 6.19769 12.8413 5.90512 12.9493 5.63181C13.0574 5.35851 13.2204 5.11027 13.4282 4.90246C13.636 4.69464 13.8842 4.53167 14.1575 4.42363C14.4308 4.31558 14.7234 4.26475 15.0171 4.27429ZM15.0171 0C13.2955 0 11.6444 0.683916 10.427 1.9013C9.20963 3.11867 8.52571 4.76979 8.52571 6.49143V8.52571H6.65143C4.89988 8.57768 3.23469 9.29823 1.99774 10.5394C0.760794 11.7806 0.0459577 13.4483 0 15.2V51.0171C0.0459577 52.7689 0.760794 54.4365 1.99774 55.6777C3.23469 56.9189 4.89988 57.6395 6.65143 57.6914H38.8571C39.8559 59.4179 41.2193 60.9057 42.8521 62.0512C44.4849 63.1966 46.348 63.9721 48.3113 64.3236C50.2747 64.6751 52.291 64.5941 54.2199 64.0863C56.1487 63.5784 57.9435 62.656 59.4792 61.3832C61.0149 60.1105 62.2545 58.5181 63.1116 56.7171C63.9687 54.9161 64.4226 52.9498 64.4417 50.9554C64.4608 48.9609 64.0447 46.9863 63.2223 45.1692C62.3999 43.3521 61.191 41.7362 59.68 40.4343V15.2914C59.68 13.5252 58.98 11.8311 57.7332 10.5801C56.4865 9.32904 54.7947 8.62319 53.0286 8.61714H51.2V6.49143C51.2 5.65097 51.0345 4.81874 50.7128 4.04225C50.3912 3.26577 49.9198 2.56024 49.3255 1.96595C48.7312 1.37165 48.0257 0.90023 47.2492 0.5786C46.4727 0.25697 45.6405 0.0914285 44.8 0.0914285C43.9595 0.0914285 43.1273 0.25697 42.3508 0.5786C41.5743 0.90023 40.8688 1.37165 40.2745 1.96595C39.6802 2.56024 39.2088 3.26577 38.8872 4.04225C38.5655 4.81874 38.4 5.65097 38.4 6.49143V8.52571H21.3257V6.49143C21.3381 4.79752 20.6832 3.16681 19.5026 1.95202C18.322 0.737226 16.7107 0.0359962 15.0171 0Z" fill="white"/>
</g>
<defs>
<clipPath id="clip0_1:50">
<rect width="64" height="64" fill="white"/>
</clipPath>
</defs>
</svg>
