<svg width="48" height="48" viewBox="0 0 48 48" fill="none" xmlns="http://www.w3.org/2000/svg">
<path fill-rule="evenodd" clip-rule="evenodd" d="M20.8629 33.6686C20.6535 33.6686 20.4462 33.7098 20.2528 33.7899C20.0593 33.8701 19.8836 33.9875 19.7355 34.1355C19.5875 34.2836 19.47 34.4593 19.3899 34.6527C19.3098 34.8462 19.2686 35.0535 19.2686 35.2629C19.2686 35.4722 19.3098 35.6795 19.3899 35.873C19.47 36.0664 19.5875 36.2421 19.7355 36.3902C19.8836 36.5382 20.0593 36.6557 20.2528 36.7358C20.4462 36.8159 20.6535 36.8571 20.8629 36.8571H24C24.4228 36.8571 24.8283 36.6892 25.1273 36.3902C25.4263 36.0912 25.5943 35.6857 25.5943 35.2629C25.5943 34.84 25.4263 34.4345 25.1273 34.1355C24.8283 33.8365 24.4228 33.6686 24 33.6686H20.8629ZM8.05714 33.6686C7.84778 33.6686 7.64046 33.7098 7.44704 33.7899C7.25361 33.8701 7.07786 33.9875 6.92981 34.1355C6.78177 34.2836 6.66434 34.4593 6.58422 34.6527C6.5041 34.8462 6.46286 35.0535 6.46286 35.2629C6.46286 35.4722 6.5041 35.6795 6.58422 35.873C6.66434 36.0664 6.78177 36.2421 6.92981 36.3902C7.07786 36.5382 7.25361 36.6557 7.44704 36.7358C7.64046 36.8159 7.84778 36.8571 8.05714 36.8571H14.4686C14.8914 36.8571 15.2969 36.6892 15.5959 36.3902C15.8949 36.0912 16.0629 35.6857 16.0629 35.2629C16.0629 34.84 15.8949 34.4345 15.5959 34.1355C15.2969 33.8365 14.8914 33.6686 14.4686 33.6686H8.05714ZM37.7143 33.5314C37.4988 33.5378 37.2868 33.5877 37.0912 33.6783C36.8956 33.7689 36.7203 33.8983 36.5761 34.0585C36.4319 34.2188 36.3217 34.4066 36.2521 34.6106C36.1826 34.8147 36.1551 35.0307 36.1714 35.2457V38.4C36.1693 38.8265 36.3262 39.2384 36.6115 39.5554C36.8968 39.8724 37.29 40.0716 37.7143 40.1143H40.0114C40.4079 40.0732 40.7752 39.8866 41.0421 39.5906C41.3091 39.2946 41.4569 38.9101 41.4569 38.5114C41.4569 38.1128 41.3091 37.7283 41.0421 37.4323C40.7752 37.1362 40.4079 36.9496 40.0114 36.9086H39.4286V35.1943C39.4152 34.7486 39.2287 34.3257 38.9086 34.0152C38.5886 33.7048 38.1602 33.5312 37.7143 33.5314ZM37.7143 30.72C38.6394 30.711 39.5571 30.8851 40.4145 31.2323C41.272 31.5795 42.0523 32.093 42.7104 32.7432C43.3685 33.3933 43.8915 34.1673 44.2491 35.0205C44.6068 35.8737 44.7921 36.7892 44.7943 37.7143C44.7908 39.0891 44.3811 40.4322 43.6169 41.575C42.8526 42.7178 41.7678 43.6094 40.4986 44.1377C39.2293 44.6661 37.8323 44.8077 36.4829 44.5448C35.1334 44.2818 33.8918 43.6261 32.9137 42.6599C31.9357 41.6937 31.2649 40.4601 30.9856 39.114C30.7062 37.7679 30.8308 36.3692 31.3437 35.0936C31.8565 33.8181 32.7348 32.7225 33.8682 31.9443C35.0016 31.1662 36.3396 30.7403 37.7143 30.72ZM22.2857 25.5771H25.4743V28.8H22.4057L22.2857 25.5771ZM9.48 25.5771H12.8057V28.8H9.6L9.48 25.5771ZM33.2914 22.3886C32.8686 22.4227 32.4766 22.6233 32.2018 22.9464C31.9269 23.2695 31.7916 23.6886 31.8257 24.1114C31.8598 24.5343 32.0605 24.9262 32.3836 25.2011C32.7067 25.476 33.1257 25.6112 33.5486 25.5771H36.8571C37.28 25.5771 37.6855 25.4092 37.9845 25.1102C38.2835 24.8112 38.4514 24.4057 38.4514 23.9829C38.4514 23.56 38.2835 23.1545 37.9845 22.8555C37.6855 22.5565 37.28 22.3886 36.8571 22.3886H33.4286H33.2914ZM19.2 24V30.3943C19.2426 30.8186 19.4419 31.2118 19.7589 31.4971C20.0759 31.7824 20.4878 31.9393 20.9143 31.9371H27.2571C27.665 31.9327 28.0548 31.7687 28.3432 31.4803C28.6316 31.1919 28.7955 30.8021 28.8 30.3943V24C28.8163 23.785 28.7889 23.569 28.7193 23.3649C28.6498 23.1609 28.5395 22.973 28.3953 22.8128C28.2511 22.6525 28.0759 22.5232 27.8802 22.4326C27.6846 22.342 27.4726 22.292 27.2571 22.2857H20.8629C20.6351 22.2664 20.406 22.298 20.192 22.3781C19.9779 22.4582 19.7843 22.5848 19.6252 22.7488C19.4661 22.9129 19.3454 23.1102 19.2719 23.3266C19.1983 23.543 19.1738 23.773 19.2 24ZM6.39429 24V30.3943C6.43693 30.8186 6.6362 31.2118 6.95318 31.4971C7.27017 31.7824 7.68211 31.9393 8.10857 31.9371H14.52C14.9248 31.9283 15.3103 31.7623 15.595 31.4744C15.8797 31.1865 16.0414 30.7992 16.0457 30.3943V24C16.0645 23.7859 16.0393 23.5703 15.9717 23.3663C15.9042 23.1623 15.7956 22.9742 15.6527 22.8137C15.5098 22.6531 15.3357 22.5235 15.1409 22.4327C14.9461 22.3419 14.7348 22.2919 14.52 22.2857H8.05714C7.8323 22.2781 7.60835 22.3176 7.3997 22.4017C7.19105 22.4859 7.00234 22.6128 6.8457 22.7742C6.68906 22.9357 6.56797 23.1282 6.49022 23.3393C6.41248 23.5504 6.3798 23.7755 6.39429 24ZM3.20571 19.2H41.6057V28.2857C40.3578 27.826 39.0436 27.5713 37.7143 27.5314C36.3728 27.5358 35.0456 27.8062 33.8092 28.3267C32.5729 28.8473 31.452 29.6079 30.5115 30.5644C29.5709 31.5209 28.8293 32.6544 28.3296 33.8993C27.8298 35.1442 27.5819 36.4758 27.6 37.8171C27.558 38.5918 27.6449 39.3681 27.8571 40.1143H4.98857C4.55329 40.025 4.15573 39.8047 3.84929 39.483C3.54285 39.1612 3.3422 38.7534 3.27429 38.3143L3.20571 19.2ZM4.92 9.6H6.32571C6.32571 10.8912 6.83865 12.1296 7.75169 13.0426C8.66472 13.9556 9.90306 14.4686 11.1943 14.4686C11.4187 14.4918 11.6455 14.4677 11.86 14.3977C12.0745 14.3277 12.2719 14.2135 12.4394 14.0624C12.607 13.9113 12.7409 13.7267 12.8326 13.5206C12.9243 13.3144 12.9717 13.0913 12.9717 12.8657C12.9717 12.6401 12.9243 12.417 12.8326 12.2109C12.7409 12.0047 12.607 11.8201 12.4394 11.669C12.2719 11.5179 12.0745 11.4037 11.86 11.3337C11.6455 11.2638 11.4187 11.2396 11.1943 11.2629C10.7396 11.2629 10.3036 11.0822 9.9821 10.7608C9.66061 10.4393 9.48 10.0032 9.48 9.54857H28.8C28.8 10.8398 29.3129 12.0781 30.226 12.9912C31.139 13.9042 32.3773 14.4171 33.6686 14.4171C33.893 14.4404 34.1198 14.4162 34.3343 14.3463C34.5488 14.2763 34.7462 14.1621 34.9137 14.011C35.0813 13.8599 35.2152 13.6753 35.3069 13.4691C35.3986 13.263 35.446 13.0399 35.446 12.8143C35.446 12.5887 35.3986 12.3656 35.3069 12.1594C35.2152 11.9533 35.0813 11.7687 34.9137 11.6176C34.7462 11.4665 34.5488 11.3523 34.3343 11.2823C34.1198 11.2123 33.893 11.1882 33.6686 11.2114C33.2139 11.2114 32.7779 11.0308 32.4564 10.7093C32.1349 10.3878 31.9543 9.9518 31.9543 9.49714H39.7543C40.2128 9.55163 40.6396 9.75879 40.9661 10.0853C41.2926 10.4118 41.4998 10.8386 41.5543 11.2971V15.8914H3.20571V11.4C3.27793 10.9515 3.48865 10.5367 3.80836 10.214C4.12807 9.89118 4.54074 9.6765 4.98857 9.6H4.92ZM33.6686 3.20571C33.8867 3.20119 34.1032 3.24402 34.3031 3.33126C34.5031 3.4185 34.6817 3.54806 34.8267 3.71102C34.9718 3.87398 35.0798 4.06646 35.1432 4.27518C35.2067 4.48389 35.2241 4.70389 35.1943 4.92V6.44571H32.0057V4.86857C31.996 4.64761 32.0323 4.42705 32.1125 4.22089C32.1926 4.01474 32.3147 3.82752 32.4711 3.67113C32.6275 3.51473 32.8147 3.39259 33.0209 3.31247C33.227 3.23234 33.4476 3.19599 33.6686 3.20571ZM11.2629 3.20571C11.4816 3.20157 11.6986 3.24451 11.8992 3.3316C12.0999 3.4187 12.2795 3.54792 12.4258 3.71051C12.5721 3.87309 12.6818 4.06524 12.7473 4.27392C12.8129 4.48261 12.8328 4.70295 12.8057 4.92V6.44571H9.6V4.86857C9.59285 4.64827 9.63097 4.42884 9.71201 4.22386C9.79304 4.01888 9.91527 3.8327 10.0711 3.67684C10.227 3.52098 10.4132 3.39876 10.6181 3.31772C10.8231 3.23669 11.0426 3.19856 11.2629 3.20571ZM11.2629 0C9.97163 0 8.73329 0.512937 7.82026 1.42597C6.90722 2.33901 6.39429 3.57735 6.39429 4.86857V6.39429H4.98857C3.67491 6.43326 2.42602 6.97368 1.49831 7.90457C0.570596 8.83547 0.0344683 10.0862 0 11.4V38.2629C0.0344683 39.5766 0.570596 40.8274 1.49831 41.7583C2.42602 42.6892 3.67491 43.2296 4.98857 43.2686H29.1429C29.8919 44.5634 30.9144 45.6793 32.1391 46.5384C33.3637 47.3975 34.761 47.9791 36.2335 48.2427C37.706 48.5063 39.2183 48.4456 40.6649 48.0647C42.1115 47.6838 43.4576 46.992 44.6094 46.0374C45.7612 45.0829 46.6909 43.8886 47.3337 42.5378C47.9765 41.1871 48.317 39.7124 48.3313 38.2165C48.3456 36.7207 48.0335 35.2397 47.4167 33.8769C46.7999 32.5141 45.8933 31.3022 44.76 30.3257V11.4686C44.76 10.1439 44.235 8.87331 43.2999 7.93504C42.3649 6.99678 41.0961 6.46739 39.7714 6.46286H38.4V4.86857C38.4 4.23823 38.2758 3.61405 38.0346 3.03169C37.7934 2.44933 37.4398 1.92018 36.9941 1.47446C36.5484 1.02874 36.0192 0.675172 35.4369 0.43395C34.8545 0.192727 34.2303 0.0685714 33.6 0.0685714C32.9697 0.0685714 32.3455 0.192727 31.7631 0.43395C31.1808 0.675172 30.6516 1.02874 30.2059 1.47446C29.7602 1.92018 29.4066 2.44933 29.1654 3.03169C28.9242 3.61405 28.8 4.23823 28.8 4.86857V6.39429H15.9943V4.86857C16.0036 3.59814 15.5124 2.37511 14.627 1.46402C13.7415 0.55292 12.533 0.0269972 11.2629 0Z" fill="#404040"/>
</svg>
