<svg width="120" height="35" viewBox="0 0 120 35" fill="none" xmlns="http://www.w3.org/2000/svg">
<path fill-rule="evenodd" clip-rule="evenodd" d="M6.55224 0C2.93354 0 0 2.93354 0 6.55224V27.6992C0 31.3179 2.93354 34.2514 6.55225 34.2514H112.693C116.312 34.2514 119.246 31.3179 119.246 27.6992V6.55224C119.246 2.93354 116.312 0 112.693 0H6.55224ZM101.486 13.637V8.87988H96.7288C96.3082 8.87988 95.9049 9.04695 95.6075 9.34433C95.3101 9.64171 95.1431 10.045 95.1431 10.4656V23.1513C95.1431 23.5719 95.3101 23.9752 95.6075 24.2726C95.9049 24.57 96.3082 24.737 96.7288 24.737H106.243C106.664 24.737 107.067 24.57 107.364 24.2726C107.662 23.9752 107.829 23.5719 107.829 23.1513V15.2227H103.072C102.651 15.2227 102.248 15.0557 101.95 14.7583C101.653 14.4609 101.486 14.0576 101.486 13.637ZM102.675 13.637V9.27631L107.432 14.0335H103.072C102.966 14.0335 102.866 13.9917 102.791 13.9173C102.717 13.843 102.675 13.7422 102.675 13.637ZM34.9263 16.6841V13.4252C34.6001 13.4709 34.2804 13.4937 33.9673 13.4937C33.5889 13.4937 33.23 13.4219 32.8908 13.2784C32.558 13.1284 32.2873 12.9131 32.0785 12.6325C31.8697 12.3454 31.7653 11.9964 31.7653 11.5854V8.75709H33.5171V11.5756C33.5171 11.7387 33.5334 11.8855 33.566 12.016C33.6052 12.1399 33.69 12.2378 33.8205 12.3096C33.9575 12.3813 34.1695 12.4172 34.4566 12.4172C34.5284 12.4172 34.6034 12.4139 34.6817 12.4074C34.76 12.4009 34.8415 12.3911 34.9263 12.3781V8.75709H36.6781V16.6841H34.9263ZM37.8855 16.6841V8.75709H41.4478V9.95103H39.6373V11.9181H41.0171V13.1316H39.6373V15.4999H41.4673V16.6841H37.8855ZM42.292 16.6841V8.75709H44.0438V11.8985H44.2199L45.3845 8.75709H47.1265L45.6781 12.4759L47.1754 16.6841H45.3747L44.2199 13.2295H44.0438V16.6841H42.292ZM47.9022 13.7579V12.7402H50.4369V13.7579H47.9022ZM51.1194 16.6841V15.451C51.3412 15.451 51.5206 15.4379 51.6577 15.4118C51.7947 15.3792 51.9023 15.3075 51.9806 15.1965C52.0589 15.0856 52.1209 14.916 52.1665 14.6877C52.2122 14.4593 52.2481 14.1527 52.2742 13.7677C52.3068 13.3828 52.346 12.8935 52.3916 12.2998L52.6461 8.75709H56.8445V16.6841H55.1025V10.0978H54.2315L54.0749 12.6325C54.0292 13.2849 53.9836 13.8493 53.9379 14.3256C53.8922 14.7953 53.8172 15.19 53.7128 15.5097C53.6149 15.8294 53.4649 16.0806 53.2626 16.2633C53.0669 16.4394 52.7961 16.5601 52.4504 16.6254C52.1046 16.6906 51.6609 16.7102 51.1194 16.6841ZM58.0898 16.6841V8.75709H59.4697V13.298L61.4954 8.75709H62.6307V16.6841H61.2214V12.0649L59.1565 16.6841H58.0898ZM66.1033 16.8015C65.5031 16.8015 65.0268 16.6939 64.6745 16.4786C64.3287 16.2567 64.0841 15.9501 63.9405 15.5586C63.797 15.1607 63.7252 14.6942 63.7252 14.1592V11.3016C63.7252 10.7535 63.797 10.2838 63.9405 9.89231C64.0841 9.49433 64.3287 9.18769 64.6745 8.97239C65.0268 8.75709 65.5031 8.64944 66.1033 8.64944C66.6905 8.64944 67.1472 8.7473 67.4734 8.94303C67.8062 9.13223 68.041 9.39973 68.178 9.74551C68.315 10.0913 68.3836 10.4893 68.3836 10.9395V11.6245H66.6709V10.8318C66.6709 10.6752 66.6611 10.5252 66.6416 10.3816C66.6285 10.2381 66.5828 10.1207 66.5046 10.0293C66.4263 9.93146 66.2925 9.88253 66.1033 9.88253C65.9206 9.88253 65.7836 9.93146 65.6923 10.0293C65.6075 10.1272 65.552 10.2511 65.5259 10.4012C65.5063 10.5447 65.4966 10.6981 65.4966 10.8612V14.5898C65.4966 14.7659 65.5096 14.9291 65.5357 15.0791C65.5683 15.2226 65.627 15.3401 65.7119 15.4314C65.8032 15.5162 65.9337 15.5586 66.1033 15.5586C66.286 15.5586 66.4165 15.513 66.4948 15.4216C66.5731 15.3238 66.622 15.1998 66.6416 15.0498C66.6611 14.8997 66.6709 14.7464 66.6709 14.5898V13.7579H68.3836V14.443C68.3836 14.8932 68.315 15.2977 68.178 15.6565C68.0475 16.0088 67.8159 16.2894 67.4832 16.4981C67.157 16.7004 66.697 16.8015 66.1033 16.8015ZM70.0617 16.6841V10.0587H68.8677V8.75709H73.0074V10.0587H71.8232V16.6841H70.0617ZM75.9757 16.8015C75.382 16.8015 74.9123 16.6971 74.5665 16.4884C74.2207 16.2796 73.9728 15.9795 73.8227 15.588C73.6727 15.1965 73.5976 14.7301 73.5976 14.1885V11.2428C73.5976 10.6948 73.6727 10.2283 73.8227 9.84338C73.9728 9.45845 74.2207 9.16486 74.5665 8.9626C74.9123 8.75383 75.382 8.64944 75.9757 8.64944C76.576 8.64944 77.049 8.75383 77.3948 8.9626C77.7471 9.16486 77.9983 9.45845 78.1483 9.84338C78.2984 10.2283 78.3734 10.6948 78.3734 11.2428V14.1885C78.3734 14.7301 78.2984 15.1965 78.1483 15.588C77.9983 15.9795 77.7471 16.2796 77.3948 16.4884C77.049 16.6971 76.576 16.8015 75.9757 16.8015ZM75.9757 15.5586C76.1584 15.5586 76.2922 15.513 76.377 15.4216C76.4618 15.3303 76.5173 15.2129 76.5434 15.0693C76.5695 14.9258 76.5825 14.779 76.5825 14.6289V10.8122C76.5825 10.6557 76.5695 10.5089 76.5434 10.3718C76.5173 10.2283 76.4618 10.1109 76.377 10.0195C76.2922 9.92819 76.1584 9.88253 75.9757 9.88253C75.8061 9.88253 75.6789 9.92819 75.5941 10.0195C75.5093 10.1109 75.4538 10.2283 75.4277 10.3718C75.4016 10.5089 75.3886 10.6557 75.3886 10.8122V14.6289C75.3886 14.779 75.3983 14.9258 75.4179 15.0693C75.444 15.2129 75.4962 15.3303 75.5745 15.4216C75.6593 15.513 75.7931 15.5586 75.9757 15.5586ZM79.4395 16.6841V8.75709H81.5045C81.8437 8.75709 82.1634 8.78319 82.4635 8.83538C82.7702 8.88757 83.0409 8.9887 83.2758 9.13876C83.5107 9.28229 83.6934 9.49107 83.8238 9.76509C83.9608 10.0326 84.0294 10.3882 84.0294 10.8318C84.0294 11.1515 83.9804 11.4223 83.8826 11.6441C83.7912 11.8594 83.6575 12.0323 83.4813 12.1628C83.3117 12.2932 83.1062 12.3813 82.8648 12.427C83.1714 12.4661 83.4291 12.5673 83.6379 12.7304C83.8467 12.887 84.0033 13.099 84.1076 13.3665C84.2186 13.634 84.274 13.9569 84.274 14.3353C84.274 14.7464 84.2186 15.1019 84.1076 15.4021C84.0033 15.6957 83.8499 15.9371 83.6477 16.1263C83.4454 16.3155 83.1942 16.4557 82.8941 16.5471C82.6005 16.6384 82.2613 16.6841 81.8763 16.6841H79.4395ZM81.1913 15.4608H81.5632C81.9481 15.4608 82.2123 15.3629 82.3559 15.1672C82.5059 14.9715 82.581 14.6844 82.581 14.306C82.581 14.0059 82.5483 13.7677 82.4831 13.5916C82.4179 13.4154 82.3102 13.2882 82.1601 13.2099C82.0101 13.1251 81.8078 13.0827 81.5534 13.0827H81.1913V15.4608ZM81.1913 11.9279H81.5338C81.8013 11.9279 82.0036 11.8887 82.1406 11.8104C82.2776 11.7256 82.3689 11.6049 82.4146 11.4484C82.4668 11.2918 82.4929 11.1026 82.4929 10.8807C82.4929 10.672 82.4537 10.4991 82.3754 10.3621C82.3037 10.2185 82.1928 10.1109 82.0427 10.0391C81.8992 9.96734 81.7165 9.93146 81.4947 9.93146H81.1913V11.9279ZM34.6204 25.6841V20.8392H35.4997V22.8669H36.4866V20.8392H37.3718V25.6841H36.4866V23.4949H35.4997V25.6841H34.6204ZM37.8679 25.6841L38.8369 20.8392H39.7819L40.7509 25.6841H39.9315L39.7401 24.5656H38.8967L38.6993 25.6841H37.8679ZM39.6444 24.0033L39.3154 21.9697L38.9864 24.0033H39.6444ZM42.6926 25.6841V20.8392H43.8829C44.0982 20.8392 44.2916 20.8592 44.463 20.899C44.6385 20.9389 44.788 21.0067 44.9116 21.1024C45.0392 21.1941 45.1369 21.3197 45.2047 21.4792C45.2725 21.6387 45.3064 21.8401 45.3064 22.0833C45.3064 22.2787 45.2785 22.4462 45.2227 22.5858C45.1708 22.7253 45.0931 22.837 44.9894 22.9207C44.8857 23.0005 44.7561 23.0543 44.6006 23.0822C44.792 23.1141 44.9495 23.1819 45.0731 23.2856C45.2007 23.3853 45.2944 23.5169 45.3543 23.6803C45.4181 23.8438 45.45 24.0412 45.45 24.2725C45.45 24.5038 45.4201 24.7091 45.3602 24.8886C45.3044 25.064 45.2187 25.2116 45.1031 25.3312C44.9914 25.4468 44.8498 25.5345 44.6784 25.5944C44.5109 25.6542 44.3135 25.6841 44.0862 25.6841H42.6926ZM43.5778 25.062H43.9128C44.1799 25.062 44.3614 24.9982 44.4571 24.8706C44.5528 24.739 44.6006 24.5377 44.6006 24.2665C44.6006 24.0711 44.5767 23.9136 44.5288 23.794C44.485 23.6704 44.4092 23.5787 44.3016 23.5188C44.1979 23.459 44.0583 23.4291 43.8829 23.4291H43.5778V25.062ZM43.5778 22.819H43.8769C44.0523 22.819 44.1879 22.7931 44.2836 22.7413C44.3793 22.6894 44.4451 22.6097 44.481 22.502C44.5209 22.3944 44.5408 22.2588 44.5408 22.0953C44.5408 21.9238 44.5109 21.7922 44.4511 21.7005C44.3953 21.6048 44.3095 21.541 44.1939 21.5091C44.0783 21.4732 43.9307 21.4553 43.7513 21.4553H43.5778V22.819ZM46.034 25.6841V20.8392H46.9132V22.8729H47.1286C47.4595 22.8729 47.7347 22.9187 47.954 23.0104C48.1733 23.0982 48.3388 23.2457 48.4504 23.4531C48.5621 23.6564 48.6179 23.9316 48.6179 24.2785C48.6179 24.5496 48.582 24.7769 48.5102 24.9603C48.4425 25.1398 48.3428 25.2833 48.2112 25.391C48.0796 25.4987 47.9201 25.5744 47.7327 25.6183C47.5453 25.6622 47.3319 25.6841 47.0927 25.6841H46.034ZM46.9132 25.086H47.0987C47.2661 25.086 47.4017 25.062 47.5054 25.0142C47.6091 24.9663 47.6848 24.8826 47.7327 24.763C47.7805 24.6393 47.8025 24.4719 47.7985 24.2605C47.7985 24.0093 47.7486 23.8179 47.6489 23.6863C47.5493 23.5547 47.3618 23.4889 47.0867 23.4889H46.9132V25.086ZM49.0725 25.6841V20.8392H49.9517V25.6841H49.0725ZM50.7069 25.6841V20.8392H52.9559V21.4972H51.5861V22.8729H51.7775C52.1045 22.8729 52.3777 22.9187 52.597 23.0104C52.8203 23.0982 52.9878 23.2457 53.0994 23.4531C53.2111 23.6564 53.2669 23.9316 53.2669 24.2785C53.2669 24.5496 53.233 24.7769 53.1652 24.9603C53.0974 25.1398 52.9957 25.2833 52.8602 25.391C52.7286 25.4987 52.5691 25.5744 52.3817 25.6183C52.1942 25.6622 51.9809 25.6841 51.7417 25.6841H50.7069ZM51.5861 25.086H51.7476C51.9151 25.086 52.0507 25.062 52.1544 25.0142C52.258 24.9663 52.3338 24.8826 52.3817 24.763C52.4295 24.6393 52.4514 24.4719 52.4474 24.2605C52.4435 24.0093 52.3916 23.8179 52.2919 23.6863C52.1962 23.5547 52.0108 23.4889 51.7357 23.4889H51.5861V25.086ZM55.1533 25.7499C54.8104 25.7499 54.5373 25.6861 54.3339 25.5585C54.1305 25.4309 53.985 25.2474 53.8973 25.0082C53.8095 24.7689 53.7657 24.4858 53.7657 24.1588V22.3465C53.7657 22.0195 53.8095 21.7404 53.8973 21.5091C53.985 21.2739 54.1305 21.0944 54.3339 20.9708C54.5373 20.8472 54.8104 20.7854 55.1533 20.7854C55.5042 20.7854 55.7794 20.8472 55.9788 20.9708C56.1821 21.0944 56.3277 21.2739 56.4154 21.5091C56.5071 21.7404 56.553 22.0195 56.553 22.3465V24.1648C56.553 24.4878 56.5071 24.7689 56.4154 25.0082C56.3277 25.2435 56.1821 25.4269 55.9788 25.5585C55.7794 25.6861 55.5042 25.7499 55.1533 25.7499ZM55.1533 25.0979C55.3009 25.0979 55.4085 25.066 55.4763 25.0022C55.5481 24.9384 55.596 24.8507 55.6199 24.739C55.6438 24.6274 55.6558 24.5058 55.6558 24.3742V22.1431C55.6558 22.0076 55.6438 21.8859 55.6199 21.7783C55.596 21.6706 55.5481 21.5869 55.4763 21.5271C55.4085 21.4633 55.3009 21.4314 55.1533 21.4314C55.0138 21.4314 54.9081 21.4633 54.8363 21.5271C54.7646 21.5869 54.7167 21.6706 54.6928 21.7783C54.6689 21.8859 54.6569 22.0076 54.6569 22.1431V24.3742C54.6569 24.5058 54.6669 24.6274 54.6868 24.739C54.7107 24.8507 54.7586 24.9384 54.8303 25.0022C54.9021 25.066 55.0098 25.0979 55.1533 25.0979ZM57.2078 25.6841V20.8392H58.6313C58.9224 20.8392 59.1577 20.893 59.3371 21.0007C59.5206 21.1084 59.6541 21.2659 59.7379 21.4732C59.8256 21.6766 59.8695 21.9238 59.8695 22.2149C59.8695 22.5299 59.8156 22.7851 59.708 22.9805C59.6003 23.1719 59.4488 23.3115 59.2534 23.3992C59.062 23.4869 58.8347 23.5308 58.5715 23.5308H58.093V25.6841H57.2078ZM58.093 22.9088H58.428C58.5875 22.9088 58.7111 22.8868 58.7988 22.843C58.8905 22.7951 58.9523 22.7213 58.9842 22.6216C59.0201 22.518 59.0381 22.3804 59.0381 22.2089C59.0381 22.0335 59.0241 21.8919 58.9962 21.7843C58.9723 21.6726 58.9164 21.5909 58.8287 21.539C58.745 21.4872 58.6114 21.4613 58.428 21.4613H58.093V22.9088ZM21.3532 11.3998L17.912 24.7539H21.099L24.5402 11.1652V8.91673H17.0322V11.3998H21.3532Z" fill="white"/>
</svg>
