<svg width="233" height="233" viewBox="0 0 233 233" fill="none" xmlns="http://www.w3.org/2000/svg">
<path d="M116.5 0L119.294 72.0888L131.101 0.91864L124.838 72.7892L145.472 3.66006L130.251 74.1789L159.387 8.18104L135.447 76.2361L172.624 14.4103L140.344 78.9282L184.977 22.2495L144.865 82.2129L196.25 31.5752L148.938 86.0383L206.265 42.2401L152.5 90.3441L214.864 54.0762L155.495 95.0624L221.912 66.8967L157.874 100.119L227.298 80.4995L159.601 105.434L230.936 94.6701L160.648 110.923L232.77 109.185L160.999 116.5L232.77 123.815L160.648 122.077L230.936 138.33L159.601 127.566L227.298 152.5L157.874 132.881L221.912 166.103L155.495 137.938L214.864 178.924L152.5 142.656L206.265 190.76L148.938 146.962L196.25 201.425L144.865 150.787L184.977 210.75L140.344 154.072L172.624 218.59L135.447 156.764L159.387 224.819L130.251 158.821L145.472 229.34L124.838 160.211L131.101 232.081L119.294 160.911L116.5 233L113.706 160.911L101.899 232.081L108.162 160.211L87.5276 229.34L102.749 158.821L73.6135 224.819L97.5532 156.764L60.3757 218.59L92.6562 154.072L48.023 210.75L88.1352 150.787L36.7503 201.425L84.0616 146.962L26.7352 190.76L80.4995 142.656L18.1358 178.924L77.5052 137.938L11.0876 166.103L75.1258 132.881L5.70192 152.5L73.399 127.566L2.06354 138.33L72.3518 122.077L0.229889 123.815L72.001 116.5L0.229889 109.185L72.3518 110.923L2.06354 94.6701L73.399 105.434L5.70192 80.4995L75.1258 100.119L11.0876 66.8967L77.5052 95.0624L18.1358 54.0762L80.4995 90.3441L26.7352 42.2401L84.0616 86.0383L36.7503 31.5752L88.1352 82.2129L48.023 22.2495L92.6562 78.9282L60.3757 14.4103L97.5532 76.2361L73.6135 8.18104L102.749 74.1789L87.5276 3.66006L108.162 72.7892L101.899 0.91864L113.706 72.0888L116.5 0Z" fill="#EB01FF"/>
</svg>
