<svg width="217" height="213" viewBox="0 0 217 213" fill="none" xmlns="http://www.w3.org/2000/svg">
<path d="M180 213C189.813 213 199.224 201.78 206.163 181.807C213.102 161.834 217 134.746 217 106.5C217 78.2545 213.102 51.1658 206.163 31.1931C199.224 11.2205 189.813 1.0706e-05 180 6.01207e-06L180 106.5L180 213Z" fill="#0075FF"/>
<path d="M100 213C121.217 213 141.566 201.78 156.569 181.807C171.571 161.834 180 134.746 180 106.5C180 78.2545 171.571 51.1658 156.569 31.1931C141.566 11.2205 121.217 9.32488e-06 100 4.13248e-06L100 106.5L100 213Z" fill="#0075FF"/>
<path d="M-1.68113e-06 213C26.5216 213 51.957 201.78 70.7107 181.807C89.4643 161.834 100 134.746 100 106.5C100 78.2545 89.4643 51.1658 70.7107 31.1931C51.9571 11.2205 26.5217 8.68251e-06 2.28882e-05 3.25826e-06L2.97413e-06 106.5L-1.68113e-06 213Z" fill="#0075FF"/>
</svg>
