<svg width="147" height="159" viewBox="0 0 147 159" fill="none" xmlns="http://www.w3.org/2000/svg">
<g filter="url(#filter0_b_111_469)">
<rect width="147" height="159" rx="10" fill="white" fill-opacity="0.4"/>
</g>
<g opacity="0.79">
<path fill-rule="evenodd" clip-rule="evenodd" d="M89.5352 104.113C93.6038 106.875 96.4547 110.617 96.4547 115.606V124.515H108.334V115.606C108.334 109.132 97.7317 105.301 89.5352 104.113Z" fill="white"/>
<path d="M66.7579 100.758C73.3184 100.758 78.6368 95.4394 78.6368 88.8788C78.6368 82.3183 73.3184 77 66.7579 77C60.1974 77 54.8791 82.3183 54.8791 88.8788C54.8791 95.4394 60.1974 100.758 66.7579 100.758Z" fill="white"/>
<path fill-rule="evenodd" clip-rule="evenodd" d="M84.576 100.758C91.139 100.758 96.4548 95.4419 96.4548 88.8788C96.4548 82.3158 91.139 77 84.576 77C83.1802 77 81.8735 77.297 80.6263 77.7127C83.1818 80.8731 84.5759 84.8145 84.5759 88.8788C84.5759 92.9432 83.1818 96.8845 80.6263 100.045C81.8735 100.461 83.1802 100.758 84.576 100.758ZM66.7577 103.727C58.8286 103.727 43 107.707 43 115.606V124.515H90.5154V115.606C90.5154 107.707 74.6868 103.727 66.7577 103.727Z" fill="white"/>
</g>
<g filter="url(#filter1_d_111_469)">
<rect x="26" y="19" width="112" height="18.7644" rx="4.89442" fill="white" fill-opacity="0.8"/>
<path d="M35.9012 25.5757V30.8639H36.7533L39.2451 27.2618H39.289V30.8639H40.247V25.5757H39.3897L36.9005 29.1803H36.854V25.5757H35.9012ZM41.2934 30.8639H42.2513V28.6174H44.7018V30.8639H45.6623V25.5757H44.7018V27.8144H42.2513V25.5757H41.2934V30.8639ZM46.4718 26.3787H48.1063V30.8639H49.0566V26.3787H50.6911V25.5757H46.4718V26.3787ZM51.5044 30.8639H54.9645V30.0608H52.4624V28.6174H54.7657V27.8144H52.4624V26.3787H54.9439V25.5757H51.5044V30.8639ZM55.9212 30.8639H56.8792V29.0771H57.8914C59.1127 29.0771 59.7686 28.3437 59.7686 27.3264C59.7686 26.3167 59.1205 25.5757 57.9043 25.5757H55.9212V30.8639ZM56.8792 28.2895V26.3761H57.7571C58.4749 26.3761 58.7925 26.7635 58.7925 27.3264C58.7925 27.8893 58.4749 28.2895 57.7623 28.2895H56.8792ZM60.6007 30.8639H61.5587V28.6174H64.0091V30.8639H64.9697V25.5757H64.0091V27.8144H61.5587V25.5757H60.6007V30.8639ZM66.0116 30.8639H69.4716V30.0608H66.9695V28.6174H69.2728V27.8144H66.9695V26.3787H69.451V25.5757H66.0116V30.8639ZM70.1959 26.3787H71.8304V30.8639H72.7806V26.3787H74.4151V25.5757H70.1959V26.3787ZM77.2716 27.835H74.8909V28.6045H77.2716V27.835ZM78.2961 25.5757V30.8639H79.2153V27.2231H79.2644L80.7259 30.8484H81.4127L82.8742 27.2308H82.9233V30.8639H83.8425V25.5757H82.6702L81.1003 29.4076H81.0383L79.4684 25.5757H78.2961ZM85.5648 30.8639L86.0012 29.5599H87.9894L88.4284 30.8639H89.4509L87.5866 25.5757H86.404L84.5423 30.8639H85.5648ZM86.2594 28.7904L86.9747 26.6602H87.016L87.7312 28.7904H86.2594ZM90.1475 30.8639H91.1054V29.0771H92.1176C93.339 29.0771 93.9949 28.3437 93.9949 27.3264C93.9949 26.3167 93.3467 25.5757 92.1305 25.5757H90.1475V30.8639ZM91.1054 28.2895V26.3761H91.9834C92.7012 26.3761 93.0188 26.7635 93.0188 27.3264C93.0188 27.8893 92.7012 28.2895 91.9885 28.2895H91.1054ZM97.9952 30.8639H99.1753L96.9959 27.9874L99.0849 25.5757H97.9049L96.0251 27.7498H95.7849V25.5757H94.8269V30.8639H95.7849V28.5529H96.2549L97.9952 30.8639ZM99.826 30.8639H103.286V30.0608H100.784V28.6174H103.087V27.8144H100.784V26.3787H103.265V25.5757H99.826V30.8639ZM104.01 26.3787H105.645V30.8639H106.595V26.3787H108.23V25.5757H104.01V26.3787ZM109.04 25.5757V30.8639H109.892L112.384 27.2618H112.428V30.8639H113.386V25.5757H112.529L110.04 29.1803H109.993V25.5757H109.04ZM114.432 30.8639H115.39V28.6174H117.841V30.8639H118.801V25.5757H117.841V27.8144H115.39V25.5757H114.432V30.8639ZM123.244 25.5757H119.843V30.8639H120.801V26.3787H123.244V25.5757ZM124.094 30.8639L124.531 29.5599H126.519L126.958 30.8639H127.98L126.116 25.5757H124.933L123.072 30.8639H124.094ZM124.789 28.7904L125.504 26.6602H125.545L126.261 28.7904H124.789Z" fill="#5109F8"/>
</g>
<g filter="url(#filter2_d_111_469)">
<rect x="103" y="57" width="36.356" height="18.7644" rx="4.89442" fill="white" fill-opacity="0.8"/>
<path d="M112.904 63.5758V68.864H113.823V65.2232H113.872L115.334 68.8485H116.02L117.482 65.2309H117.531V68.864H118.45V63.5758H117.278L115.708 67.4077H115.646L114.076 63.5758H112.904ZM119.493 68.864H122.78V68.061H120.451V63.5758H119.493V68.864ZM123.612 63.5758V68.864H124.531V65.2232H124.58L126.042 68.8485H126.729L128.19 65.2309H128.239V68.864H129.158V63.5758H127.986L126.416 67.4077H126.354L124.784 63.5758H123.612Z" fill="#5109F8"/>
</g>
<g filter="url(#filter3_d_111_469)">
<rect x="7" y="45" width="75.644" height="18.7644" rx="4.89442" fill="white" fill-opacity="0.8"/>
<path d="M21.6292 54.2198C21.6292 52.5104 20.586 51.5034 19.1994 51.5034C17.8102 51.5034 16.7696 52.5104 16.7696 54.2198C16.7696 55.9266 17.8102 56.9362 19.1994 56.9362C20.586 56.9362 21.6292 55.9292 21.6292 54.2198ZM20.666 54.2198C20.666 55.4231 20.0618 56.0763 19.1994 56.0763C18.3395 56.0763 17.7327 55.4231 17.7327 54.2198C17.7327 53.0165 18.3395 52.3632 19.1994 52.3632C20.0618 52.3632 20.666 53.0165 20.666 54.2198ZM22.5349 56.8639H23.4928V55.0771H24.505C25.7264 55.0771 26.3822 54.3437 26.3822 53.3264C26.3822 52.3167 25.7341 51.5757 24.5179 51.5757H22.5349V56.8639ZM23.4928 54.2895V52.3761H24.3708C25.0886 52.3761 25.4062 52.7635 25.4062 53.3264C25.4062 53.8893 25.0886 54.2895 24.3759 54.2895H23.4928ZM30.615 51.5757H27.2143V56.8639H28.1723V52.3787H30.615V51.5757ZM31.4652 56.8639L31.9016 55.5599H33.8898L34.3288 56.8639H35.3513L33.487 51.5757H32.3044L30.4427 56.8639H31.4652ZM32.1598 54.7904L32.875 52.6602H32.9164L33.6316 54.7904H32.1598ZM36.0478 56.8639H37.0058V54.6174H39.4563V56.8639H40.4168V51.5757H39.4563V53.8144H37.0058V51.5757H36.0478V56.8639ZM41.4561 51.5757V56.8639H42.3082L44.8 53.2618H44.8439V56.8639H45.8019V51.5757H44.9446L42.4554 55.1803H42.4089V51.5757H41.4561ZM48.6945 56.9362C49.8255 56.9362 50.6492 56.2881 50.6466 55.3947C50.6492 54.7336 50.2361 54.2585 49.495 54.1526V54.1113C50.0682 53.9874 50.453 53.5613 50.4504 52.9674C50.453 52.1618 49.7661 51.5034 48.71 51.5034C47.6823 51.5034 46.887 52.1153 46.8664 53.001H47.7882C47.8037 52.5569 48.2168 52.2806 48.7049 52.2806C49.198 52.2806 49.526 52.5801 49.5234 53.0242C49.526 53.4865 49.1438 53.7937 48.5964 53.7937H48.129V54.5322H48.5964C49.2652 54.5322 49.6628 54.8679 49.6602 55.3456C49.6628 55.813 49.2574 56.1331 48.6919 56.1331C48.16 56.1331 47.7495 55.8569 47.7262 55.4256H46.7553C46.7812 56.3191 47.579 56.9362 48.6945 56.9362ZM52.2637 56.8639L52.7001 55.5599H54.6883L55.1273 56.8639H56.1498L54.2855 51.5757H53.1029L51.2412 56.8639H52.2637ZM52.9583 54.7904L53.6735 52.6602H53.7149L54.4301 54.7904H52.9583ZM61.7395 56.0634H61.0681V51.5757H60.1412V56.0686H57.7656V51.5757H56.8463V56.8639H60.7402V58.1136H61.6698L61.7395 56.0634ZM62.5174 51.5757V56.8639H63.3695L65.8612 53.2618H65.9051V56.8639H66.8631V51.5757H66.0058L63.5167 55.1803H63.4702V51.5757H62.5174ZM67.9069 51.5757V56.8639H68.759L71.2508 53.2618H71.2947V56.8639H72.2527V51.5757H71.3954L68.9062 55.1803H68.8597V51.5757H67.9069Z" fill="#5109F8"/>
</g>
<defs>
<filter id="filter0_b_111_469" x="-9.52885" y="-9.52885" width="166.058" height="178.058" filterUnits="userSpaceOnUse" color-interpolation-filters="sRGB">
<feFlood flood-opacity="0" result="BackgroundImageFix"/>
<feGaussianBlur in="BackgroundImage" stdDeviation="4.76442"/>
<feComposite in2="SourceAlpha" operator="in" result="effect1_backgroundBlur_111_469"/>
<feBlend mode="normal" in="SourceGraphic" in2="effect1_backgroundBlur_111_469" result="shape"/>
</filter>
<filter id="filter1_d_111_469" x="23.6545" y="19" width="116.691" height="23.4555" filterUnits="userSpaceOnUse" color-interpolation-filters="sRGB">
<feFlood flood-opacity="0" result="BackgroundImageFix"/>
<feColorMatrix in="SourceAlpha" type="matrix" values="0 0 0 0 0 0 0 0 0 0 0 0 0 0 0 0 0 0 127 0" result="hardAlpha"/>
<feOffset dy="2.34555"/>
<feGaussianBlur stdDeviation="1.17277"/>
<feComposite in2="hardAlpha" operator="out"/>
<feColorMatrix type="matrix" values="0 0 0 0 0 0 0 0 0 0 0 0 0 0 0 0 0 0 0.05 0"/>
<feBlend mode="normal" in2="BackgroundImageFix" result="effect1_dropShadow_111_469"/>
<feBlend mode="normal" in="SourceGraphic" in2="effect1_dropShadow_111_469" result="shape"/>
</filter>
<filter id="filter2_d_111_469" x="100.654" y="57" width="41.0471" height="23.4555" filterUnits="userSpaceOnUse" color-interpolation-filters="sRGB">
<feFlood flood-opacity="0" result="BackgroundImageFix"/>
<feColorMatrix in="SourceAlpha" type="matrix" values="0 0 0 0 0 0 0 0 0 0 0 0 0 0 0 0 0 0 127 0" result="hardAlpha"/>
<feOffset dy="2.34555"/>
<feGaussianBlur stdDeviation="1.17277"/>
<feComposite in2="hardAlpha" operator="out"/>
<feColorMatrix type="matrix" values="0 0 0 0 0 0 0 0 0 0 0 0 0 0 0 0 0 0 0.05 0"/>
<feBlend mode="normal" in2="BackgroundImageFix" result="effect1_dropShadow_111_469"/>
<feBlend mode="normal" in="SourceGraphic" in2="effect1_dropShadow_111_469" result="shape"/>
</filter>
<filter id="filter3_d_111_469" x="4.65445" y="45" width="80.3351" height="23.4555" filterUnits="userSpaceOnUse" color-interpolation-filters="sRGB">
<feFlood flood-opacity="0" result="BackgroundImageFix"/>
<feColorMatrix in="SourceAlpha" type="matrix" values="0 0 0 0 0 0 0 0 0 0 0 0 0 0 0 0 0 0 127 0" result="hardAlpha"/>
<feOffset dy="2.34555"/>
<feGaussianBlur stdDeviation="1.17277"/>
<feComposite in2="hardAlpha" operator="out"/>
<feColorMatrix type="matrix" values="0 0 0 0 0 0 0 0 0 0 0 0 0 0 0 0 0 0 0.05 0"/>
<feBlend mode="normal" in2="BackgroundImageFix" result="effect1_dropShadow_111_469"/>
<feBlend mode="normal" in="SourceGraphic" in2="effect1_dropShadow_111_469" result="shape"/>
</filter>
</defs>
</svg>
