<svg width="147" height="159" viewBox="0 0 147 159" fill="none" xmlns="http://www.w3.org/2000/svg">
<g filter="url(#filter0_b_111_472)">
<rect width="147" height="159" rx="10" fill="white" fill-opacity="0.4"/>
</g>
<g filter="url(#filter1_d_111_472)">
<rect x="34" y="21" width="87" height="32" rx="8.34674" fill="white" fill-opacity="0.8"/>
<path d="M54.4695 31.9817H52.9151L50.6737 33.4216V34.9188L52.783 33.5713H52.8358V41H54.4695V31.9817ZM59.9232 31.9817V41H61.4909V34.7911H61.5745L64.0669 40.9736H65.2382L67.7306 34.8043H67.8142V41H69.3819V31.9817H67.3827L64.7054 38.5164H64.5997L61.9224 31.9817H59.9232ZM71.1609 41H77.0615V39.6305H72.7946V37.169H76.7225V35.7995H72.7946V33.3512H77.0263V31.9817H71.1609V41ZM86.4123 35.0245C86.1349 33.0209 84.5937 31.8584 82.5945 31.8584C80.2386 31.8584 78.464 33.5757 78.464 36.4908C78.464 39.4015 80.2166 41.1233 82.5945 41.1233C84.739 41.1233 86.1613 39.7362 86.4123 38.0144L84.7654 38.0056C84.5584 39.0625 83.6954 39.6569 82.6165 39.6569C81.1546 39.6569 80.1065 38.5605 80.1065 36.4908C80.1065 34.4564 81.1458 33.3247 82.6209 33.3247C83.7174 33.3247 84.5761 33.9456 84.7654 35.0245H86.4123ZM94.1965 41V31.9817H90.8147C88.745 31.9817 87.6354 33.1442 87.6354 34.866C87.6354 36.0901 88.1946 36.9972 89.2559 37.4244L87.3051 41H89.1281L90.8983 37.6974H92.5629V41H94.1965ZM92.5629 36.3411H91.0569C89.8459 36.3411 89.2999 35.8259 89.2999 34.866C89.2999 33.906 89.8459 33.3468 91.0657 33.3468H92.5629V36.3411ZM104.318 39.6349H103.173V31.9817H101.592V39.6437H97.541V31.9817H95.9733V41H102.614V43.1313H104.199L104.318 39.6349Z" fill="#5109F8"/>
</g>
<path d="M29.6633 128.274C33.478 128.274 36.2754 125.457 36.2754 121.623C36.2754 117.739 33.5758 114.893 29.898 114.893C28.5482 114.893 27.2375 115.372 26.4159 116.028H26.2985L27.0027 110.12H35.3756V107.968H24.9682L23.7553 117.827L26.0246 118.101C26.856 117.505 28.2743 117.074 29.5068 117.084C32.0597 117.104 33.9279 119.04 33.9279 121.662C33.9279 124.234 32.1282 126.122 29.6633 126.122C27.6092 126.122 25.9757 124.802 25.7899 122.992H23.4423C23.5891 126.044 26.2202 128.274 29.6633 128.274ZM46.695 128.274C51.1162 128.274 53.6593 124.528 53.6593 117.984C53.6593 111.489 51.077 107.694 46.695 107.694C42.313 107.694 39.7307 111.489 39.7307 117.984C39.7307 124.528 42.2739 128.274 46.695 128.274ZM46.695 126.122C43.7802 126.122 42.0782 123.197 42.0782 117.984C42.0782 112.78 43.7997 109.807 46.695 109.807C49.5903 109.807 51.3118 112.78 51.3118 117.984C51.3118 123.197 49.6098 126.122 46.695 126.122ZM58.3984 128.157C59.3667 128.157 60.159 127.364 60.159 126.396C60.159 125.428 59.3667 124.635 58.3984 124.635C57.43 124.635 56.6377 125.428 56.6377 126.396C56.6377 127.364 57.43 128.157 58.3984 128.157ZM70.0968 128.274C74.518 128.274 77.0612 124.528 77.0612 117.984C77.0612 111.489 74.4789 107.694 70.0968 107.694C65.7148 107.694 63.1325 111.489 63.1325 117.984C63.1325 124.528 65.6757 128.274 70.0968 128.274ZM70.0968 126.122C67.182 126.122 65.4801 123.197 65.4801 117.984C65.4801 112.78 67.2016 109.807 70.0968 109.807C72.9921 109.807 74.7136 112.78 74.7136 117.984C74.7136 123.197 73.0117 126.122 70.0968 126.122ZM87.312 128.274C91.7332 128.274 94.2763 124.528 94.2763 117.984C94.2763 111.489 91.694 107.694 87.312 107.694C82.93 107.694 80.3477 111.489 80.3477 117.984C80.3477 124.528 82.8908 128.274 87.312 128.274ZM87.312 126.122C84.3972 126.122 82.6952 123.197 82.6952 117.984C82.6952 112.78 84.4167 109.807 87.312 109.807C90.2073 109.807 91.9288 112.78 91.9288 117.984C91.9288 123.197 90.2268 126.122 87.312 126.122ZM104.527 128.274C108.948 128.274 111.491 124.528 111.491 117.984C111.491 111.489 108.909 107.694 104.527 107.694C100.145 107.694 97.5628 111.489 97.5628 117.984C97.5628 124.528 100.106 128.274 104.527 128.274ZM104.527 126.122C101.612 126.122 99.9103 123.197 99.9103 117.984C99.9103 112.78 101.632 109.807 104.527 109.807C107.422 109.807 109.144 112.78 109.144 117.984C109.144 123.197 107.442 126.122 104.527 126.122ZM124.325 119.862C128.785 119.862 130.858 117.162 130.858 113.915C130.858 110.667 128.785 107.968 124.325 107.968H117.321V117.71H114.152V119.862H117.321V121.74H114.152V123.892H117.321V128H119.747V123.892H124.168V121.74H119.747V119.862H124.325ZM119.747 117.71V110.12H124.325C127.142 110.12 128.472 111.724 128.472 113.915C128.472 116.106 127.142 117.71 124.325 117.71H119.747Z" fill="white"/>
<rect x="41.7749" y="75" width="0.412162" height="20.6081" fill="white"/>
<rect x="72.2749" y="75" width="0.412162" height="20.6081" fill="white"/>
<rect x="102.363" y="75" width="0.412162" height="20.6081" fill="white"/>
<rect x="132.451" y="75" width="0.412162" height="20.6081" fill="white"/>
<path fill-rule="evenodd" clip-rule="evenodd" d="M62.7951 75.8243C62.7951 75.3691 63.1641 75 63.6194 75C64.0746 75 64.4437 75.3691 64.4437 75.8243V89.0135C64.4437 89.4688 64.0746 89.8378 63.6194 89.8378C63.1641 89.8378 62.7951 89.4688 62.7951 89.0135V75.8243ZM60.3222 83.6553C59.867 83.6553 59.4979 84.0244 59.4979 84.4797V89.0134C59.4979 89.4687 59.867 89.8378 60.3222 89.8378C60.7775 89.8378 61.1466 89.4687 61.1466 89.0134V84.4797C61.1466 84.0244 60.7775 83.6553 60.3222 83.6553ZM56.2108 89.0135C55.9832 89.0135 55.7987 89.1981 55.7987 89.4257C55.7987 89.6533 55.9832 89.8378 56.2108 89.8378H56.936C57.1637 89.8378 57.3482 89.6533 57.3482 89.4257C57.3482 89.1981 57.1637 89.0135 56.936 89.0135H56.2108ZM108.482 89.8378H108.957H109.207H109.782C110.009 89.8378 110.194 89.6533 110.194 89.4257C110.194 89.1981 110.009 89.0135 109.782 89.0135H109.207H108.957H108.482C108.255 89.0135 108.07 89.1981 108.07 89.4257C108.07 89.6533 108.255 89.8378 108.482 89.8378ZM105.383 89.0135C105.156 89.0135 104.971 89.1981 104.971 89.4257C104.971 89.6533 105.156 89.8378 105.383 89.8378H106.109C106.336 89.8378 106.521 89.6533 106.521 89.4257C106.521 89.1981 106.336 89.0135 106.109 89.0135H105.383ZM111.581 89.0135C111.354 89.0135 111.169 89.1981 111.169 89.4257C111.169 89.6533 111.354 89.8378 111.581 89.8378H112.307C112.534 89.8378 112.719 89.6533 112.719 89.4257C112.719 89.1981 112.534 89.0135 112.307 89.0135H111.581ZM114.269 89.4257C114.269 89.1981 114.453 89.0135 114.681 89.0135H115.406C115.633 89.0135 115.818 89.1981 115.818 89.4257C115.818 89.6533 115.633 89.8378 115.406 89.8378H114.681C114.453 89.8378 114.269 89.6533 114.269 89.4257ZM117.78 89.0135C117.552 89.0135 117.368 89.1981 117.368 89.4257C117.368 89.6533 117.552 89.8378 117.78 89.8378H118.505C118.733 89.8378 118.917 89.6533 118.917 89.4257C118.917 89.1981 118.733 89.0135 118.505 89.0135H117.78ZM120.467 89.4257C120.467 89.1981 120.651 89.0135 120.879 89.0135H121.604C121.832 89.0135 122.016 89.1981 122.016 89.4257C122.016 89.6533 121.832 89.8378 121.604 89.8378H120.879C120.651 89.8378 120.467 89.6533 120.467 89.4257ZM123.978 89.0135C123.75 89.0135 123.566 89.1981 123.566 89.4257C123.566 89.6533 123.75 89.8378 123.978 89.8378H124.703C124.931 89.8378 125.115 89.6533 125.115 89.4257C125.115 89.1981 124.931 89.0135 124.703 89.0135H123.978ZM126.665 89.4257C126.665 89.1981 126.849 89.0135 127.077 89.0135H127.802C128.03 89.0135 128.214 89.1981 128.214 89.4257C128.214 89.6533 128.03 89.8378 127.802 89.8378H127.077C126.849 89.8378 126.665 89.6533 126.665 89.4257ZM130.176 89.0135C129.948 89.0135 129.763 89.1981 129.763 89.4257C129.763 89.6533 129.948 89.8378 130.176 89.8378H130.901C131.128 89.8378 131.313 89.6533 131.313 89.4257C131.313 89.1981 131.128 89.0135 130.901 89.0135H130.176ZM52.6998 89.4257C52.6998 89.1981 52.8844 89.0135 53.112 89.0135H53.8372C54.0648 89.0135 54.2494 89.1981 54.2494 89.4257C54.2494 89.6533 54.0648 89.8378 53.8372 89.8378H53.112C52.8844 89.8378 52.6998 89.6533 52.6998 89.4257ZM50.0128 89.0135C49.7852 89.0135 49.6006 89.1981 49.6006 89.4257C49.6006 89.6533 49.7852 89.8378 50.0128 89.8378H50.738C50.9656 89.8378 51.1501 89.6533 51.1501 89.4257C51.1501 89.1981 50.9656 89.0135 50.738 89.0135H50.0128ZM46.5018 89.4257C46.5018 89.1981 46.6863 89.0135 46.914 89.0135H47.6392C47.8668 89.0135 48.0513 89.1981 48.0513 89.4257C48.0513 89.6533 47.8668 89.8378 47.6392 89.8378H46.914C46.6863 89.8378 46.5018 89.6533 46.5018 89.4257ZM43.8147 89.0135C43.5871 89.0135 43.4026 89.1981 43.4026 89.4257C43.4026 89.6533 43.5871 89.8378 43.8147 89.8378H44.5399C44.7676 89.8378 44.9521 89.6533 44.9521 89.4257C44.9521 89.1981 44.7676 89.0135 44.5399 89.0135H43.8147ZM39.8914 89.4257C39.8914 89.1981 40.076 89.0135 40.3036 89.0135H41.0288C41.2564 89.0135 41.441 89.1981 41.441 89.4257C41.441 89.6533 41.2564 89.8378 41.0288 89.8378H40.3036C40.076 89.8378 39.8914 89.6533 39.8914 89.4257ZM37.2048 89.0135C36.9771 89.0135 36.7926 89.1981 36.7926 89.4257C36.7926 89.6533 36.9771 89.8378 37.2048 89.8378H37.93C38.1576 89.8378 38.3421 89.6533 38.3421 89.4257C38.3421 89.1981 38.1576 89.0135 37.93 89.0135H37.2048ZM33.6934 89.4257C33.6934 89.1981 33.8779 89.0135 34.1056 89.0135H34.8307C35.0584 89.0135 35.2429 89.1981 35.2429 89.4257C35.2429 89.6533 35.0584 89.8378 34.8307 89.8378H34.1056C33.8779 89.8378 33.6934 89.6533 33.6934 89.4257ZM31.0063 89.0135C30.7787 89.0135 30.5942 89.1981 30.5942 89.4257C30.5942 89.6533 30.7787 89.8378 31.0063 89.8378H31.7315C31.9592 89.8378 32.1437 89.6533 32.1437 89.4257C32.1437 89.1981 31.9592 89.0135 31.7315 89.0135H31.0063ZM27.4953 89.4257C27.4953 89.1981 27.6799 89.0135 27.9075 89.0135H28.6327C28.8603 89.0135 29.0449 89.1981 29.0449 89.4257C29.0449 89.6533 28.8603 89.8378 28.6327 89.8378H27.9075C27.6799 89.8378 27.4953 89.6533 27.4953 89.4257ZM24.8083 89.0135C24.5806 89.0135 24.3961 89.1981 24.3961 89.4257C24.3961 89.6533 24.5806 89.8378 24.8083 89.8378H25.5335C25.7611 89.8378 25.9456 89.6533 25.9456 89.4257C25.9456 89.1981 25.7611 89.0135 25.5335 89.0135H24.8083ZM21.2973 89.4257C21.2973 89.1981 21.4818 89.0135 21.7094 89.0135H22.4346C22.6623 89.0135 22.8468 89.1981 22.8468 89.4257C22.8468 89.6533 22.6623 89.8378 22.4346 89.8378H21.7094C21.4818 89.8378 21.2973 89.6533 21.2973 89.4257ZM18.6102 89.0135C18.3826 89.0135 18.1981 89.1981 18.1981 89.4257C18.1981 89.6533 18.3826 89.8378 18.6102 89.8378H19.3354C19.563 89.8378 19.7476 89.6533 19.7476 89.4257C19.7476 89.1981 19.563 89.0135 19.3354 89.0135H18.6102ZM15.0988 89.4257C15.0988 89.1981 15.2834 89.0135 15.511 89.0135H16.2362C16.4638 89.0135 16.6484 89.1981 16.6484 89.4257C16.6484 89.6533 16.4638 89.8378 16.2362 89.8378H15.511C15.2834 89.8378 15.0988 89.6533 15.0988 89.4257ZM12.4122 89.0135C12.1845 89.0135 12 89.1981 12 89.4257C12 89.6533 12.1845 89.8378 12.4122 89.8378H13.1374C13.365 89.8378 13.5495 89.6533 13.5495 89.4257C13.5495 89.1981 13.365 89.0135 13.1374 89.0135H12.4122ZM66.9169 79.9459C66.4617 79.9459 66.0926 80.315 66.0926 80.7702V89.0135C66.0926 89.4687 66.4617 89.8378 66.9169 89.8378C67.3722 89.8378 67.7412 89.4687 67.7412 89.0135V80.7702C67.7412 80.315 67.3722 79.9459 66.9169 79.9459ZM69.3897 79.946C69.3897 79.4908 69.7588 79.1217 70.2141 79.1217C70.6693 79.1217 71.0384 79.4908 71.0384 79.946V89.0136C71.0384 89.4689 70.6693 89.8379 70.2141 89.8379C69.7588 89.8379 69.3897 89.4689 69.3897 89.0136V79.946ZM73.5112 84.8918C73.0559 84.8918 72.6869 85.2609 72.6869 85.7161V89.0134C72.6869 89.4687 73.0559 89.8378 73.5112 89.8378C73.9665 89.8378 74.3355 89.4687 74.3355 89.0134V85.7161C74.3355 85.2609 73.9665 84.8918 73.5112 84.8918ZM75.9844 87.777C75.9844 87.3217 76.3535 86.9527 76.8087 86.9527C77.264 86.9527 77.633 87.3217 77.633 87.777V89.0135C77.633 89.4687 77.264 89.8378 76.8087 89.8378C76.3535 89.8378 75.9844 89.4687 75.9844 89.0135V87.777ZM80.1059 76.2365C79.6506 76.2365 79.2815 76.6055 79.2815 77.0608V89.0135C79.2815 89.4688 79.6506 89.8378 80.1059 89.8378C80.5611 89.8378 80.9302 89.4688 80.9302 89.0135V77.0608C80.9302 76.6055 80.5611 76.2365 80.1059 76.2365ZM82.5791 78.7094C82.5791 78.2541 82.9481 77.885 83.4034 77.885C83.8587 77.885 84.2277 78.2541 84.2277 78.7094V89.0134C84.2277 89.4687 83.8587 89.8377 83.4034 89.8377C82.9481 89.8377 82.5791 89.4687 82.5791 89.0134V78.7094ZM86.7005 77.473C86.2453 77.473 85.8762 77.842 85.8762 78.2973V89.0135C85.8762 89.4688 86.2453 89.8378 86.7005 89.8378C87.1558 89.8378 87.5249 89.4688 87.5249 89.0135V78.2973C87.5249 77.842 87.1558 77.473 86.7005 77.473ZM89.1733 86.5405C89.1733 86.0853 89.5424 85.7162 89.9977 85.7162C90.4529 85.7162 90.822 86.0853 90.822 86.5405V89.0135C90.822 89.4687 90.4529 89.8378 89.9977 89.8378C89.5424 89.8378 89.1733 89.4687 89.1733 89.0135V86.5405ZM93.2952 87.777C92.8399 87.777 92.4709 88.1461 92.4709 88.6014V89.0135C92.4709 89.4688 92.8399 89.8379 93.2952 89.8379C93.7505 89.8379 94.1195 89.4688 94.1195 89.0135V88.6014C94.1195 88.1461 93.7505 87.777 93.2952 87.777ZM95.768 87.777C95.768 87.3217 96.1371 86.9527 96.5923 86.9527C97.0476 86.9527 97.4167 87.3217 97.4167 87.777V89.0135C97.4167 89.4687 97.0476 89.8378 96.5923 89.8378C96.1371 89.8378 95.768 89.4687 95.768 89.0135V87.777ZM99.8899 86.9527C99.4346 86.9527 99.0655 87.3217 99.0655 87.777V89.0135C99.0655 89.4687 99.4346 89.8378 99.8899 89.8378C100.345 89.8378 100.714 89.4687 100.714 89.0135V87.777C100.714 87.3217 100.345 86.9527 99.8899 86.9527Z" fill="url(#paint0_linear_111_472)"/>
<defs>
<filter id="filter0_b_111_472" x="-9.52885" y="-9.52885" width="166.058" height="178.058" filterUnits="userSpaceOnUse" color-interpolation-filters="sRGB">
<feFlood flood-opacity="0" result="BackgroundImageFix"/>
<feGaussianBlur in="BackgroundImage" stdDeviation="4.76442"/>
<feComposite in2="SourceAlpha" operator="in" result="effect1_backgroundBlur_111_472"/>
<feBlend mode="normal" in="SourceGraphic" in2="effect1_backgroundBlur_111_472" result="shape"/>
</filter>
<filter id="filter1_d_111_472" x="30" y="21" width="95" height="40" filterUnits="userSpaceOnUse" color-interpolation-filters="sRGB">
<feFlood flood-opacity="0" result="BackgroundImageFix"/>
<feColorMatrix in="SourceAlpha" type="matrix" values="0 0 0 0 0 0 0 0 0 0 0 0 0 0 0 0 0 0 127 0" result="hardAlpha"/>
<feOffset dy="4"/>
<feGaussianBlur stdDeviation="2"/>
<feComposite in2="hardAlpha" operator="out"/>
<feColorMatrix type="matrix" values="0 0 0 0 0 0 0 0 0 0 0 0 0 0 0 0 0 0 0.05 0"/>
<feBlend mode="normal" in2="BackgroundImageFix" result="effect1_dropShadow_111_472"/>
<feBlend mode="normal" in="SourceGraphic" in2="effect1_dropShadow_111_472" result="shape"/>
</filter>
<linearGradient id="paint0_linear_111_472" x1="96.861" y1="84.2737" x2="96.861" y2="89.8379" gradientUnits="userSpaceOnUse">
<stop stop-color="white"/>
<stop offset="1" stop-color="white"/>
</linearGradient>
</defs>
</svg>
