<svg width="147" height="159" viewBox="0 0 147 159" fill="none" xmlns="http://www.w3.org/2000/svg">
<g filter="url(#filter0_b_111_467)">
<rect width="147" height="159" rx="10" fill="white" fill-opacity="0.4"/>
</g>
<g filter="url(#filter1_d_111_467)">
<rect x="16.665" y="23.1895" width="73" height="32" rx="8.34674" fill="white" fill-opacity="0.8"/>
<path d="M38.4556 36.6503H40.0276C39.9968 35.1267 38.6978 34.0478 36.7779 34.0478C34.8844 34.0478 33.4621 35.1135 33.4665 36.7075C33.4665 38.0022 34.3868 38.7464 35.8708 39.1295L36.8968 39.3937C37.8699 39.6403 38.5128 39.9441 38.5173 40.6442C38.5128 41.4149 37.7819 41.9301 36.7162 41.9301C35.6946 41.9301 34.902 41.4721 34.836 40.5254H33.2287C33.2947 42.3176 34.629 43.326 36.7294 43.326C38.8915 43.326 40.1465 42.2471 40.1509 40.6575C40.1465 39.0942 38.8563 38.3809 37.5001 38.0594L36.6546 37.848C35.9148 37.6719 35.1134 37.3593 35.1222 36.6063C35.1266 35.9281 35.7343 35.4305 36.7559 35.4305C37.729 35.4305 38.3719 35.8841 38.4556 36.6503ZM41.2111 35.5406H43.9985V43.1895H45.619V35.5406H48.4063V34.1711H41.2111V35.5406ZM49.8617 43.1895L50.6059 40.9657H53.9966L54.7451 43.1895H56.4889L53.3096 34.1711H51.2928L48.1179 43.1895H49.8617ZM51.0462 39.6535L52.266 36.0206H52.3364L53.5562 39.6535H51.0462ZM57.6768 43.1895H59.3104V39.8868H60.975L62.7452 43.1895H64.5682L62.6175 39.6138C63.6787 39.1867 64.2379 38.2796 64.2379 37.0554C64.2379 35.3337 63.1283 34.1711 61.0586 34.1711H57.6768V43.1895ZM59.3104 38.5306V35.5362H60.8076C62.0274 35.5362 62.5734 36.0955 62.5734 37.0554C62.5734 38.0154 62.0274 38.5306 60.8164 38.5306H59.3104ZM65.3454 35.5406H68.1328V43.1895H69.7533V35.5406H72.5407V34.1711H65.3454V35.5406Z" fill="#5109F8"/>
</g>
<path d="M28.9927 102.495C24.9237 102.446 22.3023 105.507 22.3023 109.185C22.3023 113.059 25.1585 115.836 28.6015 115.836C30.6751 115.836 32.4358 114.819 33.5313 113.176H33.6878C33.6878 118.106 31.7706 120.923 28.6797 120.923C26.567 120.923 25.2758 119.593 24.8455 117.754H22.4588C22.9283 120.923 25.315 123.075 28.6797 123.075C33.1791 123.075 35.957 119.084 35.957 111.963C35.957 104.608 32.2793 102.534 28.9927 102.495ZM28.9927 104.647C31.4968 104.647 33.3357 106.799 33.3357 109.146C33.3357 111.533 31.3794 113.685 28.9145 113.685C26.4496 113.685 24.6498 111.689 24.6498 109.185C24.6498 106.681 26.5278 104.647 28.9927 104.647ZM46.181 102.495C42.1119 102.446 39.4906 105.507 39.4906 109.185C39.4906 113.059 42.3467 115.836 45.7897 115.836C47.8634 115.836 49.624 114.819 50.7195 113.176H50.876C50.876 118.106 48.9589 120.923 45.868 120.923C43.7552 120.923 42.4641 119.593 42.0337 117.754H39.6471C40.1166 120.923 42.5032 123.075 45.868 123.075C50.3674 123.075 53.1453 119.084 53.1453 111.963C53.1453 104.608 49.4675 102.534 46.181 102.495ZM46.181 104.647C48.685 104.647 50.5239 106.799 50.5239 109.146C50.5239 111.533 48.5676 113.685 46.1027 113.685C43.6378 113.685 41.8381 111.689 41.8381 109.185C41.8381 106.681 43.7161 104.647 46.181 104.647ZM63.5257 123.075C67.9469 123.075 70.49 119.328 70.49 112.785C70.49 106.29 67.9078 102.495 63.5257 102.495C59.1437 102.495 56.5614 106.29 56.5614 112.785C56.5614 119.328 59.1046 123.075 63.5257 123.075ZM63.5257 120.923C60.6109 120.923 58.9089 117.998 58.9089 112.785C58.9089 107.581 60.6305 104.608 63.5257 104.608C66.421 104.608 68.1425 107.581 68.1425 112.785C68.1425 117.998 66.4406 120.923 63.5257 120.923ZM83.3231 114.663C87.7834 114.663 89.8571 111.963 89.8571 108.716C89.8571 105.468 87.7834 102.769 83.3231 102.769H76.3197V112.511H73.1506V114.663H76.3197V116.541H73.1506V118.693H76.3197V122.801H78.7455V118.693H83.1666V116.541H78.7455V114.663H83.3231ZM78.7455 112.511V104.921H83.3231C86.1402 104.921 87.4704 106.525 87.4704 108.716C87.4704 110.907 86.1402 112.511 83.3231 112.511H78.7455Z" fill="white"/>
<path d="M29.8678 74.7212L22.4277 82.988V98.2815H124.936V62.7344L104.269 71.8278L100.135 66.4544L96.8288 68.9345L94.3487 66.4544L74.0951 77.2012L67.0684 71.0012L52.6015 82.988L48.8814 77.2012L46.8147 74.7212L40.6147 78.8546L36.0679 74.7212L33.5879 77.2012L29.8678 74.7212Z" fill="url(#paint0_linear_111_467)"/>
<path d="M22.4277 82.988L29.8678 74.7212L33.5879 77.2012L36.0679 74.7212L40.6147 78.8546L46.8147 74.7212L48.8814 77.2012L52.6015 82.988L67.0684 71.0012L74.0951 77.2012L94.3487 66.4544L96.8288 68.9345L100.135 66.4544L104.269 71.8278L124.936 62.7344" stroke="white" stroke-width="1.65336"/>
<defs>
<filter id="filter0_b_111_467" x="-9.52885" y="-9.52885" width="166.058" height="178.058" filterUnits="userSpaceOnUse" color-interpolation-filters="sRGB">
<feFlood flood-opacity="0" result="BackgroundImageFix"/>
<feGaussianBlur in="BackgroundImage" stdDeviation="4.76442"/>
<feComposite in2="SourceAlpha" operator="in" result="effect1_backgroundBlur_111_467"/>
<feBlend mode="normal" in="SourceGraphic" in2="effect1_backgroundBlur_111_467" result="shape"/>
</filter>
<filter id="filter1_d_111_467" x="12.665" y="23.1895" width="81" height="40" filterUnits="userSpaceOnUse" color-interpolation-filters="sRGB">
<feFlood flood-opacity="0" result="BackgroundImageFix"/>
<feColorMatrix in="SourceAlpha" type="matrix" values="0 0 0 0 0 0 0 0 0 0 0 0 0 0 0 0 0 0 127 0" result="hardAlpha"/>
<feOffset dy="4"/>
<feGaussianBlur stdDeviation="2"/>
<feComposite in2="hardAlpha" operator="out"/>
<feColorMatrix type="matrix" values="0 0 0 0 0 0 0 0 0 0 0 0 0 0 0 0 0 0 0.05 0"/>
<feBlend mode="normal" in2="BackgroundImageFix" result="effect1_dropShadow_111_467"/>
<feBlend mode="normal" in="SourceGraphic" in2="effect1_dropShadow_111_467" result="shape"/>
</filter>
<linearGradient id="paint0_linear_111_467" x1="73.6818" y1="62.7344" x2="73.6818" y2="91.6681" gradientUnits="userSpaceOnUse">
<stop stop-color="white"/>
<stop offset="1" stop-color="#AE67FC" stop-opacity="0"/>
</linearGradient>
</defs>
</svg>
