<svg width="147" height="159" viewBox="0 0 147 159" fill="none" xmlns="http://www.w3.org/2000/svg">
<g filter="url(#filter0_b_111_468)">
<rect width="147" height="159" rx="10" fill="white" fill-opacity="0.4"/>
</g>
<g filter="url(#filter1_d_111_468)">
<rect x="73" y="22" width="51" height="51" rx="4.89442" fill="white" fill-opacity="0.8"/>
<path d="M82.9038 33.8639H86.1909V33.0608H83.8618V28.5757H82.9038V33.8639ZM87.0223 33.8639H90.4824V33.0608H87.9803V31.6174H90.2836V30.8144H87.9803V29.3787H90.4617V28.5757H87.0223V33.8639ZM92.1466 28.5757H91.0956L92.9574 33.8639H94.14L96.0043 28.5757H94.9508L93.5771 32.7381H93.5228L92.1466 28.5757ZM96.7008 33.8639H100.161V33.0608H97.6588V31.6174H99.9621V30.8144H97.6588V29.3787H100.14V28.5757H96.7008V33.8639ZM101.118 33.8639H104.405V33.0608H102.076V28.5757H101.118V33.8639ZM110.373 28.5757V31.9505C110.373 32.6141 109.911 33.0892 109.185 33.0892C108.457 33.0892 107.998 32.6141 107.998 31.9505V28.5757H107.04V32.0306C107.04 33.1667 107.892 33.9439 109.185 33.9439C110.474 33.9439 111.331 33.1667 111.331 32.0306V28.5757H110.373ZM112.372 33.8639H113.33V32.0771H114.343C115.564 32.0771 116.22 31.3437 116.22 30.3264C116.22 29.3167 115.572 28.5757 114.356 28.5757H112.372V33.8639ZM113.33 31.2895V29.3761H114.208C114.926 29.3761 115.244 29.7635 115.244 30.3264C115.244 30.8893 114.926 31.2895 114.214 31.2895H113.33Z" fill="#B167FC"/>
<path d="M89.0839 62.9793H90.8358L90.844 61.087C94.3891 60.8308 96.4219 58.8807 96.4301 56.1124C96.4219 53.1788 94.0007 51.8402 91.4555 51.2369L90.9101 51.0964L90.9432 46.378C92.2653 46.6094 93.1165 47.4027 93.2487 48.5926H96.1988C96.1492 45.9648 94.0833 44.0477 90.9597 43.7502L90.968 41.8248H89.2161L89.2078 43.7502C86.109 44.0642 83.8779 45.9648 83.8862 48.7C83.8862 51.1295 85.6132 52.526 88.398 53.2449L89.1417 53.435L89.1087 58.4344C87.6295 58.203 86.5635 57.3602 86.4561 55.8645H83.4399C83.5556 58.9633 85.6876 60.806 89.0922 61.087L89.0839 62.9793ZM90.8605 58.4344L90.8936 53.8978C92.3976 54.3357 93.3561 54.9142 93.3644 56.0876C93.3561 57.3106 92.3728 58.1865 90.8605 58.4344ZM89.1583 50.6502C88.0179 50.2866 86.9767 49.6834 86.9932 48.51C87.0015 47.444 87.8031 46.6176 89.1913 46.378L89.1583 50.6502Z" fill="#B267FC"/>
</g>
<path d="M27.1602 62.1914C26.7012 62.2988 26.9941 62.2793 26.6133 62.3281C24.9824 62.6797 26.1934 62.9922 27.1602 62.1914ZM55.8418 62.8457C55.959 62.7676 56.3691 62.3672 55.0898 61.9766C55.168 62.377 54.8262 62.3379 54.8262 62.5625C55.7734 63.4219 56.1641 64.916 57.375 65.2285C57.6094 64.1543 56.3008 63.627 55.8418 62.8457ZM26.291 61.8789C26.4375 62.748 27.0918 60.9609 27.1016 60.3262C26.8477 60.4727 26.5938 60.6191 26.3301 60.7363C26.9453 61.0488 26.4082 61.3809 25.7441 61.8789C24.3965 63.5586 27.0039 60.5703 26.291 61.8789ZM43 51C29.1914 51 18 62.1914 18 76C18 89.7988 29.1914 101 43 101C56.8086 101 68 89.7988 68 76C68 62.1914 56.8086 51 43 51ZM43.6641 59.3789L43.7812 59.418C43.3125 60.0234 46.2227 61.791 44.1328 61.9375C42.1797 62.4941 44.9531 61.4297 43.4395 61.6152C44.2402 60.502 42.8047 60.4824 43.6641 59.3789ZM31.8086 60.9805C31.1055 60.3945 28.8984 61.7812 29.6699 61.4492C31.584 60.6973 29.7969 61.5273 30.2461 62.4258C29.8359 63.2754 30.1094 61.5859 29.0938 62.5918C28.3613 62.7578 26.5645 64.418 26.7891 63.9102C26.7305 64.7012 24.6504 65.6387 24.3672 66.957C23.6836 68.7832 24.2012 66.8887 24.0742 66.1758C23.0977 64.9355 21.3203 68.2754 21.8477 69.5938C22.7363 68.0312 22.668 69.4277 22.0234 70.1211C22.6777 71.3223 21.4277 72.8848 22.668 73.7734C23.2148 73.9004 24.3086 71.9375 23.8301 73.9785C24.1621 72.2109 24.748 74.3984 25.6953 73.9102C25.7539 74.8379 26.3301 74.4082 26.457 75.5312C28.0391 75.4141 29.4844 78.0898 27.5996 78.5977C27.8828 78.5195 28.4395 79.0176 29.084 78.6367C30.1777 79.5059 33.0586 79.6133 33.1367 81.7617C31.1543 82.709 32.6484 85.3066 30.9297 86.2344C28.957 85.9414 30.2559 88.666 29.4258 88.3535C29.7578 90.3164 27.4336 88.0996 28.332 89.1836C29.9824 90.1992 27.6094 89.9941 28.3516 90.7363C27.5215 90.5605 28.8691 92.2793 29.0938 92.9141C30.2852 94.8477 28.0684 92.4844 27.4141 91.8398C26.7891 90.5898 25.3145 88.1973 24.9043 86.2344C24.6699 83.3828 22.4629 81.4688 21.9551 78.6855C21.4473 77.1328 23.3516 74.6426 22.3262 73.7734C21.4375 73.0801 21.7988 70.707 21.2715 69.457C22.5898 63.7441 26.7793 58.9297 31.8086 56.0781C31.291 56.459 34.7676 55.0918 34.3672 55.4238C34.2598 55.668 36.3984 54.4961 37.6875 54.3203C37.5508 54.3398 34.3379 55.4922 35.2266 55.3359C33.8496 56.0098 35.0898 55.6289 35.7734 55.2871C34.4062 56.293 33.3516 56.0098 31.7988 56.8984C30.2363 57.3086 30.5586 58.9297 29.4453 59.7402C30.0996 59.8574 31.7402 58.0508 32.6973 57.416C34.8945 56.3516 31.584 59.3496 33.6738 58.0605C32.9707 58.7148 33.1172 59.7598 32.6875 60.0527C32.4727 59.9941 33.5371 60.5605 31.8086 60.9805ZM35.2266 56.4883C35.002 56.791 34.6895 57.4453 34.5039 57.0449C34.25 57.1719 34.1523 57.7188 33.6738 57.2793C33.957 57.0742 34.25 56.5859 33.6934 56.8887C33.9473 56.6152 36.2129 55.8438 36.0859 55.5508C36.4863 55.2969 36.4473 55.1699 35.9883 55.3262C35.7539 55.248 36.5449 54.584 37.5996 54.4961C37.7461 54.4961 37.8047 54.5938 37.541 54.5645C35.9492 55.0527 36.6328 54.916 37.707 54.5645C37.2969 54.7988 37.0137 54.8672 36.9453 54.9746C38.0195 54.584 36.8867 55.2578 37.1309 55.209C36.8281 55.3652 37.1797 55.4141 36.5938 55.6387C36.7012 55.5508 35.6367 56.2734 36.2715 56.0586C35.6562 56.6445 35.3828 56.6543 35.2266 56.4883ZM36.1641 57.8848C36.1836 56.9473 37.5312 56.3516 37.3652 56.3027C39.0254 55.5215 36.7891 56.332 38.0977 55.6289C38.5859 55.5801 39.6211 54.0176 41.0566 53.9199C42.6387 53.4414 41.9062 53.9492 43.0781 53.5L42.8438 53.6953C42.6387 53.7246 42.8926 54.0859 42.1504 54.6328C42.0723 55.4824 40.7344 55.0918 41.3984 56C40.9688 55.3848 40.3242 55.9805 41.1348 56.0391C40.2656 56.7031 38.2441 56.8203 37.2773 57.9238C36.6523 58.8223 36.0762 58.5391 36.1641 57.8848ZM43.1074 61.0098C42.4434 62.6113 41.7988 60.7754 42.9707 60.4824C43.2637 60.6387 43.3809 60.6875 43.1074 61.0098ZM40.6074 57.8066C40.4121 57.084 40.5684 57.4648 41.7305 57.123C42.5312 57.6992 41.0176 58.0801 40.6074 57.8066ZM58.791 86.4688C57.873 84.8867 59.9043 83.4219 60.5879 82.0938C60.5 83.6465 60.3047 85.1797 58.791 86.4688ZM62.248 68.3926C61.252 68.4707 60.3535 68.7051 59.4551 68.1387C57.3848 65.873 59.8359 70.6973 60.5195 68.7246C62.9805 69.6621 60.4805 73.7051 58.9277 73.2852C58.0586 71.4102 56.9844 69.3496 55.0898 68.4316C56.5449 70.043 57.2676 72.0254 58.8301 73.4805C58.9375 75.5117 60.998 72.7383 60.8711 74.3105C61.0664 77.0156 57.8145 78.6367 58.3809 81.3516C59.5918 83.8223 56.0469 84.2715 56.4473 86.4883C55.0215 88.0801 53.498 90.2285 50.9395 89.8867C50.9395 88.5391 50.2559 87.3965 50.0996 86.0098C48.7129 84.252 51.5645 82.3672 49.7969 80.5312C47.7559 80.0723 50.2168 77.2598 48.1172 77.5234C46.8574 76.2637 45.0117 77.4844 43.2051 77.4941C40.9395 77.709 38.6055 74.7109 39.6113 72.5918C38.8105 70.3848 42.1504 69.7402 42.2383 67.7969C43.8398 66.459 46.1152 66.625 48.2832 66.3125C48.127 67.8652 49.7676 67.875 51.0078 68.3926C51.7012 66.7129 53.8594 68.666 55.334 67.6016C55.8418 65.1211 53.8984 66.6152 52.7852 65.8242C51.4375 63.8516 55.666 64.8086 55.2266 63.7734C53.5859 63.7637 54.5137 61.752 53.3516 62.875C54.3965 63.0605 53.166 63.8809 53.1953 62.9434C51.6133 62.4844 53.1367 64.7402 52.3359 64.9551C51.1152 64.4473 51.6914 65.5312 51.8184 65.6973C51.291 66.8398 50.6465 64.0176 49.1523 64.0957C47.668 62.7383 48.5664 64.7109 49.8555 65.0332C49.582 65.1113 50.0117 66.2344 49.6699 65.7559C48.6055 64.291 46.584 63.3145 45.3828 65.1113C45.2559 66.791 41.8379 67.2695 42.3848 65.3066C41.584 63.2754 44.8652 65.248 44.5625 63.627C42.4531 62.2305 45.1387 62.6797 45.8516 61.3711C47.4727 61.4199 45.9199 60.043 46.6816 59.6426C46.6035 61.1367 47.9219 60.8535 48.9668 60.5703C48.7129 59.7109 49.5918 59.7402 49.0547 59.0273C51.4766 58.0605 47.209 59.4766 48.0684 57.3574C47.0234 56.6348 47.6289 58.9492 48.0684 59.1934C48.0977 59.9062 47.4922 60.7852 46.6621 59.291C45.4512 60.082 45.5781 58.4902 45.5 58.6562C45.3633 58.041 46.418 58.0117 46.4277 56.9375C46.3398 56.2539 46.3594 55.8926 46.8477 55.8535C46.8867 55.9512 48.8496 55.9805 49.543 56.791C47.6484 56.4102 49.2598 57.1035 50.1094 57.4941C49.2012 56.7812 50.4707 57.4941 49.7285 56.6836C50.0215 56.7422 48.918 55.5703 50.0508 56.5957C49.4355 55.8633 51.252 56.0781 50.1777 55.5312C51.75 55.9707 50.8223 55.5703 49.8945 55.1699C47.3359 53.6465 54.416 57.2305 51.5254 55.6387C53.3711 56.0391 47.5801 54.2129 50.2168 55.0137C49.2109 54.5742 50.1875 54.8184 51.0957 55.1016C49.4648 54.5938 47.0234 53.6465 47.1211 53.6074C47.6875 53.6465 48.2441 53.7734 48.7813 53.9297C50.4512 54.4277 48.3027 53.8125 48.7617 53.8223C54.5039 55.2969 59.5332 59.1445 62.5898 64.1738C63.3027 64.9258 65.2461 69.8965 64.2305 67.6895C64.6895 69.4473 64.7578 71.3418 65.002 73.1387C64.4941 72.5723 63.9277 70.4824 63.4395 69.3203C63.2344 69.7695 63 68.6855 62.248 68.3926Z" fill="#F5F5F5"/>
<g opacity="0.79">
<path d="M88.7579 112.758C95.3184 112.758 100.637 107.439 100.637 100.879C100.637 94.3183 95.3184 89 88.7579 89C82.1974 89 76.879 94.3183 76.879 100.879C76.879 107.439 82.1974 112.758 88.7579 112.758Z" fill="white"/>
<path fill-rule="evenodd" clip-rule="evenodd" d="M88.7577 115.727C80.8286 115.727 65 119.707 65 127.606V136.515H112.515V127.606C112.515 119.707 96.6868 115.727 88.7577 115.727Z" fill="white"/>
</g>
<defs>
<filter id="filter0_b_111_468" x="-9.52885" y="-9.52885" width="166.058" height="178.058" filterUnits="userSpaceOnUse" color-interpolation-filters="sRGB">
<feFlood flood-opacity="0" result="BackgroundImageFix"/>
<feGaussianBlur in="BackgroundImage" stdDeviation="4.76442"/>
<feComposite in2="SourceAlpha" operator="in" result="effect1_backgroundBlur_111_468"/>
<feBlend mode="normal" in="SourceGraphic" in2="effect1_backgroundBlur_111_468" result="shape"/>
</filter>
<filter id="filter1_d_111_468" x="70.6545" y="22" width="55.6911" height="55.6911" filterUnits="userSpaceOnUse" color-interpolation-filters="sRGB">
<feFlood flood-opacity="0" result="BackgroundImageFix"/>
<feColorMatrix in="SourceAlpha" type="matrix" values="0 0 0 0 0 0 0 0 0 0 0 0 0 0 0 0 0 0 127 0" result="hardAlpha"/>
<feOffset dy="2.34555"/>
<feGaussianBlur stdDeviation="1.17277"/>
<feComposite in2="hardAlpha" operator="out"/>
<feColorMatrix type="matrix" values="0 0 0 0 0 0 0 0 0 0 0 0 0 0 0 0 0 0 0.05 0"/>
<feBlend mode="normal" in2="BackgroundImageFix" result="effect1_dropShadow_111_468"/>
<feBlend mode="normal" in="SourceGraphic" in2="effect1_dropShadow_111_468" result="shape"/>
</filter>
</defs>
</svg>
