<svg width="40" height="42" viewBox="0 0 40 42" fill="none" xmlns="http://www.w3.org/2000/svg">
<path fill-rule="evenodd" clip-rule="evenodd" d="M3.00078 19.1484L13.843 27.1556L9.24453 32.0738C9.11907 32.2019 9.01881 32.3554 8.94958 32.5253C8.88036 32.6952 8.84358 32.8781 8.84137 33.0633C8.83916 33.2485 8.87157 33.4323 8.93672 33.604C9.00187 33.7757 9.09844 33.9318 9.2208 34.0633C9.34316 34.1948 9.48886 34.2989 9.64939 34.3697C9.80991 34.4405 9.98206 34.4764 10.1558 34.4755C10.3295 34.4745 10.5013 34.4367 10.6611 34.3642C10.8209 34.2917 10.9656 34.1859 11.0867 34.0531L16.0367 28.775L19.3133 31.2041C19.5322 31.366 19.7922 31.4528 20.0586 31.4528C20.325 31.4528 20.585 31.366 20.8039 31.2041L24.0805 28.775L29.0164 34.0531C29.1383 34.1831 29.283 34.2862 29.4422 34.3565C29.6015 34.4268 29.7722 34.4631 29.9445 34.4631C30.1169 34.4631 30.2876 34.4268 30.4468 34.3565C30.6061 34.2862 30.7508 34.1831 30.8727 34.0531C30.9945 33.9232 31.0912 33.7689 31.1572 33.5991C31.2231 33.4293 31.2571 33.2473 31.2571 33.0635C31.2571 32.8797 31.2231 32.6977 31.1572 32.5279C31.0912 32.3581 30.9945 32.2038 30.8727 32.0738L26.2742 27.1556L37.1164 19.1484V34.5629C37.1201 35.1712 37.0107 35.7743 36.7946 36.3373C36.5784 36.9002 36.2597 37.4119 35.857 37.8427C35.4542 38.2736 34.9754 38.615 34.4481 38.8474C33.9209 39.0797 33.3557 39.1983 32.7852 39.1963H7.40234C6.83185 39.1983 6.26663 39.0797 5.73938 38.8474C5.21213 38.615 4.73328 38.2736 4.33053 37.8427C3.92778 37.4119 3.60911 36.9002 3.39294 36.3373C3.17676 35.7743 3.06737 35.1712 3.07109 34.5629L3.00078 19.1484ZM13.0273 15.0849C12.7021 15.1208 12.4008 15.284 12.1818 15.543C11.9628 15.8019 11.8416 16.1382 11.8416 16.4869C11.8416 16.8356 11.9628 17.1719 12.1818 17.4308C12.4008 17.6898 12.7021 17.853 13.0273 17.8889H27.0898C27.2739 17.9092 27.46 17.8881 27.6359 17.8269C27.8119 17.7657 27.9738 17.6658 28.1113 17.5336C28.2487 17.4015 28.3586 17.24 28.4338 17.0597C28.509 16.8794 28.5479 16.6842 28.5479 16.4869C28.5479 16.2896 28.509 16.0944 28.4338 15.9141C28.3586 15.7338 28.2487 15.5723 28.1113 15.4402C27.9738 15.308 27.8119 15.2081 27.6359 15.1469C27.46 15.0857 27.2739 15.0646 27.0898 15.0849H13.0273ZM32.7148 14.4401L36.0336 16.5694L32.7148 19.0285V14.4401ZM7.40234 14.4401V18.9385L4.11172 16.5694L7.40234 14.4401ZM12.8586 7.49761C12.5043 7.52147 12.1734 7.69443 11.9387 7.97845C11.7039 8.26247 11.5847 8.63427 11.607 9.01207C11.6294 9.38987 11.7916 9.74271 12.058 9.99298C12.3243 10.2433 12.673 10.3705 13.0273 10.3466H20.0586C20.4129 10.3466 20.7527 10.1965 21.0032 9.92937C21.2538 9.66222 21.3945 9.2999 21.3945 8.9221C21.3945 8.5443 21.2538 8.18198 21.0032 7.91483C20.7527 7.64769 20.4129 7.49761 20.0586 7.49761H12.8586ZM25.5992 5.23342L28.5664 8.99707H25.5992V5.23342ZM11.6211 2.80428H23.0258V10.4965C23.0258 10.8704 23.165 11.2289 23.4129 11.4932C23.6608 11.7575 23.9971 11.906 24.3477 11.906H30.0992V20.9928L20.0586 28.3402L10.0602 20.9928V4.49868C10.0592 4.28618 10.0985 4.07566 10.1758 3.87981C10.2532 3.68396 10.3669 3.50682 10.5102 3.35909C10.644 3.18313 10.8135 3.0418 11.0059 2.94571C11.1983 2.84961 11.4086 2.80126 11.6211 2.80428ZM24.2773 0.00028539H11.6211C10.5022 0.00028539 9.42916 0.474222 8.63799 1.31783C7.84682 2.16145 7.40234 3.30563 7.40234 4.49868V11.2463L1.08828 15.2948C0.879713 15.409 0.703374 15.5803 0.577345 15.7911C0.451316 16.0019 0.380133 16.2446 0.371094 16.4944V34.5629C0.389621 36.5383 1.13858 38.4261 2.45519 39.8159C3.77181 41.2058 5.54966 41.9854 7.40234 41.9853H32.8555C34.6837 41.9464 36.4258 41.1496 37.7122 39.7639C38.9986 38.3782 39.7282 36.5126 39.7461 34.5629V16.4944C39.7447 16.2254 39.6711 15.9625 39.534 15.7366C39.397 15.5108 39.2022 15.3315 38.9727 15.2198L32.7148 11.1713V10.8564C32.769 10.6299 32.7677 10.3924 32.7111 10.1666C32.6545 9.94078 32.5444 9.73428 32.3914 9.56687L25.3602 0.570082C25.2385 0.386437 25.0757 0.238122 24.8866 0.138613C24.6975 0.0391042 24.4881 -0.00844529 24.2773 0.00028539Z" fill="white"/>
</svg>
