<svg width="48" height="48" viewBox="0 0 48 48" fill="none" xmlns="http://www.w3.org/2000/svg">
<path d="M25.6115 35.0057C26.0743 35.2629 26.5543 35.52 27.0001 35.7943C28.2656 36.5534 29.4797 37.3953 30.6344 38.3143C29.4871 39.2536 28.2724 40.1073 27.0001 40.8686C26.5543 41.1429 26.0743 41.3829 25.5943 41.6571C26.0136 40.5925 26.2288 39.4585 26.2286 38.3143C26.2276 37.1829 26.0184 36.0614 25.6115 35.0057ZM9.3772 35.0057C8.9703 36.0614 8.7611 37.1829 8.76006 38.3143C8.76853 39.4577 8.98341 40.5901 9.39435 41.6571C8.91435 41.3829 8.43435 41.1429 7.98863 40.8686C6.71806 40.1129 5.50865 39.2589 4.37149 38.3143C5.51359 37.4019 6.72271 36.5767 7.98863 35.8457C8.43435 35.52 8.91435 35.2629 9.3772 35.0057ZM17.5029 32.4171C19.0142 32.4986 20.4367 33.1563 21.4777 34.2549C22.5187 35.3535 23.0989 36.8094 23.0989 38.3229C23.0989 39.8363 22.5187 41.2922 21.4777 42.3908C20.4367 43.4894 19.0142 44.1471 17.5029 44.2286C15.9916 44.1471 14.5691 43.4894 13.5281 42.3908C12.4871 41.2922 11.9069 39.8363 11.9069 38.3229C11.9069 36.8094 12.4871 35.3535 13.5281 34.2549C14.5691 33.1563 15.9916 32.4986 17.5029 32.4171ZM28.6286 19.9543H31.8172V23.8457H28.6286V19.9543ZM15.8915 18.5486H19.0629V23.8457H15.8915V18.5486ZM22.2858 14.3143H25.4572V23.8457H22.2858V14.3143ZM35.0058 9.53143H38.1944V23.8457H34.9886L35.0058 9.53143ZM33.3943 6.36C32.9838 6.39202 32.5985 6.57074 32.3089 6.86348C32.0193 7.15623 31.8448 7.54343 31.8172 7.95429V16.7829H28.6286V12.72C28.6286 12.2972 28.4607 11.8917 28.1617 11.5927C27.8627 11.2937 27.4572 11.1257 27.0343 11.1257H20.6743C20.2608 11.1538 19.8714 11.3308 19.5782 11.6239C19.2851 11.917 19.1081 12.3064 19.0801 12.72V15.3771H14.2972C14.0887 15.3749 13.8817 15.414 13.6884 15.4922C13.4951 15.5705 13.3192 15.6863 13.1709 15.833C13.0226 15.9796 12.9049 16.1543 12.8246 16.3468C12.7443 16.5392 12.7029 16.7457 12.7029 16.9543V25.44C12.7029 25.6486 12.7443 25.8551 12.8246 26.0475C12.9049 26.24 13.0226 26.4146 13.1709 26.5613C13.3192 26.708 13.4951 26.8238 13.6884 26.902C13.8817 26.9803 14.0887 27.0194 14.2972 27.0171H39.7544C40.1742 27.0172 40.5772 26.8516 40.8757 26.5563C41.1742 26.261 41.3441 25.8599 41.3486 25.44V7.95429C41.3486 7.53146 41.1807 7.12594 40.8817 6.82696C40.5827 6.52797 40.1772 6.36 39.7544 6.36H33.3943ZM15.9086 3.17143H38.1944C39.0323 3.1646 39.8632 3.32432 40.6389 3.64131C41.4145 3.9583 42.1195 4.42624 42.7128 5.01796C43.3061 5.60968 43.776 6.31338 44.095 7.08819C44.4141 7.86301 44.5761 8.6935 44.5715 9.53143L44.8458 30.36C44.8526 31.1949 44.6932 32.0227 44.3769 32.7954C44.0606 33.568 43.5936 34.27 43.0033 34.8604C42.4129 35.4507 41.711 35.9177 40.9383 36.234C40.1657 36.5503 39.3378 36.7097 38.5029 36.7029H33.9429C32.2584 35.3748 30.4952 34.1497 28.6629 33.0343C25.3886 31.0629 21.3258 28.9886 17.5029 28.9886C14.7066 29.1388 11.9836 29.937 9.54863 31.32V9.53143C9.58784 7.85698 10.2705 6.26197 11.4548 5.07763C12.6392 3.8933 14.2342 3.21064 15.9086 3.17143ZM38.1944 0H15.9086C13.3805 0.0045144 10.957 1.00962 9.16781 2.79564C7.37858 4.58167 6.36912 7.00336 6.36006 9.53143V33.0514C4.3726 34.2806 2.45533 35.6199 0.617203 37.0629C0.436996 37.2141 0.292096 37.403 0.192681 37.6162C0.0932655 37.8295 0.041748 38.0619 0.041748 38.2971C0.041748 38.5324 0.0932655 38.7648 0.192681 38.9781C0.292096 39.1913 0.436996 39.3802 0.617203 39.5314C2.44745 40.9903 4.36533 42.3356 6.36006 43.56C9.65149 45.5657 13.6972 47.6743 17.5372 47.6743C21.3772 47.6743 25.4229 45.5657 28.6972 43.56C30.5257 42.4534 32.2834 41.2339 33.9601 39.9086H38.5029C39.7546 39.9041 40.9932 39.6531 42.1478 39.1699C43.3025 38.6868 44.3507 37.9809 45.2326 37.0927C46.1145 36.2044 46.8128 35.1511 47.2877 33.993C47.7625 32.8349 48.0046 31.5945 48.0001 30.3429L47.7086 9.53143C47.7041 7.00493 46.6984 4.5832 44.9119 2.7967C43.1254 1.01019 40.7037 0.00453185 38.1772 0H38.1944Z" fill="#404040"/>
</svg>
