<svg width="64" height="64" viewBox="0 0 64 64" fill="none" xmlns="http://www.w3.org/2000/svg">
<g clip-path="url(#clip0_1:55)">
<path d="M34.1487 46.6743C34.7658 47.0171 35.4058 47.36 36.0001 47.7257C37.6875 48.7379 39.3062 49.8604 40.8458 51.0857C39.3161 52.3381 37.6965 53.4764 36.0001 54.4914C35.4058 54.8571 34.7658 55.1771 34.1258 55.5429C34.6848 54.1233 34.9717 52.6113 34.9715 51.0857C34.9701 49.5772 34.6912 48.0818 34.1487 46.6743V46.6743ZM12.5029 46.6743C11.9604 48.0818 11.6815 49.5772 11.6801 51.0857C11.6914 52.6102 11.9779 54.1202 12.5258 55.5429C11.8858 55.1771 11.2458 54.8571 10.6515 54.4914C8.95741 53.4839 7.34486 52.3452 5.82865 51.0857C7.35145 49.8692 8.96362 48.7689 10.6515 47.7943C11.2458 47.36 11.8858 47.0171 12.5029 46.6743V46.6743ZM23.3372 43.2229C25.3523 43.3315 27.249 44.2084 28.6369 45.6732C30.0249 47.138 30.7985 49.0792 30.7985 51.0971C30.7985 53.1151 30.0249 55.0563 28.6369 56.5211C27.249 57.9859 25.3523 58.8628 23.3372 58.9714C21.3222 58.8628 19.4255 57.9859 18.0375 56.5211C16.6495 55.0563 15.8759 53.1151 15.8759 51.0971C15.8759 49.0792 16.6495 47.138 18.0375 45.6732C19.4255 44.2084 21.3222 43.3315 23.3372 43.2229V43.2229ZM38.1715 26.6057H42.4229V31.7943H38.1715V26.6057ZM21.1887 24.7314H25.4172V31.7943H21.1887V24.7314ZM29.7144 19.0857H33.9429V31.7943H29.7144V19.0857ZM46.6744 12.7086H50.9258V31.7943H46.6515L46.6744 12.7086ZM44.5258 8.48C43.9784 8.52269 43.4647 8.76099 43.0786 9.15131C42.6924 9.54163 42.4597 10.0579 42.4229 10.6057V22.3771H38.1715V16.96C38.1715 16.3962 37.9475 15.8555 37.5489 15.4569C37.1503 15.0582 36.6096 14.8343 36.0458 14.8343H27.5658C27.0143 14.8717 26.4951 15.1077 26.1043 15.4985C25.7135 15.8893 25.4775 16.4086 25.4401 16.96V20.5029H19.0629C18.7849 20.4998 18.509 20.552 18.2512 20.6563C17.9934 20.7606 17.7589 20.9151 17.5612 21.1106C17.3635 21.3062 17.2066 21.539 17.0995 21.7957C16.9923 22.0523 16.9372 22.3276 16.9372 22.6057V33.92C16.9372 34.1981 16.9923 34.4734 17.0995 34.73C17.2066 34.9867 17.3635 35.2195 17.5612 35.4151C17.7589 35.6107 17.9934 35.7651 18.2512 35.8694C18.509 35.9737 18.7849 36.0259 19.0629 36.0229H53.0058C53.5656 36.0229 54.1029 35.8021 54.5009 35.4083C54.8989 35.0146 55.1255 34.4798 55.1315 33.92V10.6057C55.1315 10.0419 54.9076 9.50126 54.5089 9.10261C54.1103 8.70396 53.5696 8.48 53.0058 8.48H44.5258ZM21.2115 4.22857H50.9258C52.043 4.21947 53.1509 4.43243 54.1851 4.85508C55.2194 5.27774 56.1593 5.90166 56.9504 6.69062C57.7415 7.47957 58.3679 8.41784 58.7934 9.45092C59.2188 10.484 59.4347 11.5913 59.4287 12.7086V12.7086L59.7944 40.48C59.8035 41.5931 59.591 42.697 59.1692 43.7272C58.7474 44.7574 58.1248 45.6933 57.3377 46.4805C56.5505 47.2676 55.6146 47.8902 54.5844 48.312C53.5542 48.7338 52.4504 48.9463 51.3372 48.9371H45.2572C43.0112 47.1664 40.6602 45.5329 38.2172 44.0457C33.8515 41.4171 28.4344 38.6514 23.3372 38.6514C19.6089 38.8518 15.9781 39.916 12.7315 41.76V12.7086C12.7838 10.476 13.694 8.3493 15.2731 6.77018C16.8522 5.19106 18.9789 4.28085 21.2115 4.22857V4.22857ZM50.9258 0H21.2115C17.8407 0.0060192 14.6094 1.34616 12.2237 3.72752C9.8381 6.10889 8.49216 9.33781 8.48008 12.7086V44.0686C5.83014 45.7075 3.27378 47.4932 0.822938 49.4171C0.582662 49.6188 0.389461 49.8706 0.256907 50.155C0.124354 50.4393 0.0556641 50.7492 0.0556641 51.0629C0.0556641 51.3765 0.124354 51.6864 0.256907 51.9707C0.389461 52.2551 0.582662 52.5069 0.822938 52.7086C3.26327 54.6537 5.82044 56.4475 8.48008 58.08C12.8687 60.7543 18.2629 63.5657 23.3829 63.5657C28.5029 63.5657 33.8972 60.7543 38.2629 58.08C40.7009 56.6045 43.0445 54.9785 45.2801 53.2114H51.3372C53.0061 53.2054 54.6575 52.8708 56.1971 52.2266C57.7367 51.5824 59.1343 50.6412 60.3102 49.4569C61.486 48.2725 62.4171 46.8682 63.0502 45.324C63.6833 43.7798 64.0061 42.1261 64.0001 40.4571L63.6115 12.7086C63.6055 9.33991 62.2646 6.11094 59.8826 3.72893C57.5006 1.34692 54.2716 0.00604247 50.9029 0H50.9258Z" fill="white"/>
</g>
<defs>
<clipPath id="clip0_1:55">
<rect width="64" height="63.6114" fill="white"/>
</clipPath>
</defs>
</svg>
