<svg width="169" height="170" viewBox="0 0 169 170" fill="none" xmlns="http://www.w3.org/2000/svg">
<g filter="url(#filter0_b_2_11)">
<rect width="168.372" height="169.362" rx="19.8084" fill="#C4C4C4" fill-opacity="0.1"/>
</g>
<path d="M22.1538 36.3957H24.032V33.7896H30.9167V36.3852H32.7949V32.191H31.592V22.985H24.6861L24.4013 27.5537C24.2272 30.4659 23.6099 31.6107 22.8766 32.191H22.1538V36.3957ZM25.1557 32.191C25.7307 31.2467 26.1475 29.7642 26.2794 27.5537L26.4482 24.6257H29.7139V32.191H25.1557ZM37.8397 33.9478C40.2138 33.9478 41.7226 32.2754 41.7226 29.7695C41.7226 27.2583 40.2138 25.5806 37.8397 25.5806C35.4657 25.5806 33.9568 27.2583 33.9568 29.7695C33.9568 32.2754 35.4657 33.9478 37.8397 33.9478ZM37.8503 32.4179C36.5366 32.4179 35.893 31.2467 35.893 29.7642C35.893 28.2817 36.5366 27.0947 37.8503 27.0947C39.1428 27.0947 39.7865 28.2817 39.7865 29.7642C39.7865 31.2467 39.1428 32.4179 37.8503 32.4179ZM44.6005 25.6861H42.5747L44.9804 29.7378L42.5113 33.7896H44.5372L46.236 30.8721L47.9506 33.7896H49.9606L47.4758 29.7378L49.9184 25.6861H47.8978L46.236 28.6774L44.6005 25.6861ZM54.6256 33.9478C56.9997 33.9478 58.5085 32.2754 58.5085 29.7695C58.5085 27.2583 56.9997 25.5806 54.6256 25.5806C52.2516 25.5806 50.7427 27.2583 50.7427 29.7695C50.7427 32.2754 52.2516 33.9478 54.6256 33.9478ZM54.6362 32.4179C53.3225 32.4179 52.6789 31.2467 52.6789 29.7642C52.6789 28.2817 53.3225 27.0947 54.6362 27.0947C55.9287 27.0947 56.5724 28.2817 56.5724 29.7642C56.5724 31.2467 55.9287 32.4179 54.6362 32.4179ZM59.412 36.1425H61.2901V33.7896H66.5922V36.1425H68.4387V32.2174H67.1831V25.6861H61.3271L61.0949 28.5244C60.9419 30.3393 60.7415 31.6846 60.0556 32.2174H59.412V36.1425ZM62.0182 32.2174C62.5299 31.463 62.7198 30.239 62.857 28.5244L62.9836 27.2266H65.3577V32.2174H62.0182Z" fill="white"/>
<path d="M31.9849 136.322C36.5552 136.322 39.9067 132.947 39.9067 128.353C39.9067 123.701 36.6724 120.291 32.2661 120.291C30.6489 120.291 29.0786 120.865 28.0942 121.65H27.9536L28.7974 114.572H38.8286V111.994H26.3599L24.9067 123.806L27.6255 124.134C28.6216 123.419 30.3208 122.904 31.7974 122.916C34.856 122.939 37.0942 125.259 37.0942 128.4C37.0942 131.482 34.938 133.744 31.9849 133.744C29.5239 133.744 27.5669 132.162 27.3442 129.994H24.5317C24.7075 133.65 27.8599 136.322 31.9849 136.322ZM52.3901 136.322C57.687 136.322 60.7339 131.833 60.7339 123.994C60.7339 116.212 57.6401 111.666 52.3901 111.666C47.1401 111.666 44.0464 116.212 44.0464 123.994C44.0464 131.833 47.0933 136.322 52.3901 136.322ZM52.3901 133.744C48.8979 133.744 46.8589 130.24 46.8589 123.994C46.8589 117.759 48.9214 114.197 52.3901 114.197C55.8589 114.197 57.9214 117.759 57.9214 123.994C57.9214 130.24 55.8823 133.744 52.3901 133.744ZM66.4116 136.181C67.5718 136.181 68.521 135.232 68.521 134.072C68.521 132.912 67.5718 131.962 66.4116 131.962C65.2515 131.962 64.3022 132.912 64.3022 134.072C64.3022 135.232 65.2515 136.181 66.4116 136.181ZM80.4272 136.322C85.7241 136.322 88.771 131.833 88.771 123.994C88.771 116.212 85.6772 111.666 80.4272 111.666C75.1772 111.666 72.0835 116.212 72.0835 123.994C72.0835 131.833 75.1304 136.322 80.4272 136.322ZM80.4272 133.744C76.9351 133.744 74.896 130.24 74.896 123.994C74.896 117.759 76.9585 114.197 80.4272 114.197C83.896 114.197 85.9585 117.759 85.9585 123.994C85.9585 130.24 83.9194 133.744 80.4272 133.744ZM101.052 136.322C106.349 136.322 109.396 131.833 109.396 123.994C109.396 116.212 106.302 111.666 101.052 111.666C95.8022 111.666 92.7085 116.212 92.7085 123.994C92.7085 131.833 95.7554 136.322 101.052 136.322ZM101.052 133.744C97.5601 133.744 95.521 130.24 95.521 123.994C95.521 117.759 97.5835 114.197 101.052 114.197C104.521 114.197 106.583 117.759 106.583 123.994C106.583 130.24 104.544 133.744 101.052 133.744ZM121.677 136.322C126.974 136.322 130.021 131.833 130.021 123.994C130.021 116.212 126.927 111.666 121.677 111.666C116.427 111.666 113.333 116.212 113.333 123.994C113.333 131.833 116.38 136.322 121.677 136.322ZM121.677 133.744C118.185 133.744 116.146 130.24 116.146 123.994C116.146 117.759 118.208 114.197 121.677 114.197C125.146 114.197 127.208 117.759 127.208 123.994C127.208 130.24 125.169 133.744 121.677 133.744ZM145.396 126.244C150.74 126.244 153.224 123.009 153.224 119.119C153.224 115.228 150.74 111.994 145.396 111.994H137.005V123.666H133.208V126.244H137.005V128.494H133.208V131.072H137.005V135.994H139.912V131.072H145.208V128.494H139.912V126.244H145.396ZM139.912 123.666V114.572H145.396C148.771 114.572 150.365 116.494 150.365 119.119C150.365 121.744 148.771 123.666 145.396 123.666H139.912Z" fill="white"/>
<path d="M32.1895 78.739L23.2758 88.6432V106.966H146.088V64.3779L121.327 75.2726L116.375 68.8348L112.414 71.8061L109.442 68.8348L85.1771 81.7103L76.7585 74.2821L59.4261 88.6432L54.9692 81.7103L52.4932 78.739L45.065 83.6911L39.6177 78.739L36.6464 81.7103L32.1895 78.739Z" fill="url(#paint0_linear_2_11)"/>
<path d="M23.2758 88.6432L32.1895 78.739L36.6464 81.7103L39.6177 78.739L45.065 83.6911L52.4932 78.739L54.9692 81.7103L59.4261 88.6432L76.7585 74.2821L85.1771 81.7103L109.442 68.8348L112.414 71.8061L116.375 68.8348L121.327 75.2726L146.088 64.3779" stroke="#43F95A" stroke-width="1.98084"/>
<path d="M26.1657 55.1587C28.2287 55.1587 29.6172 53.5916 29.6172 51.2311C29.6172 48.8507 28.2287 47.2836 26.1657 47.2836C24.1027 47.2836 22.7141 48.8507 22.7141 51.2311C22.7141 53.5916 24.1027 55.1587 26.1657 55.1587ZM26.1657 54.1074C24.5986 54.1074 23.8845 52.7585 23.8845 51.2311C23.8845 49.7036 24.5986 48.3349 26.1657 48.3349C27.7328 48.3349 28.4469 49.7036 28.4469 51.2311C28.4469 52.7585 27.7328 54.1074 26.1657 54.1074ZM30.4082 48.4738H32.9274V55H34.0978V48.4738H36.5972V47.3828H30.4082V48.4738ZM45.386 55.1389C47.3201 55.1389 48.7384 53.7106 48.7384 51.7666C48.7384 49.7979 47.3697 48.3548 45.505 48.3548C44.8207 48.3548 44.1562 48.5978 43.7396 48.93H43.6801L44.0371 45.9347H48.2822V44.8437H43.0056L42.3907 49.8425L43.5412 49.9814C43.9627 49.6789 44.6818 49.4607 45.3067 49.4656C46.601 49.4755 47.5482 50.4574 47.5482 51.7865C47.5482 53.0907 46.6357 54.0478 45.386 54.0478C44.3446 54.0478 43.5164 53.3784 43.4222 52.4609H42.232C42.3064 54.0082 43.6404 55.1389 45.386 55.1389ZM54.0211 55.1389C56.2626 55.1389 57.552 53.2395 57.552 49.9218C57.552 46.629 56.2428 44.7048 54.0211 44.7048C51.7994 44.7048 50.4902 46.629 50.4902 49.9218C50.4902 53.2395 51.7796 55.1389 54.0211 55.1389ZM54.0211 54.0478C52.5433 54.0478 51.6804 52.5651 51.6804 49.9218C51.6804 47.2836 52.5532 45.776 54.0211 45.776C55.489 45.776 56.3618 47.2836 56.3618 49.9218C56.3618 52.5651 55.4989 54.0478 54.0211 54.0478ZM62.9475 48.4738H65.4668V55H66.6371V48.4738H69.1365V47.3828H62.9475V48.4738ZM72.0141 50.1401V47.3828H70.8437V55H74.0374C75.8227 55 76.7947 53.909 76.7947 52.5403C76.7947 51.1517 75.8227 50.1401 74.0374 50.1401H72.0141ZM78.0047 55H79.1751V47.3828H78.0047V55ZM72.0141 51.2311H74.0374C74.9648 51.2311 75.6243 51.7964 75.6243 52.5998C75.6243 53.3684 74.9648 53.909 74.0374 53.909H72.0141V51.2311ZM84.4119 55.1587C86.098 55.1587 87.2089 54.1272 87.4072 52.7783H86.2369C86.0187 53.6114 85.3244 54.1074 84.4119 54.1074C83.0233 54.1074 82.1307 52.9568 82.1307 51.1914C82.1307 49.4656 83.0432 48.3349 84.4119 48.3349C85.4434 48.3349 86.0583 48.9697 86.2369 49.664H87.4072C87.2089 48.2357 85.9988 47.2836 84.3921 47.2836C82.3291 47.2836 80.9603 48.9102 80.9603 51.2311C80.9603 53.5123 82.2696 55.1587 84.4119 55.1587ZM89.9711 55.0793C90.462 55.0793 90.8637 54.6777 90.8637 54.1867C90.8637 53.6957 90.462 53.2941 89.9711 53.2941C89.4801 53.2941 89.0784 53.6957 89.0784 54.1867C89.0784 54.6777 89.4801 55.0793 89.9711 55.0793ZM96.8916 57.8565H98.0619V53.8296H98.1611C98.419 54.2462 98.9149 55.1587 100.383 55.1587C102.287 55.1587 103.616 53.6313 103.616 51.2112C103.616 48.811 102.287 47.2836 100.363 47.2836C98.8752 47.2836 98.419 48.1961 98.1611 48.5928H98.0222V47.3828H96.8916V57.8565ZM98.0421 51.1914C98.0421 49.4854 98.7959 48.3349 100.224 48.3349C101.712 48.3349 102.446 49.5846 102.446 51.1914C102.446 52.818 101.692 54.1074 100.224 54.1074C98.8157 54.1074 98.0421 52.9172 98.0421 51.1914ZM105.882 57.8565C106.939 57.8565 107.683 57.2961 108.124 56.1108L111.367 47.4026L110.088 47.3828L107.985 53.4528H107.906L105.803 47.3828H104.534L107.35 55.0397L107.132 55.6348C106.706 56.7952 106.18 56.9043 105.327 56.6861L105.029 57.7176C105.149 57.7771 105.486 57.8565 105.882 57.8565ZM118.569 44.5263C118.197 44.8387 117.642 44.8387 116.863 44.8338C116.61 44.8338 116.333 44.8338 116.03 44.8437C113.709 44.9032 112.559 46.6687 112.559 50.0607V50.874C112.559 53.6908 113.927 55.1587 115.971 55.1587C118.009 55.1587 119.363 53.6809 119.363 51.2906C119.363 48.8904 117.989 47.6208 116.209 47.6208C115.162 47.6208 114.185 48.0572 113.67 49.0094H113.57C113.729 47.0456 114.463 45.9942 116.05 45.9347C117.458 45.8752 118.47 45.9149 119.164 45.2404L118.569 44.5263ZM115.971 54.1074C114.582 54.1074 113.729 52.9965 113.729 51.2906C113.754 49.6243 114.592 48.6721 115.951 48.6721C117.344 48.6721 118.192 49.6243 118.192 51.2906C118.192 53.0064 117.349 54.1074 115.971 54.1074ZM120.478 55H120.875C122.561 55 123.047 53.6908 123.156 51.1914L123.275 48.4738H126.072V55H127.243V47.3828H122.165L122.026 50.755C121.926 53.3139 121.669 53.909 120.756 53.909H120.478V55ZM132.584 55.1587C134.131 55.1587 135.262 54.3851 135.619 53.2345L134.488 52.9172C134.19 53.7106 133.501 54.1074 132.584 54.1074C131.21 54.1074 130.263 53.2197 130.208 51.5881H135.738V51.0922C135.738 48.2556 134.052 47.2836 132.465 47.2836C130.402 47.2836 129.033 48.9102 129.033 51.2509C129.033 53.5916 130.382 55.1587 132.584 55.1587ZM130.208 50.5765C130.288 49.3912 131.126 48.3349 132.465 48.3349C133.734 48.3349 134.547 49.2871 134.547 50.5765H130.208ZM138.688 53.2742V47.3828H137.518V55H138.887L142.537 49.1086V55H143.707V47.3828H142.358L138.688 53.2742ZM141.584 44.8437C141.584 45.3594 141.307 45.8157 140.612 45.8157C139.918 45.8157 139.66 45.3594 139.66 44.8437H138.569C138.569 45.9149 139.363 46.6687 140.612 46.6687C141.882 46.6687 142.675 45.9149 142.675 44.8437H141.584Z" fill="#9D89FF"/>
<defs>
<filter id="filter0_b_2_11" x="-11.4163" y="-11.4163" width="191.204" height="192.194" filterUnits="userSpaceOnUse" color-interpolation-filters="sRGB">
<feFlood flood-opacity="0" result="BackgroundImageFix"/>
<feGaussianBlur in="BackgroundImage" stdDeviation="5.70813"/>
<feComposite in2="SourceAlpha" operator="in" result="effect1_backgroundBlur_2_11"/>
<feBlend mode="normal" in="SourceGraphic" in2="effect1_backgroundBlur_2_11" result="shape"/>
</filter>
<linearGradient id="paint0_linear_2_11" x1="84.6819" y1="64.3779" x2="84.6819" y2="99.0427" gradientUnits="userSpaceOnUse">
<stop stop-color="#43F95A"/>
<stop offset="1" stop-color="#262626" stop-opacity="0"/>
</linearGradient>
</defs>
</svg>
