<svg width="169" height="170" viewBox="0 0 169 170" fill="none" xmlns="http://www.w3.org/2000/svg">
<g filter="url(#filter0_b_2_21)">
<rect x="0.628418" width="168.372" height="169.362" rx="19.8084" fill="#C4C4C4" fill-opacity="0.1"/>
</g>
<rect x="17" y="17" width="96" height="38" rx="7" fill="#00B817"/>
<path d="M32.7324 26.6305C32.4 24.23 30.5536 22.8372 28.1584 22.8372C25.3359 22.8372 23.2098 24.8948 23.2098 28.3873C23.2098 31.8745 25.3095 33.9373 28.1584 33.9373C30.7277 33.9373 32.4317 32.2754 32.7324 30.2126L30.7593 30.2021C30.5114 31.4683 29.4773 32.1805 28.1848 32.1805C26.4333 32.1805 25.1776 30.8668 25.1776 28.3873C25.1776 25.9499 26.4227 24.594 28.1901 24.594C29.5037 24.594 30.5325 25.3379 30.7593 26.6305H32.7324ZM33.9973 27.253H36.6193V33.7896H38.4658V27.253H41.0878V25.6861H33.9973V27.253ZM44.6067 33.9531C45.8781 33.9531 46.6378 33.3569 46.986 32.6764H47.0493V33.7896H48.8852V28.3662C48.8852 26.2242 47.139 25.5806 45.5932 25.5806C43.8892 25.5806 42.5808 26.3403 42.1587 27.8175L43.9419 28.0707C44.1318 27.5168 44.67 27.042 45.6038 27.042C46.4901 27.042 46.9754 27.4957 46.9754 28.2923V28.3239C46.9754 28.8726 46.4004 28.899 44.9707 29.052C43.3985 29.2208 41.895 29.6903 41.895 31.5157C41.895 33.109 43.0609 33.9531 44.6067 33.9531ZM45.1026 32.5498C44.3059 32.5498 43.7362 32.1857 43.7362 31.4841C43.7362 30.7508 44.3745 30.4448 45.2292 30.3234C45.7304 30.2548 46.7328 30.1282 46.9807 29.9278V30.8827C46.9807 31.7848 46.2527 32.5498 45.1026 32.5498ZM50.8056 36.8283H52.7154V32.5128H52.7945C53.0952 33.1037 53.723 33.932 55.1158 33.932C57.0256 33.932 58.4553 32.4179 58.4553 29.7484C58.4553 27.0472 56.9834 25.5806 55.1105 25.5806C53.6808 25.5806 53.0847 26.4405 52.7945 27.0261H52.6837V25.6861H50.8056V36.8283ZM52.6784 29.7378C52.6784 28.1657 53.3537 27.1475 54.583 27.1475C55.8544 27.1475 56.5086 28.229 56.5086 29.7378C56.5086 31.2572 55.8439 32.3651 54.583 32.3651C53.3643 32.3651 52.6784 31.31 52.6784 29.7378ZM59.2124 27.253H61.8344V33.7896H63.6809V27.253H66.3029V25.6861H59.2124V27.253ZM71.0246 33.9478C73.3987 33.9478 74.9075 32.2754 74.9075 29.7695C74.9075 27.2583 73.3987 25.5806 71.0246 25.5806C68.6506 25.5806 67.1417 27.2583 67.1417 29.7695C67.1417 32.2754 68.6506 33.9478 71.0246 33.9478ZM71.0352 32.4179C69.7215 32.4179 69.0779 31.2467 69.0779 29.7642C69.0779 28.2817 69.7215 27.0947 71.0352 27.0947C72.3277 27.0947 72.9713 28.2817 72.9713 29.7642C72.9713 31.2467 72.3277 32.4179 71.0352 32.4179ZM76.5285 33.7896H80.4536C82.3528 33.7896 83.4396 32.9296 83.4396 31.5896C83.4396 30.4553 82.5586 29.664 81.2871 29.5532C82.3687 29.3527 83.0439 28.7777 83.0439 27.865C83.0439 26.4986 81.8464 25.6861 79.9313 25.6861H76.5285V33.7896ZM78.3169 32.286V30.2759H80.4536C81.1552 30.2759 81.5826 30.6822 81.5826 31.3522C81.5826 31.9325 81.1552 32.286 80.4536 32.286H78.3169ZM78.3169 29.0414V27.2161H79.9313C80.7279 27.2161 81.2133 27.5537 81.2133 28.1076C81.2133 28.688 80.7437 29.0414 79.9682 29.0414H78.3169ZM86.8569 28.3239V25.6861H85.0157V33.7896H88.6982C90.7609 33.7896 91.948 32.65 91.9532 31.0567C91.948 29.4213 90.7609 28.3239 88.6982 28.3239H86.8569ZM92.9609 33.7896H94.8707V25.6861H92.9609V33.7896ZM86.8569 29.8908H88.6982C89.5264 29.8908 90.1226 30.3815 90.1226 31.0831C90.1226 31.7531 89.5264 32.2227 88.6982 32.2227H86.8569V29.8908ZM98.6811 31.2045V25.6861H96.8398V33.7896H98.8077L102.042 28.2659V33.7896H103.888V25.6861H101.926L98.6811 31.2045ZM101.403 22.9005C101.398 23.4176 101.103 23.8765 100.359 23.8765C99.6043 23.8765 99.3194 23.407 99.3194 22.9005H97.9003C97.895 24.1351 98.8499 24.9686 100.359 24.9686C101.878 24.9686 102.833 24.1351 102.833 22.9005H101.403ZM23.3997 47.7896H25.3095V44.7349H26.2433L28.4644 47.7896H30.7751L27.7416 43.664L30.7435 39.6861H28.4433L26.0059 42.957H25.3095V39.6861H23.3997V47.7896ZM34.1898 47.9531C35.4613 47.9531 36.221 47.3569 36.5692 46.6764H36.6325V47.7896H38.4684V42.3662C38.4684 40.2242 36.7221 39.5806 35.1764 39.5806C33.4723 39.5806 32.164 40.3403 31.7419 41.8175L33.5251 42.0707C33.715 41.5168 34.2531 41.042 35.1869 41.042C36.0732 41.042 36.5586 41.4957 36.5586 42.2923V42.3239C36.5586 42.8726 35.9836 42.899 34.5538 43.052C32.9817 43.2208 31.4781 43.6903 31.4781 45.5157C31.4781 47.109 32.644 47.9531 34.1898 47.9531ZM34.6857 46.5498C33.8891 46.5498 33.3193 46.1857 33.3193 45.4841C33.3193 44.7508 33.9577 44.4448 34.8123 44.3234C35.3135 44.2548 36.3159 44.1282 36.5639 43.9278V44.8827C36.5639 45.7848 35.8358 46.5498 34.6857 46.5498ZM40.3887 47.7896H42.2141V41.253H45.3901V47.7896H47.2313V39.6861H40.3887V47.7896ZM51.0364 45.2045V39.6861H49.1952V47.7896H51.163L54.397 42.2659V47.7896H56.2435V39.6861H54.2809L51.0364 45.2045ZM57.2973 41.253H59.9193V47.7896H61.7658V41.253H64.3878V39.6861H57.2973V41.253ZM67.9067 47.9531C69.1781 47.9531 69.9378 47.3569 70.286 46.6764H70.3493V47.7896H72.1853V42.3662C72.1853 40.2242 70.439 39.5806 68.8932 39.5806C67.1892 39.5806 65.8808 40.3403 65.4588 41.8175L67.242 42.0707C67.4319 41.5168 67.97 41.042 68.9038 41.042C69.7901 41.042 70.2755 41.4957 70.2755 42.2923V42.3239C70.2755 42.8726 69.7004 42.899 68.2707 43.052C66.6986 43.2208 65.195 43.6903 65.195 45.5157C65.195 47.109 66.3609 47.9531 67.9067 47.9531ZM68.4026 46.5498C67.606 46.5498 67.0362 46.1857 67.0362 45.4841C67.0362 44.7508 67.6746 44.4448 68.5292 44.3234C69.0304 44.2548 70.0328 44.1282 70.2808 43.9278V44.8827C70.2808 45.7848 69.5527 46.5498 68.4026 46.5498ZM73.5464 47.7896H74.1373C75.8782 47.7896 76.6643 46.5656 76.7909 43.8644L76.9176 41.253H79.2441V47.7896H81.0906V39.6861H75.1819L75.0394 43.2736C74.9497 45.5474 74.6543 46.2174 73.8155 46.2174H73.5358L73.5464 47.7896Z" fill="white"/>
<path d="M31.7694 111.666C26.8944 111.607 23.7538 115.275 23.7538 119.681C23.7538 124.322 27.1757 127.65 31.3007 127.65C33.7851 127.65 35.8944 126.431 37.2069 124.462H37.3944C37.3944 130.369 35.0976 133.744 31.3944 133.744C28.8632 133.744 27.3163 132.15 26.8007 129.947H23.9413C24.5038 133.744 27.3632 136.322 31.3944 136.322C36.7851 136.322 40.1132 131.541 40.1132 123.009C40.1132 114.197 35.7069 111.712 31.7694 111.666ZM31.7694 114.244C34.7694 114.244 36.9726 116.822 36.9726 119.634C36.9726 122.494 34.6288 125.072 31.6757 125.072C28.7226 125.072 26.5663 122.681 26.5663 119.681C26.5663 116.681 28.8163 114.244 31.7694 114.244ZM52.3622 111.666C47.4872 111.607 44.3466 115.275 44.3466 119.681C44.3466 124.322 47.7685 127.65 51.8935 127.65C54.3778 127.65 56.4872 126.431 57.7997 124.462H57.9872C57.9872 130.369 55.6903 133.744 51.9872 133.744C49.456 133.744 47.9091 132.15 47.3935 129.947H44.5341C45.0966 133.744 47.956 136.322 51.9872 136.322C57.3778 136.322 60.706 131.541 60.706 123.009C60.706 114.197 56.2997 111.712 52.3622 111.666ZM52.3622 114.244C55.3622 114.244 57.5653 116.822 57.5653 119.634C57.5653 122.494 55.2216 125.072 52.2685 125.072C49.3153 125.072 47.1591 122.681 47.1591 119.681C47.1591 116.681 49.4091 114.244 52.3622 114.244ZM73.1425 136.322C78.4394 136.322 81.4862 131.833 81.4862 123.994C81.4862 116.212 78.3925 111.666 73.1425 111.666C67.8925 111.666 64.7987 116.212 64.7987 123.994C64.7987 131.833 67.8456 136.322 73.1425 136.322ZM73.1425 133.744C69.6503 133.744 67.6112 130.24 67.6112 123.994C67.6112 117.759 69.6737 114.197 73.1425 114.197C76.6112 114.197 78.6737 117.759 78.6737 123.994C78.6737 130.24 76.6347 133.744 73.1425 133.744ZM96.8612 126.244C102.205 126.244 104.689 123.009 104.689 119.119C104.689 115.228 102.205 111.994 96.8612 111.994H88.4706V123.666H84.6737V126.244H88.4706V128.494H84.6737V131.072H88.4706V135.994H91.3768V131.072H96.6737V128.494H91.3768V126.244H96.8612ZM91.3768 123.666V114.572H96.8612C100.236 114.572 101.83 116.494 101.83 119.119C101.83 121.744 100.236 123.666 96.8612 123.666H91.3768Z" fill="white"/>
<path d="M32.8182 78.739L23.9044 88.6432V106.966H146.717V64.3779L121.956 75.2726L117.004 68.8348L113.042 71.8061L110.071 68.8348L85.8057 81.7103L77.3872 74.2821L60.0548 88.6432L55.5979 81.7103L53.1218 78.739L45.6937 83.6911L40.2464 78.739L37.2751 81.7103L32.8182 78.739Z" fill="url(#paint0_linear_2_21)"/>
<path d="M23.9044 88.6432L32.8182 78.739L37.2751 81.7103L40.2464 78.739L45.6937 83.6911L53.1218 78.739L55.5979 81.7103L60.0548 88.6432L77.3872 74.2821L85.8057 81.7103L110.071 68.8348L113.042 71.8061L117.004 68.8348L121.956 75.2726L146.717 64.3779" stroke="#43F95A" stroke-width="1.98084"/>
<defs>
<filter id="filter0_b_2_21" x="-10.7878" y="-11.4163" width="191.204" height="192.194" filterUnits="userSpaceOnUse" color-interpolation-filters="sRGB">
<feFlood flood-opacity="0" result="BackgroundImageFix"/>
<feGaussianBlur in="BackgroundImage" stdDeviation="5.70813"/>
<feComposite in2="SourceAlpha" operator="in" result="effect1_backgroundBlur_2_21"/>
<feBlend mode="normal" in="SourceGraphic" in2="effect1_backgroundBlur_2_21" result="shape"/>
</filter>
<linearGradient id="paint0_linear_2_21" x1="85.3105" y1="64.3779" x2="85.3105" y2="99.0427" gradientUnits="userSpaceOnUse">
<stop stop-color="#43F95A"/>
<stop offset="1" stop-color="#262626" stop-opacity="0"/>
</linearGradient>
</defs>
</svg>
