<svg width="64" height="65" viewBox="0 0 64 65" fill="none" xmlns="http://www.w3.org/2000/svg">
<path fill-rule="evenodd" clip-rule="evenodd" d="M54.8571 29.9199H55.52C56.0822 29.9169 56.6393 30.0254 57.1593 30.2391C57.6792 30.4529 58.1516 30.7676 58.5491 31.1651C58.9466 31.5626 59.2614 32.035 59.4751 32.5549C59.6888 33.0749 59.7973 33.6321 59.7943 34.1942V39.4514C59.7973 39.7344 59.7439 40.0151 59.637 40.2772C59.5301 40.5392 59.3719 40.7773 59.1718 40.9775C58.9717 41.1776 58.7336 41.3357 58.4715 41.4426C58.2095 41.5495 57.9287 41.603 57.6457 41.5999H54.8571C54.8571 37.7142 54.8571 33.8285 54.8571 29.9657V29.9199ZM8.59429 29.9199H9.30286C9.30286 33.8056 9.30286 37.6914 9.30286 41.5999H6.42286C6.13985 41.603 5.85909 41.5495 5.59703 41.4426C5.33497 41.3357 5.09689 41.1776 4.89677 40.9775C4.69664 40.7773 4.5385 40.5392 4.4316 40.2772C4.32471 40.0151 4.27123 39.7344 4.27429 39.4514V34.1942C4.27126 33.6321 4.37974 33.0749 4.59347 32.5549C4.8072 32.035 5.12193 31.5626 5.51944 31.1651C5.91695 30.7676 6.38935 30.4529 6.90929 30.2391C7.42924 30.0254 7.98642 29.9169 8.54857 29.9199H8.59429ZM42.0571 28.0457L42.9029 30.6056C43.0502 31.0274 43.3253 31.3927 43.6899 31.6508C44.0545 31.9088 44.4904 32.0469 44.9371 32.0456H50.6971V44.5028L38.4914 50.6285H29.7143C29.1856 50.6833 28.696 50.932 28.34 51.3267C27.984 51.7215 27.787 52.2341 27.787 52.7656C27.787 53.2972 27.984 53.8098 28.34 54.2045C28.696 54.5993 29.1856 54.848 29.7143 54.9028H38.8571C39.1909 54.9056 39.5204 54.8272 39.8171 54.6742L49.0971 50.1028C48.0542 51.9373 46.6828 53.5643 45.0514 54.9028C41.4058 58.0106 36.79 59.7486 32 59.8171C27.2495 59.7222 22.6783 57.9858 19.0629 54.9028C17.4732 53.723 16.1534 52.2177 15.1917 50.4874C14.23 48.757 13.6484 46.8415 13.4857 44.8685V32.0456H37.9657C38.3026 32.0488 38.6351 31.9692 38.934 31.8137C39.2329 31.6583 39.4891 31.4318 39.68 31.1542L42.0571 28.0457ZM32 13.4857C36.1848 13.4755 40.2493 14.8851 43.5293 17.4841C46.8092 20.0831 49.1105 23.7179 50.0571 27.7942H46.4229L44.7771 22.9028C44.629 22.4616 44.3417 22.0805 43.9584 21.8167C43.575 21.5529 43.1164 21.4207 42.6514 21.4399C42.3331 21.4538 42.022 21.5391 41.7411 21.6895C41.4602 21.8398 41.2167 22.0514 41.0286 22.3085L36.9143 27.8628H14.0571C14.9934 23.7967 17.2741 20.1654 20.5303 17.5563C23.7864 14.9472 27.8276 13.513 32 13.4857ZM26.24 4.3428H37.6686C39.3553 4.33677 41.0265 4.66416 42.5863 5.30615C44.146 5.94815 45.5635 6.89208 46.7572 8.08369C47.951 9.2753 48.8974 10.6911 49.5422 12.2497C50.1869 13.8083 50.5173 15.479 50.5143 17.1657V18.8571C48.3987 15.9031 45.6094 13.4961 42.3776 11.8355C39.1459 10.175 35.5648 9.30882 31.9314 9.30882C28.298 9.30882 24.717 10.175 21.4852 11.8355C18.2535 13.4961 15.4642 15.9031 13.3486 18.8571V17.0971C13.3454 15.4007 13.6795 13.7206 14.3314 12.1545C14.9833 10.5883 15.94 9.16738 17.1459 7.97424C18.3517 6.78111 19.7828 5.83958 21.3558 5.20439C22.9288 4.5692 24.6123 4.25302 26.3086 4.27422L26.24 4.3428ZM26.24 0.0685114C21.7193 0.0744827 17.3844 1.8683 14.1813 5.05853C10.9782 8.24875 9.167 12.5764 9.14286 17.0971V25.6456H8.54857C6.2832 25.6517 4.11235 26.5543 2.51048 28.1561C0.908621 29.758 0.00603297 31.9289 0 34.1942V39.4514C0.0119705 41.1511 0.692506 42.7778 1.89444 43.9798C3.09637 45.1817 4.72311 45.8622 6.42286 45.8742H9.28C9.57368 48.3053 10.3497 50.6533 11.5625 52.7806C12.7752 54.9079 14.4005 56.7717 16.3429 58.2628C20.7341 61.9465 26.2685 63.9906 32 64.0456C37.7601 63.9899 43.3207 61.9289 47.7257 58.2171C49.6803 56.742 51.3187 54.8894 52.5437 52.7692C53.7687 50.6489 54.5554 48.3043 54.8571 45.8742H57.6C59.2976 45.8622 60.922 45.1809 62.1203 43.9783C63.3185 42.7758 63.994 41.149 64 39.4514V34.1942C63.994 31.9328 63.0946 29.7654 61.4976 28.1642C59.9007 26.5629 57.7357 25.6577 55.4743 25.6456H54.8571V17.0971C54.8391 12.5803 53.0368 8.25371 49.8429 5.05985C46.6491 1.86599 42.3225 0.0637095 37.8057 0.0456543L26.24 0.0685114Z" fill="white"/>
</svg>
