<svg width="198" height="226" viewBox="0 0 198 226" fill="none" xmlns="http://www.w3.org/2000/svg">
<circle cx="99" cy="109" r="67" stroke="black" stroke-opacity="0.1" stroke-width="11"/>
<path d="M99 176C116.77 176 133.811 168.941 146.376 156.376C158.941 143.811 166 126.77 166 109C166 91.2305 158.941 74.1888 146.376 61.6239C133.811 49.0589 116.77 42 99 42" stroke="url(#paint0_linear_107_459)" stroke-width="11" stroke-linecap="round"/>
<g filter="url(#filter0_d_107_459)">
<rect x="4" width="189.982" height="218" rx="19.8084" fill="url(#paint1_linear_107_459)" fill-opacity="0.1" shape-rendering="crispEdges"/>
</g>
<path fill-rule="evenodd" clip-rule="evenodd" d="M99 140C116.121 140 130 126.121 130 109C130 91.8792 116.121 78 99 78C81.8792 78 68 91.8792 68 109C68 126.121 81.8792 140 99 140ZM101.294 127.909H96.9577L97.0187 124.26C90.2236 123.618 85.9328 120.06 85.9023 113.006H93.9648C94.0716 115.174 95.1863 116.564 97.1256 117.129L97.2172 111.402L95.6139 111.051C90.0709 109.86 86.681 107.142 86.6963 102.256C86.6505 96.8043 91.0635 92.9869 97.5074 92.3761L97.5684 88.8182H101.905L101.844 92.4524C107.952 93.2617 111.647 97.0639 111.678 102.5H103.554C103.447 101.187 102.867 100.225 101.737 99.7056L101.646 105.035L102.333 105.188C109.235 106.669 112.075 110.013 112.105 114.777C112.075 120.427 108.105 123.771 101.355 124.29L101.294 127.909ZM101.539 112.563L101.462 117.098C102.745 116.67 103.417 115.831 103.432 114.777C103.417 113.846 102.882 113.143 101.539 112.563ZM95.5528 101.645C95.507 102.637 96.072 103.355 97.3394 103.905L97.4005 99.5071C96.1331 99.8888 95.5681 100.668 95.5528 101.645Z" fill="white"/>
<path fill-rule="evenodd" clip-rule="evenodd" d="M134.321 83L125.66 98L117 83L124.16 83L124.16 78L127.16 78L127.16 83L134.321 83Z" fill="#FF0000"/>
<defs>
<filter id="filter0_d_107_459" x="0" y="0" width="197.982" height="226" filterUnits="userSpaceOnUse" color-interpolation-filters="sRGB">
<feFlood flood-opacity="0" result="BackgroundImageFix"/>
<feColorMatrix in="SourceAlpha" type="matrix" values="0 0 0 0 0 0 0 0 0 0 0 0 0 0 0 0 0 0 127 0" result="hardAlpha"/>
<feOffset dy="4"/>
<feGaussianBlur stdDeviation="2"/>
<feComposite in2="hardAlpha" operator="out"/>
<feColorMatrix type="matrix" values="0 0 0 0 0 0 0 0 0 0 0 0 0 0 0 0 0 0 0.25 0"/>
<feBlend mode="normal" in2="BackgroundImageFix" result="effect1_dropShadow_107_459"/>
<feBlend mode="normal" in="SourceGraphic" in2="effect1_dropShadow_107_459" result="shape"/>
</filter>
<linearGradient id="paint0_linear_107_459" x1="99" y1="42" x2="99" y2="176" gradientUnits="userSpaceOnUse">
<stop stop-color="#FF006B"/>
<stop offset="1" stop-color="#FF0000" stop-opacity="0"/>
</linearGradient>
<linearGradient id="paint1_linear_107_459" x1="98.9909" y1="0" x2="98.9909" y2="218" gradientUnits="userSpaceOnUse">
<stop stop-color="#10006A"/>
<stop offset="1" stop-color="#1A01A9"/>
</linearGradient>
</defs>
</svg>
