<svg width="1000" height="581" viewBox="0 0 1000 581" fill="none" xmlns="http://www.w3.org/2000/svg">
<circle cx="480.5" cy="290.5" r="284.5" stroke="url(#paint0_linear_115_2137)" stroke-width="11"/>
<path d="M480.5 575C555.954 575 628.318 545.026 681.672 491.672C735.026 438.318 765 365.954 765 290.5C765 215.046 735.026 142.682 681.672 89.3282C628.318 35.974 555.954 6.00001 480.5 6" stroke="url(#paint1_linear_115_2137)" stroke-width="11" stroke-linecap="round"/>
<g filter="url(#filter0_b_115_2137)">
<circle cx="480.5" cy="290.5" r="284.5" fill="url(#paint2_linear_115_2137)" fill-opacity="0.1"/>
<circle cx="480.5" cy="290.5" r="284" stroke="url(#paint3_linear_115_2137)" stroke-opacity="0.2"/>
</g>
<path d="M580.636 311.704C577.052 311.704 573.958 311.448 571.356 310.936C568.753 310.424 566.556 309.763 564.764 308.952C562.972 308.099 561.521 307.16 560.412 306.136C559.345 305.069 558.513 304.003 557.916 302.936C557.318 301.869 556.913 300.845 556.7 299.864C556.529 298.883 556.444 298.051 556.444 297.368V296.536H572.444C572.486 296.792 572.615 297.133 572.828 297.56C573.084 297.944 573.553 298.349 574.236 298.776C574.918 299.16 575.878 299.501 577.116 299.8C578.353 300.099 580.017 300.248 582.108 300.248C584.028 300.248 585.628 300.099 586.908 299.8C588.188 299.501 589.212 299.117 589.98 298.648C590.791 298.136 591.345 297.56 591.644 296.92C591.985 296.28 592.156 295.597 592.156 294.872V294.552C592.156 293.784 591.985 293.101 591.644 292.504C591.345 291.864 590.812 291.331 590.044 290.904C589.276 290.435 588.231 290.072 586.908 289.816C585.628 289.56 584.028 289.432 582.108 289.432C580.06 289.432 578.396 289.56 577.116 289.816C575.878 290.072 574.918 290.392 574.236 290.776C573.553 291.117 573.062 291.48 572.764 291.864C572.508 292.205 572.358 292.483 572.316 292.696H557.148V263.384H604.06V274.776H572.252V283.096C572.422 282.968 572.807 282.712 573.404 282.328C574.044 281.901 574.918 281.475 576.028 281.048C577.18 280.621 578.588 280.237 580.252 279.896C581.959 279.555 583.964 279.384 586.268 279.384H586.972C591.153 279.384 594.567 279.832 597.212 280.728C599.857 281.624 601.926 282.797 603.42 284.248C604.956 285.656 606.001 287.256 606.556 289.048C607.111 290.797 607.388 292.525 607.388 294.232V295C607.388 296.749 607.068 298.605 606.428 300.568C605.831 302.488 604.636 304.28 602.844 305.944C601.095 307.608 598.641 308.995 595.484 310.104C592.369 311.171 588.294 311.704 583.26 311.704H580.636ZM645.277 262.616C649.245 262.616 652.679 263 655.581 263.768C658.525 264.493 661.021 265.496 663.069 266.776C665.16 268.013 666.866 269.443 668.189 271.064C669.554 272.685 670.6 274.371 671.325 276.12C672.093 277.827 672.626 279.555 672.925 281.304C673.224 283.053 673.373 284.653 673.373 286.104V288.024C673.373 289.475 673.224 291.075 672.925 292.824C672.626 294.531 672.093 296.28 671.325 298.072C670.557 299.821 669.512 301.528 668.189 303.192C666.866 304.813 665.16 306.264 663.069 307.544C660.978 308.824 658.461 309.848 655.517 310.616C652.616 311.384 649.202 311.768 645.277 311.768H642.461C638.536 311.768 635.101 311.384 632.157 310.616C629.255 309.848 626.759 308.824 624.669 307.544C622.578 306.264 620.871 304.813 619.549 303.192C618.226 301.528 617.181 299.821 616.413 298.072C615.645 296.28 615.111 294.531 614.813 292.824C614.514 291.075 614.365 289.475 614.365 288.024V286.104C614.365 284.611 614.514 282.989 614.813 281.24C615.111 279.491 615.645 277.763 616.413 276.056C617.181 274.307 618.226 272.621 619.549 271C620.871 269.379 622.578 267.949 624.669 266.712C626.759 265.475 629.255 264.493 632.157 263.768C635.101 263 638.536 262.616 642.461 262.616H645.277ZM657.437 286.552C657.437 285.528 657.266 284.333 656.925 282.968C656.626 281.56 655.986 280.237 655.005 279C654.066 277.763 652.701 276.717 650.909 275.864C649.159 274.968 646.813 274.52 643.869 274.52C640.882 274.52 638.493 274.968 636.701 275.864C634.909 276.717 633.543 277.763 632.605 279C631.666 280.237 631.047 281.56 630.749 282.968C630.45 284.333 630.301 285.528 630.301 286.552V287.384C630.301 288.408 630.45 289.645 630.749 291.096C631.09 292.504 631.752 293.848 632.733 295.128C633.714 296.408 635.08 297.496 636.829 298.392C638.621 299.288 640.989 299.736 643.933 299.736C646.877 299.736 649.224 299.288 650.973 298.392C652.765 297.496 654.13 296.408 655.069 295.128C656.05 293.848 656.69 292.504 656.989 291.096C657.287 289.645 657.437 288.408 657.437 287.384V286.552ZM681.995 297.014C681.995 297.841 682.121 298.462 682.373 298.875C682.625 299.279 683.029 299.481 683.584 299.481C684.129 299.481 684.533 299.279 684.795 298.875C685.057 298.472 685.188 297.851 685.188 297.014C685.188 295.379 684.654 294.562 683.584 294.562C683.029 294.562 682.625 294.763 682.373 295.167C682.121 295.571 681.995 296.186 681.995 297.014ZM688.852 296.983C688.852 297.861 688.746 298.653 688.534 299.36C688.332 300.056 688.014 300.646 687.58 301.131C687.146 301.605 686.596 301.973 685.93 302.236C685.264 302.488 684.472 302.614 683.554 302.614C682.696 302.614 681.939 302.488 681.283 302.236C680.637 301.973 680.092 301.605 679.648 301.131C679.215 300.646 678.887 300.056 678.665 299.36C678.443 298.653 678.332 297.861 678.332 296.983C678.332 296.105 678.432 295.318 678.634 294.622C678.836 293.926 679.149 293.34 679.573 292.866C680.007 292.392 680.552 292.029 681.208 291.776C681.863 291.524 682.646 291.398 683.554 291.398C684.422 291.398 685.183 291.524 685.839 291.776C686.505 292.029 687.06 292.392 687.504 292.866C687.948 293.34 688.281 293.926 688.503 294.622C688.736 295.318 688.852 296.105 688.852 296.983ZM698.796 291.716L686.672 311H683.206L695.33 291.716H698.796ZM696.874 305.687C696.874 306.514 697 307.135 697.252 307.549C697.505 307.952 697.908 308.154 698.463 308.154C699.008 308.154 699.412 307.952 699.674 307.549C699.937 307.145 700.068 306.525 700.068 305.687C700.068 304.052 699.533 303.235 698.463 303.235C697.908 303.235 697.505 303.437 697.252 303.84C697 304.244 696.874 304.86 696.874 305.687ZM703.731 305.657C703.731 306.535 703.625 307.322 703.413 308.018C703.211 308.714 702.893 309.305 702.459 309.789C702.026 310.263 701.476 310.632 700.81 310.894C700.144 311.146 699.351 311.272 698.433 311.272C697.575 311.272 696.824 311.146 696.178 310.894C695.532 310.632 694.987 310.263 694.543 309.789C694.109 309.305 693.781 308.714 693.559 308.018C693.337 307.322 693.226 306.535 693.226 305.657C693.226 304.779 693.327 303.992 693.529 303.295C693.731 302.599 694.043 302.014 694.467 301.54C694.891 301.065 695.431 300.702 696.087 300.45C696.743 300.197 697.525 300.071 698.433 300.071C699.301 300.071 700.063 300.197 700.719 300.45C701.385 300.702 701.94 301.065 702.384 301.54C702.828 302.014 703.161 302.599 703.383 303.295C703.615 303.992 703.731 304.779 703.731 305.657Z" fill="white"/>
<path d="M285.485 287.836V284.25C286.336 284.25 287.047 284.206 287.619 284.118C288.206 284.03 288.697 283.891 289.093 283.7C289.489 283.495 289.812 283.231 290.061 282.908C290.311 282.571 290.523 282.145 290.699 281.632H294.659V298H289.445V287.836H285.485ZM306.487 298.242C305.255 298.242 304.192 298.154 303.297 297.978C302.403 297.802 301.647 297.575 301.031 297.296C300.415 297.003 299.917 296.68 299.535 296.328C299.169 295.961 298.883 295.595 298.677 295.228C298.472 294.861 298.333 294.509 298.259 294.172C298.201 293.835 298.171 293.549 298.171 293.314V293.028H303.671C303.686 293.116 303.73 293.233 303.803 293.38C303.891 293.512 304.053 293.651 304.287 293.798C304.522 293.93 304.852 294.047 305.277 294.15C305.703 294.253 306.275 294.304 306.993 294.304C307.653 294.304 308.203 294.253 308.643 294.15C309.083 294.047 309.435 293.915 309.699 293.754C309.978 293.578 310.169 293.38 310.271 293.16C310.389 292.94 310.447 292.705 310.447 292.456V292.346C310.447 292.082 310.389 291.847 310.271 291.642C310.169 291.422 309.985 291.239 309.721 291.092C309.457 290.931 309.098 290.806 308.643 290.718C308.203 290.63 307.653 290.586 306.993 290.586C306.289 290.586 305.717 290.63 305.277 290.718C304.852 290.806 304.522 290.916 304.287 291.048C304.053 291.165 303.884 291.29 303.781 291.422C303.693 291.539 303.642 291.635 303.627 291.708H298.413V281.632H314.539V285.548H303.605V288.408C303.664 288.364 303.796 288.276 304.001 288.144C304.221 287.997 304.522 287.851 304.903 287.704C305.299 287.557 305.783 287.425 306.355 287.308C306.942 287.191 307.631 287.132 308.423 287.132H308.665C310.103 287.132 311.276 287.286 312.185 287.594C313.095 287.902 313.806 288.305 314.319 288.804C314.847 289.288 315.207 289.838 315.397 290.454C315.588 291.055 315.683 291.649 315.683 292.236V292.5C315.683 293.101 315.573 293.739 315.353 294.414C315.148 295.074 314.737 295.69 314.121 296.262C313.52 296.834 312.677 297.311 311.591 297.692C310.521 298.059 309.12 298.242 307.389 298.242H306.487ZM320.286 288.074C320.286 288.661 320.376 289.102 320.555 289.396C320.734 289.682 321.02 289.825 321.414 289.825C321.801 289.825 322.087 289.682 322.273 289.396C322.46 289.109 322.553 288.669 322.553 288.074C322.553 286.914 322.173 286.334 321.414 286.334C321.02 286.334 320.734 286.477 320.555 286.764C320.376 287.05 320.286 287.487 320.286 288.074ZM325.152 288.053C325.152 288.676 325.077 289.238 324.927 289.739C324.784 290.233 324.558 290.652 324.25 290.996C323.942 291.333 323.552 291.594 323.079 291.78C322.606 291.959 322.044 292.049 321.393 292.049C320.784 292.049 320.247 291.959 319.781 291.78C319.323 291.594 318.936 291.333 318.621 290.996C318.313 290.652 318.08 290.233 317.923 289.739C317.765 289.238 317.687 288.676 317.687 288.053C317.687 287.43 317.758 286.871 317.901 286.377C318.045 285.883 318.267 285.467 318.567 285.131C318.875 284.794 319.262 284.536 319.728 284.357C320.193 284.178 320.748 284.089 321.393 284.089C322.008 284.089 322.549 284.178 323.015 284.357C323.487 284.536 323.881 284.794 324.196 285.131C324.511 285.467 324.748 285.883 324.905 286.377C325.07 286.871 325.152 287.43 325.152 288.053ZM332.21 284.314L323.605 298H321.146L329.75 284.314H332.21ZM330.846 294.229C330.846 294.817 330.935 295.257 331.114 295.551C331.293 295.837 331.58 295.98 331.974 295.98C332.36 295.98 332.647 295.837 332.833 295.551C333.019 295.264 333.112 294.824 333.112 294.229C333.112 293.069 332.733 292.489 331.974 292.489C331.58 292.489 331.293 292.632 331.114 292.919C330.935 293.205 330.846 293.642 330.846 294.229ZM335.712 294.208C335.712 294.831 335.637 295.39 335.486 295.884C335.343 296.378 335.118 296.797 334.81 297.141C334.502 297.477 334.111 297.739 333.639 297.925C333.166 298.104 332.604 298.193 331.952 298.193C331.343 298.193 330.81 298.104 330.352 297.925C329.893 297.739 329.507 297.477 329.191 297.141C328.883 296.797 328.651 296.378 328.493 295.884C328.336 295.39 328.257 294.831 328.257 294.208C328.257 293.585 328.328 293.026 328.472 292.532C328.615 292.038 328.837 291.623 329.138 291.286C329.438 290.95 329.822 290.692 330.287 290.513C330.753 290.334 331.308 290.244 331.952 290.244C332.568 290.244 333.109 290.334 333.574 290.513C334.047 290.692 334.441 290.95 334.756 291.286C335.071 291.623 335.307 292.038 335.465 292.532C335.63 293.026 335.712 293.585 335.712 294.208Z" fill="white"/>
<path d="M353.748 116V113.382C353.748 112.781 353.807 112.194 353.924 111.622C354.056 111.035 354.35 110.478 354.804 109.95C355.274 109.407 355.963 108.887 356.872 108.388C357.796 107.889 359.043 107.42 360.612 106.98C361.038 106.863 361.463 106.745 361.888 106.628C362.328 106.511 362.732 106.401 363.098 106.298C363.685 106.151 364.162 106.012 364.528 105.88C364.895 105.748 365.181 105.616 365.386 105.484C365.592 105.352 365.731 105.213 365.804 105.066C365.878 104.919 365.914 104.758 365.914 104.582V104.56C365.914 104.369 365.87 104.186 365.782 104.01C365.709 103.834 365.555 103.68 365.32 103.548C365.1 103.416 364.785 103.313 364.374 103.24C363.978 103.167 363.458 103.13 362.812 103.13C362.035 103.13 361.426 103.218 360.986 103.394C360.546 103.57 360.209 103.783 359.974 104.032C359.754 104.267 359.615 104.516 359.556 104.78C359.498 105.044 359.461 105.271 359.446 105.462H354.034V105.308C354.034 104.941 354.071 104.545 354.144 104.12C354.218 103.68 354.357 103.24 354.562 102.8C354.768 102.36 355.054 101.942 355.42 101.546C355.802 101.135 356.293 100.776 356.894 100.468C357.51 100.145 358.251 99.8887 359.116 99.698C359.982 99.5073 361.008 99.412 362.196 99.412H363.296C364.88 99.412 366.193 99.544 367.234 99.808C368.29 100.072 369.126 100.439 369.742 100.908C370.358 101.363 370.791 101.905 371.04 102.536C371.304 103.167 371.436 103.841 371.436 104.56V104.736C371.436 105.469 371.304 106.107 371.04 106.65C370.791 107.178 370.388 107.64 369.83 108.036C369.288 108.417 368.576 108.747 367.696 109.026C366.831 109.305 365.782 109.554 364.55 109.774C364.11 109.862 363.663 109.95 363.208 110.038C362.768 110.126 362.358 110.214 361.976 110.302C361.184 110.463 360.539 110.617 360.04 110.764C359.556 110.911 359.182 111.05 358.918 111.182C358.654 111.314 358.478 111.439 358.39 111.556C358.302 111.659 358.258 111.754 358.258 111.842H371.788V116H353.748ZM384.827 99.368C386.191 99.368 387.371 99.5 388.369 99.764C389.381 100.013 390.239 100.358 390.943 100.798C391.661 101.223 392.248 101.715 392.703 102.272C393.172 102.829 393.531 103.409 393.781 104.01C394.045 104.597 394.228 105.191 394.331 105.792C394.433 106.393 394.485 106.943 394.485 107.442V108.102C394.485 108.601 394.433 109.151 394.331 109.752C394.228 110.339 394.045 110.94 393.781 111.556C393.517 112.157 393.157 112.744 392.703 113.316C392.248 113.873 391.661 114.372 390.943 114.812C390.224 115.252 389.359 115.604 388.347 115.868C387.349 116.132 386.176 116.264 384.827 116.264H383.859C382.509 116.264 381.329 116.132 380.317 115.868C379.319 115.604 378.461 115.252 377.743 114.812C377.024 114.372 376.437 113.873 375.983 113.316C375.528 112.744 375.169 112.157 374.905 111.556C374.641 110.94 374.457 110.339 374.355 109.752C374.252 109.151 374.201 108.601 374.201 108.102V107.442C374.201 106.929 374.252 106.371 374.355 105.77C374.457 105.169 374.641 104.575 374.905 103.988C375.169 103.387 375.528 102.807 375.983 102.25C376.437 101.693 377.024 101.201 377.743 100.776C378.461 100.351 379.319 100.013 380.317 99.764C381.329 99.5 382.509 99.368 383.859 99.368H384.827ZM389.007 107.596C389.007 107.244 388.948 106.833 388.831 106.364C388.728 105.88 388.508 105.425 388.171 105C387.848 104.575 387.379 104.215 386.763 103.922C386.161 103.614 385.355 103.46 384.343 103.46C383.316 103.46 382.495 103.614 381.879 103.922C381.263 104.215 380.793 104.575 380.471 105C380.148 105.425 379.935 105.88 379.833 106.364C379.73 106.833 379.679 107.244 379.679 107.596V107.882C379.679 108.234 379.73 108.659 379.833 109.158C379.95 109.642 380.177 110.104 380.515 110.544C380.852 110.984 381.321 111.358 381.923 111.666C382.539 111.974 383.353 112.128 384.365 112.128C385.377 112.128 386.183 111.974 386.785 111.666C387.401 111.358 387.87 110.984 388.193 110.544C388.53 110.104 388.75 109.642 388.853 109.158C388.955 108.659 389.007 108.234 389.007 107.882V107.596ZM399.243 106.074C399.243 106.661 399.333 107.102 399.512 107.396C399.691 107.682 399.977 107.825 400.371 107.825C400.758 107.825 401.044 107.682 401.23 107.396C401.417 107.109 401.51 106.669 401.51 106.074C401.51 104.914 401.13 104.334 400.371 104.334C399.977 104.334 399.691 104.477 399.512 104.764C399.333 105.05 399.243 105.487 399.243 106.074ZM404.109 106.053C404.109 106.676 404.034 107.238 403.884 107.739C403.741 108.233 403.515 108.652 403.207 108.996C402.899 109.333 402.509 109.594 402.036 109.78C401.563 109.959 401.001 110.049 400.35 110.049C399.741 110.049 399.204 109.959 398.738 109.78C398.28 109.594 397.893 109.333 397.578 108.996C397.27 108.652 397.037 108.233 396.88 107.739C396.722 107.238 396.644 106.676 396.644 106.053C396.644 105.43 396.715 104.871 396.858 104.377C397.002 103.883 397.224 103.467 397.524 103.131C397.832 102.794 398.219 102.536 398.685 102.357C399.15 102.178 399.705 102.089 400.35 102.089C400.965 102.089 401.506 102.178 401.972 102.357C402.444 102.536 402.838 102.794 403.153 103.131C403.468 103.467 403.705 103.883 403.862 104.377C404.027 104.871 404.109 105.43 404.109 106.053ZM411.167 102.314L402.562 116H400.103L408.707 102.314H411.167ZM409.803 112.229C409.803 112.817 409.892 113.257 410.071 113.551C410.25 113.837 410.537 113.98 410.931 113.98C411.317 113.98 411.604 113.837 411.79 113.551C411.976 113.264 412.069 112.824 412.069 112.229C412.069 111.069 411.69 110.489 410.931 110.489C410.537 110.489 410.25 110.632 410.071 110.919C409.892 111.205 409.803 111.642 409.803 112.229ZM414.669 112.208C414.669 112.831 414.594 113.39 414.443 113.884C414.3 114.378 414.075 114.797 413.767 115.141C413.459 115.477 413.068 115.739 412.596 115.925C412.123 116.104 411.561 116.193 410.909 116.193C410.3 116.193 409.767 116.104 409.309 115.925C408.85 115.739 408.464 115.477 408.148 115.141C407.84 114.797 407.608 114.378 407.45 113.884C407.293 113.39 407.214 112.831 407.214 112.208C407.214 111.585 407.285 111.026 407.429 110.532C407.572 110.038 407.794 109.623 408.095 109.286C408.396 108.95 408.779 108.692 409.244 108.513C409.71 108.334 410.265 108.244 410.909 108.244C411.525 108.244 412.066 108.334 412.531 108.513C413.004 108.692 413.398 108.95 413.713 109.286C414.028 109.623 414.264 110.038 414.422 110.532C414.587 111.026 414.669 111.585 414.669 112.208Z" fill="white"/>
<path d="M313.142 416.836V413.25C313.993 413.25 314.704 413.206 315.276 413.118C315.863 413.03 316.354 412.891 316.75 412.7C317.146 412.495 317.469 412.231 317.718 411.908C317.968 411.571 318.18 411.145 318.356 410.632H322.316V427H317.102V416.836H313.142ZM336.213 410.368C337.577 410.368 338.757 410.5 339.755 410.764C340.767 411.013 341.625 411.358 342.329 411.798C343.047 412.223 343.634 412.715 344.089 413.272C344.558 413.829 344.917 414.409 345.167 415.01C345.431 415.597 345.614 416.191 345.717 416.792C345.819 417.393 345.871 417.943 345.871 418.442V419.102C345.871 419.601 345.819 420.151 345.717 420.752C345.614 421.339 345.431 421.94 345.167 422.556C344.903 423.157 344.543 423.744 344.089 424.316C343.634 424.873 343.047 425.372 342.329 425.812C341.61 426.252 340.745 426.604 339.733 426.868C338.735 427.132 337.562 427.264 336.213 427.264H335.245C333.895 427.264 332.715 427.132 331.703 426.868C330.705 426.604 329.847 426.252 329.129 425.812C328.41 425.372 327.823 424.873 327.369 424.316C326.914 423.744 326.555 423.157 326.291 422.556C326.027 421.94 325.843 421.339 325.741 420.752C325.638 420.151 325.587 419.601 325.587 419.102V418.442C325.587 417.929 325.638 417.371 325.741 416.77C325.843 416.169 326.027 415.575 326.291 414.988C326.555 414.387 326.914 413.807 327.369 413.25C327.823 412.693 328.41 412.201 329.129 411.776C329.847 411.351 330.705 411.013 331.703 410.764C332.715 410.5 333.895 410.368 335.245 410.368H336.213ZM340.393 418.596C340.393 418.244 340.334 417.833 340.217 417.364C340.114 416.88 339.894 416.425 339.557 416C339.234 415.575 338.765 415.215 338.149 414.922C337.547 414.614 336.741 414.46 335.729 414.46C334.702 414.46 333.881 414.614 333.265 414.922C332.649 415.215 332.179 415.575 331.857 416C331.534 416.425 331.321 416.88 331.219 417.364C331.116 417.833 331.065 418.244 331.065 418.596V418.882C331.065 419.234 331.116 419.659 331.219 420.158C331.336 420.642 331.563 421.104 331.901 421.544C332.238 421.984 332.707 422.358 333.309 422.666C333.925 422.974 334.739 423.128 335.751 423.128C336.763 423.128 337.569 422.974 338.171 422.666C338.787 422.358 339.256 421.984 339.579 421.544C339.916 421.104 340.136 420.642 340.239 420.158C340.341 419.659 340.393 419.234 340.393 418.882V418.596ZM350.629 417.074C350.629 417.661 350.718 418.102 350.897 418.396C351.076 418.682 351.363 418.825 351.757 418.825C352.144 418.825 352.43 418.682 352.616 418.396C352.802 418.109 352.896 417.669 352.896 417.074C352.896 415.914 352.516 415.334 351.757 415.334C351.363 415.334 351.076 415.477 350.897 415.764C350.718 416.05 350.629 416.487 350.629 417.074ZM355.495 417.053C355.495 417.676 355.42 418.238 355.27 418.739C355.126 419.233 354.901 419.652 354.593 419.996C354.285 420.333 353.895 420.594 353.422 420.78C352.949 420.959 352.387 421.049 351.735 421.049C351.127 421.049 350.59 420.959 350.124 420.78C349.666 420.594 349.279 420.333 348.964 419.996C348.656 419.652 348.423 419.233 348.266 418.739C348.108 418.238 348.029 417.676 348.029 417.053C348.029 416.43 348.101 415.871 348.244 415.377C348.387 414.883 348.609 414.467 348.91 414.131C349.218 413.794 349.605 413.536 350.07 413.357C350.536 413.178 351.091 413.089 351.735 413.089C352.351 413.089 352.892 413.178 353.357 413.357C353.83 413.536 354.224 413.794 354.539 414.131C354.854 414.467 355.09 414.883 355.248 415.377C355.413 415.871 355.495 416.43 355.495 417.053ZM362.553 413.314L353.948 427H351.488L360.093 413.314H362.553ZM361.188 423.229C361.188 423.817 361.278 424.257 361.457 424.551C361.636 424.837 361.923 424.98 362.316 424.98C362.703 424.98 362.99 424.837 363.176 424.551C363.362 424.264 363.455 423.824 363.455 423.229C363.455 422.069 363.076 421.489 362.316 421.489C361.923 421.489 361.636 421.632 361.457 421.919C361.278 422.205 361.188 422.642 361.188 423.229ZM366.055 423.208C366.055 423.831 365.979 424.39 365.829 424.884C365.686 425.378 365.46 425.797 365.152 426.141C364.844 426.477 364.454 426.739 363.981 426.925C363.509 427.104 362.947 427.193 362.295 427.193C361.686 427.193 361.153 427.104 360.694 426.925C360.236 426.739 359.849 426.477 359.534 426.141C359.226 425.797 358.993 425.378 358.836 424.884C358.678 424.39 358.6 423.831 358.6 423.208C358.6 422.585 358.671 422.026 358.814 421.532C358.958 421.038 359.18 420.623 359.48 420.286C359.781 419.95 360.164 419.692 360.63 419.513C361.095 419.334 361.65 419.244 362.295 419.244C362.911 419.244 363.451 419.334 363.917 419.513C364.39 419.692 364.784 419.95 365.099 420.286C365.414 420.623 365.65 421.038 365.808 421.532C365.972 422.026 366.055 422.585 366.055 423.208Z" fill="white"/>
<path d="M438.864 498.242C437.632 498.242 436.569 498.154 435.674 497.978C434.78 497.802 434.024 497.575 433.408 497.296C432.792 497.003 432.294 496.68 431.912 496.328C431.546 495.961 431.26 495.595 431.054 495.228C430.849 494.861 430.71 494.509 430.636 494.172C430.578 493.835 430.548 493.549 430.548 493.314V493.028H436.048C436.063 493.116 436.107 493.233 436.18 493.38C436.268 493.512 436.43 493.651 436.664 493.798C436.899 493.93 437.229 494.047 437.654 494.15C438.08 494.253 438.652 494.304 439.37 494.304C440.03 494.304 440.58 494.253 441.02 494.15C441.46 494.047 441.812 493.915 442.076 493.754C442.355 493.578 442.546 493.38 442.648 493.16C442.766 492.94 442.824 492.705 442.824 492.456V492.346C442.824 492.082 442.766 491.847 442.648 491.642C442.546 491.422 442.362 491.239 442.098 491.092C441.834 490.931 441.475 490.806 441.02 490.718C440.58 490.63 440.03 490.586 439.37 490.586C438.666 490.586 438.094 490.63 437.654 490.718C437.229 490.806 436.899 490.916 436.664 491.048C436.43 491.165 436.261 491.29 436.158 491.422C436.07 491.539 436.019 491.635 436.004 491.708H430.79V481.632H446.916V485.548H435.982V488.408C436.041 488.364 436.173 488.276 436.378 488.144C436.598 487.997 436.899 487.851 437.28 487.704C437.676 487.557 438.16 487.425 438.732 487.308C439.319 487.191 440.008 487.132 440.8 487.132H441.042C442.48 487.132 443.653 487.286 444.562 487.594C445.472 487.902 446.183 488.305 446.696 488.804C447.224 489.288 447.584 489.838 447.774 490.454C447.965 491.055 448.06 491.649 448.06 492.236V492.5C448.06 493.101 447.95 493.739 447.73 494.414C447.525 495.074 447.114 495.69 446.498 496.262C445.897 496.834 445.054 497.311 443.968 497.692C442.898 498.059 441.497 498.242 439.766 498.242H438.864ZM452.663 488.074C452.663 488.661 452.753 489.102 452.932 489.396C453.111 489.682 453.397 489.825 453.791 489.825C454.178 489.825 454.464 489.682 454.65 489.396C454.837 489.109 454.93 488.669 454.93 488.074C454.93 486.914 454.55 486.334 453.791 486.334C453.397 486.334 453.111 486.477 452.932 486.764C452.753 487.05 452.663 487.487 452.663 488.074ZM457.529 488.053C457.529 488.676 457.454 489.238 457.304 489.739C457.16 490.233 456.935 490.652 456.627 490.996C456.319 491.333 455.929 491.594 455.456 491.78C454.983 491.959 454.421 492.049 453.77 492.049C453.161 492.049 452.624 491.959 452.158 491.78C451.7 491.594 451.313 491.333 450.998 490.996C450.69 490.652 450.457 490.233 450.3 489.739C450.142 489.238 450.063 488.676 450.063 488.053C450.063 487.43 450.135 486.871 450.278 486.377C450.422 485.883 450.644 485.467 450.944 485.131C451.252 484.794 451.639 484.536 452.104 484.357C452.57 484.178 453.125 484.089 453.77 484.089C454.385 484.089 454.926 484.178 455.392 484.357C455.864 484.536 456.258 484.794 456.573 485.131C456.888 485.467 457.125 485.883 457.282 486.377C457.447 486.871 457.529 487.43 457.529 488.053ZM464.587 484.314L455.982 498H453.522L462.127 484.314H464.587ZM463.223 494.229C463.223 494.817 463.312 495.257 463.491 495.551C463.67 495.837 463.957 495.98 464.351 495.98C464.737 495.98 465.024 495.837 465.21 495.551C465.396 495.264 465.489 494.824 465.489 494.229C465.489 493.069 465.11 492.489 464.351 492.489C463.957 492.489 463.67 492.632 463.491 492.919C463.312 493.205 463.223 493.642 463.223 494.229ZM468.089 494.208C468.089 494.831 468.014 495.39 467.863 495.884C467.72 496.378 467.494 496.797 467.187 497.141C466.879 497.477 466.488 497.739 466.016 497.925C465.543 498.104 464.981 498.193 464.329 498.193C463.72 498.193 463.187 498.104 462.729 497.925C462.27 497.739 461.883 497.477 461.568 497.141C461.26 496.797 461.028 496.378 460.87 495.884C460.713 495.39 460.634 494.831 460.634 494.208C460.634 493.585 460.705 493.026 460.849 492.532C460.992 492.038 461.214 491.623 461.515 491.286C461.815 490.95 462.199 490.692 462.664 490.513C463.13 490.334 463.685 490.244 464.329 490.244C464.945 490.244 465.486 490.334 465.951 490.513C466.424 490.692 466.818 490.95 467.133 491.286C467.448 491.623 467.684 492.038 467.842 492.532C468.007 493.026 468.089 493.585 468.089 494.208Z" fill="white"/>
<path fill-rule="evenodd" clip-rule="evenodd" d="M481 292.994V575H482L482 6H481V289.891L224.432 167.098L224 168L481 291L224 414L224.432 414.902L480.111 292.534L338.5 536.885L339.365 537.386L481 292.994Z" fill="url(#paint4_linear_115_2137)"/>
<path d="M813.291 276H818.59C821.588 276 823.058 274.472 823.058 272.433C823.058 270.452 821.652 269.288 820.259 269.218V269.09C821.537 268.79 822.547 267.895 822.547 266.303C822.547 264.354 821.141 262.909 818.303 262.909H813.291V276ZM815.663 274.018V270.183H818.277C819.741 270.183 820.648 271.078 820.648 272.248C820.648 273.29 819.933 274.018 818.213 274.018H815.663ZM815.663 268.477V264.865H818.06C819.453 264.865 820.175 265.6 820.175 266.61C820.175 267.761 819.242 268.477 818.009 268.477H815.663ZM829.302 276.192C832.178 276.192 834.006 274.165 834.006 271.129C834.006 268.087 832.178 266.054 829.302 266.054C826.425 266.054 824.597 268.087 824.597 271.129C824.597 274.165 826.425 276.192 829.302 276.192ZM829.314 274.338C827.723 274.338 826.943 272.919 826.943 271.123C826.943 269.327 827.723 267.888 829.314 267.888C830.881 267.888 831.66 269.327 831.66 271.123C831.66 272.919 830.881 274.338 829.314 274.338ZM835.427 273.309C835.484 275.131 837.153 276.192 839.422 276.192C841.749 276.192 843.43 275.086 843.43 273.277C843.43 271.954 842.528 271.046 841.365 270.976V270.874C842.49 270.573 843.206 269.87 843.206 268.809C843.206 267.153 841.774 266.054 839.473 266.054C837.325 266.054 835.708 267.166 835.676 268.879H837.958C837.984 268.221 838.661 267.761 839.582 267.761C840.502 267.761 841.058 268.253 841.058 268.982C841.058 269.653 840.547 270.151 839.588 270.151H838.086V271.794H839.588C840.553 271.794 841.186 272.337 841.186 273.13C841.186 274.025 840.4 274.46 839.409 274.46C838.431 274.46 837.766 274.038 837.722 273.309H835.427ZM847.482 266.182H845.251V276H847.482V272.031H851.286V276H853.51V266.182H851.286V270.132H847.482V266.182ZM858.676 276.198C860.217 276.198 861.137 275.476 861.559 274.651H861.636V276H863.86V269.429C863.86 266.834 861.744 266.054 859.872 266.054C857.807 266.054 856.222 266.974 855.71 268.764L857.871 269.071C858.101 268.4 858.753 267.825 859.884 267.825C860.958 267.825 861.546 268.374 861.546 269.339V269.378C861.546 270.043 860.85 270.075 859.117 270.26C857.213 270.464 855.391 271.033 855.391 273.245C855.391 275.175 856.803 276.198 858.676 276.198ZM859.277 274.498C858.312 274.498 857.622 274.057 857.622 273.207C857.622 272.318 858.395 271.947 859.431 271.8C860.038 271.717 861.252 271.564 861.553 271.321V272.478C861.553 273.571 860.671 274.498 859.277 274.498ZM872.681 266.182H866.187V276H868.45V268.08H872.681V266.182ZM874.537 279.682H876.85V274.453H876.946C877.311 275.169 878.071 276.173 879.759 276.173C882.073 276.173 883.805 274.338 883.805 271.104C883.805 267.831 882.022 266.054 879.752 266.054C878.02 266.054 877.298 267.096 876.946 267.805H876.812V266.182H874.537V279.682ZM876.806 271.091C876.806 269.186 877.624 267.952 879.113 267.952C880.654 267.952 881.446 269.263 881.446 271.091C881.446 272.932 880.641 274.274 879.113 274.274C877.637 274.274 876.806 272.996 876.806 271.091ZM888.612 276.198C890.152 276.198 891.073 275.476 891.495 274.651H891.571V276H893.796V269.429C893.796 266.834 891.68 266.054 889.807 266.054C887.743 266.054 886.157 266.974 885.646 268.764L887.806 269.071C888.037 268.4 888.689 267.825 889.82 267.825C890.894 267.825 891.482 268.374 891.482 269.339V269.378C891.482 270.043 890.785 270.075 889.053 270.26C887.148 270.464 885.326 271.033 885.326 273.245C885.326 275.175 886.739 276.198 888.612 276.198ZM889.213 274.498C888.248 274.498 887.557 274.057 887.557 273.207C887.557 272.318 888.331 271.947 889.366 271.8C889.973 271.717 891.188 271.564 891.488 271.321V272.478C891.488 273.571 890.606 274.498 889.213 274.498ZM895.483 276H898.213L901.019 272.037H901.53V276H903.844V272.037H904.355L907.149 276H909.878L906.273 270.931L909.846 266.182H907.174L904.381 270.138H903.844V266.182H901.53V270.138H900.98L898.187 266.182H895.515L899.108 270.931L895.483 276ZM910.74 278.851H913.015V276H919.439V278.851H921.676V274.095H920.155V266.182H913.06L912.779 269.621C912.593 271.82 912.35 273.45 911.519 274.095H910.74V278.851ZM913.897 274.095C914.517 273.181 914.747 271.698 914.914 269.621L915.067 268.048H917.943V274.095H913.897ZM927.75 276.192C930.039 276.192 931.611 275.073 932.02 273.366L929.86 273.124C929.547 273.955 928.779 274.389 927.782 274.389C926.287 274.389 925.296 273.405 925.277 271.724H932.116V271.014C932.116 267.569 930.045 266.054 927.629 266.054C924.816 266.054 922.982 268.119 922.982 271.148C922.982 274.229 924.791 276.192 927.75 276.192ZM925.283 270.164C925.353 268.911 926.28 267.857 927.661 267.857C928.99 267.857 929.885 268.828 929.898 270.164H925.283ZM936.305 266.182H934.074V276H936.305V272.031H940.108V276H942.332V266.182H940.108V270.132H936.305V266.182ZM946.904 272.868V266.182H944.673V276H947.058L950.976 269.308V276H953.213V266.182H950.835L946.904 272.868ZM961.393 276H963.56V266.182H959.297C956.893 266.182 955.404 267.415 955.41 269.301C955.404 270.541 956.081 271.481 957.251 271.96L955.052 276H957.328L959.341 272.305H961.393V276ZM961.393 270.618H959.22C958.204 270.618 957.641 270.087 957.648 269.352C957.641 268.617 958.236 268.061 959.297 268.061H961.393V270.618ZM970.355 276H972.567V268.08H976.415V276H978.645V266.182H970.355V276ZM985.308 276.192C988.184 276.192 990.012 274.165 990.012 271.129C990.012 268.087 988.184 266.054 985.308 266.054C982.431 266.054 980.603 268.087 980.603 271.129C980.603 274.165 982.431 276.192 985.308 276.192ZM985.32 274.338C983.729 274.338 982.949 272.919 982.949 271.123C982.949 269.327 983.729 267.888 985.32 267.888C986.886 267.888 987.666 269.327 987.666 271.123C987.666 272.919 986.886 274.338 985.32 274.338ZM813.189 295H815.401V287.08H819.249V295H821.479V285.182H813.189V295ZM826.684 295.198C828.225 295.198 829.145 294.476 829.567 293.651H829.644V295H831.868V288.429C831.868 285.834 829.752 285.054 827.879 285.054C825.815 285.054 824.23 285.974 823.718 287.764L825.879 288.071C826.109 287.4 826.761 286.825 827.892 286.825C828.966 286.825 829.554 287.374 829.554 288.339V288.378C829.554 289.043 828.857 289.075 827.125 289.26C825.22 289.464 823.399 290.033 823.399 292.245C823.399 294.175 824.811 295.198 826.684 295.198ZM827.285 293.498C826.32 293.498 825.629 293.057 825.629 292.207C825.629 291.318 826.403 290.947 827.438 290.8C828.046 290.717 829.26 290.564 829.561 290.321V291.478C829.561 292.571 828.678 293.498 827.285 293.498ZM834.195 298.682H836.509V293.453H836.605C836.969 294.169 837.73 295.173 839.417 295.173C841.731 295.173 843.463 293.338 843.463 290.104C843.463 286.831 841.68 285.054 839.411 285.054C837.678 285.054 836.956 286.096 836.605 286.805H836.47V285.182H834.195V298.682ZM836.464 290.091C836.464 288.186 837.282 286.952 838.771 286.952C840.312 286.952 841.105 288.263 841.105 290.091C841.105 291.932 840.299 293.274 838.771 293.274C837.295 293.274 836.464 291.996 836.464 290.091ZM844.381 287.08H847.557V295H849.795V287.08H852.971V285.182H844.381V287.08ZM857.045 285.182H854.814V295H857.045V291.031H860.848V295H863.072V285.182H860.848V289.132H857.045V285.182ZM869.76 295.192C872.048 295.192 873.621 294.073 874.03 292.366L871.869 292.124C871.556 292.955 870.789 293.389 869.792 293.389C868.296 293.389 867.306 292.405 867.286 290.724H874.126V290.014C874.126 286.569 872.055 285.054 869.639 285.054C866.826 285.054 864.992 287.119 864.992 290.148C864.992 293.229 866.801 295.192 869.76 295.192ZM867.293 289.164C867.363 287.911 868.29 286.857 869.671 286.857C871 286.857 871.895 287.828 871.908 289.164H867.293ZM876.083 298.682H878.397V293.453H878.493C878.858 294.169 879.618 295.173 881.306 295.173C883.62 295.173 885.352 293.338 885.352 290.104C885.352 286.831 883.569 285.054 881.299 285.054C879.567 285.054 878.845 286.096 878.493 286.805H878.359V285.182H876.083V298.682ZM878.353 290.091C878.353 288.186 879.171 286.952 880.66 286.952C882.201 286.952 882.993 288.263 882.993 290.091C882.993 291.932 882.188 293.274 880.66 293.274C879.184 293.274 878.353 291.996 878.353 290.091ZM891.616 295.192C894.083 295.192 895.656 293.728 895.822 291.644H893.61C893.412 292.699 892.652 293.306 891.635 293.306C890.191 293.306 889.257 292.098 889.257 290.091C889.257 288.109 890.21 286.92 891.635 286.92C892.748 286.92 893.431 287.636 893.61 288.582H895.822C895.662 286.454 894 285.054 891.603 285.054C888.727 285.054 886.912 287.131 886.912 290.129C886.912 293.102 888.682 295.192 891.616 295.192ZM897.722 295H900.036V291.299H901.167L903.858 295H906.658L902.983 290.001L906.62 285.182H903.833L900.88 289.145H900.036V285.182H897.722V295ZM911.849 295.192C914.725 295.192 916.553 293.165 916.553 290.129C916.553 287.087 914.725 285.054 911.849 285.054C908.972 285.054 907.144 287.087 907.144 290.129C907.144 293.165 908.972 295.192 911.849 295.192ZM911.861 293.338C910.27 293.338 909.49 291.919 909.49 290.123C909.49 288.327 910.27 286.888 911.861 286.888C913.427 286.888 914.207 288.327 914.207 290.123C914.207 291.919 913.427 293.338 911.861 293.338ZM920.748 291.868V285.182H918.517V295H920.901L924.82 288.308V295H927.057V285.182H924.679L920.748 291.868ZM924.046 281.807C924.04 282.433 923.682 282.989 922.781 282.989C921.866 282.989 921.521 282.42 921.521 281.807H919.802C919.795 283.303 920.952 284.312 922.781 284.312C924.621 284.312 925.778 283.303 925.778 281.807H924.046ZM938.181 295.192C940.648 295.192 942.22 293.728 942.387 291.644H940.175C939.977 292.699 939.216 293.306 938.2 293.306C936.755 293.306 935.822 292.098 935.822 290.091C935.822 288.109 936.774 286.92 938.2 286.92C939.312 286.92 939.996 287.636 940.175 288.582H942.387C942.227 286.454 940.565 285.054 938.168 285.054C935.291 285.054 933.476 287.131 933.476 290.129C933.476 293.102 935.247 295.192 938.181 295.192ZM948.633 295.192C950.922 295.192 952.494 294.073 952.903 292.366L950.743 292.124C950.429 292.955 949.662 293.389 948.665 293.389C947.169 293.389 946.179 292.405 946.159 290.724H952.999V290.014C952.999 286.569 950.928 285.054 948.512 285.054C945.699 285.054 943.865 287.119 943.865 290.148C943.865 293.229 945.674 295.192 948.633 295.192ZM946.166 289.164C946.236 287.911 947.163 286.857 948.544 286.857C949.873 286.857 950.768 287.828 950.781 289.164H946.166ZM954.138 287.08H957.315V295H959.552V287.08H962.729V285.182H954.138V287.08ZM966.803 291.868V285.182H964.572V295H966.956L970.874 288.308V295H973.112V285.182H970.734L966.803 291.868ZM814.627 317.682C816.43 317.682 817.472 316.755 818.028 315.189L821.972 304.195L819.498 304.182L817.229 311.597H817.126L814.864 304.182H812.409L815.969 314.205L815.771 314.735C815.343 315.854 814.665 315.93 813.656 315.636L813.119 317.439C813.432 317.567 813.994 317.682 814.627 317.682ZM831.497 304.182H829.273V308.976C828.71 309.116 828.154 309.193 827.547 309.193C826.179 309.193 825.508 308.707 825.508 307.442V304.169H823.296V307.442C823.296 309.947 824.926 311.092 827.547 311.092C828.122 311.092 828.723 311.015 829.273 310.887V314H831.497V304.182ZM836.651 314.198C838.191 314.198 839.112 313.476 839.534 312.651H839.61V314H841.835V307.429C841.835 304.834 839.719 304.054 837.846 304.054C835.782 304.054 834.196 304.974 833.685 306.764L835.846 307.071C836.076 306.4 836.728 305.825 837.859 305.825C838.933 305.825 839.521 306.374 839.521 307.339V307.378C839.521 308.043 838.824 308.075 837.092 308.26C835.187 308.464 833.365 309.033 833.365 311.245C833.365 313.175 834.778 314.198 836.651 314.198ZM837.252 312.498C836.287 312.498 835.596 312.057 835.596 311.207C835.596 310.318 836.37 309.947 837.405 309.8C838.012 309.717 839.227 309.564 839.527 309.321V310.478C839.527 311.571 838.645 312.498 837.252 312.498ZM848.444 314.192C850.912 314.192 852.484 312.728 852.65 310.644H850.439C850.24 311.699 849.48 312.306 848.463 312.306C847.019 312.306 846.086 311.098 846.086 309.091C846.086 307.109 847.038 305.92 848.463 305.92C849.576 305.92 850.26 306.636 850.439 307.582H852.65C852.49 305.454 850.828 304.054 848.431 304.054C845.555 304.054 843.74 306.131 843.74 309.129C843.74 312.102 845.51 314.192 848.444 314.192ZM853.855 306.08H857.032V314H859.269V306.08H862.446V304.182H853.855V306.08ZM866.519 304.182H864.289V314H866.519V310.031H870.323V314H872.547V304.182H870.323V308.132H866.519V304.182ZM877.119 310.868V304.182H874.888V314H877.272L881.191 307.308V314H883.428V304.182H881.05L877.119 310.868ZM885.804 314H888.118V310.299H889.249L891.941 314H894.74L891.065 309.001L894.702 304.182H891.915L888.962 308.145H888.118V304.182H885.804V314ZM899.931 314.192C902.807 314.192 904.635 312.165 904.635 309.129C904.635 306.087 902.807 304.054 899.931 304.054C897.054 304.054 895.226 306.087 895.226 309.129C895.226 312.165 897.054 314.192 899.931 314.192ZM899.943 312.338C898.352 312.338 897.572 310.919 897.572 309.123C897.572 307.327 898.352 305.888 899.943 305.888C901.509 305.888 902.289 307.327 902.289 309.123C902.289 310.919 901.509 312.338 899.943 312.338ZM906.599 314H911.355C913.656 314 914.973 312.958 914.973 311.335C914.973 309.96 913.905 309.001 912.365 308.867C913.675 308.624 914.493 307.928 914.493 306.822C914.493 305.166 913.042 304.182 910.722 304.182H906.599V314ZM908.766 312.178V309.743H911.355C912.205 309.743 912.723 310.235 912.723 311.047C912.723 311.75 912.205 312.178 911.355 312.178H908.766ZM908.766 308.247V306.036H910.722C911.687 306.036 912.275 306.445 912.275 307.116C912.275 307.819 911.706 308.247 910.767 308.247H908.766Z" fill="white"/>
<path d="M9.13423 288H12.0554L6.66051 280.879L11.8317 274.909H8.91051L4.2571 280.291H3.66264V274.909H1.29119V288H3.66264V282.279H4.82599L9.13423 288ZM17.1259 288.192C20.0023 288.192 21.8304 286.165 21.8304 283.129C21.8304 280.087 20.0023 278.054 17.1259 278.054C14.2495 278.054 12.4213 280.087 12.4213 283.129C12.4213 286.165 14.2495 288.192 17.1259 288.192ZM17.1387 286.338C15.5471 286.338 14.7672 284.919 14.7672 283.123C14.7672 281.327 15.5471 279.888 17.1387 279.888C18.7047 279.888 19.4846 281.327 19.4846 283.123C19.4846 284.919 18.7047 286.338 17.1387 286.338ZM29.445 285.309L26.6069 278.182H23.7944V288H26.0252V281.384L28.6396 288H30.2567L32.9606 281.314V288H35.1722V278.182H32.3597L29.445 285.309ZM40.3306 288.198C41.8711 288.198 42.7915 287.476 43.2134 286.651H43.2901V288H45.5146V281.429C45.5146 278.834 43.3988 278.054 41.5259 278.054C39.4613 278.054 37.8761 278.974 37.3647 280.764L39.5252 281.071C39.7553 280.4 40.4073 279.825 41.5387 279.825C42.6126 279.825 43.2006 280.374 43.2006 281.339V281.378C43.2006 282.043 42.5039 282.075 40.7717 282.26C38.8668 282.464 37.0451 283.033 37.0451 285.245C37.0451 287.175 38.4577 288.198 40.3306 288.198ZM40.9315 286.498C39.9663 286.498 39.2759 286.057 39.2759 285.207C39.2759 284.318 40.0494 283.947 41.0849 283.8C41.6921 283.717 42.9066 283.564 43.207 283.321V284.478C43.207 285.571 42.3249 286.498 40.9315 286.498ZM50.0721 278.182H47.8413V288H50.0721V284.031H53.8754V288H56.0998V278.182H53.8754V282.132H50.0721V278.182ZM57.5716 290.851H59.8471V288H66.2711V290.851H68.5083V286.095H66.987V278.182H59.8919L59.6106 281.621C59.4252 283.82 59.1824 285.45 58.3514 286.095H57.5716V290.851ZM60.7292 286.095C61.3493 285.181 61.5794 283.698 61.7456 281.621L61.899 280.048H64.7754V286.095H60.7292ZM73.0611 288.198C74.6016 288.198 75.522 287.476 75.9439 286.651H76.0206V288H78.245V281.429C78.245 278.834 76.1293 278.054 74.2564 278.054C72.1918 278.054 70.6065 278.974 70.0952 280.764L72.2557 281.071C72.4858 280.4 73.1378 279.825 74.2692 279.825C75.343 279.825 75.9311 280.374 75.9311 281.339V281.378C75.9311 282.043 75.2344 282.075 73.5021 282.26C71.5973 282.464 69.7756 283.033 69.7756 285.245C69.7756 287.175 71.1882 288.198 73.0611 288.198ZM73.6619 286.498C72.6967 286.498 72.0064 286.057 72.0064 285.207C72.0064 284.318 72.7798 283.947 73.8153 283.8C74.4226 283.717 75.6371 283.564 75.9375 283.321V284.478C75.9375 285.571 75.0554 286.498 73.6619 286.498ZM1.18892 307H3.40057V299.08H7.24858V307H9.4794V297.182H1.18892V307ZM11.8588 310.682H14.1728V305.453H14.2686C14.633 306.169 15.3936 307.173 17.0811 307.173C19.3951 307.173 21.1273 305.338 21.1273 302.104C21.1273 298.831 19.3439 297.054 17.0748 297.054C15.3425 297.054 14.6202 298.096 14.2686 298.805H14.1344V297.182H11.8588V310.682ZM14.128 302.091C14.128 300.186 14.9462 298.952 16.4355 298.952C17.976 298.952 18.7686 300.263 18.7686 302.091C18.7686 303.932 17.9632 305.274 16.4355 305.274C14.959 305.274 14.128 303.996 14.128 302.091ZM27.3915 307.192C30.2679 307.192 32.0961 305.165 32.0961 302.129C32.0961 299.087 30.2679 297.054 27.3915 297.054C24.5151 297.054 22.687 299.087 22.687 302.129C22.687 305.165 24.5151 307.192 27.3915 307.192ZM27.4043 305.338C25.8127 305.338 25.0328 303.919 25.0328 302.123C25.0328 300.327 25.8127 298.888 27.4043 298.888C28.9703 298.888 29.7502 300.327 29.7502 302.123C29.7502 303.919 28.9703 305.338 27.4043 305.338ZM38.4066 307.192C40.695 307.192 42.2674 306.073 42.6765 304.366L40.516 304.124C40.2028 304.955 39.4357 305.389 38.4386 305.389C36.9428 305.389 35.9521 304.405 35.9329 302.724H42.7724V302.014C42.7724 298.569 40.7013 297.054 38.2852 297.054C35.4727 297.054 33.6381 299.119 33.6381 302.148C33.6381 305.229 35.4471 307.192 38.4066 307.192ZM35.9393 301.164C36.0096 299.911 36.9364 298.857 38.3171 298.857C39.6467 298.857 40.5415 299.828 40.5543 301.164H35.9393ZM44.7299 307H47.0439V303.299H48.1752L50.8663 307H53.666L49.9906 302.001L53.6277 297.182H50.8407L47.8876 301.145H47.0439V297.182H44.7299V307ZM54.4411 299.08H57.6179V307H59.8551V299.08H63.032V297.182H54.4411V299.08ZM67.2955 307.198C68.8359 307.198 69.7564 306.476 70.1783 305.651H70.255V307H72.4794V300.429C72.4794 297.834 70.3636 297.054 68.4908 297.054C66.4261 297.054 64.8409 297.974 64.3295 299.764L66.4901 300.071C66.7202 299.4 67.3722 298.825 68.5036 298.825C69.5774 298.825 70.1655 299.374 70.1655 300.339V300.378C70.1655 301.043 69.4688 301.075 67.7365 301.26C65.8317 301.464 64.0099 302.033 64.0099 304.245C64.0099 306.175 65.4226 307.198 67.2955 307.198ZM67.8963 305.498C66.9311 305.498 66.2408 305.057 66.2408 304.207C66.2408 303.318 67.0142 302.947 68.0497 302.8C68.657 302.717 69.8714 302.564 70.1719 302.321V303.478C70.1719 304.571 69.2898 305.498 67.8963 305.498Z" fill="white"/>
<path d="M1.29119 448H3.66264V443.577H6.16832C9.19176 443.577 10.8153 441.761 10.8153 439.243C10.8153 436.744 9.21094 434.909 6.20028 434.909H1.29119V448ZM3.66264 441.627V436.891H5.83594C7.61293 436.891 8.39915 437.849 8.39915 439.243C8.39915 440.636 7.61293 441.627 5.84872 441.627H3.66264ZM16.9789 448.192C19.2672 448.192 20.8397 447.073 21.2488 445.366L19.0882 445.124C18.775 445.955 18.008 446.389 17.0108 446.389C15.5151 446.389 14.5243 445.405 14.5051 443.724H21.3446V443.014C21.3446 439.569 19.2736 438.054 16.8574 438.054C14.0449 438.054 12.2104 440.119 12.2104 443.148C12.2104 446.229 14.0194 448.192 16.9789 448.192ZM14.5115 442.164C14.5819 440.911 15.5087 439.857 16.8894 439.857C18.2189 439.857 19.1138 440.828 19.1266 442.164H14.5115ZM22.7589 445.309C22.8164 447.131 24.4847 448.192 26.7539 448.192C29.0806 448.192 30.7617 447.086 30.7617 445.277C30.7617 443.954 29.8604 443.046 28.6971 442.976V442.874C29.8221 442.573 30.538 441.87 30.538 440.809C30.538 439.153 29.1062 438.054 26.805 438.054C24.6573 438.054 23.0401 439.166 23.0082 440.879H25.2901C25.3157 440.221 25.9933 439.761 26.9137 439.761C27.8342 439.761 28.3903 440.253 28.3903 440.982C28.3903 441.653 27.8789 442.151 26.9201 442.151H25.418V443.794H26.9201C27.8853 443.794 28.5181 444.337 28.5181 445.13C28.5181 446.025 27.7319 446.46 26.7411 446.46C25.7631 446.46 25.0984 446.038 25.0536 445.309H22.7589ZM36.93 448.192C39.2184 448.192 40.7908 447.073 41.1999 445.366L39.0394 445.124C38.7262 445.955 37.9592 446.389 36.962 446.389C35.4663 446.389 34.4755 445.405 34.4563 443.724H41.2958V443.014C41.2958 439.569 39.2248 438.054 36.8086 438.054C33.9961 438.054 32.1616 440.119 32.1616 443.148C32.1616 446.229 33.9705 448.192 36.93 448.192ZM34.4627 442.164C34.533 440.911 35.4599 439.857 36.8406 439.857C38.1701 439.857 39.065 440.828 39.0778 442.164H34.4627ZM43.2534 451.682H45.5673V446.453H45.6632C46.0275 447.169 46.7882 448.173 48.4757 448.173C50.7896 448.173 52.5218 446.338 52.5218 443.104C52.5218 439.831 50.7385 438.054 48.4693 438.054C46.737 438.054 46.0147 439.096 45.6632 439.805H45.5289V438.182H43.2534V451.682ZM45.5225 443.091C45.5225 441.186 46.3407 439.952 47.8301 439.952C49.3706 439.952 50.1632 441.263 50.1632 443.091C50.1632 444.932 49.3578 446.274 47.8301 446.274C46.3535 446.274 45.5225 444.996 45.5225 443.091ZM54.5034 448H59.2591C61.5602 448 62.877 446.958 62.877 445.335C62.877 443.96 61.8095 443.001 60.269 442.867C61.5794 442.624 62.3976 441.928 62.3976 440.822C62.3976 439.166 60.9466 438.182 58.6262 438.182H54.5034V448ZM56.6703 446.178V443.743H59.2591C60.1092 443.743 60.627 444.235 60.627 445.047C60.627 445.75 60.1092 446.178 59.2591 446.178H56.6703ZM56.6703 442.247V440.036H58.6262C59.5914 440.036 60.1795 440.445 60.1795 441.116C60.1795 441.819 59.6106 442.247 58.671 442.247H56.6703ZM67.0174 438.182H64.7866V448H67.0174V444.031H70.8207V448H73.0451V438.182H70.8207V442.132H67.0174V438.182ZM77.617 441.378V438.182H75.3862V448H79.8478C82.3471 448 83.7853 446.619 83.7917 444.689C83.7853 442.707 82.3471 441.378 79.8478 441.378H77.617ZM85.0126 448H87.3265V438.182H85.0126V448ZM77.617 443.276H79.8478C80.8514 443.276 81.5737 443.871 81.5737 444.721C81.5737 445.533 80.8514 446.102 79.8478 446.102H77.617V443.276ZM91.9432 444.868V438.182H89.7124V448H92.0966L96.0149 441.308V448H98.2521V438.182H95.8743L91.9432 444.868ZM95.2415 434.807C95.2351 435.433 94.8771 435.989 93.9759 435.989C93.0618 435.989 92.7166 435.42 92.7166 434.807H90.9972C90.9908 436.303 92.1477 437.312 93.9759 437.312C95.8168 437.312 96.9737 436.303 96.9737 434.807H95.2415ZM5.47159 467.192C7.93892 467.192 9.51136 465.728 9.67756 463.644H7.46591C7.26776 464.699 6.5071 465.306 5.49077 465.306C4.04616 465.306 3.11293 464.098 3.11293 462.091C3.11293 460.109 4.06534 458.92 5.49077 458.92C6.60298 458.92 7.28693 459.636 7.46591 460.582H9.67756C9.51776 458.454 7.85582 457.054 5.45881 457.054C2.58239 457.054 0.767045 459.131 0.767045 462.129C0.767045 465.102 2.53764 467.192 5.47159 467.192ZM10.8825 459.08H14.0593V467H16.2965V459.08H19.4734V457.182H10.8825V459.08ZM21.3159 470.682H23.6298V465.453H23.7257C24.09 466.169 24.8507 467.173 26.5382 467.173C28.8521 467.173 30.5843 465.338 30.5843 462.104C30.5843 458.831 28.801 457.054 26.5318 457.054C24.7995 457.054 24.0772 458.096 23.7257 458.805H23.5914V457.182H21.3159V470.682ZM23.585 462.091C23.585 460.186 24.4032 458.952 25.8926 458.952C27.4331 458.952 28.2257 460.263 28.2257 462.091C28.2257 463.932 27.4203 465.274 25.8926 465.274C24.416 465.274 23.585 463.996 23.585 462.091ZM35.3912 467.198C36.9316 467.198 37.8521 466.476 38.274 465.651H38.3507V467H40.5751V460.429C40.5751 457.834 38.4593 457.054 36.5865 457.054C34.5218 457.054 32.9366 457.974 32.4252 459.764L34.5858 460.071C34.8159 459.4 35.4679 458.825 36.5993 458.825C37.6731 458.825 38.2612 459.374 38.2612 460.339V460.378C38.2612 461.043 37.5645 461.075 35.8322 461.26C33.9274 461.464 32.1056 462.033 32.1056 464.245C32.1056 466.175 33.5183 467.198 35.3912 467.198ZM35.992 465.498C35.0268 465.498 34.3365 465.057 34.3365 464.207C34.3365 463.318 35.1099 462.947 36.1454 462.8C36.7527 462.717 37.9672 462.564 38.2676 462.321V463.478C38.2676 464.571 37.3855 465.498 35.992 465.498ZM44.7939 457.182H42.3393L45.2541 462.091L42.2626 467H44.7172L46.7754 463.465L48.8528 467H51.2882L48.2775 462.091L51.237 457.182H48.7889L46.7754 460.806L44.7939 457.182ZM56.9403 467.192C59.8168 467.192 61.6449 465.165 61.6449 462.129C61.6449 459.087 59.8168 457.054 56.9403 457.054C54.0639 457.054 52.2358 459.087 52.2358 462.129C52.2358 465.165 54.0639 467.192 56.9403 467.192ZM56.9531 465.338C55.3615 465.338 54.5817 463.919 54.5817 462.123C54.5817 460.327 55.3615 458.888 56.9531 458.888C58.5192 458.888 59.299 460.327 59.299 462.123C59.299 463.919 58.5192 465.338 56.9531 465.338ZM63.6088 467H68.3645C70.6657 467 71.9824 465.958 71.9824 464.335C71.9824 462.96 70.915 462.001 69.3745 461.867C70.6848 461.624 71.503 460.928 71.503 459.822C71.503 458.166 70.052 457.182 67.7317 457.182H63.6088V467ZM65.7757 465.178V462.743H68.3645C69.2147 462.743 69.7324 463.235 69.7324 464.047C69.7324 464.75 69.2147 465.178 68.3645 465.178H65.7757ZM65.7757 461.247V459.036H67.7317C68.6969 459.036 69.285 459.445 69.285 460.116C69.285 460.819 68.7161 461.247 67.7765 461.247H65.7757ZM78.1747 467.192C81.0511 467.192 82.8793 465.165 82.8793 462.129C82.8793 459.087 81.0511 457.054 78.1747 457.054C75.2983 457.054 73.4702 459.087 73.4702 462.129C73.4702 465.165 75.2983 467.192 78.1747 467.192ZM78.1875 465.338C76.5959 465.338 75.8161 463.919 75.8161 462.123C75.8161 460.327 76.5959 458.888 78.1875 458.888C79.7536 458.888 80.5334 460.327 80.5334 462.123C80.5334 463.919 79.7536 465.338 78.1875 465.338ZM87.074 463.868V457.182H84.8432V467H87.2275L91.1458 460.308V467H93.383V457.182H91.0051L87.074 463.868ZM90.3723 453.807C90.3659 454.433 90.008 454.989 89.1067 454.989C88.1926 454.989 87.8475 454.42 87.8475 453.807H86.128C86.1216 455.303 87.2786 456.312 89.1067 456.312C90.9476 456.312 92.1046 455.303 92.1046 453.807H90.3723ZM104.679 470.337H107V467.192C109.889 467.192 111.877 465.146 111.877 462.129C111.877 459.106 109.889 457.054 107 457.054V453.909H104.679V457.054C101.79 457.054 99.8022 459.106 99.8022 462.129C99.8022 465.146 101.79 467.192 104.679 467.192V470.337ZM104.679 465.325C103.043 465.325 102.167 463.881 102.167 462.129C102.167 460.378 103.03 458.92 104.679 458.92V465.325ZM107 465.325V458.92C108.649 458.92 109.505 460.378 109.505 462.129C109.505 463.881 108.649 465.325 107 465.325ZM118.112 467.192C120.989 467.192 122.817 465.165 122.817 462.129C122.817 459.087 120.989 457.054 118.112 457.054C115.236 457.054 113.408 459.087 113.408 462.129C113.408 465.165 115.236 467.192 118.112 467.192ZM118.125 465.338C116.533 465.338 115.754 463.919 115.754 462.123C115.754 460.327 116.533 458.888 118.125 458.888C119.691 458.888 120.471 460.327 120.471 462.123C120.471 463.919 119.691 465.338 118.125 465.338ZM127.012 457.182H124.781V467H127.012V463.031H130.815V467H133.039V457.182H130.815V461.132H127.012V457.182ZM134.511 469.851H136.787V467H143.211V469.851H145.448V465.095H143.926V457.182H136.831L136.55 460.621C136.365 462.82 136.122 464.45 135.291 465.095H134.511V469.851ZM137.669 465.095C138.289 464.181 138.519 462.698 138.685 460.621L138.838 459.048H141.715V465.095H137.669Z" fill="white"/>
<path d="M1.29119 541H3.66264V535.439H9.72869V541H12.1065V527.909H9.72869V533.451H3.66264V527.909H1.29119V541ZM18.93 541.192C21.2184 541.192 22.7908 540.073 23.1999 538.366L21.0394 538.124C20.7262 538.955 19.9592 539.389 18.962 539.389C17.4663 539.389 16.4755 538.405 16.4563 536.724H23.2958V536.014C23.2958 532.569 21.2248 531.054 18.8086 531.054C15.9961 531.054 14.1616 533.119 14.1616 536.148C14.1616 539.229 15.9705 541.192 18.93 541.192ZM16.4627 535.164C16.533 533.911 17.4599 532.857 18.8406 532.857C20.1701 532.857 21.065 533.828 21.0778 535.164H16.4627ZM24.4352 533.08H27.612V541H29.8493V533.08H33.0261V531.182H24.4352V533.08ZM34.8686 541H39.6243C41.9254 541 43.2422 539.958 43.2422 538.335C43.2422 536.96 42.1747 536.001 40.6342 535.867C41.9446 535.624 42.7628 534.928 42.7628 533.822C42.7628 532.166 41.3118 531.182 38.9915 531.182H34.8686V541ZM37.0355 539.178V536.743H39.6243C40.4744 536.743 40.9922 537.235 40.9922 538.047C40.9922 538.75 40.4744 539.178 39.6243 539.178H37.0355ZM37.0355 535.247V533.036H38.9915C39.9567 533.036 40.5447 533.445 40.5447 534.116C40.5447 534.819 39.9759 535.247 39.0362 535.247H37.0355ZM49.4345 541.192C52.3109 541.192 54.139 539.165 54.139 536.129C54.139 533.087 52.3109 531.054 49.4345 531.054C46.5581 531.054 44.7299 533.087 44.7299 536.129C44.7299 539.165 46.5581 541.192 49.4345 541.192ZM49.4473 539.338C47.8556 539.338 47.0758 537.919 47.0758 536.123C47.0758 534.327 47.8556 532.888 49.4473 532.888C51.0133 532.888 51.7931 534.327 51.7931 536.123C51.7931 537.919 51.0133 539.338 49.4473 539.338ZM56.103 544.682H58.4169V539.453H58.5128C58.8771 540.169 59.6378 541.173 61.3253 541.173C63.6392 541.173 65.3714 539.338 65.3714 536.104C65.3714 532.831 63.5881 531.054 61.3189 531.054C59.5866 531.054 58.8643 532.096 58.5128 532.805H58.3786V531.182H56.103V544.682ZM58.3722 536.091C58.3722 534.186 59.1903 532.952 60.6797 532.952C62.2202 532.952 63.0128 534.263 63.0128 536.091C63.0128 537.932 62.2074 539.274 60.6797 539.274C59.2031 539.274 58.3722 537.996 58.3722 536.091ZM67.353 541H69.6669V537.299H70.7983L73.4893 541H76.2891L72.6136 536.001L76.2507 531.182H73.4638L70.5107 535.145H69.6669V531.182H67.353V541ZM79.8319 537.868V531.182H77.601V541H79.9853L83.9036 534.308V541H86.1408V531.182H83.763L79.8319 537.868ZM90.7479 531.182H88.517V541H90.7479V537.031H94.5511V541H96.7756V531.182H94.5511V535.132H90.7479V531.182ZM105.611 531.182H99.1167V541H101.379V533.08H105.611V531.182ZM117.275 527.295H115.249L111.03 542.969H113.056L117.275 527.295ZM128.867 538.309L126.029 531.182H123.216V541H125.447V534.384L128.061 541H129.679L132.382 534.314V541H134.594V531.182H131.782L128.867 538.309ZM141.274 541.192C143.562 541.192 145.135 540.073 145.544 538.366L143.383 538.124C143.07 538.955 142.303 539.389 141.306 539.389C139.81 539.389 138.819 538.405 138.8 536.724H145.64V536.014C145.64 532.569 143.569 531.054 141.152 531.054C138.34 531.054 136.505 533.119 136.505 536.148C136.505 539.229 138.314 541.192 141.274 541.192ZM138.806 535.164C138.877 533.911 139.804 532.857 141.184 532.857C142.514 532.857 143.409 533.828 143.422 535.164H138.806ZM147.597 544.682H149.911V539.453H150.007C150.371 540.169 151.132 541.173 152.819 541.173C155.133 541.173 156.866 539.338 156.866 536.104C156.866 532.831 155.082 531.054 152.813 531.054C151.081 531.054 150.358 532.096 150.007 532.805H149.873V531.182H147.597V544.682ZM149.866 536.091C149.866 534.186 150.684 532.952 152.174 532.952C153.714 532.952 154.507 534.263 154.507 536.091C154.507 537.932 153.702 539.274 152.174 539.274C150.697 539.274 149.866 537.996 149.866 536.091ZM163.13 541.192C166.006 541.192 167.834 539.165 167.834 536.129C167.834 533.087 166.006 531.054 163.13 531.054C160.253 531.054 158.425 533.087 158.425 536.129C158.425 539.165 160.253 541.192 163.13 541.192ZM163.143 539.338C161.551 539.338 160.771 537.919 160.771 536.123C160.771 534.327 161.551 532.888 163.143 532.888C164.709 532.888 165.488 534.327 165.488 536.123C165.488 537.919 164.709 539.338 163.143 539.338ZM169.798 541H172.01V533.08H175.858V541H178.089V531.182H169.798V541ZM180.468 544.682H182.782V539.453H182.878C183.242 540.169 184.003 541.173 185.691 541.173C188.004 541.173 189.737 539.338 189.737 536.104C189.737 532.831 187.953 531.054 185.684 531.054C183.952 531.054 183.23 532.096 182.878 532.805H182.744V531.182H180.468V544.682ZM182.737 536.091C182.737 534.186 183.556 532.952 185.045 532.952C186.585 532.952 187.378 534.263 187.378 536.091C187.378 537.932 186.573 539.274 185.045 539.274C183.568 539.274 182.737 537.996 182.737 536.091ZM193.949 537.868V531.182H191.718V541H194.102L198.021 534.308V541H200.258V531.182H197.88L193.949 537.868ZM208.438 541H210.605V531.182H206.342C203.938 531.182 202.449 532.415 202.455 534.301C202.449 535.541 203.126 536.481 204.296 536.96L202.097 541H204.373L206.386 537.305H208.438V541ZM208.438 535.618H206.265C205.249 535.618 204.686 535.087 204.692 534.352C204.686 533.617 205.281 533.061 206.342 533.061H208.438V535.618ZM211.836 533.08H215.012V541H217.25V533.08H220.426V531.182H211.836V533.08ZM224.5 537.868V531.182H222.269V541H224.653L228.572 534.308V541H230.809V531.182H228.431L224.5 537.868ZM238.989 541H241.156V531.182H236.892C234.489 531.182 233 532.415 233.006 534.301C233 535.541 233.677 536.481 234.847 536.96L232.648 541H234.924L236.937 537.305H238.989V541ZM238.989 535.618H236.816C235.799 535.618 235.237 535.087 235.243 534.352C235.237 533.617 235.831 533.061 236.892 533.061H238.989V535.618Z" fill="white"/>
<path d="M1.2848 61.9091V75H3.39418L9.5625 66.0831H9.67116V75H12.0426V61.9091H9.92045L3.75852 70.8324H3.64347V61.9091H1.2848ZM16.7615 65.1818H14.5307V75H16.7615V71.0305H20.5648V75H22.7892V65.1818H20.5648V69.1321H16.7615V65.1818ZM25.1303 75H29.886C32.1871 75 33.5039 73.9581 33.5039 72.3345C33.5039 70.9602 32.4364 70.0014 30.896 69.8672C32.2063 69.6243 33.0245 68.9276 33.0245 67.8217C33.0245 66.1662 31.5735 65.1818 29.2532 65.1818H25.1303V75ZM27.2972 73.1783V70.7429H29.886C30.7362 70.7429 31.2539 71.2351 31.2539 72.0469C31.2539 72.75 30.7362 73.1783 29.886 73.1783H27.2972ZM27.2972 69.2472V67.0355H29.2532C30.2184 67.0355 30.8065 67.4446 30.8065 68.1158C30.8065 68.8189 30.2376 69.2472 29.2979 69.2472H27.2972ZM39.7601 75.1918C42.0485 75.1918 43.6209 74.0732 44.03 72.3665L41.8695 72.1236C41.5563 72.9545 40.7892 73.3892 39.7921 73.3892C38.2963 73.3892 37.3056 72.4048 37.2864 70.7237H44.1259V70.0142C44.1259 66.5689 42.0549 65.054 39.6387 65.054C36.8262 65.054 34.9917 67.1186 34.9917 70.1484C34.9917 73.2294 36.8006 75.1918 39.7601 75.1918ZM37.2928 69.1641C37.3631 67.9112 38.29 66.8565 39.6706 66.8565C41.0002 66.8565 41.8951 67.8281 41.9078 69.1641H37.2928ZM50.3661 75.1918C52.8335 75.1918 54.4059 73.728 54.5721 71.6442H52.3604C52.1623 72.6989 51.4016 73.3061 50.3853 73.3061C48.9407 73.3061 48.0075 72.098 48.0075 70.0909C48.0075 68.1094 48.9599 66.9205 50.3853 66.9205C51.4975 66.9205 52.1815 67.6364 52.3604 68.5824H54.5721C54.4123 66.4538 52.7504 65.054 50.3533 65.054C47.4769 65.054 45.6616 67.1314 45.6616 70.1293C45.6616 73.1016 47.4322 75.1918 50.3661 75.1918ZM55.777 67.0803H58.9538V75H61.1911V67.0803H64.3679V65.1818H55.777V67.0803ZM68.4412 71.8679V65.1818H66.2104V75H68.5946L72.513 68.3075V75H74.7502V65.1818H72.3723L68.4412 71.8679ZM85.4169 65.1818H83.2053V73.1016H79.3572V65.1818H77.1264V75H84.6562V78.1577H86.919V73.2741H85.4169V65.1818ZM91.0467 71.8679V65.1818H88.8159V75H91.2001L95.1184 68.3075V75H97.3556V65.1818H94.9778L91.0467 71.8679ZM101.963 71.8679V65.1818H99.7319V75H102.116L106.034 68.3075V75H108.272V65.1818H105.894L101.963 71.8679ZM115.113 75H119.868C122.17 75 123.486 73.9581 123.486 72.3345C123.486 70.9602 122.419 70.0014 120.878 69.8672C122.189 69.6243 123.007 68.9276 123.007 67.8217C123.007 66.1662 121.556 65.1818 119.236 65.1818H115.113V75ZM117.28 73.1783V70.7429H119.868C120.719 70.7429 121.236 71.2351 121.236 72.0469C121.236 72.75 120.719 73.1783 119.868 73.1783H117.28ZM117.28 69.2472V67.0355H119.236C120.201 67.0355 120.789 67.4446 120.789 68.1158C120.789 68.8189 120.22 69.2472 119.28 69.2472H117.28ZM1.18892 97.6818H3.50284V92.4531H3.59872C3.96307 93.169 4.72372 94.1726 6.41122 94.1726C8.72514 94.1726 10.4574 92.3381 10.4574 89.1037C10.4574 85.831 8.67401 84.054 6.40483 84.054C4.67259 84.054 3.95028 85.0959 3.59872 85.8054H3.46449V84.1818H1.18892V97.6818ZM3.4581 89.0909C3.4581 87.1861 4.27628 85.9524 5.76562 85.9524C7.30611 85.9524 8.09872 87.2628 8.09872 89.0909C8.09872 90.9318 7.29332 92.2741 5.76562 92.2741C4.28906 92.2741 3.4581 90.9957 3.4581 89.0909ZM15.2642 94.1982C16.8047 94.1982 17.7251 93.4759 18.147 92.6513H18.2237V94H20.4482V87.429C20.4482 84.8338 18.3324 84.054 16.4595 84.054C14.3949 84.054 12.8097 84.9744 12.2983 86.7642L14.4588 87.071C14.6889 86.3999 15.3409 85.8246 16.4723 85.8246C17.5462 85.8246 18.1342 86.3743 18.1342 87.3395V87.3778C18.1342 88.0426 17.4375 88.0746 15.7053 88.2599C13.8004 88.4645 11.9787 89.0334 11.9787 91.245C11.9787 93.1754 13.3913 94.1982 15.2642 94.1982ZM15.8651 92.4979C14.8999 92.4979 14.2095 92.0568 14.2095 91.2067C14.2095 90.3182 14.983 89.9474 16.0185 89.8004C16.6257 89.7173 17.8402 89.5639 18.1406 89.321V90.478C18.1406 91.571 17.2585 92.4979 15.8651 92.4979ZM22.2315 91.3089C22.2891 93.1307 23.9574 94.1918 26.2266 94.1918C28.5533 94.1918 30.2344 93.0859 30.2344 91.277C30.2344 89.9538 29.3331 89.0462 28.1697 88.9759V88.8736C29.2947 88.5732 30.0107 87.87 30.0107 86.8089C30.0107 85.1534 28.5788 84.054 26.2777 84.054C24.13 84.054 22.5128 85.1662 22.4808 86.8793H24.7628C24.7884 86.2209 25.4659 85.7607 26.3864 85.7607C27.3068 85.7607 27.8629 86.2528 27.8629 86.9815C27.8629 87.6527 27.3516 88.1513 26.3928 88.1513H24.8906V89.794H26.3928C27.358 89.794 27.9908 90.3374 27.9908 91.13C27.9908 92.0249 27.2045 92.4595 26.2138 92.4595C25.2358 92.4595 24.571 92.0376 24.5263 91.3089H22.2315ZM32.0561 94H36.8118C39.1129 94 40.4297 92.9581 40.4297 91.3345C40.4297 89.9602 39.3622 89.0014 37.8217 88.8672C39.1321 88.6243 39.9503 87.9276 39.9503 86.8217C39.9503 85.1662 38.4993 84.1818 36.179 84.1818H32.0561V94ZM34.223 92.1783V89.7429H36.8118C37.6619 89.7429 38.1797 90.2351 38.1797 91.0469C38.1797 91.75 37.6619 92.1783 36.8118 92.1783H34.223ZM34.223 88.2472V86.0355H36.179C37.1442 86.0355 37.7322 86.4446 37.7322 87.1158C37.7322 87.8189 37.1634 88.2472 36.2237 88.2472H34.223ZM44.5701 90.8679V84.1818H42.3393V94H44.7235L48.6419 87.3075V94H50.8791V84.1818H48.5012L44.5701 90.8679ZM52.1559 86.0803H55.3327V94H57.57V86.0803H60.7468V84.1818H52.1559V86.0803ZM64.8201 90.8679V84.1818H62.5893V94H64.9735L68.8919 87.3075V94H71.1291V84.1818H68.7512L64.8201 90.8679ZM77.8519 94.1918C80.1403 94.1918 81.7127 93.0732 82.1218 91.3665L79.9613 91.1236C79.6481 91.9545 78.881 92.3892 77.8839 92.3892C76.3881 92.3892 75.3974 91.4048 75.3782 89.7237H82.2177V89.0142C82.2177 85.5689 80.1467 84.054 77.7305 84.054C74.918 84.054 73.0835 86.1186 73.0835 89.1484C73.0835 92.2294 74.8924 94.1918 77.8519 94.1918ZM75.3846 88.1641C75.4549 86.9112 76.3817 85.8565 77.7624 85.8565C79.092 85.8565 79.9869 86.8281 79.9996 88.1641H75.3846ZM88.6401 94H90.954V90.299H92.0854L94.7765 94H97.5762L93.9007 89.0014L97.5378 84.1818H94.7509L91.7978 88.1449H90.954V84.1818H88.6401V94ZM102.767 94.1918C105.643 94.1918 107.471 92.1655 107.471 89.1293C107.471 86.0866 105.643 84.054 102.767 84.054C99.8901 84.054 98.062 86.0866 98.062 89.1293C98.062 92.1655 99.8901 94.1918 102.767 94.1918ZM102.779 92.3381C101.188 92.3381 100.408 90.919 100.408 89.1229C100.408 87.3267 101.188 85.8885 102.779 85.8885C104.345 85.8885 105.125 87.3267 105.125 89.1229C105.125 90.919 104.345 92.3381 102.779 92.3381ZM115.086 91.3089L112.248 84.1818H109.435V94H111.666V87.3842L114.28 94H115.897L118.601 87.3139V94H120.813V84.1818H118L115.086 91.3089ZM123.146 94H125.358V86.0803H129.206V94H131.436V84.1818H123.146V94ZM136.641 94.1982C138.182 94.1982 139.102 93.4759 139.524 92.6513H139.601V94H141.825V87.429C141.825 84.8338 139.709 84.054 137.836 84.054C135.772 84.054 134.187 84.9744 133.675 86.7642L135.836 87.071C136.066 86.3999 136.718 85.8246 137.849 85.8246C138.923 85.8246 139.511 86.3743 139.511 87.3395V87.3778C139.511 88.0426 138.814 88.0746 137.082 88.2599C135.177 88.4645 133.356 89.0334 133.356 91.245C133.356 93.1754 134.768 94.1982 136.641 94.1982ZM137.242 92.4979C136.277 92.4979 135.586 92.0568 135.586 91.2067C135.586 90.3182 136.36 89.9474 137.395 89.8004C138.003 89.7173 139.217 89.5639 139.518 89.321V90.478C139.518 91.571 138.635 92.4979 137.242 92.4979ZM146.383 84.1818H144.152V94H146.383V90.0305H150.186V94H152.41V84.1818H150.186V88.1321H146.383V84.1818ZM156.982 90.8679V84.1818H154.751V94H157.136L161.054 87.3075V94H163.291V84.1818H160.913L156.982 90.8679ZM167.898 90.8679V84.1818H165.667V94H168.052L171.97 87.3075V94H174.207V84.1818H171.829L167.898 90.8679Z" fill="white"/>
<line x1="582" y1="351.5" x2="990" y2="351.5" stroke="white" stroke-opacity="0.3" stroke-dasharray="1 1"/>
<circle cx="568.5" cy="351.5" r="2.5" fill="white"/>
<circle cx="568.5" cy="351.5" r="13" stroke="white" stroke-opacity="0.22" stroke-dasharray="7 7"/>
<line x1="326" y1="322.5" x2="1" y2="322.5" stroke="white" stroke-opacity="0.3" stroke-dasharray="1 1"/>
<circle r="2.5" transform="matrix(-1 0 0 1 339.5 321.5)" fill="white"/>
<circle r="13" transform="matrix(-1 0 0 1 339.5 321.5)" stroke="white" stroke-opacity="0.22" stroke-dasharray="7 7"/>
<line x1="398" y1="46.5" x2="-4.37114e-08" y2="46.5" stroke="white" stroke-opacity="0.3" stroke-dasharray="1 1"/>
<circle r="2.5" transform="matrix(-1 0 0 1 411.5 45.5)" fill="white"/>
<circle r="13" transform="matrix(-1 0 0 1 411.5 45.5)" stroke="white" stroke-opacity="0.22" stroke-dasharray="7 7"/>
<line x1="326" y1="478.5" x2="1" y2="478.5" stroke="white" stroke-opacity="0.3" stroke-dasharray="1 1"/>
<circle r="2.5" transform="matrix(-1 0 0 1 339.5 477.5)" fill="white"/>
<circle r="13" transform="matrix(-1 0 0 1 339.5 477.5)" stroke="white" stroke-opacity="0.22" stroke-dasharray="7 7"/>
<line x1="442" y1="555.5" x2="1" y2="555.5" stroke="white" stroke-opacity="0.3" stroke-dasharray="1 1"/>
<circle r="2.5" transform="matrix(-1 0 0 1 455.5 554.5)" fill="white"/>
<circle r="13" transform="matrix(-1 0 0 1 455.5 554.5)" stroke="white" stroke-opacity="0.22" stroke-dasharray="7 7"/>
<defs>
<filter id="filter0_b_115_2137" x="120.133" y="-69.8667" width="720.733" height="720.733" filterUnits="userSpaceOnUse" color-interpolation-filters="sRGB">
<feFlood flood-opacity="0" result="BackgroundImageFix"/>
<feGaussianBlur in="BackgroundImage" stdDeviation="37.9333"/>
<feComposite in2="SourceAlpha" operator="in" result="effect1_backgroundBlur_115_2137"/>
<feBlend mode="normal" in="SourceGraphic" in2="effect1_backgroundBlur_115_2137" result="shape"/>
</filter>
<linearGradient id="paint0_linear_115_2137" x1="480.5" y1="6" x2="480.5" y2="575" gradientUnits="userSpaceOnUse">
<stop/>
<stop offset="1" stop-color="#0003FF"/>
</linearGradient>
<linearGradient id="paint1_linear_115_2137" x1="480.5" y1="6" x2="480.5" y2="575" gradientUnits="userSpaceOnUse">
<stop stop-color="#01FF57"/>
<stop offset="1" stop-color="#FF0000" stop-opacity="0"/>
</linearGradient>
<linearGradient id="paint2_linear_115_2137" x1="480.5" y1="252.5" x2="480.5" y2="575" gradientUnits="userSpaceOnUse">
<stop stop-color="#52FF00"/>
<stop offset="1" stop-color="#0003FF" stop-opacity="0.12"/>
</linearGradient>
<linearGradient id="paint3_linear_115_2137" x1="480.5" y1="6" x2="480.5" y2="575" gradientUnits="userSpaceOnUse">
<stop stop-color="white"/>
<stop offset="1" stop-color="white" stop-opacity="0"/>
</linearGradient>
<linearGradient id="paint4_linear_115_2137" x1="482" y1="14" x2="482" y2="631.5" gradientUnits="userSpaceOnUse">
<stop stop-color="#7677FF"/>
<stop offset="1" stop-color="#0003FF"/>
</linearGradient>
</defs>
</svg>
