<svg width="574" height="310" viewBox="0 0 574 310" fill="none" xmlns="http://www.w3.org/2000/svg">
<path fill-rule="evenodd" clip-rule="evenodd" d="M5 0C2.23858 0 0 2.23858 0 5V36C0 38.7614 2.23858 41 5 41H281C283.761 41 286 38.7614 286 36V5C286 2.23858 283.761 0 281 0H5ZM0 48C0 45.2386 2.23858 43 5 43H281C283.761 43 286 45.2386 286 48V80C286 82.7614 283.761 85 281 85H5C2.23858 85 0 82.7614 0 80V48ZM5 87C2.23858 87 0 89.2386 0 92V124C0 126.761 2.23858 129 5 129H281C283.761 129 286 126.761 286 124V92C286 89.2386 283.761 87 281 87H5ZM5 222C2.23858 222 0 224.239 0 227V260C0 262.761 2.23858 265 5 265H281C283.761 265 286 262.761 286 260V227C286 224.239 283.761 222 281 222H5ZM0 272C0 269.239 2.23858 267 5 267H281C283.761 267 286 269.239 286 272V305C286 307.761 283.761 310 281 310H5C2.23858 310 0 307.761 0 305V272ZM5 177C2.23858 177 0 179.239 0 182V215C0 217.761 2.23858 220 5 220H281C283.761 220 286 217.761 286 215V182C286 179.239 283.761 177 281 177H5ZM289 48C289 45.2386 291.239 43 294 43H569C571.761 43 574 45.2386 574 48V80C574 82.7614 571.761 85 569 85H294C291.239 85 289 82.7614 289 80V48ZM294 0C291.239 0 289 2.23858 289 5V36C289 38.7614 291.239 41 294 41H569C571.761 41 574 38.7614 574 36V5C574 2.23858 571.761 0 569 0H294ZM289 227C289 224.239 291.239 222 294 222H569C571.761 222 574 224.239 574 227V260C574 262.761 571.761 265 569 265H294C291.239 265 289 262.761 289 260V227ZM294 177C291.239 177 289 179.239 289 182V215C289 217.761 291.239 220 294 220H569C571.761 220 574 217.761 574 215V182C574 179.239 571.761 177 569 177H294Z" fill="url(#paint0_linear_115_2117)" fill-opacity="0.19"/>
<path d="M102.119 69H104.716L99.9205 62.6705L104.517 57.3636H101.92L97.7841 62.1477H97.2557V57.3636H95.1477V69H97.2557V63.9148H98.2898L102.119 69ZM106.057 72.2727H108.114V67.625H108.199C108.523 68.2614 109.199 69.1534 110.699 69.1534C112.756 69.1534 114.295 67.5227 114.295 64.6477C114.295 61.7386 112.71 60.1591 110.693 60.1591C109.153 60.1591 108.511 61.0852 108.199 61.7159H108.08V60.2727H106.057V72.2727ZM108.074 64.6364C108.074 62.9432 108.801 61.8466 110.125 61.8466C111.494 61.8466 112.199 63.0114 112.199 64.6364C112.199 66.2727 111.483 67.4659 110.125 67.4659C108.812 67.4659 108.074 66.3295 108.074 64.6364ZM118.568 69.1761C119.938 69.1761 120.756 68.5341 121.131 67.8011H121.199V69H123.176V63.1591C123.176 60.8523 121.295 60.1591 119.631 60.1591C117.795 60.1591 116.386 60.9773 115.932 62.5682L117.852 62.8409C118.057 62.2443 118.636 61.733 119.642 61.733C120.597 61.733 121.119 62.2216 121.119 63.0795V63.1136C121.119 63.7045 120.5 63.733 118.96 63.8977C117.267 64.0795 115.648 64.5852 115.648 66.5511C115.648 68.267 116.903 69.1761 118.568 69.1761ZM119.102 67.6648C118.244 67.6648 117.631 67.2727 117.631 66.517C117.631 65.7273 118.318 65.3977 119.239 65.267C119.778 65.1932 120.858 65.0568 121.125 64.8409V65.8693C121.125 66.8409 120.341 67.6648 119.102 67.6648ZM129.051 69.1705C131.244 69.1705 132.642 67.8693 132.79 66.017H130.824C130.648 66.9545 129.972 67.4943 129.068 67.4943C127.784 67.4943 126.955 66.4205 126.955 64.6364C126.955 62.875 127.801 61.8182 129.068 61.8182C130.057 61.8182 130.665 62.4545 130.824 63.2955H132.79C132.648 61.4034 131.17 60.1591 129.04 60.1591C126.483 60.1591 124.869 62.0057 124.869 64.6705C124.869 67.3125 126.443 69.1705 129.051 69.1705ZM136.462 66.2159V60.2727H134.479V69H136.598L140.081 63.0511V69H142.07V60.2727H139.956L136.462 66.2159ZM144.182 69H148.409C150.455 69 151.625 68.0739 151.625 66.6307C151.625 65.4091 150.676 64.5568 149.307 64.4375C150.472 64.2216 151.199 63.6023 151.199 62.6193C151.199 61.1477 149.909 60.2727 147.847 60.2727H144.182V69ZM146.108 67.3807V65.2159H148.409C149.165 65.2159 149.625 65.6534 149.625 66.375C149.625 67 149.165 67.3807 148.409 67.3807H146.108ZM146.108 63.8864V61.9205H147.847C148.705 61.9205 149.227 62.2841 149.227 62.8807C149.227 63.5057 148.722 63.8864 147.886 63.8864H146.108ZM155.305 63.1136V60.2727H153.322V69H157.288C159.51 69 160.788 67.7727 160.794 66.0568C160.788 64.2955 159.51 63.1136 157.288 63.1136H155.305ZM161.879 69H163.936V60.2727H161.879V69ZM155.305 64.8011H157.288C158.18 64.8011 158.822 65.3295 158.822 66.0852C158.822 66.8068 158.18 67.3125 157.288 67.3125H155.305V64.8011ZM168.04 66.2159V60.2727H166.057V69H168.176L171.659 63.0511V69H173.648V60.2727H171.534L168.04 66.2159ZM170.972 57.2727C170.966 57.8295 170.648 58.3239 169.847 58.3239C169.034 58.3239 168.727 57.8182 168.727 57.2727H167.199C167.193 58.6023 168.222 59.5 169.847 59.5C171.483 59.5 172.511 58.6023 172.511 57.2727H170.972ZM179.729 69H183.956C186.001 69 187.172 68.0739 187.172 66.6307C187.172 65.4091 186.223 64.5568 184.854 64.4375C186.018 64.2216 186.746 63.6023 186.746 62.6193C186.746 61.1477 185.456 60.2727 183.393 60.2727H179.729V69ZM181.655 67.3807V65.2159H183.956C184.712 65.2159 185.172 65.6534 185.172 66.375C185.172 67 184.712 67.3807 183.956 67.3807H181.655ZM181.655 63.8864V61.9205H183.393C184.251 61.9205 184.774 62.2841 184.774 62.8807C184.774 63.5057 184.268 63.8864 183.433 63.8864H181.655ZM190.852 66.2159V60.2727H188.869V69H190.989L194.472 63.0511V69H196.46V60.2727H194.347L190.852 66.2159ZM198.089 66.608C198.141 68.2273 199.624 69.1705 201.641 69.1705C203.709 69.1705 205.203 68.1875 205.203 66.5795C205.203 65.4034 204.402 64.5966 203.368 64.5341V64.4432C204.368 64.1761 205.004 63.5511 205.004 62.608C205.004 61.1364 203.732 60.1591 201.686 60.1591C199.777 60.1591 198.339 61.1477 198.311 62.6705H200.339C200.362 62.0852 200.964 61.6761 201.783 61.6761C202.601 61.6761 203.095 62.1136 203.095 62.7614C203.095 63.358 202.641 63.8011 201.788 63.8011H200.453V65.2614H201.788C202.646 65.2614 203.209 65.7443 203.209 66.4489C203.209 67.2443 202.51 67.6307 201.629 67.6307C200.76 67.6307 200.169 67.2557 200.129 66.608H198.089ZM208.101 72.2727C209.703 72.2727 210.629 71.4489 211.124 70.0568L214.629 60.2841L212.43 60.2727L210.413 66.8636H210.322L208.311 60.2727H206.129L209.294 69.1818L209.118 69.6534C208.737 70.6477 208.135 70.7159 207.237 70.4545L206.76 72.0568C207.038 72.1705 207.538 72.2727 208.101 72.2727ZM218.318 69.1761C219.688 69.1761 220.506 68.5341 220.881 67.8011H220.949V69H222.926V63.1591C222.926 60.8523 221.045 60.1591 219.381 60.1591C217.545 60.1591 216.136 60.9773 215.682 62.5682L217.602 62.8409C217.807 62.2443 218.386 61.733 219.392 61.733C220.347 61.733 220.869 62.2216 220.869 63.0795V63.1136C220.869 63.7045 220.25 63.733 218.71 63.8977C217.017 64.0795 215.398 64.5852 215.398 66.5511C215.398 68.267 216.653 69.1761 218.318 69.1761ZM218.852 67.6648C217.994 67.6648 217.381 67.2727 217.381 66.517C217.381 65.7273 218.068 65.3977 218.989 65.267C219.528 65.1932 220.608 65.0568 220.875 64.8409V65.8693C220.875 66.8409 220.091 67.6648 218.852 67.6648ZM224.392 69H225.028C226.903 69 227.75 67.6818 227.886 64.7727L228.023 61.9602H230.528V69H232.517V60.2727H226.153L226 64.1364C225.903 66.5852 225.585 67.3068 224.682 67.3068H224.381L224.392 69Z" fill="white"/>
<path d="M95.1477 27H99.5C102.17 27 103.773 25.517 103.773 23.375C103.773 21.2386 102.17 19.858 99.5 19.858H97.2557V17.1307H102.631V15.3636H95.1477V27ZM97.2557 25.2727V21.5739H99.5C100.909 21.5739 101.688 22.3693 101.688 23.3523C101.688 24.375 100.909 25.2727 99.5 25.2727H97.2557ZM108.037 27.1761C109.406 27.1761 110.224 26.5341 110.599 25.8011H110.668V27H112.645V21.1591C112.645 18.8523 110.764 18.1591 109.099 18.1591C107.264 18.1591 105.855 18.9773 105.401 20.5682L107.321 20.8409C107.526 20.2443 108.105 19.733 109.111 19.733C110.065 19.733 110.588 20.2216 110.588 21.0795V21.1136C110.588 21.7045 109.969 21.733 108.429 21.8977C106.736 22.0795 105.116 22.5852 105.116 24.5511C105.116 26.267 106.372 27.1761 108.037 27.1761ZM108.571 25.6648C107.713 25.6648 107.099 25.2727 107.099 24.517C107.099 23.7273 107.787 23.3977 108.707 23.267C109.247 23.1932 110.327 23.0568 110.594 22.8409V23.8693C110.594 24.8409 109.81 25.6648 108.571 25.6648ZM114.23 24.608C114.281 26.2273 115.764 27.1705 117.781 27.1705C119.849 27.1705 121.344 26.1875 121.344 24.5795C121.344 23.4034 120.543 22.5966 119.509 22.5341V22.4432C120.509 22.1761 121.145 21.5511 121.145 20.608C121.145 19.1364 119.872 18.1591 117.827 18.1591C115.918 18.1591 114.48 19.1477 114.452 20.6705H116.48C116.503 20.0852 117.105 19.6761 117.923 19.6761C118.741 19.6761 119.236 20.1136 119.236 20.7614C119.236 21.358 118.781 21.8011 117.929 21.8011H116.594V23.2614H117.929C118.787 23.2614 119.349 23.7443 119.349 24.4489C119.349 25.2443 118.651 25.6307 117.77 25.6307C116.901 25.6307 116.31 25.2557 116.27 24.608H114.23ZM126.77 27.1705C129.327 27.1705 130.952 25.3693 130.952 22.6705C130.952 19.9659 129.327 18.1591 126.77 18.1591C124.213 18.1591 122.588 19.9659 122.588 22.6705C122.588 25.3693 124.213 27.1705 126.77 27.1705ZM126.781 25.5227C125.366 25.5227 124.673 24.2614 124.673 22.6648C124.673 21.0682 125.366 19.7898 126.781 19.7898C128.173 19.7898 128.866 21.0682 128.866 22.6648C128.866 24.2614 128.173 25.5227 126.781 25.5227ZM132.697 27H136.925C138.97 27 140.141 26.0739 140.141 24.6307C140.141 23.4091 139.192 22.5568 137.822 22.4375C138.987 22.2216 139.714 21.6023 139.714 20.6193C139.714 19.1477 138.425 18.2727 136.362 18.2727H132.697V27ZM134.624 25.3807V23.2159H136.925C137.68 23.2159 138.141 23.6534 138.141 24.375C138.141 25 137.68 25.3807 136.925 25.3807H134.624ZM134.624 21.8864V19.9205H136.362C137.22 19.9205 137.743 20.2841 137.743 20.8807C137.743 21.5057 137.237 21.8864 136.402 21.8864H134.624ZM143.821 21.1136V18.2727H141.838V27H145.804C148.026 27 149.304 25.7727 149.31 24.0568C149.304 22.2955 148.026 21.1136 145.804 21.1136H143.821ZM150.395 27H152.452V18.2727H150.395V27ZM143.821 22.8011H145.804C146.696 22.8011 147.338 23.3295 147.338 24.0852C147.338 24.8068 146.696 25.3125 145.804 25.3125H143.821V22.8011ZM158.436 27.1705C160.47 27.1705 161.868 26.1761 162.232 24.6591L160.311 24.4432C160.033 25.1818 159.351 25.5682 158.464 25.5682C157.135 25.5682 156.254 24.6932 156.237 23.1989H162.317V22.5682C162.317 19.5057 160.476 18.1591 158.328 18.1591C155.828 18.1591 154.197 19.9943 154.197 22.6875C154.197 25.4261 155.805 27.1705 158.436 27.1705ZM156.243 21.8125C156.305 20.6989 157.129 19.7614 158.357 19.7614C159.538 19.7614 160.334 20.625 160.345 21.8125H156.243ZM170.009 18.2727H168.026V27H170.009V23.4716H173.389V27H175.366V18.2727H173.389V21.7841H170.009V18.2727ZM179.959 27.1761C181.328 27.1761 182.146 26.5341 182.521 25.8011H182.589V27H184.567V21.1591C184.567 18.8523 182.686 18.1591 181.021 18.1591C179.186 18.1591 177.777 18.9773 177.322 20.5682L179.243 20.8409C179.447 20.2443 180.027 19.733 181.033 19.733C181.987 19.733 182.51 20.2216 182.51 21.0795V21.1136C182.51 21.7045 181.891 21.733 180.351 21.8977C178.658 22.0795 177.038 22.5852 177.038 24.5511C177.038 26.267 178.294 27.1761 179.959 27.1761ZM180.493 25.6648C179.635 25.6648 179.021 25.2727 179.021 24.517C179.021 23.7273 179.709 23.3977 180.629 23.267C181.169 23.1932 182.249 23.0568 182.516 22.8409V23.8693C182.516 24.8409 181.732 25.6648 180.493 25.6648ZM190.442 27.1705C192.635 27.1705 194.033 25.8693 194.18 24.017H192.214C192.038 24.9545 191.362 25.4943 190.459 25.4943C189.175 25.4943 188.345 24.4205 188.345 22.6364C188.345 20.875 189.192 19.8182 190.459 19.8182C191.447 19.8182 192.055 20.4545 192.214 21.2955H194.18C194.038 19.4034 192.561 18.1591 190.43 18.1591C187.874 18.1591 186.26 20.0057 186.26 22.6705C186.26 25.3125 187.834 27.1705 190.442 27.1705ZM195.251 19.9602H198.075V27H200.064V19.9602H202.888V18.2727H195.251V19.9602ZM204.526 30.2727H206.582V25.625H206.668C206.991 26.2614 207.668 27.1534 209.168 27.1534C211.224 27.1534 212.764 25.5227 212.764 22.6477C212.764 19.7386 211.179 18.1591 209.162 18.1591C207.622 18.1591 206.98 19.0852 206.668 19.7159H206.548V18.2727H204.526V30.2727ZM206.543 22.6364C206.543 20.9432 207.27 19.8466 208.594 19.8466C209.963 19.8466 210.668 21.0114 210.668 22.6364C210.668 24.2727 209.952 25.4659 208.594 25.4659C207.281 25.4659 206.543 24.3295 206.543 22.6364ZM218.332 27.1705C220.889 27.1705 222.514 25.3693 222.514 22.6705C222.514 19.9659 220.889 18.1591 218.332 18.1591C215.776 18.1591 214.151 19.9659 214.151 22.6705C214.151 25.3693 215.776 27.1705 218.332 27.1705ZM218.344 25.5227C216.929 25.5227 216.236 24.2614 216.236 22.6648C216.236 21.0682 216.929 19.7898 218.344 19.7898C219.736 19.7898 220.429 21.0682 220.429 22.6648C220.429 24.2614 219.736 25.5227 218.344 25.5227ZM226.243 24.2159V18.2727H224.26V27H226.379L229.862 21.0511V27H231.851V18.2727H229.737L226.243 24.2159ZM229.175 15.2727C229.169 15.8295 228.851 16.3239 228.05 16.3239C227.237 16.3239 226.93 15.8182 226.93 15.2727H225.402C225.396 16.6023 226.425 17.5 228.05 17.5C229.686 17.5 230.714 16.6023 230.714 15.2727H229.175ZM233.963 27H236.02V23.7102H237.026L239.418 27H241.906L238.639 22.5568L241.872 18.2727H239.395L236.77 21.7955H236.02V18.2727H233.963V27ZM245.055 24.2159V18.2727H243.072V27H245.192L248.675 21.0511V27H250.663V18.2727H248.55L245.055 24.2159Z" fill="white"/>
<path d="M26.5071 77.7358C33.8256 77.7489 38.3718 72.5064 38.3849 63.598C38.3981 54.7422 33.8256 49.723 26.5071 49.723C19.1754 49.723 14.6555 54.7159 14.6293 63.598C14.603 72.467 19.1754 77.7227 26.5071 77.7358ZM26.5071 71.7969C23.9844 71.7969 22.1712 69.261 22.1974 63.598C22.2237 58.0664 23.9844 55.6094 26.5071 55.6094C29.0298 55.6094 30.8036 58.0664 30.8168 63.598C30.8299 69.261 29.0298 71.7969 26.5071 71.7969ZM41.8143 77H62.4691V71.1662H51.9577V71.0085L54.4805 68.9062C60.6165 63.7951 62.18 61.141 62.18 58.027C62.18 53.0078 58.0675 49.723 51.6161 49.723C45.3487 49.723 41.2756 53.2049 41.2887 58.8679H48.2262C48.2131 56.608 49.5927 55.3466 51.6161 55.3466C53.6264 55.3466 55.0586 56.5948 55.0586 58.6577C55.0586 60.5629 53.8366 61.7979 51.8526 63.4403L41.8143 71.7443V77Z" fill="white"/>
<path d="M26.5071 34.7358C33.8256 34.7489 38.3718 29.5064 38.3849 20.598C38.3981 11.7422 33.8256 6.72301 26.5071 6.72301C19.1754 6.72301 14.6555 11.7159 14.6293 20.598C14.603 29.467 19.1754 34.7227 26.5071 34.7358ZM26.5071 28.7969C23.9844 28.7969 22.1712 26.261 22.1974 20.598C22.2237 15.0664 23.9844 12.6094 26.5071 12.6094C29.0298 12.6094 30.8036 15.0664 30.8168 20.598C30.8299 26.261 29.0298 28.7969 26.5071 28.7969ZM55.006 7.09091H48.2788L41.6566 11.1378V17.3395L47.543 13.8182H47.7006V34H55.006V7.09091Z" fill="white"/>
<path d="M316.507 77.7358C323.826 77.7489 328.372 72.5064 328.385 63.598C328.398 54.7422 323.826 49.723 316.507 49.723C309.175 49.723 304.656 54.7159 304.629 63.598C304.603 72.467 309.175 77.7227 316.507 77.7358ZM316.507 71.7969C313.984 71.7969 312.171 69.261 312.197 63.598C312.224 58.0664 313.984 55.6094 316.507 55.6094C319.03 55.6094 320.804 58.0664 320.817 63.598C320.83 69.261 319.03 71.7969 316.507 71.7969ZM342.588 77.3679C349.145 77.3679 353.428 73.3867 353.415 67.75C353.428 62.6388 349.854 59.0256 345.059 59.0256C342.326 59.0256 340.118 60.2344 339.277 61.8636H339.12L339.645 55.9247H351.733V50.0909H333.654L332.603 64.9119L339.015 66.1733C339.632 64.8594 341.038 64.071 342.588 64.071C344.822 64.071 346.386 65.6083 346.373 67.9602C346.386 70.3121 344.822 71.8494 342.588 71.8494C340.657 71.8494 339.067 70.6669 339.015 68.8011H331.919C331.959 73.8203 336.387 77.3679 342.588 77.3679Z" fill="white"/>
<path d="M316.507 34.7358C323.826 34.7489 328.372 29.5064 328.385 20.598C328.398 11.7422 323.826 6.72301 316.507 6.72301C309.175 6.72301 304.656 11.7159 304.629 20.598C304.603 29.467 309.175 34.7227 316.507 34.7358ZM316.507 28.7969C313.984 28.7969 312.171 26.261 312.197 20.598C312.224 15.0664 313.984 12.6094 316.507 12.6094C319.03 12.6094 320.804 15.0664 320.817 20.598C320.83 26.261 319.03 28.7969 316.507 28.7969ZM331.551 29.7955H344.638V34H351.628V29.7955H354.729V24.1193H351.628V7.09091H342.378L331.551 24.1193V29.7955ZM344.796 24.1193H338.752V23.9091L344.586 14.6591H344.796V24.1193Z" fill="white"/>
<path d="M102.119 247H104.716L99.9205 240.67L104.517 235.364H101.92L97.7841 240.148H97.2557V235.364H95.1477V247H97.2557V241.915H98.2898L102.119 247ZM109.223 247.17C111.78 247.17 113.405 245.369 113.405 242.67C113.405 239.966 111.78 238.159 109.223 238.159C106.666 238.159 105.041 239.966 105.041 242.67C105.041 245.369 106.666 247.17 109.223 247.17ZM109.234 245.523C107.82 245.523 107.126 244.261 107.126 242.665C107.126 241.068 107.82 239.79 109.234 239.79C110.626 239.79 111.32 241.068 111.32 242.665C111.32 244.261 110.626 245.523 109.234 245.523ZM117.134 238.273H115.151V247H117.134V243.472H120.514V247H122.491V238.273H120.514V241.784H117.134V238.273ZM123.595 239.96H126.419V247H128.408V239.96H131.232V238.273H123.595V239.96ZM136.374 247.17C138.408 247.17 139.805 246.176 140.169 244.659L138.249 244.443C137.97 245.182 137.288 245.568 136.402 245.568C135.072 245.568 134.192 244.693 134.175 243.199H140.254V242.568C140.254 239.506 138.413 238.159 136.266 238.159C133.766 238.159 132.135 239.994 132.135 242.688C132.135 245.426 133.743 247.17 136.374 247.17ZM134.18 241.812C134.243 240.699 135.067 239.761 136.294 239.761C137.476 239.761 138.271 240.625 138.283 241.812H134.18ZM143.977 238.273H141.994V247H143.977V243.472H147.358V247H149.335V238.273H147.358V241.784H143.977V238.273ZM150.439 239.96H153.263V247H155.251V239.96H158.075V238.273H150.439V239.96ZM164.737 241.307H159.499V243H164.737V241.307ZM166.901 247H168.866V239.96H172.287V247H174.27V238.273H166.901V247ZM175.783 247H176.419C178.294 247 179.141 245.682 179.277 242.773L179.413 239.96H181.919V247H183.908V238.273H177.544L177.391 242.136C177.294 244.585 176.976 245.307 176.072 245.307H175.771L175.783 247ZM188.49 247.176C189.859 247.176 190.678 246.534 191.053 245.801H191.121V247H193.098V241.159C193.098 238.852 191.217 238.159 189.553 238.159C187.717 238.159 186.308 238.977 185.854 240.568L187.774 240.841C187.979 240.244 188.558 239.733 189.564 239.733C190.518 239.733 191.041 240.222 191.041 241.08V241.114C191.041 241.705 190.422 241.733 188.882 241.898C187.189 242.08 185.57 242.585 185.57 244.551C185.57 246.267 186.825 247.176 188.49 247.176ZM189.024 245.665C188.166 245.665 187.553 245.273 187.553 244.517C187.553 243.727 188.24 243.398 189.161 243.267C189.7 243.193 190.78 243.057 191.047 242.841V243.869C191.047 244.841 190.263 245.665 189.024 245.665ZM197.149 238.273H195.166V247H197.149V243.472H200.53V247H202.507V238.273H200.53V241.784H197.149V238.273Z" fill="white"/>
<path d="M105.108 278.29C104.75 275.705 102.761 274.205 100.182 274.205C97.142 274.205 94.8523 276.42 94.8523 280.182C94.8523 283.938 97.1136 286.159 100.182 286.159C102.949 286.159 104.784 284.369 105.108 282.148L102.983 282.136C102.716 283.5 101.602 284.267 100.21 284.267C98.3239 284.267 96.9716 282.852 96.9716 280.182C96.9716 277.557 98.3125 276.097 100.216 276.097C101.631 276.097 102.739 276.898 102.983 278.29H105.108ZM110.811 286.17C112.845 286.17 114.243 285.176 114.607 283.659L112.686 283.443C112.408 284.182 111.726 284.568 110.839 284.568C109.51 284.568 108.629 283.693 108.612 282.199H114.692V281.568C114.692 278.506 112.851 277.159 110.703 277.159C108.203 277.159 106.572 278.994 106.572 281.688C106.572 284.426 108.18 286.17 110.811 286.17ZM108.618 280.812C108.68 279.699 109.504 278.761 110.732 278.761C111.913 278.761 112.709 279.625 112.72 280.812H108.618ZM116.432 286H118.489V282.71H119.494L121.886 286H124.375L121.108 281.557L124.341 277.273H121.864L119.239 280.795H118.489V277.273H116.432V286ZM125.541 289.273H127.598V284.625H127.683C128.007 285.261 128.683 286.153 130.183 286.153C132.24 286.153 133.78 284.523 133.78 281.648C133.78 278.739 132.195 277.159 130.178 277.159C128.638 277.159 127.996 278.085 127.683 278.716H127.564V277.273H125.541V289.273ZM127.558 281.636C127.558 279.943 128.286 278.847 129.609 278.847C130.979 278.847 131.683 280.011 131.683 281.636C131.683 283.273 130.967 284.466 129.609 284.466C128.297 284.466 127.558 283.33 127.558 281.636ZM139.405 286.17C141.439 286.17 142.837 285.176 143.2 283.659L141.28 283.443C141.001 284.182 140.32 284.568 139.433 284.568C138.104 284.568 137.223 283.693 137.206 282.199H143.286V281.568C143.286 278.506 141.445 277.159 139.297 277.159C136.797 277.159 135.166 278.994 135.166 281.688C135.166 284.426 136.774 286.17 139.405 286.17ZM137.212 280.812C137.274 279.699 138.098 278.761 139.325 278.761C140.507 278.761 141.303 279.625 141.314 280.812H137.212ZM144.298 278.96H147.122V286H149.111V278.96H151.935V277.273H144.298V278.96ZM155.555 280.114V277.273H153.572V286H157.538C159.76 286 161.038 284.773 161.044 283.057C161.038 281.295 159.76 280.114 157.538 280.114H155.555ZM162.129 286H164.186V277.273H162.129V286ZM155.555 281.801H157.538C158.43 281.801 159.072 282.33 159.072 283.085C159.072 283.807 158.43 284.312 157.538 284.312H155.555V281.801ZM174.082 286.17C176.276 286.17 177.673 284.869 177.821 283.017H175.855C175.679 283.955 175.003 284.494 174.099 284.494C172.815 284.494 171.986 283.42 171.986 281.636C171.986 279.875 172.832 278.818 174.099 278.818C175.088 278.818 175.696 279.455 175.855 280.295H177.821C177.679 278.403 176.202 277.159 174.071 277.159C171.514 277.159 169.901 279.006 169.901 281.67C169.901 284.312 171.474 286.17 174.082 286.17ZM183.136 280.114V277.273H178.847V278.966H181.153V286H185.119C187.341 286 188.619 284.773 188.625 283.057C188.619 281.295 187.341 280.114 185.119 280.114H183.136ZM183.136 281.801H185.119C186.011 281.801 186.653 282.33 186.653 283.085C186.653 283.807 186.011 284.312 185.119 284.312H183.136V281.801ZM194.249 286.17C196.283 286.17 197.68 285.176 198.044 283.659L196.124 283.443C195.845 284.182 195.163 284.568 194.277 284.568C192.947 284.568 192.067 283.693 192.05 282.199H198.129V281.568C198.129 278.506 196.288 277.159 194.141 277.159C191.641 277.159 190.01 278.994 190.01 281.688C190.01 284.426 191.618 286.17 194.249 286.17ZM192.055 280.812C192.118 279.699 192.942 278.761 194.169 278.761C195.351 278.761 196.146 279.625 196.158 280.812H192.055ZM204.892 283.608L202.369 277.273H199.869V286H201.852V280.119L204.176 286H205.614L208.017 280.057V286H209.983V277.273H207.483L204.892 283.608ZM212.057 286H214.114V282.71H215.119L217.511 286H220L216.733 281.557L219.966 277.273H217.489L214.864 280.795H214.114V277.273H212.057V286ZM223.149 283.216V277.273H221.166V286H223.286L226.768 280.051V286H228.757V277.273H226.643L223.149 283.216ZM97.0398 297.216V291.273H95.0568V300H97.1761L100.659 294.051V300H102.648V291.273H100.534L97.0398 297.216ZM113.751 297.608L111.229 291.273H108.729V300H110.712V294.119L113.036 300H114.473L116.876 294.057V300H118.842V291.273H116.342L113.751 297.608ZM124.723 300.17C127.28 300.17 128.905 298.369 128.905 295.67C128.905 292.966 127.28 291.159 124.723 291.159C122.166 291.159 120.541 292.966 120.541 295.67C120.541 298.369 122.166 300.17 124.723 300.17ZM124.734 298.523C123.32 298.523 122.626 297.261 122.626 295.665C122.626 294.068 123.32 292.79 124.734 292.79C126.126 292.79 126.82 294.068 126.82 295.665C126.82 297.261 126.126 298.523 124.734 298.523ZM132.634 291.273H130.651V300H132.634V296.472H136.014V300H137.991V291.273H136.014V294.784H132.634V291.273ZM139.095 292.96H141.919V300H143.908V292.96H146.732V291.273H139.095V292.96ZM150.521 300.176C151.891 300.176 152.709 299.534 153.084 298.801H153.152V300H155.129V294.159C155.129 291.852 153.249 291.159 151.584 291.159C149.749 291.159 148.339 291.977 147.885 293.568L149.805 293.841C150.01 293.244 150.589 292.733 151.595 292.733C152.55 292.733 153.072 293.222 153.072 294.08V294.114C153.072 294.705 152.453 294.733 150.913 294.898C149.22 295.08 147.601 295.585 147.601 297.551C147.601 299.267 148.857 300.176 150.521 300.176ZM151.055 298.665C150.197 298.665 149.584 298.273 149.584 297.517C149.584 296.727 150.271 296.398 151.192 296.267C151.732 296.193 152.811 296.057 153.078 295.841V296.869C153.078 297.841 152.294 298.665 151.055 298.665ZM156.629 300H159.055L161.55 296.477H162.004V300H164.061V296.477H164.516L166.999 300H169.425L166.22 295.494L169.396 291.273H167.021L164.538 294.79H164.061V291.273H162.004V294.79H161.516L159.033 291.273H156.658L159.851 295.494L156.629 300ZM173.443 300.176C174.812 300.176 175.631 299.534 176.006 298.801H176.074V300H178.051V294.159C178.051 291.852 176.17 291.159 174.506 291.159C172.67 291.159 171.261 291.977 170.807 293.568L172.727 293.841C172.932 293.244 173.511 292.733 174.517 292.733C175.472 292.733 175.994 293.222 175.994 294.08V294.114C175.994 294.705 175.375 294.733 173.835 294.898C172.142 295.08 170.523 295.585 170.523 297.551C170.523 299.267 171.778 300.176 173.443 300.176ZM173.977 298.665C173.119 298.665 172.506 298.273 172.506 297.517C172.506 296.727 173.193 296.398 174.114 296.267C174.653 296.193 175.733 296.057 176 295.841V296.869C176 297.841 175.216 298.665 173.977 298.665Z" fill="white"/>
<path d="M95.1477 112H99.858C102.523 112 103.83 110.642 103.83 108.83C103.83 107.068 102.58 106.034 101.341 105.972V105.858C102.477 105.591 103.375 104.795 103.375 103.381C103.375 101.648 102.125 100.364 99.6023 100.364H95.1477V112ZM97.2557 110.239V106.83H99.5795C100.881 106.83 101.688 107.625 101.688 108.665C101.688 109.591 101.051 110.239 99.5227 110.239H97.2557ZM97.2557 105.312V102.102H99.3864C100.625 102.102 101.267 102.756 101.267 103.653C101.267 104.676 100.438 105.312 99.3409 105.312H97.2557ZM107.555 109.216V103.273H105.572V112H107.692L111.175 106.051V112H113.163V103.273H111.05L107.555 109.216ZM114.503 114.534H116.526V112H122.236V114.534H124.224V110.307H122.872V103.273H116.565L116.315 106.33C116.151 108.284 115.935 109.733 115.196 110.307H114.503V114.534ZM117.31 110.307C117.861 109.494 118.065 108.176 118.213 106.33L118.349 104.932H120.906V110.307H117.31ZM129.624 112.17C131.658 112.17 133.055 111.176 133.419 109.659L131.499 109.443C131.22 110.182 130.538 110.568 129.652 110.568C128.322 110.568 127.442 109.693 127.425 108.199H133.504V107.568C133.504 104.506 131.663 103.159 129.516 103.159C127.016 103.159 125.385 104.994 125.385 107.688C125.385 110.426 126.993 112.17 129.624 112.17ZM127.43 106.812C127.493 105.699 128.317 104.761 129.544 104.761C130.726 104.761 131.521 105.625 131.533 106.812H127.43ZM139.051 112.17C141.608 112.17 143.233 110.369 143.233 107.67C143.233 104.966 141.608 103.159 139.051 103.159C136.494 103.159 134.869 104.966 134.869 107.67C134.869 110.369 136.494 112.17 139.051 112.17ZM139.062 110.523C137.648 110.523 136.955 109.261 136.955 107.665C136.955 106.068 137.648 104.79 139.062 104.79C140.455 104.79 141.148 106.068 141.148 107.665C141.148 109.261 140.455 110.523 139.062 110.523ZM144.979 112H147.036V108.71H148.041L150.433 112H152.922L149.655 107.557L152.888 103.273H150.411L147.786 106.795H147.036V103.273H144.979V112ZM157.536 112.17C160.092 112.17 161.717 110.369 161.717 107.67C161.717 104.966 160.092 103.159 157.536 103.159C154.979 103.159 153.354 104.966 153.354 107.67C153.354 110.369 154.979 112.17 157.536 112.17ZM157.547 110.523C156.132 110.523 155.439 109.261 155.439 107.665C155.439 106.068 156.132 104.79 157.547 104.79C158.939 104.79 159.632 106.068 159.632 107.665C159.632 109.261 158.939 110.523 157.547 110.523ZM165.446 103.273H163.463V112H165.446V108.472H168.827V112H170.804V103.273H168.827V106.784H165.446V103.273ZM171.908 104.96H174.732V112H176.72V104.96H179.544V103.273H171.908V104.96ZM184.686 112.17C186.72 112.17 188.118 111.176 188.482 109.659L186.561 109.443C186.283 110.182 185.601 110.568 184.714 110.568C183.385 110.568 182.504 109.693 182.487 108.199H188.567V107.568C188.567 104.506 186.726 103.159 184.578 103.159C182.078 103.159 180.447 104.994 180.447 107.688C180.447 110.426 182.055 112.17 184.686 112.17ZM182.493 106.812C182.555 105.699 183.379 104.761 184.607 104.761C185.788 104.761 186.584 105.625 186.595 106.812H182.493ZM192.29 103.273H190.307V112H192.29V108.472H195.67V112H197.648V103.273H195.67V106.784H192.29V103.273ZM198.751 104.96H201.575V112H203.564V104.96H206.388V103.273H198.751V104.96Z" fill="white"/>
<path d="M99.2102 196.159C101.699 196.159 103.511 194.733 103.506 192.767C103.511 191.312 102.602 190.267 100.972 190.034V189.943C102.233 189.67 103.08 188.733 103.074 187.426C103.08 185.653 101.568 184.205 99.2443 184.205C96.983 184.205 95.233 185.551 95.1875 187.5H97.2159C97.25 186.523 98.1591 185.915 99.233 185.915C100.318 185.915 101.04 186.574 101.034 187.551C101.04 188.568 100.199 189.244 98.9943 189.244H97.9659V190.869H98.9943C100.466 190.869 101.341 191.608 101.335 192.659C101.341 193.688 100.449 194.392 99.2045 194.392C98.0341 194.392 97.1307 193.784 97.0795 192.835H94.9432C95 194.801 96.7557 196.159 99.2102 196.159ZM107.462 187.273H105.479V196H107.462V192.472H110.842V196H112.82V187.273H110.842V190.784H107.462V187.273ZM117.412 196.176C118.781 196.176 119.599 195.534 119.974 194.801H120.043V196H122.02V190.159C122.02 187.852 120.139 187.159 118.474 187.159C116.639 187.159 115.23 187.977 114.776 189.568L116.696 189.841C116.901 189.244 117.48 188.733 118.486 188.733C119.44 188.733 119.963 189.222 119.963 190.08V190.114C119.963 190.705 119.344 190.733 117.804 190.898C116.111 191.08 114.491 191.585 114.491 193.551C114.491 195.267 115.747 196.176 117.412 196.176ZM117.946 194.665C117.088 194.665 116.474 194.273 116.474 193.517C116.474 192.727 117.162 192.398 118.082 192.267C118.622 192.193 119.702 192.057 119.969 191.841V192.869C119.969 193.841 119.185 194.665 117.946 194.665ZM124.088 196H126.145V192.71H127.151L129.543 196H132.031L128.764 191.557L131.997 187.273H129.52L126.895 190.795H126.145V187.273H124.088V196ZM136.645 196.17C139.202 196.17 140.827 194.369 140.827 191.67C140.827 188.966 139.202 187.159 136.645 187.159C134.088 187.159 132.463 188.966 132.463 191.67C132.463 194.369 134.088 196.17 136.645 196.17ZM136.656 194.523C135.241 194.523 134.548 193.261 134.548 191.665C134.548 190.068 135.241 188.79 136.656 188.79C138.048 188.79 138.741 190.068 138.741 191.665C138.741 193.261 138.048 194.523 136.656 194.523ZM147.595 193.608L145.072 187.273H142.572V196H144.555V190.119L146.879 196H148.317L150.72 190.057V196H152.686V187.273H150.186L147.595 193.608ZM158.567 196.17C160.76 196.17 162.158 194.869 162.305 193.017H160.339C160.163 193.955 159.487 194.494 158.584 194.494C157.3 194.494 156.47 193.42 156.47 191.636C156.47 189.875 157.317 188.818 158.584 188.818C159.572 188.818 160.18 189.455 160.339 190.295H162.305C162.163 188.403 160.686 187.159 158.555 187.159C155.999 187.159 154.385 189.006 154.385 191.67C154.385 194.312 155.959 196.17 158.567 196.17ZM163.376 188.96H166.2V196H168.189V188.96H171.013V187.273H163.376V188.96ZM172.651 196H176.878C178.923 196 180.094 195.074 180.094 193.631C180.094 192.409 179.145 191.557 177.776 191.438C178.94 191.222 179.668 190.602 179.668 189.619C179.668 188.148 178.378 187.273 176.315 187.273H172.651V196ZM174.577 194.381V192.216H176.878C177.634 192.216 178.094 192.653 178.094 193.375C178.094 194 177.634 194.381 176.878 194.381H174.577ZM174.577 190.886V188.92H176.315C177.173 188.92 177.696 189.284 177.696 189.881C177.696 190.506 177.19 190.886 176.355 190.886H174.577ZM185.598 196.17C188.155 196.17 189.78 194.369 189.78 191.67C189.78 188.966 188.155 187.159 185.598 187.159C183.041 187.159 181.416 188.966 181.416 191.67C181.416 194.369 183.041 196.17 185.598 196.17ZM185.609 194.523C184.195 194.523 183.501 193.261 183.501 191.665C183.501 190.068 184.195 188.79 185.609 188.79C187.001 188.79 187.695 190.068 187.695 191.665C187.695 193.261 187.001 194.523 185.609 194.523ZM199.301 196.17C201.494 196.17 202.892 194.869 203.04 193.017H201.074C200.898 193.955 200.222 194.494 199.318 194.494C198.034 194.494 197.205 193.42 197.205 191.636C197.205 189.875 198.051 188.818 199.318 188.818C200.307 188.818 200.915 189.455 201.074 190.295H203.04C202.898 188.403 201.42 187.159 199.29 187.159C196.733 187.159 195.119 189.006 195.119 191.67C195.119 194.312 196.693 196.17 199.301 196.17ZM95.0568 210H97.0227V202.96H100.443V210H102.426V201.273H95.0568V210ZM103.939 210H104.575C106.45 210 107.297 208.682 107.433 205.773L107.57 202.96H110.075V210H112.064V201.273H105.7L105.547 205.136C105.45 207.585 105.132 208.307 104.229 208.307H103.928L103.939 210ZM116.646 210.176C118.016 210.176 118.834 209.534 119.209 208.801H119.277V210H121.254V204.159C121.254 201.852 119.374 201.159 117.709 201.159C115.874 201.159 114.464 201.977 114.01 203.568L115.93 203.841C116.135 203.244 116.714 202.733 117.72 202.733C118.675 202.733 119.197 203.222 119.197 204.08V204.114C119.197 204.705 118.578 204.733 117.038 204.898C115.345 205.08 113.726 205.585 113.726 207.551C113.726 209.267 114.982 210.176 116.646 210.176ZM117.18 208.665C116.322 208.665 115.709 208.273 115.709 207.517C115.709 206.727 116.396 206.398 117.317 206.267C117.857 206.193 118.936 206.057 119.203 205.841V206.869C119.203 207.841 118.419 208.665 117.18 208.665ZM122.345 202.96H125.169V210H127.158V202.96H129.982V201.273H122.345V202.96ZM135.22 212.966H137.283V210.17C139.851 210.17 141.618 208.352 141.618 205.67C141.618 202.983 139.851 201.159 137.283 201.159V198.364H135.22V201.159C132.652 201.159 130.885 202.983 130.885 205.67C130.885 208.352 132.652 210.17 135.22 210.17V212.966ZM135.22 208.511C133.766 208.511 132.987 207.227 132.987 205.67C132.987 204.114 133.754 202.818 135.22 202.818V208.511ZM137.283 208.511V202.818C138.749 202.818 139.51 204.114 139.51 205.67C139.51 207.227 138.749 208.511 137.283 208.511ZM147.161 210.17C149.717 210.17 151.342 208.369 151.342 205.67C151.342 202.966 149.717 201.159 147.161 201.159C144.604 201.159 142.979 202.966 142.979 205.67C142.979 208.369 144.604 210.17 147.161 210.17ZM147.172 208.523C145.757 208.523 145.064 207.261 145.064 205.665C145.064 204.068 145.757 202.79 147.172 202.79C148.564 202.79 149.257 204.068 149.257 205.665C149.257 207.261 148.564 208.523 147.172 208.523ZM153.088 213.273H155.145V208.625H155.23C155.554 209.261 156.23 210.153 157.73 210.153C159.787 210.153 161.327 208.523 161.327 205.648C161.327 202.739 159.741 201.159 157.724 201.159C156.185 201.159 155.543 202.085 155.23 202.716H155.111V201.273H153.088V213.273ZM155.105 205.636C155.105 203.943 155.832 202.847 157.156 202.847C158.526 202.847 159.23 204.011 159.23 205.636C159.23 207.273 158.514 208.466 157.156 208.466C155.844 208.466 155.105 207.33 155.105 205.636ZM168.111 207.608L165.588 201.273H163.088V210H165.071V204.119L167.395 210H168.832L171.236 204.057V210H173.202V201.273H170.702L168.111 207.608ZM179.082 210.17C181.639 210.17 183.264 208.369 183.264 205.67C183.264 202.966 181.639 201.159 179.082 201.159C176.526 201.159 174.901 202.966 174.901 205.67C174.901 208.369 176.526 210.17 179.082 210.17ZM179.094 208.523C177.679 208.523 176.986 207.261 176.986 205.665C176.986 204.068 177.679 202.79 179.094 202.79C180.486 202.79 181.179 204.068 181.179 205.665C181.179 207.261 180.486 208.523 179.094 208.523ZM186.993 207.216V201.273H185.01V210H187.129L190.612 204.051V210H192.601V201.273H190.487L186.993 207.216ZM189.925 198.273C189.919 198.83 189.601 199.324 188.8 199.324C187.987 199.324 187.68 198.818 187.68 198.273H186.152C186.146 199.602 187.175 200.5 188.8 200.5C190.436 200.5 191.464 199.602 191.464 198.273H189.925Z" fill="white"/>
<path d="M26.5071 121.736C33.8256 121.749 38.3718 116.506 38.3849 107.598C38.3981 98.7422 33.8256 93.723 26.5071 93.723C19.1754 93.723 14.6555 98.7159 14.6293 107.598C14.603 116.467 19.1754 121.723 26.5071 121.736ZM26.5071 115.797C23.9844 115.797 22.1712 113.261 22.1974 107.598C22.2237 102.066 23.9844 99.6094 26.5071 99.6094C29.0298 99.6094 30.8036 102.066 30.8168 107.598C30.8299 113.261 29.0298 115.797 26.5071 115.797ZM52.3256 121.368C58.9084 121.368 63.5465 118.017 63.5202 113.274C63.5465 109.976 61.3391 107.651 57.0032 107.178V106.967C60.2092 106.626 62.5479 104.563 62.5217 101.554C62.5479 97.0209 58.3434 93.723 52.3782 93.723C46.2816 93.723 41.9457 97.2049 41.9194 102.132H48.9094C48.9357 100.503 50.3679 99.3466 52.3782 99.3466C54.2177 99.3466 55.5053 100.463 55.479 102.027C55.5053 103.656 53.9812 104.812 51.8001 104.812H49.0671V109.858H51.8001C54.1651 109.858 55.8207 111.014 55.7944 112.643C55.8207 114.312 54.4016 115.482 52.3782 115.482C50.2759 115.482 48.7781 114.365 48.7518 112.801H41.3938C41.4201 117.82 45.9531 121.368 52.3256 121.368Z" fill="white"/>
<path d="M384.642 49.3636H375.369V61H377.46V51.1136H382.551V61H384.642V49.3636ZM387.072 64.2727H389.129V59.625H389.214C389.538 60.2614 390.214 61.1534 391.714 61.1534C393.771 61.1534 395.311 59.5227 395.311 56.6477C395.311 53.7386 393.726 52.1591 391.709 52.1591C390.169 52.1591 389.527 53.0852 389.214 53.7159H389.095V52.2727H387.072V64.2727ZM389.089 56.6364C389.089 54.9432 389.817 53.8466 391.141 53.8466C392.51 53.8466 393.214 55.0114 393.214 56.6364C393.214 58.2727 392.499 59.4659 391.141 59.4659C389.828 59.4659 389.089 58.3295 389.089 56.6364ZM400.879 61.1705C403.436 61.1705 405.061 59.3693 405.061 56.6705C405.061 53.9659 403.436 52.1591 400.879 52.1591C398.322 52.1591 396.697 53.9659 396.697 56.6705C396.697 59.3693 398.322 61.1705 400.879 61.1705ZM400.891 59.5227C399.476 59.5227 398.783 58.2614 398.783 56.6648C398.783 55.0682 399.476 53.7898 400.891 53.7898C402.283 53.7898 402.976 55.0682 402.976 56.6648C402.976 58.2614 402.283 59.5227 400.891 59.5227ZM406.034 63.5341H408.057V61H413.767V63.5341H415.756V59.3068H414.403V52.2727H408.097L407.847 55.3295C407.682 57.2841 407.466 58.733 406.727 59.3068H406.034V63.5341ZM408.841 59.3068C409.392 58.4943 409.597 57.1761 409.744 55.3295L409.881 53.9318H412.438V59.3068H408.841ZM417.291 61H421.518C423.564 61 424.734 60.0739 424.734 58.6307C424.734 57.4091 423.786 56.5568 422.416 56.4375C423.581 56.2216 424.308 55.6023 424.308 54.6193C424.308 53.1477 423.018 52.2727 420.956 52.2727H417.291V61ZM419.217 59.3807V57.2159H421.518C422.274 57.2159 422.734 57.6534 422.734 58.375C422.734 59 422.274 59.3807 421.518 59.3807H419.217ZM419.217 55.8864V53.9205H420.956C421.814 53.9205 422.337 54.2841 422.337 54.8807C422.337 55.5057 421.831 55.8864 420.996 55.8864H419.217ZM428.415 58.2159V52.2727H426.432V61H428.551L432.034 55.0511V61H434.023V52.2727H431.909L428.415 58.2159ZM435.567 61H437.993L440.487 57.4773H440.942V61H442.999V57.4773H443.453L445.936 61H448.362L445.158 56.4943L448.334 52.2727H445.959L443.476 55.7898H442.999V52.2727H440.942V55.7898H440.453L437.97 52.2727H435.595L438.788 56.4943L435.567 61ZM453.436 61.1705C455.47 61.1705 456.868 60.1761 457.232 58.6591L455.311 58.4432C455.033 59.1818 454.351 59.5682 453.464 59.5682C452.135 59.5682 451.254 58.6932 451.237 57.1989H457.317V56.5682C457.317 53.5057 455.476 52.1591 453.328 52.1591C450.828 52.1591 449.197 53.9943 449.197 56.6875C449.197 59.4261 450.805 61.1705 453.436 61.1705ZM451.243 55.8125C451.305 54.6989 452.129 53.7614 453.357 53.7614C454.538 53.7614 455.334 54.625 455.345 55.8125H451.243ZM461.04 52.2727H459.057V61H461.04V57.4716H464.42V61H466.398V52.2727H464.42V55.7841H461.04V52.2727ZM470.462 58.2159V52.2727H468.479V61H470.598L474.081 55.0511V61H476.07V52.2727H473.956L470.462 58.2159ZM482.045 61.1705C484.08 61.1705 485.477 60.1761 485.841 58.6591L483.92 58.4432C483.642 59.1818 482.96 59.5682 482.074 59.5682C480.744 59.5682 479.864 58.6932 479.847 57.1989H485.926V56.5682C485.926 53.5057 484.085 52.1591 481.938 52.1591C479.438 52.1591 477.807 53.9943 477.807 56.6875C477.807 59.4261 479.415 61.1705 482.045 61.1705ZM479.852 55.8125C479.915 54.6989 480.739 53.7614 481.966 53.7614C483.148 53.7614 483.943 54.625 483.955 55.8125H479.852ZM375.057 75H379.284C381.33 75 382.5 74.0739 382.5 72.6307C382.5 71.4091 381.551 70.5568 380.182 70.4375C381.347 70.2216 382.074 69.6023 382.074 68.6193C382.074 67.1477 380.784 66.2727 378.722 66.2727H375.057V75ZM376.983 73.3807V71.2159H379.284C380.04 71.2159 380.5 71.6534 380.5 72.375C380.5 73 380.04 73.3807 379.284 73.3807H376.983ZM376.983 69.8864V67.9205H378.722C379.58 67.9205 380.102 68.2841 380.102 68.8807C380.102 69.5057 379.597 69.8864 378.761 69.8864H376.983ZM390.149 72.2159V66.2727H388.166V75H390.286L393.768 69.0511V75H395.757V66.2727H393.643L390.149 72.2159ZM399.852 66.2727H397.869V75H399.852V71.4716H403.233V75H405.21V66.2727H403.233V69.7841H399.852V66.2727ZM411.098 75.1705C413.291 75.1705 414.689 73.8693 414.837 72.017H412.871C412.695 72.9545 412.018 73.4943 411.115 73.4943C409.831 73.4943 409.001 72.4205 409.001 70.6364C409.001 68.875 409.848 67.8182 411.115 67.8182C412.104 67.8182 412.712 68.4545 412.871 69.2955H414.837C414.695 67.4034 413.217 66.1591 411.087 66.1591C408.53 66.1591 406.916 68.0057 406.916 70.6705C406.916 73.3125 408.49 75.1705 411.098 75.1705ZM415.908 67.9602H418.732V75H420.72V67.9602H423.544V66.2727H415.908V67.9602ZM427.334 75.1761C428.703 75.1761 429.521 74.5341 429.896 73.8011H429.964V75H431.942V69.1591C431.942 66.8523 430.061 66.1591 428.396 66.1591C426.561 66.1591 425.152 66.9773 424.697 68.5682L426.618 68.8409C426.822 68.2443 427.402 67.733 428.408 67.733C429.362 67.733 429.885 68.2216 429.885 69.0795V69.1136C429.885 69.7045 429.266 69.733 427.726 69.8977C426.033 70.0795 424.413 70.5852 424.413 72.5511C424.413 74.267 425.669 75.1761 427.334 75.1761ZM427.868 73.6648C427.01 73.6648 426.396 73.2727 426.396 72.517C426.396 71.7273 427.084 71.3977 428.004 71.267C428.544 71.1932 429.624 71.0568 429.891 70.8409V71.8693C429.891 72.8409 429.107 73.6648 427.868 73.6648ZM439.783 66.2727H434.01V75H436.021V67.9602H439.783V66.2727ZM441.432 78.2727H443.489V73.625H443.574C443.898 74.2614 444.574 75.1534 446.074 75.1534C448.131 75.1534 449.67 73.5227 449.67 70.6477C449.67 67.7386 448.085 66.1591 446.068 66.1591C444.528 66.1591 443.886 67.0852 443.574 67.7159H443.455V66.2727H441.432V78.2727ZM443.449 70.6364C443.449 68.9432 444.176 67.8466 445.5 67.8466C446.869 67.8466 447.574 69.0114 447.574 70.6364C447.574 72.2727 446.858 73.4659 445.5 73.4659C444.188 73.4659 443.449 72.3295 443.449 70.6364ZM453.943 75.1761C455.312 75.1761 456.131 74.5341 456.506 73.8011H456.574V75H458.551V69.1591C458.551 66.8523 456.67 66.1591 455.006 66.1591C453.17 66.1591 451.761 66.9773 451.307 68.5682L453.227 68.8409C453.432 68.2443 454.011 67.733 455.017 67.733C455.972 67.733 456.494 68.2216 456.494 69.0795V69.1136C456.494 69.7045 455.875 69.733 454.335 69.8977C452.642 70.0795 451.023 70.5852 451.023 72.5511C451.023 74.267 452.278 75.1761 453.943 75.1761ZM454.477 73.6648C453.619 73.6648 453.006 73.2727 453.006 72.517C453.006 71.7273 453.693 71.3977 454.614 71.267C455.153 71.1932 456.233 71.0568 456.5 70.8409V71.8693C456.5 72.8409 455.716 73.6648 454.477 73.6648ZM465.642 72.608L463.119 66.2727H460.619V75H462.602V69.1193L464.926 75H466.364L468.767 69.0568V75H470.733V66.2727H468.233L465.642 72.608Z" fill="white"/>
<path d="M367.21 240.159C369.699 240.159 371.511 238.733 371.506 236.767C371.511 235.312 370.602 234.267 368.972 234.034V233.943C370.233 233.67 371.08 232.733 371.074 231.426C371.08 229.653 369.568 228.205 367.244 228.205C364.983 228.205 363.233 229.551 363.188 231.5H365.216C365.25 230.523 366.159 229.915 367.233 229.915C368.318 229.915 369.04 230.574 369.034 231.551C369.04 232.568 368.199 233.244 366.994 233.244H365.966V234.869H366.994C368.466 234.869 369.341 235.608 369.335 236.659C369.341 237.688 368.449 238.392 367.205 238.392C366.034 238.392 365.131 237.784 365.08 236.835H362.943C363 238.801 364.756 240.159 367.21 240.159ZM373.479 240H377.706C379.751 240 380.922 239.074 380.922 237.631C380.922 236.409 379.973 235.557 378.604 235.438C379.768 235.222 380.496 234.602 380.496 233.619C380.496 232.148 379.206 231.273 377.143 231.273H373.479V240ZM375.405 238.381V236.216H377.706C378.462 236.216 378.922 236.653 378.922 237.375C378.922 238 378.462 238.381 377.706 238.381H375.405ZM375.405 234.886V232.92H377.143C378.001 232.92 378.524 233.284 378.524 233.881C378.524 234.506 378.018 234.886 377.183 234.886H375.405ZM383.898 243.273C385.5 243.273 386.426 242.449 386.92 241.057L390.426 231.284L388.227 231.273L386.21 237.864H386.119L384.108 231.273H381.926L385.091 240.182L384.915 240.653C384.534 241.648 383.932 241.716 383.034 241.455L382.557 243.057C382.835 243.17 383.335 243.273 383.898 243.273ZM391.854 240H393.911V236.71H394.916L397.308 240H399.797L396.53 235.557L399.763 231.273H397.286L394.661 234.795H393.911V231.273H391.854V240ZM402.946 237.216V231.273H400.963V240H403.082L406.565 234.051V240H408.554V231.273H406.44L402.946 237.216ZM413.081 238.409H411.263L411.223 239.045C411.126 240.585 410.723 242.153 410.558 242.841H411.945C412.217 242.125 412.848 240.466 413.007 239.034L413.081 238.409ZM420.676 231.273H418.494L421.085 235.636L418.426 240H420.608L422.438 236.858L424.284 240H426.449L423.773 235.636L426.403 231.273H424.227L422.438 234.494L420.676 231.273ZM431.108 232.852C432.295 232.864 432.875 233.841 433.017 234.943H430.375V236.307H433.023C432.886 237.381 432.312 238.426 431.108 238.438C430.182 238.426 429.511 237.688 429.511 236.824H427.619C427.619 238.824 429.062 240.159 431.108 240.159C433.665 240.159 435.04 238.199 435.04 235.773V235.528C435.04 233.108 433.653 231.142 431.108 231.142C429.193 231.142 427.619 232.489 427.619 234.25H429.511C429.511 233.443 430.25 232.864 431.108 232.852ZM436.776 231.273V240H448.213V231.273H446.23V238.307H443.486V231.273H441.503V238.307H438.759V231.273H436.776ZM449.314 232.96H452.138V240H454.126V232.96H456.95V231.273H449.314V232.96ZM462.092 240.17C464.126 240.17 465.524 239.176 465.888 237.659L463.967 237.443C463.689 238.182 463.007 238.568 462.121 238.568C460.791 238.568 459.911 237.693 459.893 236.199H465.973V235.568C465.973 232.506 464.132 231.159 461.984 231.159C459.484 231.159 457.854 232.994 457.854 235.688C457.854 238.426 459.462 240.17 462.092 240.17ZM459.899 234.812C459.962 233.699 460.786 232.761 462.013 232.761C463.195 232.761 463.99 233.625 464.001 234.812H459.899ZM473.486 231.273H467.713V240H469.724V232.96H473.486V231.273ZM477.118 237.216V231.273H475.135V240H477.254L480.737 234.051V240H482.726V231.273H480.612L477.118 237.216ZM487.253 238.409H485.435L485.395 239.045C485.298 240.585 484.895 242.153 484.73 242.841H486.116C486.389 242.125 487.02 240.466 487.179 239.034L487.253 238.409ZM496.973 240.17C499.53 240.17 501.155 238.369 501.155 235.67C501.155 232.966 499.53 231.159 496.973 231.159C494.416 231.159 492.791 232.966 492.791 235.67C492.791 238.369 494.416 240.17 496.973 240.17ZM496.984 238.523C495.57 238.523 494.876 237.261 494.876 235.665C494.876 234.068 495.57 232.79 496.984 232.79C498.376 232.79 499.07 234.068 499.07 235.665C499.07 237.261 498.376 238.523 496.984 238.523ZM509.895 228.045C509.474 228.364 508.81 228.358 507.906 228.358C507.651 228.358 507.384 228.358 507.094 228.364C504.088 228.403 502.543 230.403 502.543 234.506V235.29C502.543 238.483 504.156 240.17 506.696 240.17C509.236 240.17 510.838 238.477 510.838 235.784C510.838 233.17 509.315 231.665 507.151 231.665C505.821 231.665 504.815 232.239 504.27 233.307H504.173C504.378 231.131 505.196 230.148 507.151 230.102C508.884 230.062 509.855 230.034 510.611 229.375L509.895 228.045ZM506.707 238.523C505.418 238.523 504.628 237.489 504.628 235.841C504.645 234.216 505.423 233.284 506.696 233.284C507.969 233.284 508.753 234.216 508.753 235.841C508.753 237.494 507.974 238.523 506.707 238.523ZM511.986 240H512.622C514.497 240 515.344 238.682 515.48 235.773L515.616 232.96H518.122V240H520.111V231.273H513.747L513.594 235.136C513.497 237.585 513.179 238.307 512.276 238.307H511.974L511.986 240ZM525.989 240.17C528.545 240.17 530.17 238.369 530.17 235.67C530.17 232.966 528.545 231.159 525.989 231.159C523.432 231.159 521.807 232.966 521.807 235.67C521.807 238.369 523.432 240.17 525.989 240.17ZM526 238.523C524.585 238.523 523.892 237.261 523.892 235.665C523.892 234.068 524.585 232.79 526 232.79C527.392 232.79 528.085 234.068 528.085 235.665C528.085 237.261 527.392 238.523 526 238.523ZM531.02 240H533.446L535.94 236.477H536.395V240H538.452V236.477H538.906L541.389 240H543.815L540.611 235.494L543.787 231.273H541.412L538.929 234.79H538.452V231.273H536.395V234.79H535.906L533.423 231.273H531.048L534.241 235.494L531.02 240ZM545.354 240H547.411V236.71H548.416L550.808 240H553.297L550.03 235.557L553.263 231.273H550.786L548.161 234.795H547.411V231.273H545.354V240ZM556.446 237.216V231.273H554.463V240H556.582L560.065 234.051V240H562.054V231.273H559.94L556.446 237.216ZM365.04 251.216V245.273H363.057V254H365.176L368.659 248.051V254H370.648V245.273H368.534L365.04 251.216ZM376.729 254H378.786V250.71H379.791L382.183 254H384.672L381.405 249.557L384.638 245.273H382.161L379.536 248.795H378.786V245.273H376.729V254ZM389.286 254.17C391.842 254.17 393.467 252.369 393.467 249.67C393.467 246.966 391.842 245.159 389.286 245.159C386.729 245.159 385.104 246.966 385.104 249.67C385.104 252.369 386.729 254.17 389.286 254.17ZM389.297 252.523C387.882 252.523 387.189 251.261 387.189 249.665C387.189 248.068 387.882 246.79 389.297 246.79C390.689 246.79 391.382 248.068 391.382 249.665C391.382 251.261 390.689 252.523 389.297 252.523ZM395.213 254H397.179V246.96H400.599V254H402.582V245.273H395.213V254ZM406.68 251.216V245.273H404.697V254H406.817L410.3 248.051V254H412.288V245.273H410.175L406.68 251.216ZM414.401 257.273H416.457V252.625H416.543C416.866 253.261 417.543 254.153 419.043 254.153C421.099 254.153 422.639 252.523 422.639 249.648C422.639 246.739 421.054 245.159 419.037 245.159C417.497 245.159 416.855 246.085 416.543 246.716H416.423V245.273H414.401V257.273ZM416.418 249.636C416.418 247.943 417.145 246.847 418.469 246.847C419.838 246.847 420.543 248.011 420.543 249.636C420.543 251.273 419.827 252.466 418.469 252.466C417.156 252.466 416.418 251.33 416.418 249.636ZM426.912 254.176C428.281 254.176 429.099 253.534 429.474 252.801H429.543V254H431.52V248.159C431.52 245.852 429.639 245.159 427.974 245.159C426.139 245.159 424.73 245.977 424.276 247.568L426.196 247.841C426.401 247.244 426.98 246.733 427.986 246.733C428.94 246.733 429.463 247.222 429.463 248.08V248.114C429.463 248.705 428.844 248.733 427.304 248.898C425.611 249.08 423.991 249.585 423.991 251.551C423.991 253.267 425.247 254.176 426.912 254.176ZM427.446 252.665C426.588 252.665 425.974 252.273 425.974 251.517C425.974 250.727 426.662 250.398 427.582 250.267C428.122 250.193 429.202 250.057 429.469 249.841V250.869C429.469 251.841 428.685 252.665 427.446 252.665ZM435.571 251.216V245.273H433.588V254H435.707L439.19 248.051V254H441.179V245.273H439.065L435.571 251.216ZM438.503 242.273C438.497 242.83 438.179 243.324 437.378 243.324C436.565 243.324 436.259 242.818 436.259 242.273H434.73C434.724 243.602 435.753 244.5 437.378 244.5C439.014 244.5 440.043 243.602 440.043 242.273H438.503ZM442.314 246.96H445.138V254H447.126V246.96H449.95V245.273H442.314V246.96ZM453.571 251.216V245.273H451.588V254H453.707L457.19 248.051V254H459.179V245.273H457.065L453.571 251.216ZM463.274 245.273H461.291V254H463.274V250.472H466.655V254H468.632V245.273H466.655V248.784H463.274V245.273ZM476.486 245.273H470.713V254H472.724V246.96H476.486V245.273Z" fill="white"/>
<path d="M382.119 26H384.716L379.92 19.6705L384.517 14.3636H381.92L377.784 19.1477H377.256V14.3636H375.148V26H377.256V20.9148H378.29L382.119 26ZM389.223 26.1705C391.78 26.1705 393.405 24.3693 393.405 21.6705C393.405 18.9659 391.78 17.1591 389.223 17.1591C386.666 17.1591 385.041 18.9659 385.041 21.6705C385.041 24.3693 386.666 26.1705 389.223 26.1705ZM389.234 24.5227C387.82 24.5227 387.126 23.2614 387.126 21.6648C387.126 20.0682 387.82 18.7898 389.234 18.7898C390.626 18.7898 391.32 20.0682 391.32 21.6648C391.32 23.2614 390.626 24.5227 389.234 24.5227ZM397.134 17.2727H395.151V26H397.134V22.4716H400.514V26H402.491V17.2727H400.514V20.7841H397.134V17.2727ZM403.595 18.9602H406.419V26H408.408V18.9602H411.232V17.2727H403.595V18.9602ZM416.374 26.1705C418.408 26.1705 419.805 25.1761 420.169 23.6591L418.249 23.4432C417.97 24.1818 417.288 24.5682 416.402 24.5682C415.072 24.5682 414.192 23.6932 414.175 22.1989H420.254V21.5682C420.254 18.5057 418.413 17.1591 416.266 17.1591C413.766 17.1591 412.135 18.9943 412.135 21.6875C412.135 24.4261 413.743 26.1705 416.374 26.1705ZM414.18 20.8125C414.243 19.6989 415.067 18.7614 416.294 18.7614C417.476 18.7614 418.271 19.625 418.283 20.8125H414.18ZM423.977 17.2727H421.994V26H423.977V22.4716H427.358V26H429.335V17.2727H427.358V20.7841H423.977V17.2727ZM430.439 18.9602H433.263V26H435.251V18.9602H438.075V17.2727H430.439V18.9602ZM444.737 20.3068H439.499V22H444.737V20.3068ZM446.901 26H448.866V18.9602H452.287V26H454.27V17.2727H446.901V26ZM455.783 26H456.419C458.294 26 459.141 24.6818 459.277 21.7727L459.413 18.9602H461.919V26H463.908V17.2727H457.544L457.391 21.1364C457.294 23.5852 456.976 24.3068 456.072 24.3068H455.771L455.783 26ZM468.49 26.1761C469.859 26.1761 470.678 25.5341 471.053 24.8011H471.121V26H473.098V20.1591C473.098 17.8523 471.217 17.1591 469.553 17.1591C467.717 17.1591 466.308 17.9773 465.854 19.5682L467.774 19.8409C467.979 19.2443 468.558 18.733 469.564 18.733C470.518 18.733 471.041 19.2216 471.041 20.0795V20.1136C471.041 20.7045 470.422 20.733 468.882 20.8977C467.189 21.0795 465.57 21.5852 465.57 23.5511C465.57 25.267 466.825 26.1761 468.49 26.1761ZM469.024 24.6648C468.166 24.6648 467.553 24.2727 467.553 23.517C467.553 22.7273 468.24 22.3977 469.161 22.267C469.7 22.1932 470.78 22.0568 471.047 21.8409V22.8693C471.047 23.8409 470.263 24.6648 469.024 24.6648ZM477.149 17.2727H475.166V26H477.149V22.4716H480.53V26H482.507V17.2727H480.53V20.7841H477.149V17.2727Z" fill="white"/>
<path d="M372.642 186.364H363.369V198H365.46V188.114H370.551V198H372.642V186.364ZM378.879 198.17C381.072 198.17 382.47 196.869 382.618 195.017H380.652C380.476 195.955 379.8 196.494 378.896 196.494C377.612 196.494 376.783 195.42 376.783 193.636C376.783 191.875 377.629 190.818 378.896 190.818C379.885 190.818 380.493 191.455 380.652 192.295H382.618C382.476 190.403 380.999 189.159 378.868 189.159C376.311 189.159 374.697 191.006 374.697 193.67C374.697 196.312 376.271 198.17 378.879 198.17ZM386.29 195.216V189.273H384.307V198H386.426L389.909 192.051V198H391.898V189.273H389.784L386.29 195.216ZM395.692 189.273H393.51L396.101 193.636L393.442 198H395.624L397.453 194.858L399.3 198H401.464L398.788 193.636L401.419 189.273H399.243L397.453 192.494L395.692 189.273ZM406.489 198.17C409.045 198.17 410.67 196.369 410.67 193.67C410.67 190.966 409.045 189.159 406.489 189.159C403.932 189.159 402.307 190.966 402.307 193.67C402.307 196.369 403.932 198.17 406.489 198.17ZM406.5 196.523C405.085 196.523 404.392 195.261 404.392 193.665C404.392 192.068 405.085 190.79 406.5 190.79C407.892 190.79 408.585 192.068 408.585 193.665C408.585 195.261 407.892 196.523 406.5 196.523ZM411.814 198H412.45C414.325 198 415.172 196.682 415.308 193.773L415.445 190.96H417.95V198H419.939V189.273H413.575L413.422 193.136C413.325 195.585 413.007 196.307 412.104 196.307H411.803L411.814 198ZM425.817 198.17C428.374 198.17 429.999 196.369 429.999 193.67C429.999 190.966 428.374 189.159 425.817 189.159C423.26 189.159 421.635 190.966 421.635 193.67C421.635 196.369 423.26 198.17 425.817 198.17ZM425.828 196.523C424.413 196.523 423.72 195.261 423.72 193.665C423.72 192.068 424.413 190.79 425.828 190.79C427.22 190.79 427.913 192.068 427.913 193.665C427.913 195.261 427.22 196.523 425.828 196.523ZM437.517 189.273H431.744V198H433.756V190.96H437.517V189.273ZM441.149 195.216V189.273H439.166V198H441.286L444.768 192.051V198H446.757V189.273H444.643L441.149 195.216ZM456.159 189.273H454.182V193.534C453.682 193.659 453.188 193.727 452.648 193.727C451.432 193.727 450.835 193.295 450.835 192.17V189.261H448.869V192.17C448.869 194.398 450.318 195.415 452.648 195.415C453.159 195.415 453.693 195.347 454.182 195.233V198H456.159V189.273ZM462.092 198.17C464.126 198.17 465.524 197.176 465.888 195.659L463.967 195.443C463.689 196.182 463.007 196.568 462.121 196.568C460.791 196.568 459.911 195.693 459.893 194.199H465.973V193.568C465.973 190.506 464.132 189.159 461.984 189.159C459.484 189.159 457.854 190.994 457.854 193.688C457.854 196.426 459.462 198.17 462.092 198.17ZM459.899 192.812C459.962 191.699 460.786 190.761 462.013 190.761C463.195 190.761 463.99 191.625 464.001 192.812H459.899ZM471.52 198.17C473.713 198.17 475.111 196.869 475.259 195.017H473.293C473.116 195.955 472.44 196.494 471.537 196.494C470.253 196.494 469.423 195.42 469.423 193.636C469.423 191.875 470.27 190.818 471.537 190.818C472.526 190.818 473.134 191.455 473.293 192.295H475.259C475.116 190.403 473.639 189.159 471.509 189.159C468.952 189.159 467.338 191.006 467.338 193.67C467.338 196.312 468.912 198.17 471.52 198.17ZM476.947 198H479.004V194.71H480.01L482.402 198H484.891L481.624 193.557L484.857 189.273H482.379L479.754 192.795H479.004V189.273H476.947V198ZM488.04 195.216V189.273H486.057V198H488.176L491.659 192.051V198H493.648V189.273H491.534L488.04 195.216ZM499.624 198.17C501.658 198.17 503.055 197.176 503.419 195.659L501.499 195.443C501.22 196.182 500.538 196.568 499.652 196.568C498.322 196.568 497.442 195.693 497.425 194.199H503.504V193.568C503.504 190.506 501.663 189.159 499.516 189.159C497.016 189.159 495.385 190.994 495.385 193.688C495.385 196.426 496.993 198.17 499.624 198.17ZM497.43 192.812C497.493 191.699 498.317 190.761 499.544 190.761C500.726 190.761 501.521 191.625 501.533 192.812H497.43ZM365.568 210.176C366.938 210.176 367.756 209.534 368.131 208.801H368.199V210H370.176V204.159C370.176 201.852 368.295 201.159 366.631 201.159C364.795 201.159 363.386 201.977 362.932 203.568L364.852 203.841C365.057 203.244 365.636 202.733 366.642 202.733C367.597 202.733 368.119 203.222 368.119 204.08V204.114C368.119 204.705 367.5 204.733 365.96 204.898C364.267 205.08 362.648 205.585 362.648 207.551C362.648 209.267 363.903 210.176 365.568 210.176ZM366.102 208.665C365.244 208.665 364.631 208.273 364.631 207.517C364.631 206.727 365.318 206.398 366.239 206.267C366.778 206.193 367.858 206.057 368.125 205.841V206.869C368.125 207.841 367.341 208.665 366.102 208.665ZM376.051 210.17C378.244 210.17 379.642 208.869 379.79 207.017H377.824C377.648 207.955 376.972 208.494 376.068 208.494C374.784 208.494 373.955 207.42 373.955 205.636C373.955 203.875 374.801 202.818 376.068 202.818C377.057 202.818 377.665 203.455 377.824 204.295H379.79C379.648 202.403 378.17 201.159 376.04 201.159C373.483 201.159 371.869 203.006 371.869 205.67C371.869 208.312 373.443 210.17 376.051 210.17ZM381.479 210H383.445V202.96H386.865V210H388.848V201.273H381.479V210ZM394.827 210.17C396.861 210.17 398.259 209.176 398.622 207.659L396.702 207.443C396.423 208.182 395.741 208.568 394.855 208.568C393.526 208.568 392.645 207.693 392.628 206.199H398.707V205.568C398.707 202.506 396.866 201.159 394.719 201.159C392.219 201.159 390.588 202.994 390.588 205.688C390.588 208.426 392.196 210.17 394.827 210.17ZM392.634 204.812C392.696 203.699 393.52 202.761 394.747 202.761C395.929 202.761 396.724 203.625 396.736 204.812H392.634ZM400.447 210H402.504V206.71H403.51L405.902 210H408.391L405.124 205.557L408.357 201.273H405.879L403.254 204.795H402.504V201.273H400.447V210ZM409.08 202.96H411.903V210H413.892V202.96H416.716V201.273H409.08V202.96ZM420.337 204.114V201.273H418.354V210H422.32C424.541 210 425.82 208.773 425.825 207.057C425.82 205.295 424.541 204.114 422.32 204.114H420.337ZM426.911 210H428.967V201.273H426.911V210ZM420.337 205.801H422.32C423.212 205.801 423.854 206.33 423.854 207.085C423.854 207.807 423.212 208.312 422.32 208.312H420.337V205.801Z" fill="white"/>
<path d="M10.7102 148.99H15.1634V161H18.2031V148.99H22.6562V146.455H10.7102V148.99ZM26.3246 157.009V150.091H23.4339V161H26.4382L30.3516 154.061V161H33.2351V150.091H30.2521L26.3246 157.009ZM35.6605 161H38.6861V157.129H39.8153L42.5071 161H46.1009L42.2017 155.503L46.0582 150.091H42.5071L39.5384 154.324H38.6861V150.091H35.6605V161ZM45.7493 148.99H50.2024V161H53.2422V148.99H57.6953V146.455H45.7493V148.99ZM62.9528 161.213C66.2624 161.213 68.3221 158.947 68.3221 155.588C68.3221 152.207 66.2624 149.949 62.9528 149.949C59.6431 149.949 57.5835 152.207 57.5835 155.588C57.5835 158.947 59.6431 161.213 62.9528 161.213ZM62.967 158.869C61.44 158.869 60.6587 157.47 60.6587 155.567C60.6587 153.663 61.44 152.257 62.967 152.257C64.4656 152.257 65.2468 153.663 65.2468 155.567C65.2468 157.47 64.4656 158.869 62.967 158.869ZM70.2894 161H73.315V157.129H74.4442L77.136 161H80.7298L76.8306 155.503L80.6871 150.091H77.136L74.1673 154.324H73.315V150.091H70.2894V161Z" fill="white"/>
<path fill-rule="evenodd" clip-rule="evenodd" d="M28.1565 244.476L33.4244 249.702L41.8172 241.347L39.719 239.265L33.4095 245.524L30.2547 242.395L28.1565 244.476ZM35 254C40.5228 254 45 249.523 45 244C45 238.477 40.5228 234 35 234C29.4772 234 25 238.477 25 244C25 249.523 29.4772 254 35 254Z" fill="white"/>
<path fill-rule="evenodd" clip-rule="evenodd" d="M28.1565 289.476L33.4244 294.702L41.8172 286.347L39.719 284.265L33.4095 290.524L30.2547 287.395L28.1565 289.476ZM35 299C40.5228 299 45 294.523 45 289C45 283.477 40.5228 279 35 279C29.4772 279 25 283.477 25 289C25 294.523 29.4772 299 35 299Z" fill="white"/>
<path fill-rule="evenodd" clip-rule="evenodd" d="M319.157 244.476L324.424 249.702L332.817 241.347L330.719 239.265L324.41 245.524L321.255 242.395L319.157 244.476ZM326 254C331.523 254 336 249.523 336 244C336 238.477 331.523 234 326 234C320.477 234 316 238.477 316 244C316 249.523 320.477 254 326 254Z" fill="white"/>
<path fill-rule="evenodd" clip-rule="evenodd" d="M28.1565 198.476L33.4244 203.702L41.8172 195.347L39.719 193.265L33.4095 199.524L30.2547 196.395L28.1565 198.476ZM35 208C40.5228 208 45 203.523 45 198C45 192.477 40.5228 188 35 188C29.4772 188 25 192.477 25 198C25 203.523 29.4772 208 35 208Z" fill="white"/>
<path fill-rule="evenodd" clip-rule="evenodd" d="M319.157 198.476L324.424 203.702L332.817 195.347L330.719 193.265L324.41 199.524L321.255 196.395L319.157 198.476ZM326 208C331.523 208 336 203.523 336 198C336 192.477 331.523 188 326 188C320.477 188 316 192.477 316 198C316 203.523 320.477 208 326 208Z" fill="white"/>
<line x1="4" y1="168.5" x2="574" y2="168.5" stroke="white"/>
<defs>
<linearGradient id="paint0_linear_115_2117" x1="287" y1="0" x2="287" y2="310" gradientUnits="userSpaceOnUse">
<stop stop-color="#EB00FF"/>
<stop offset="1" stop-color="#0003FF"/>
</linearGradient>
</defs>
</svg>
