<svg width="574" height="269" viewBox="0 0 574 269" fill="none" xmlns="http://www.w3.org/2000/svg">
<path fill-rule="evenodd" clip-rule="evenodd" d="M0 45C0 42.2386 2.23858 40 5 40H281C283.761 40 286 42.2386 286 45V85C286 87.7614 283.761 90 281 90H5C2.23858 90 0 87.7614 0 85V45ZM5 162C2.23858 162 0 164.239 0 167V208C0 210.761 2.23858 213 5 213H281C283.761 213 286 210.761 286 208V167C286 164.239 283.761 162 281 162H5ZM5 218C2.23858 218 0 220.239 0 223V264C0 266.761 2.23858 269 5 269H281C283.761 269 286 266.761 286 264V223C286 220.239 283.761 218 281 218H5ZM294 40C291.239 40 289 42.2386 289 45V85C289 87.7614 291.239 90 294 90H569C571.761 90 574 87.7614 574 85V45C574 42.2386 571.761 40 569 40H294ZM289 223C289 220.239 291.239 218 294 218H569C571.761 218 574 220.239 574 223V264C574 266.761 571.761 269 569 269H294C291.239 269 289 266.761 289 264V223ZM294 162C291.239 162 289 164.239 289 167V208C289 210.761 291.239 213 294 213H569C571.761 213 574 210.761 574 208V167C574 164.239 571.761 162 569 162H294Z" fill="url(#paint0_linear_115_2116)" fill-opacity="0.19"/>
<path d="M104.642 54.3636H95.3693V66H97.4602V56.1136H102.551V66H104.642V54.3636ZM107.072 69.2727H109.129V64.625H109.214C109.538 65.2614 110.214 66.1534 111.714 66.1534C113.771 66.1534 115.311 64.5227 115.311 61.6477C115.311 58.7386 113.726 57.1591 111.709 57.1591C110.169 57.1591 109.527 58.0852 109.214 58.7159H109.095V57.2727H107.072V69.2727ZM109.089 61.6364C109.089 59.9432 109.817 58.8466 111.141 58.8466C112.51 58.8466 113.214 60.0114 113.214 61.6364C113.214 63.2727 112.499 64.4659 111.141 64.4659C109.828 64.4659 109.089 63.3295 109.089 61.6364ZM120.879 66.1705C123.436 66.1705 125.061 64.3693 125.061 61.6705C125.061 58.9659 123.436 57.1591 120.879 57.1591C118.322 57.1591 116.697 58.9659 116.697 61.6705C116.697 64.3693 118.322 66.1705 120.879 66.1705ZM120.891 64.5227C119.476 64.5227 118.783 63.2614 118.783 61.6648C118.783 60.0682 119.476 58.7898 120.891 58.7898C122.283 58.7898 122.976 60.0682 122.976 61.6648C122.976 63.2614 122.283 64.5227 120.891 64.5227ZM131.966 66H133.892V57.2727H130.102C127.966 57.2727 126.642 58.3693 126.648 60.0455C126.642 61.1477 127.244 61.983 128.284 62.4091L126.33 66H128.352L130.142 62.7159H131.966V66ZM131.966 61.2159H130.034C129.131 61.2159 128.631 60.7443 128.636 60.0909C128.631 59.4375 129.159 58.9432 130.102 58.9432H131.966V61.2159ZM135.963 66H140.19C142.236 66 143.406 65.0739 143.406 63.6307C143.406 62.4091 142.457 61.5568 141.088 61.4375C142.253 61.2216 142.98 60.6023 142.98 59.6193C142.98 58.1477 141.69 57.2727 139.628 57.2727H135.963V66ZM137.889 64.3807V62.2159H140.19C140.946 62.2159 141.406 62.6534 141.406 63.375C141.406 64 140.946 64.3807 140.19 64.3807H137.889ZM137.889 60.8864V58.9205H139.628C140.486 58.9205 141.009 59.2841 141.009 59.8807C141.009 60.5057 140.503 60.8864 139.668 60.8864H137.889ZM144.501 66H145.138C147.013 66 147.859 64.6818 147.996 61.7727L148.132 58.9602H150.638V66H152.626V57.2727H146.263L146.109 61.1364C146.013 63.5852 145.695 64.3068 144.791 64.3068H144.49L144.501 66ZM158.561 66.1705C160.595 66.1705 161.993 65.1761 162.357 63.6591L160.436 63.4432C160.158 64.1818 159.476 64.5682 158.589 64.5682C157.26 64.5682 156.379 63.6932 156.362 62.1989H162.442V61.5682C162.442 58.5057 160.601 57.1591 158.453 57.1591C155.953 57.1591 154.322 58.9943 154.322 61.6875C154.322 64.4261 155.93 66.1705 158.561 66.1705ZM156.368 60.8125C156.43 59.6989 157.254 58.7614 158.482 58.7614C159.663 58.7614 160.459 59.625 160.47 60.8125H156.368ZM166.165 57.2727H164.182V66H166.165V62.4716H169.545V66H171.523V57.2727H169.545V60.7841H166.165V57.2727ZM175.587 63.2159V57.2727H173.604V66H175.723L179.206 60.0511V66H181.195V57.2727H179.081L175.587 63.2159ZM187.17 66.1705C189.205 66.1705 190.602 65.1761 190.966 63.6591L189.045 63.4432C188.767 64.1818 188.085 64.5682 187.199 64.5682C185.869 64.5682 184.989 63.6932 184.972 62.1989H191.051V61.5682C191.051 58.5057 189.21 57.1591 187.062 57.1591C184.562 57.1591 182.932 58.9943 182.932 61.6875C182.932 64.4261 184.54 66.1705 187.17 66.1705ZM184.977 60.8125C185.04 59.6989 185.864 58.7614 187.091 58.7614C188.273 58.7614 189.068 59.625 189.08 60.8125H184.977ZM199.874 58.8523C201.061 58.8636 201.641 59.8409 201.783 60.9432H199.141V62.3068H201.788C201.652 63.3807 201.078 64.4261 199.874 64.4375C198.947 64.4261 198.277 63.6875 198.277 62.8239H196.385C196.385 64.8239 197.828 66.1591 199.874 66.1591C202.43 66.1591 203.805 64.1989 203.805 61.7727V61.5284C203.805 59.108 202.419 57.142 199.874 57.142C197.959 57.142 196.385 58.4886 196.385 60.25H198.277C198.277 59.4432 199.016 58.8636 199.874 58.8523ZM210.564 63.608L208.041 57.2727H205.541V66H207.524V60.1193L209.848 66H211.286L213.689 60.0568V66H215.655V57.2727H213.155L210.564 63.608ZM221.536 66.1705C224.092 66.1705 225.717 64.3693 225.717 61.6705C225.717 58.9659 224.092 57.1591 221.536 57.1591C218.979 57.1591 217.354 58.9659 217.354 61.6705C217.354 64.3693 218.979 66.1705 221.536 66.1705ZM221.547 64.5227C220.132 64.5227 219.439 63.2614 219.439 61.6648C219.439 60.0682 220.132 58.7898 221.547 58.7898C222.939 58.7898 223.632 60.0682 223.632 61.6648C223.632 63.2614 222.939 64.5227 221.547 64.5227ZM234.832 57.2727H232.866V64.3125H229.446V57.2727H227.463V66H234.156V68.8068H236.168V64.4659H234.832V57.2727ZM239.837 63.2159V57.2727H237.854V66H239.973L243.456 60.0511V66H245.445V57.2727H243.331L239.837 63.2159ZM249.54 63.2159V57.2727H247.557V66H249.676L253.159 60.0511V66H255.148V57.2727H253.034L249.54 63.2159ZM252.472 54.2727C252.466 54.8295 252.148 55.3239 251.347 55.3239C250.534 55.3239 250.227 54.8182 250.227 54.2727H248.699C248.693 55.6023 249.722 56.5 251.347 56.5C252.983 56.5 254.011 55.6023 254.011 54.2727H252.472ZM97.0398 71.2727H95.0568V80H97.0398V76.4716H100.42V80H102.398V71.2727H100.42V74.7841H97.0398V71.2727ZM106.99 80.1761C108.359 80.1761 109.178 79.5341 109.553 78.8011H109.621V80H111.598V74.1591C111.598 71.8523 109.717 71.1591 108.053 71.1591C106.217 71.1591 104.808 71.9773 104.354 73.5682L106.274 73.8409C106.479 73.2443 107.058 72.733 108.064 72.733C109.018 72.733 109.541 73.2216 109.541 74.0795V74.1136C109.541 74.7045 108.922 74.733 107.382 74.8977C105.689 75.0795 104.07 75.5852 104.07 77.5511C104.07 79.267 105.325 80.1761 106.99 80.1761ZM107.524 78.6648C106.666 78.6648 106.053 78.2727 106.053 77.517C106.053 76.7273 106.74 76.3977 107.661 76.267C108.2 76.1932 109.28 76.0568 109.547 75.8409V76.8693C109.547 77.8409 108.763 78.6648 107.524 78.6648ZM117.033 80H117.669C119.544 80 120.391 78.6818 120.527 75.7727L120.663 72.9602H123.169V80H125.158V71.2727H118.794L118.641 75.1364C118.544 77.5852 118.226 78.3068 117.322 78.3068H117.021L117.033 80ZM129.212 77.2159V71.2727H127.229V80H129.348L132.831 74.0511V80H134.82V71.2727H132.706L129.212 77.2159ZM144.301 71.2727H142.335V78.3125H138.915V71.2727H136.932V80H143.625V82.8068H145.636V78.4659H144.301V71.2727ZM151.092 80.1705C153.126 80.1705 154.524 79.1761 154.888 77.6591L152.967 77.4432C152.689 78.1818 152.007 78.5682 151.121 78.5682C149.791 78.5682 148.911 77.6932 148.893 76.1989H154.973V75.5682C154.973 72.5057 153.132 71.1591 150.984 71.1591C148.484 71.1591 146.854 72.9943 146.854 75.6875C146.854 78.4261 148.462 80.1705 151.092 80.1705ZM148.899 74.8125C148.962 73.6989 149.786 72.7614 151.013 72.7614C152.195 72.7614 152.99 73.625 153.001 74.8125H148.899Z" fill="white"/>
<path d="M95.1477 247H102.761V245.233H97.2557V242.057H102.324V240.29H97.2557V237.131H102.716V235.364H95.1477V247ZM108.639 247.17C110.673 247.17 112.071 246.176 112.435 244.659L110.514 244.443C110.236 245.182 109.554 245.568 108.668 245.568C107.338 245.568 106.457 244.693 106.44 243.199H112.52V242.568C112.52 239.506 110.679 238.159 108.531 238.159C106.031 238.159 104.401 239.994 104.401 242.688C104.401 245.426 106.009 247.17 108.639 247.17ZM106.446 241.812C106.509 240.699 107.332 239.761 108.56 239.761C109.741 239.761 110.537 240.625 110.548 241.812H106.446ZM124.001 238.273H118.229V247H120.24V239.96H124.001V238.273ZM125.651 250.273H127.707V245.625H127.793C128.116 246.261 128.793 247.153 130.293 247.153C132.349 247.153 133.889 245.523 133.889 242.648C133.889 239.739 132.304 238.159 130.287 238.159C128.747 238.159 128.105 239.085 127.793 239.716H127.673V238.273H125.651V250.273ZM127.668 242.636C127.668 240.943 128.395 239.847 129.719 239.847C131.088 239.847 131.793 241.011 131.793 242.636C131.793 244.273 131.077 245.466 129.719 245.466C128.406 245.466 127.668 244.33 127.668 242.636ZM138.162 247.176C139.531 247.176 140.349 246.534 140.724 245.801H140.793V247H142.77V241.159C142.77 238.852 140.889 238.159 139.224 238.159C137.389 238.159 135.98 238.977 135.526 240.568L137.446 240.841C137.651 240.244 138.23 239.733 139.236 239.733C140.19 239.733 140.713 240.222 140.713 241.08V241.114C140.713 241.705 140.094 241.733 138.554 241.898C136.861 242.08 135.241 242.585 135.241 244.551C135.241 246.267 136.497 247.176 138.162 247.176ZM138.696 245.665C137.838 245.665 137.224 245.273 137.224 244.517C137.224 243.727 137.912 243.398 138.832 243.267C139.372 243.193 140.452 243.057 140.719 242.841V243.869C140.719 244.841 139.935 245.665 138.696 245.665ZM148.798 249.966H150.861V247.17C153.429 247.17 155.196 245.352 155.196 242.67C155.196 239.983 153.429 238.159 150.861 238.159V235.364H148.798V238.159C146.23 238.159 144.463 239.983 144.463 242.67C144.463 245.352 146.23 247.17 148.798 247.17V249.966ZM148.798 245.511C147.344 245.511 146.565 244.227 146.565 242.67C146.565 241.114 147.332 239.818 148.798 239.818V245.511ZM150.861 245.511V239.818C152.327 239.818 153.088 241.114 153.088 242.67C153.088 244.227 152.327 245.511 150.861 245.511ZM158.915 244.216V238.273H156.932V247H159.051L162.534 241.051V247H164.523V238.273H162.409L158.915 244.216ZM166.635 247H168.692V243.71H169.697L172.089 247H174.578L171.311 242.557L174.544 238.273H172.067L169.442 241.795H168.692V238.273H166.635V247Z" fill="white"/>
<path d="M105.545 186.182C105.545 182.42 103.25 180.205 100.199 180.205C97.142 180.205 94.8523 182.42 94.8523 186.182C94.8523 189.938 97.142 192.159 100.199 192.159C103.25 192.159 105.545 189.943 105.545 186.182ZM103.426 186.182C103.426 188.83 102.097 190.267 100.199 190.267C98.3068 190.267 96.9716 188.83 96.9716 186.182C96.9716 183.534 98.3068 182.097 100.199 182.097C102.097 182.097 103.426 183.534 103.426 186.182ZM107.447 192H109.413V184.96H112.834V192H114.817V183.273H107.447V192ZM116.932 195.273H118.989V190.625H119.074C119.398 191.261 120.074 192.153 121.574 192.153C123.631 192.153 125.17 190.523 125.17 187.648C125.17 184.739 123.585 183.159 121.568 183.159C120.028 183.159 119.386 184.085 119.074 184.716H118.955V183.273H116.932V195.273ZM118.949 187.636C118.949 185.943 119.676 184.847 121 184.847C122.369 184.847 123.074 186.011 123.074 187.636C123.074 189.273 122.358 190.466 121 190.466C119.688 190.466 118.949 189.33 118.949 187.636ZM130.795 192.17C132.83 192.17 134.227 191.176 134.591 189.659L132.67 189.443C132.392 190.182 131.71 190.568 130.824 190.568C129.494 190.568 128.614 189.693 128.597 188.199H134.676V187.568C134.676 184.506 132.835 183.159 130.688 183.159C128.188 183.159 126.557 184.994 126.557 187.688C126.557 190.426 128.165 192.17 130.795 192.17ZM128.602 186.812C128.665 185.699 129.489 184.761 130.716 184.761C131.898 184.761 132.693 185.625 132.705 186.812H128.602ZM135.643 194.534H137.666V192H143.376V194.534H145.365V190.307H144.013V183.273H137.706L137.456 186.33C137.291 188.284 137.075 189.733 136.337 190.307H135.643V194.534ZM138.45 190.307C139.001 189.494 139.206 188.176 139.354 186.33L139.49 184.932H142.047V190.307H138.45ZM150.764 192.17C152.798 192.17 154.196 191.176 154.56 189.659L152.639 189.443C152.361 190.182 151.679 190.568 150.793 190.568C149.463 190.568 148.582 189.693 148.565 188.199H154.645V187.568C154.645 184.506 152.804 183.159 150.656 183.159C148.156 183.159 146.526 184.994 146.526 187.688C146.526 190.426 148.134 192.17 150.764 192.17ZM148.571 186.812C148.634 185.699 149.457 184.761 150.685 184.761C151.866 184.761 152.662 185.625 152.673 186.812H148.571ZM155.783 192H156.419C158.294 192 159.141 190.682 159.277 187.773L159.413 184.96H161.919V192H163.908V183.273H157.544L157.391 187.136C157.294 189.585 156.976 190.307 156.072 190.307H155.771L155.783 192ZM169.842 192.17C171.876 192.17 173.274 191.176 173.638 189.659L171.717 189.443C171.439 190.182 170.757 190.568 169.871 190.568C168.541 190.568 167.661 189.693 167.643 188.199H173.723V187.568C173.723 184.506 171.882 183.159 169.734 183.159C167.234 183.159 165.604 184.994 165.604 187.688C165.604 190.426 167.212 192.17 169.842 192.17ZM167.649 186.812C167.712 185.699 168.536 184.761 169.763 184.761C170.945 184.761 171.74 185.625 171.751 186.812H167.649ZM177.446 183.273H175.463V192H177.446V188.472H180.827V192H182.804V183.273H180.827V186.784H177.446V183.273ZM186.868 189.216V183.273H184.885V192H187.004L190.487 186.051V192H192.476V183.273H190.362L186.868 189.216ZM198.452 192.17C200.486 192.17 201.884 191.176 202.247 189.659L200.327 189.443C200.048 190.182 199.366 190.568 198.48 190.568C197.151 190.568 196.27 189.693 196.253 188.199H202.332V187.568C202.332 184.506 200.491 183.159 198.344 183.159C195.844 183.159 194.213 184.994 194.213 187.688C194.213 190.426 195.821 192.17 198.452 192.17ZM196.259 186.812C196.321 185.699 197.145 184.761 198.372 184.761C199.554 184.761 200.349 185.625 200.361 186.812H196.259ZM215.411 183.273H213.445V190.312H210.024V183.273H208.041V192H214.734V194.807H216.746V190.466H215.411V183.273ZM222.202 192.17C224.236 192.17 225.634 191.176 225.997 189.659L224.077 189.443C223.798 190.182 223.116 190.568 222.23 190.568C220.901 190.568 220.02 189.693 220.003 188.199H226.082V187.568C226.082 184.506 224.241 183.159 222.094 183.159C219.594 183.159 217.963 184.994 217.963 187.688C217.963 190.426 219.571 192.17 222.202 192.17ZM220.009 186.812C220.071 185.699 220.895 184.761 222.122 184.761C223.304 184.761 224.099 185.625 224.111 186.812H220.009ZM227.22 192H227.857C229.732 192 230.578 190.682 230.714 187.773L230.851 184.96H233.357V192H235.345V183.273H228.982L228.828 187.136C228.732 189.585 228.413 190.307 227.51 190.307H227.209L227.22 192ZM239.399 189.216V183.273H237.416V192H239.536L243.018 186.051V192H245.007V183.273H242.893L239.399 189.216Z" fill="white"/>
<path d="M363.142 58.3636V70H365.017L370.5 62.0739H370.597V70H372.705V58.3636H370.818L365.341 66.2955H365.239V58.3636H363.142ZM374.433 67.608C374.484 69.2273 375.967 70.1705 377.984 70.1705C380.053 70.1705 381.547 69.1875 381.547 67.5795C381.547 66.4034 380.746 65.5966 379.712 65.5341V65.4432C380.712 65.1761 381.348 64.5511 381.348 63.608C381.348 62.1364 380.075 61.1591 378.03 61.1591C376.121 61.1591 374.683 62.1477 374.655 63.6705H376.683C376.706 63.0852 377.308 62.6761 378.126 62.6761C378.945 62.6761 379.439 63.1136 379.439 63.7614C379.439 64.358 378.984 64.8011 378.132 64.8011H376.797V66.2614H378.132C378.99 66.2614 379.553 66.7443 379.553 67.4489C379.553 68.2443 378.854 68.6307 377.973 68.6307C377.104 68.6307 376.513 68.2557 376.473 67.608H374.433ZM384.445 73.2727C386.047 73.2727 386.973 72.4489 387.467 71.0568L390.973 61.2841L388.774 61.2727L386.757 67.8636H386.666L384.655 61.2727H382.473L385.638 70.1818L385.462 70.6534C385.081 71.6477 384.479 71.7159 383.581 71.4545L383.104 73.0568C383.382 73.1705 383.882 73.2727 384.445 73.2727ZM399.44 61.2727H397.463V65.5341C396.963 65.6591 396.469 65.7273 395.929 65.7273C394.713 65.7273 394.116 65.2955 394.116 64.1705V61.2614H392.151V64.1705C392.151 66.3977 393.599 67.4148 395.929 67.4148C396.44 67.4148 396.974 67.3466 397.463 67.233V70H399.44V61.2727ZM405.374 70.1705C407.408 70.1705 408.805 69.1761 409.169 67.6591L407.249 67.4432C406.97 68.1818 406.288 68.5682 405.402 68.5682C404.072 68.5682 403.192 67.6932 403.175 66.1989H409.254V65.5682C409.254 62.5057 407.413 61.1591 405.266 61.1591C402.766 61.1591 401.135 62.9943 401.135 65.6875C401.135 68.4261 402.743 70.1705 405.374 70.1705ZM403.18 64.8125C403.243 63.6989 404.067 62.7614 405.294 62.7614C406.476 62.7614 407.271 63.625 407.283 64.8125H403.18ZM412.977 61.2727H410.994V70H412.977V66.4716H416.358V70H418.335V61.2727H416.358V64.7841H412.977V61.2727ZM422.399 67.2159V61.2727H420.416V70H422.536L426.018 64.0511V70H428.007V61.2727H425.893L422.399 67.2159ZM433.983 70.1705C436.017 70.1705 437.415 69.1761 437.778 67.6591L435.858 67.4432C435.58 68.1818 434.898 68.5682 434.011 68.5682C432.682 68.5682 431.801 67.6932 431.784 66.1989H437.864V65.5682C437.864 62.5057 436.023 61.1591 433.875 61.1591C431.375 61.1591 429.744 62.9943 429.744 65.6875C429.744 68.4261 431.352 70.1705 433.983 70.1705ZM431.79 64.8125C431.852 63.6989 432.676 62.7614 433.903 62.7614C435.085 62.7614 435.881 63.625 435.892 64.8125H431.79ZM446.686 62.8523C447.874 62.8636 448.453 63.8409 448.595 64.9432H445.953V66.3068H448.601C448.464 67.3807 447.891 68.4261 446.686 68.4375C445.76 68.4261 445.089 67.6875 445.089 66.8239H443.197C443.197 68.8239 444.641 70.1591 446.686 70.1591C449.243 70.1591 450.618 68.1989 450.618 65.7727V65.5284C450.618 63.108 449.232 61.142 446.686 61.142C444.771 61.142 443.197 62.4886 443.197 64.25H445.089C445.089 63.4432 445.828 62.8636 446.686 62.8523ZM457.376 67.608L454.854 61.2727H452.354V70H454.337V64.1193L456.661 70H458.098L460.501 64.0568V70H462.467V61.2727H459.967L457.376 67.608ZM468.348 70.1705C470.905 70.1705 472.53 68.3693 472.53 65.6705C472.53 62.9659 470.905 61.1591 468.348 61.1591C465.791 61.1591 464.166 62.9659 464.166 65.6705C464.166 68.3693 465.791 70.1705 468.348 70.1705ZM468.359 68.5227C466.945 68.5227 466.251 67.2614 466.251 65.6648C466.251 64.0682 466.945 62.7898 468.359 62.7898C469.751 62.7898 470.445 64.0682 470.445 65.6648C470.445 67.2614 469.751 68.5227 468.359 68.5227ZM481.645 61.2727H479.679V68.3125H476.259V61.2727H474.276V70H480.969V72.8068H482.98V68.4659H481.645V61.2727ZM486.649 67.2159V61.2727H484.666V70H486.786L490.268 64.0511V70H492.257V61.2727H490.143L486.649 67.2159ZM496.352 67.2159V61.2727H494.369V70H496.489L499.972 64.0511V70H501.96V61.2727H499.847L496.352 67.2159ZM499.284 58.2727C499.278 58.8295 498.96 59.3239 498.159 59.3239C497.347 59.3239 497.04 58.8182 497.04 58.2727H495.511C495.506 59.6023 496.534 60.5 498.159 60.5C499.795 60.5 500.824 59.6023 500.824 58.2727H499.284Z" fill="white"/>
<path d="M370.119 248H372.716L367.92 241.67L372.517 236.364H369.92L365.784 241.148H365.256V236.364H363.148V248H365.256V242.915H366.29L370.119 248ZM376.568 248.176C377.938 248.176 378.756 247.534 379.131 246.801H379.199V248H381.176V242.159C381.176 239.852 379.295 239.159 377.631 239.159C375.795 239.159 374.386 239.977 373.932 241.568L375.852 241.841C376.057 241.244 376.636 240.733 377.642 240.733C378.597 240.733 379.119 241.222 379.119 242.08V242.114C379.119 242.705 378.5 242.733 376.96 242.898C375.267 243.08 373.648 243.585 373.648 245.551C373.648 247.267 374.903 248.176 376.568 248.176ZM377.102 246.665C376.244 246.665 375.631 246.273 375.631 245.517C375.631 244.727 376.318 244.398 377.239 244.267C377.778 244.193 378.858 244.057 379.125 243.841V244.869C379.125 245.841 378.341 246.665 377.102 246.665ZM382.642 248H383.278C385.153 248 386 246.682 386.136 243.773L386.273 240.96H388.778V248H390.767V239.273H384.403L384.25 243.136C384.153 245.585 383.835 246.307 382.932 246.307H382.631L382.642 248ZM396.702 248.17C398.736 248.17 400.134 247.176 400.497 245.659L398.577 245.443C398.298 246.182 397.616 246.568 396.73 246.568C395.401 246.568 394.52 245.693 394.503 244.199H400.582V243.568C400.582 240.506 398.741 239.159 396.594 239.159C394.094 239.159 392.463 240.994 392.463 243.688C392.463 246.426 394.071 248.17 396.702 248.17ZM394.509 242.812C394.571 241.699 395.395 240.761 396.622 240.761C397.804 240.761 398.599 241.625 398.611 242.812H394.509ZM404.305 239.273H402.322V248H404.305V244.472H407.686V248H409.663V239.273H407.686V242.784H404.305V239.273ZM410.972 250.534H412.994V248H418.705V250.534H420.693V246.307H419.341V239.273H413.034L412.784 242.33C412.619 244.284 412.403 245.733 411.665 246.307H410.972V250.534ZM413.778 246.307C414.33 245.494 414.534 244.176 414.682 242.33L414.818 240.932H417.375V246.307H413.778ZM424.74 248.176C426.109 248.176 426.928 247.534 427.303 246.801H427.371V248H429.348V242.159C429.348 239.852 427.467 239.159 425.803 239.159C423.967 239.159 422.558 239.977 422.104 241.568L424.024 241.841C424.229 241.244 424.808 240.733 425.814 240.733C426.768 240.733 427.291 241.222 427.291 242.08V242.114C427.291 242.705 426.672 242.733 425.132 242.898C423.439 243.08 421.82 243.585 421.82 245.551C421.82 247.267 423.075 248.176 424.74 248.176ZM425.274 246.665C424.416 246.665 423.803 246.273 423.803 245.517C423.803 244.727 424.49 244.398 425.411 244.267C425.95 244.193 427.03 244.057 427.297 243.841V244.869C427.297 245.841 426.513 246.665 425.274 246.665ZM431.416 251.273H433.473V246.625H433.558C433.882 247.261 434.558 248.153 436.058 248.153C438.115 248.153 439.655 246.523 439.655 243.648C439.655 240.739 438.07 239.159 436.053 239.159C434.513 239.159 433.871 240.085 433.558 240.716H433.439V239.273H431.416V251.273ZM433.433 243.636C433.433 241.943 434.161 240.847 435.484 240.847C436.854 240.847 437.558 242.011 437.558 243.636C437.558 245.273 436.842 246.466 435.484 246.466C434.172 246.466 433.433 245.33 433.433 243.636ZM443.399 242.114V239.273H441.416V248H445.382C447.604 248 448.882 246.773 448.888 245.057C448.882 243.295 447.604 242.114 445.382 242.114H443.399ZM443.399 243.801H445.382C446.274 243.801 446.916 244.33 446.916 245.085C446.916 245.807 446.274 246.312 445.382 246.312H443.399V243.801ZM461.989 239.273H460.023V246.312H456.602V239.273H454.619V248H461.312V250.807H463.324V246.466H461.989V239.273ZM468.78 248.17C470.814 248.17 472.212 247.176 472.575 245.659L470.655 245.443C470.376 246.182 469.695 246.568 468.808 246.568C467.479 246.568 466.598 245.693 466.581 244.199H472.661V243.568C472.661 240.506 470.82 239.159 468.672 239.159C466.172 239.159 464.541 240.994 464.541 243.688C464.541 246.426 466.149 248.17 468.78 248.17ZM466.587 242.812C466.649 241.699 467.473 240.761 468.7 240.761C469.882 240.761 470.678 241.625 470.689 242.812H466.587ZM473.798 248H474.435C476.31 248 477.156 246.682 477.293 243.773L477.429 240.96H479.935V248H481.923V239.273H475.56L475.406 243.136C475.31 245.585 474.991 246.307 474.088 246.307H473.787L473.798 248ZM487.858 248.17C489.892 248.17 491.29 247.176 491.653 245.659L489.733 245.443C489.455 246.182 488.773 246.568 487.886 246.568C486.557 246.568 485.676 245.693 485.659 244.199H491.739V243.568C491.739 240.506 489.898 239.159 487.75 239.159C485.25 239.159 483.619 240.994 483.619 243.688C483.619 246.426 485.227 248.17 487.858 248.17ZM485.665 242.812C485.727 241.699 486.551 240.761 487.778 240.761C488.96 240.761 489.756 241.625 489.767 242.812H485.665ZM495.462 245.216V239.273H493.479V248H495.598L499.081 242.051V248H501.07V239.273H498.956L495.462 245.216ZM498.393 236.273C498.388 236.83 498.07 237.324 497.268 237.324C496.456 237.324 496.149 236.818 496.149 236.273H494.621C494.615 237.602 495.643 238.5 497.268 238.5C498.905 238.5 499.933 237.602 499.933 236.273H498.393Z" fill="white"/>
<path d="M362.392 194.807H364.415V192H371.83V194.795H373.852V190.278H372.557V180.364H365.119L364.812 185.284C364.625 188.42 363.96 189.653 363.17 190.278H362.392V194.807ZM365.625 190.278C366.244 189.261 366.693 187.665 366.835 185.284L367.017 182.131H370.534V190.278H365.625ZM379.342 192.17C381.376 192.17 382.774 191.176 383.138 189.659L381.217 189.443C380.939 190.182 380.257 190.568 379.371 190.568C378.041 190.568 377.161 189.693 377.143 188.199H383.223V187.568C383.223 184.506 381.382 183.159 379.234 183.159C376.734 183.159 375.104 184.994 375.104 187.688C375.104 190.426 376.712 192.17 379.342 192.17ZM377.149 186.812C377.212 185.699 378.036 184.761 379.263 184.761C380.445 184.761 381.24 185.625 381.251 186.812H377.149ZM384.963 195.273H387.02V190.625H387.105C387.429 191.261 388.105 192.153 389.605 192.153C391.662 192.153 393.202 190.523 393.202 187.648C393.202 184.739 391.616 183.159 389.599 183.159C388.06 183.159 387.418 184.085 387.105 184.716H386.986V183.273H384.963V195.273ZM386.98 187.636C386.98 185.943 387.707 184.847 389.031 184.847C390.401 184.847 391.105 186.011 391.105 187.636C391.105 189.273 390.389 190.466 389.031 190.466C387.719 190.466 386.98 189.33 386.98 187.636ZM398.827 192.17C400.861 192.17 402.259 191.176 402.622 189.659L400.702 189.443C400.423 190.182 399.741 190.568 398.855 190.568C397.526 190.568 396.645 189.693 396.628 188.199H402.707V187.568C402.707 184.506 400.866 183.159 398.719 183.159C396.219 183.159 394.588 184.994 394.588 187.688C394.588 190.426 396.196 192.17 398.827 192.17ZM396.634 186.812C396.696 185.699 397.52 184.761 398.747 184.761C399.929 184.761 400.724 185.625 400.736 186.812H396.634ZM404.447 192H408.675C410.72 192 411.891 191.074 411.891 189.631C411.891 188.409 410.942 187.557 409.572 187.438C410.737 187.222 411.464 186.602 411.464 185.619C411.464 184.148 410.175 183.273 408.112 183.273H404.447V192ZM406.374 190.381V188.216H408.675C409.43 188.216 409.891 188.653 409.891 189.375C409.891 190 409.43 190.381 408.675 190.381H406.374ZM406.374 186.886V184.92H408.112C408.97 184.92 409.493 185.284 409.493 185.881C409.493 186.506 408.987 186.886 408.152 186.886H406.374ZM417.395 192.17C419.952 192.17 421.577 190.369 421.577 187.67C421.577 184.966 419.952 183.159 417.395 183.159C414.838 183.159 413.213 184.966 413.213 187.67C413.213 190.369 414.838 192.17 417.395 192.17ZM417.406 190.523C415.991 190.523 415.298 189.261 415.298 187.665C415.298 186.068 415.991 184.79 417.406 184.79C418.798 184.79 419.491 186.068 419.491 187.665C419.491 189.261 418.798 190.523 417.406 190.523ZM434.661 183.273H432.695V190.312H429.274V183.273H427.291V192H433.984V194.807H435.996V190.466H434.661V183.273ZM441.452 192.17C443.486 192.17 444.884 191.176 445.247 189.659L443.327 189.443C443.048 190.182 442.366 190.568 441.48 190.568C440.151 190.568 439.27 189.693 439.253 188.199H445.332V187.568C445.332 184.506 443.491 183.159 441.344 183.159C438.844 183.159 437.213 184.994 437.213 187.688C437.213 190.426 438.821 192.17 441.452 192.17ZM439.259 186.812C439.321 185.699 440.145 184.761 441.372 184.761C442.554 184.761 443.349 185.625 443.361 186.812H439.259ZM446.47 192H447.107C448.982 192 449.828 190.682 449.964 187.773L450.101 184.96H452.607V192H454.595V183.273H448.232L448.078 187.136C447.982 189.585 447.663 190.307 446.76 190.307H446.459L446.47 192ZM460.53 192.17C462.564 192.17 463.962 191.176 464.325 189.659L462.405 189.443C462.126 190.182 461.445 190.568 460.558 190.568C459.229 190.568 458.348 189.693 458.331 188.199H464.411V187.568C464.411 184.506 462.57 183.159 460.422 183.159C457.922 183.159 456.291 184.994 456.291 187.688C456.291 190.426 457.899 192.17 460.53 192.17ZM458.337 186.812C458.399 185.699 459.223 184.761 460.45 184.761C461.632 184.761 462.428 185.625 462.439 186.812H458.337ZM468.134 189.216V183.273H466.151V192H468.27L471.753 186.051V192H473.741V183.273H471.628L468.134 189.216ZM471.065 180.273C471.06 180.83 470.741 181.324 469.94 181.324C469.128 181.324 468.821 180.818 468.821 180.273H467.293C467.287 181.602 468.315 182.5 469.94 182.5C471.577 182.5 472.605 181.602 472.605 180.273H471.065Z" fill="white"/>
<path d="M20.0639 19H23.8778L17.9403 11.2017L23.6151 4.45455H19.7869L14.9574 10.2642H14.3395V4.45455H11.2642V19H14.3395V12.7997H15.3906L20.0639 19ZM26.4347 23.0909C28.6861 23.0909 29.8793 21.9403 30.4972 20.179L34.7372 8.10511L31.5341 8.09091L29.2543 16.1023H29.1406L26.8821 8.09091H23.7003L27.6136 19.3125L27.4361 19.7741C27.0384 20.7969 26.2784 20.8466 25.2131 20.5199L24.5312 22.7784C24.9645 22.9631 25.6676 23.0909 26.4347 23.0909ZM36.2855 23.0909H39.3111V17.2528H39.4034C39.8224 18.1619 40.7386 19.1776 42.5 19.1776C44.9858 19.1776 46.9247 17.2102 46.9247 13.5597C46.9247 9.80966 44.9006 7.94886 42.5071 7.94886C40.6818 7.94886 39.8082 9.03551 39.4034 9.9233H39.2685V8.09091H36.2855V23.0909ZM39.2472 13.5455C39.2472 11.5994 40.071 10.3565 41.5412 10.3565C43.0398 10.3565 43.8352 11.6562 43.8352 13.5455C43.8352 15.4489 43.0256 16.7699 41.5412 16.7699C40.0852 16.7699 39.2472 15.4915 39.2472 13.5455ZM53.8707 19.2131C56.7756 19.2131 58.6009 17.5085 58.7429 15.0014H55.8878C55.7102 16.1662 54.9432 16.8196 53.9062 16.8196C52.4929 16.8196 51.5767 15.6335 51.5767 13.5455C51.5767 11.4858 52.5 10.3068 53.9062 10.3068C55.0142 10.3068 55.7244 11.0384 55.8878 12.125H58.7429C58.6151 9.60369 56.7045 7.94886 53.8565 7.94886C50.5469 7.94886 48.5014 10.2429 48.5014 13.5881C48.5014 16.9048 50.5114 19.2131 53.8707 19.2131ZM71.8839 4.45455H69.7248V9.98011H71.8839V4.45455ZM75.5558 4.45455H73.3967V9.98011H75.5558V4.45455ZM77.6048 14.2344C77.8107 17.1747 79.9343 19.1989 83.5281 19.1989C87.2923 19.1989 89.5792 16.571 89.5792 12.3381V11.1591C89.5792 6.93324 87.207 4.25568 83.5067 4.25568C79.7567 4.25568 77.8675 6.47869 77.5906 9.34801H80.6516C80.7795 7.72159 81.4471 6.74858 83.5067 6.74858C85.4599 6.74858 86.4329 8.11932 86.5465 10.6548H81.9371V13.1193H86.5323C86.3832 15.4134 85.5451 16.7486 83.5281 16.7486C81.6886 16.7486 80.7724 15.9034 80.6658 14.2344H77.6048ZM98.2422 15.6548L95.3729 8.09091H91.7933V19H94.6839V12.3026L97.2337 19H99.2436L101.95 12.0611V19H104.805V8.09091H101.197L98.2422 15.6548ZM112.074 19.2131C115.384 19.2131 117.443 16.9474 117.443 13.5881C117.443 10.2074 115.384 7.94886 112.074 7.94886C108.764 7.94886 106.705 10.2074 106.705 13.5881C106.705 16.9474 108.764 19.2131 112.074 19.2131ZM112.088 16.8693C110.561 16.8693 109.78 15.4702 109.78 13.5668C109.78 11.6634 110.561 10.2571 112.088 10.2571C113.587 10.2571 114.368 11.6634 114.368 13.5668C114.368 15.4702 113.587 16.8693 112.088 16.8693ZM128.949 8.09091H126.094V16.6207H122.301V8.09091H119.411V19H127.749V22.5085H130.689V16.9119H128.949V8.09091ZM135.446 15.0085V8.09091H132.555V19H135.559L139.473 12.0611V19H142.356V8.09091H139.373L135.446 15.0085ZM149.711 19.2131C153.02 19.2131 155.08 16.9474 155.08 13.5881C155.08 10.2074 153.02 7.94886 149.711 7.94886C146.401 7.94886 144.341 10.2074 144.341 13.5881C144.341 16.9474 146.401 19.2131 149.711 19.2131ZM149.725 16.8693C148.198 16.8693 147.417 15.4702 147.417 13.5668C147.417 11.6634 148.198 10.2571 149.725 10.2571C151.223 10.2571 152.005 11.6634 152.005 13.5668C152.005 15.4702 151.223 16.8693 149.725 16.8693ZM159.938 8.09091H157.047V19H159.938V14.7173H163.667V19H166.536V8.09091H163.667V12.3381H159.938V8.09091ZM171.994 19.206C173.606 19.206 174.65 18.5028 175.183 17.4872H175.268V19H178.137V11.642C178.137 9.04261 175.936 7.94886 173.507 7.94886C170.893 7.94886 169.174 9.19886 168.755 11.1875L171.554 11.4148C171.76 10.6903 172.406 10.1577 173.493 10.1577C174.522 10.1577 175.112 10.6761 175.112 11.571V11.6136C175.112 12.3168 174.366 12.4091 172.47 12.5938C170.311 12.7926 168.372 13.517 168.372 15.9531C168.372 18.1122 169.913 19.206 171.994 19.206ZM172.86 17.1179C171.93 17.1179 171.262 16.6847 171.262 15.8537C171.262 15.0014 171.966 14.5824 173.031 14.4332C173.691 14.3409 174.771 14.1847 175.133 13.9432V15.1009C175.133 16.2443 174.189 17.1179 172.86 17.1179ZM179.846 19H180.755C183.07 19 184.299 17.4659 184.483 13.8011L184.654 10.4702H187.346V19H190.229V8.09091H181.934L181.756 12.9205C181.65 15.6832 181.223 16.5994 180.194 16.5994H179.831L179.846 19ZM195.465 11.4432V8.09091H192.575V19H197.731C200.621 19 202.319 17.4872 202.326 15.2358C202.319 12.9418 200.621 11.4432 197.731 11.4432H195.465ZM195.465 13.8224H197.731C198.746 13.8224 199.464 14.419 199.478 15.2571C199.464 16.0526 198.746 16.6207 197.731 16.6207H195.465V13.8224ZM207.223 8.09091H204.332V19H207.223V14.7173H210.952V19H213.821V8.09091H210.952V12.3381H207.223V8.09091ZM219.059 11.4432V8.09091H216.168V19H221.325C224.215 19 225.913 17.4872 225.92 15.2358C225.913 12.9418 224.215 11.4432 221.325 11.4432H219.059ZM227.092 19H230.117V8.09091H227.092V19ZM219.059 13.8224H221.325C222.34 13.8224 223.058 14.419 223.072 15.2571C223.058 16.0526 222.34 16.6207 221.325 16.6207H219.059V13.8224ZM235.426 15.0085V8.09091H232.536V19H235.54L239.453 12.0611V19H242.337V8.09091H239.354L235.426 15.0085ZM238.835 4.28409C238.835 4.9517 238.438 5.5554 237.429 5.5554C236.392 5.5554 236.009 4.9375 236.016 4.28409H233.92C233.92 6.00284 235.277 7.15341 237.429 7.15341C239.581 7.15341 240.938 6.00284 240.945 4.28409H238.835ZM252.282 15.0085V8.09091H249.391V19H252.395L256.309 12.0611V19H259.192V8.09091H256.209L252.282 15.0085ZM264.508 8.09091H261.618V19H264.508V14.7173H268.237V19H271.106V8.09091H268.237V12.3381H264.508V8.09091ZM272.377 10.4702H275.865V19H278.748V10.4702H282.264V8.09091H272.377V10.4702ZM288.679 19.2131C291.378 19.2131 293.196 17.8991 293.622 15.875L290.824 15.6903C290.518 16.5213 289.737 16.9545 288.729 16.9545C287.216 16.9545 286.257 15.9531 286.257 14.3267V14.3196H293.686V13.4886C293.686 9.78125 291.442 7.94886 288.558 7.94886C285.348 7.94886 283.267 10.2287 283.267 13.5952C283.267 17.054 285.32 19.2131 288.679 19.2131ZM286.257 12.4446C286.321 11.2017 287.266 10.2074 288.608 10.2074C289.922 10.2074 290.831 11.1449 290.838 12.4446H286.257ZM295.021 19H295.93C298.246 19 299.474 17.4659 299.659 13.8011L299.83 10.4702H302.521V19H305.405V8.09091H297.109L296.932 12.9205C296.825 15.6832 296.399 16.5994 295.369 16.5994H295.007L295.021 19ZM307.111 19H308.02C310.336 19 311.564 17.4659 311.749 13.8011L311.919 10.4702H314.611V19H317.495V8.09091H309.199L309.022 12.9205C308.915 15.6832 308.489 16.5994 307.459 16.5994H307.097L307.111 19ZM324.812 19.2131C327.511 19.2131 329.329 17.8991 329.755 15.875L326.957 15.6903C326.651 16.5213 325.87 16.9545 324.862 16.9545C323.349 16.9545 322.39 15.9531 322.39 14.3267V14.3196H329.819V13.4886C329.819 9.78125 327.575 7.94886 324.691 7.94886C321.481 7.94886 319.4 10.2287 319.4 13.5952C319.4 17.054 321.452 19.2131 324.812 19.2131ZM322.39 12.4446C322.454 11.2017 323.398 10.2074 324.741 10.2074C326.055 10.2074 326.964 11.1449 326.971 12.4446H322.39ZM331.793 19H334.819V15.1293H335.948L338.64 19H342.234L338.335 13.5028L342.191 8.09091H338.64L335.671 12.3239H334.819V8.09091H331.793V19ZM342.944 10.4702H346.431V19H349.315V10.4702H352.83V8.09091H342.944V10.4702ZM356.61 4.45455H354.451V9.98011H356.61V4.45455ZM360.282 4.45455H358.123V9.98011H360.282V4.45455Z" fill="white"/>
<path d="M20.0639 146H23.8778L17.9403 138.202L23.6151 131.455H19.7869L14.9574 137.264H14.3395V131.455H11.2642V146H14.3395V139.8H15.3906L20.0639 146ZM26.4347 150.091C28.6861 150.091 29.8793 148.94 30.4972 147.179L34.7372 135.105L31.5341 135.091L29.2543 143.102H29.1406L26.8821 135.091H23.7003L27.6136 146.312L27.4361 146.774C27.0384 147.797 26.2784 147.847 25.2131 147.52L24.5312 149.778C24.9645 149.963 25.6676 150.091 26.4347 150.091ZM36.2855 150.091H39.3111V144.253H39.4034C39.8224 145.162 40.7386 146.178 42.5 146.178C44.9858 146.178 46.9247 144.21 46.9247 140.56C46.9247 136.81 44.9006 134.949 42.5071 134.949C40.6818 134.949 39.8082 136.036 39.4034 136.923H39.2685V135.091H36.2855V150.091ZM39.2472 140.545C39.2472 138.599 40.071 137.357 41.5412 137.357C43.0398 137.357 43.8352 138.656 43.8352 140.545C43.8352 142.449 43.0256 143.77 41.5412 143.77C40.0852 143.77 39.2472 142.491 39.2472 140.545ZM53.8707 146.213C56.7756 146.213 58.6009 144.509 58.7429 142.001H55.8878C55.7102 143.166 54.9432 143.82 53.9062 143.82C52.4929 143.82 51.5767 142.634 51.5767 140.545C51.5767 138.486 52.5 137.307 53.9062 137.307C55.0142 137.307 55.7244 138.038 55.8878 139.125H58.7429C58.6151 136.604 56.7045 134.949 53.8565 134.949C50.5469 134.949 48.5014 137.243 48.5014 140.588C48.5014 143.905 50.5114 146.213 53.8707 146.213ZM67.255 131.455H65.0959V136.98H67.255V131.455ZM70.9268 131.455H68.7678V136.98H70.9268V131.455ZM87.2301 143.543H85.2131V131.455H82.223V143.528H76.1719V131.455H73.2173V146H84.1264V149.438H87.0526L87.2301 143.543ZM94.011 146.213C96.7099 146.213 98.5281 144.899 98.9542 142.875L96.1559 142.69C95.8505 143.521 95.0692 143.955 94.0607 143.955C92.5479 143.955 91.5891 142.953 91.5891 141.327V141.32H99.0181V140.489C99.0181 136.781 96.7738 134.949 93.8903 134.949C90.68 134.949 88.5991 137.229 88.5991 140.595C88.5991 144.054 90.6516 146.213 94.011 146.213ZM91.5891 139.445C91.6531 138.202 92.5977 137.207 93.94 137.207C95.2539 137.207 96.163 138.145 96.1701 139.445H91.5891ZM100.353 146H101.262C103.578 146 104.806 144.466 104.991 140.801L105.162 137.47H107.853V146H110.737V135.091H102.441L102.264 139.92C102.157 142.683 101.731 143.599 100.701 143.599H100.339L100.353 146ZM118.054 146.213C120.753 146.213 122.571 144.899 122.997 142.875L120.199 142.69C119.893 143.521 119.112 143.955 118.104 143.955C116.591 143.955 115.632 142.953 115.632 141.327V141.32H123.061V140.489C123.061 136.781 120.817 134.949 117.933 134.949C114.723 134.949 112.642 137.229 112.642 140.595C112.642 144.054 114.695 146.213 118.054 146.213ZM115.632 139.445C115.696 138.202 116.641 137.207 117.983 137.207C119.297 137.207 120.206 138.145 120.213 139.445H115.632ZM125.036 146H127.891V137.47H131.683V146H134.574V135.091H125.036V146ZM141.918 146.213C145.227 146.213 147.287 143.947 147.287 140.588C147.287 137.207 145.227 134.949 141.918 134.949C138.608 134.949 136.548 137.207 136.548 140.588C136.548 143.947 138.608 146.213 141.918 146.213ZM141.932 143.869C140.405 143.869 139.624 142.47 139.624 140.567C139.624 138.663 140.405 137.257 141.932 137.257C143.43 137.257 144.212 138.663 144.212 140.567C144.212 142.47 143.43 143.869 141.932 143.869ZM148.615 146H149.524C151.839 146 153.068 144.466 153.253 140.801L153.423 137.47H156.115V146H158.999V135.091H150.703L150.526 139.92C150.419 142.683 149.993 143.599 148.963 143.599H148.601L148.615 146ZM164.455 146.206C166.067 146.206 167.111 145.503 167.644 144.487H167.729V146H170.598V138.642C170.598 136.043 168.397 134.949 165.968 134.949C163.354 134.949 161.635 136.199 161.216 138.188L164.015 138.415C164.221 137.69 164.867 137.158 165.953 137.158C166.983 137.158 167.573 137.676 167.573 138.571V138.614C167.573 139.317 166.827 139.409 164.931 139.594C162.772 139.793 160.833 140.517 160.833 142.953C160.833 145.112 162.374 146.206 164.455 146.206ZM165.321 144.118C164.391 144.118 163.723 143.685 163.723 142.854C163.723 142.001 164.426 141.582 165.492 141.433C166.152 141.341 167.232 141.185 167.594 140.943V142.101C167.594 143.244 166.65 144.118 165.321 144.118ZM180.417 135.091H172.946V146H175.886V137.47H180.417V135.091ZM184.982 146.206C186.594 146.206 187.638 145.503 188.171 144.487H188.256V146H191.126V138.642C191.126 136.043 188.924 134.949 186.495 134.949C183.881 134.949 182.163 136.199 181.744 138.188L184.542 138.415C184.748 137.69 185.394 137.158 186.481 137.158C187.511 137.158 188.1 137.676 188.1 138.571V138.614C188.1 139.317 187.354 139.409 185.458 139.594C183.299 139.793 181.36 140.517 181.36 142.953C181.36 145.112 182.901 146.206 184.982 146.206ZM185.849 144.118C184.918 144.118 184.251 143.685 184.251 142.854C184.251 142.001 184.954 141.582 186.019 141.433C186.68 141.341 187.759 141.185 188.121 140.943V142.101C188.121 143.244 187.177 144.118 185.849 144.118ZM196.364 135.091H193.473V146H196.364V141.717H200.092V146H202.962V135.091H200.092V139.338H196.364V135.091ZM208.2 142.009V135.091H205.309V146H208.313L212.227 139.061V146H215.11V135.091H212.127L208.2 142.009ZM222.507 146.213C225.206 146.213 227.024 144.899 227.45 142.875L224.652 142.69C224.347 143.521 223.565 143.955 222.557 143.955C221.044 143.955 220.085 142.953 220.085 141.327V141.32H227.514V140.489C227.514 136.781 225.27 134.949 222.386 134.949C219.176 134.949 217.095 137.229 217.095 140.595C217.095 144.054 219.148 146.213 222.507 146.213ZM220.085 139.445C220.149 138.202 221.094 137.207 222.436 137.207C223.75 137.207 224.659 138.145 224.666 139.445H220.085ZM231.435 131.455H229.276V136.98H231.435V131.455ZM235.107 131.455H232.947V136.98H235.107V131.455Z" fill="white"/>
<path fill-rule="evenodd" clip-rule="evenodd" d="M28.1565 242.476L33.4244 247.702L41.8172 239.347L39.719 237.265L33.4095 243.524L30.2547 240.395L28.1565 242.476ZM35 252C40.5228 252 45 247.523 45 242C45 236.477 40.5228 232 35 232C29.4772 232 25 236.477 25 242C25 247.523 29.4772 252 35 252Z" fill="white"/>
<path fill-rule="evenodd" clip-rule="evenodd" d="M28.1565 186.476L33.4244 191.702L41.8172 183.347L39.719 181.265L33.4095 187.524L30.2547 184.395L28.1565 186.476ZM35 196C40.5228 196 45 191.523 45 186C45 180.477 40.5228 176 35 176C29.4772 176 25 180.477 25 186C25 191.523 29.4772 196 35 196Z" fill="white"/>
<path fill-rule="evenodd" clip-rule="evenodd" d="M28.1565 64.476L33.4244 69.7017L41.8172 61.3465L39.719 59.2651L33.4095 65.5241L30.2547 62.3946L28.1565 64.476ZM35 74C40.5228 74 45 69.5228 45 64C45 58.4772 40.5228 54 35 54C29.4772 54 25 58.4772 25 64C25 69.5228 29.4772 74 35 74Z" fill="white"/>
<path fill-rule="evenodd" clip-rule="evenodd" d="M319.157 242.476L324.424 247.702L332.817 239.347L330.719 237.265L324.41 243.524L321.255 240.395L319.157 242.476ZM326 252C331.523 252 336 247.523 336 242C336 236.477 331.523 232 326 232C320.477 232 316 236.477 316 242C316 247.523 320.477 252 326 252Z" fill="white"/>
<path fill-rule="evenodd" clip-rule="evenodd" d="M319.157 186.476L324.424 191.702L332.817 183.347L330.719 181.265L324.41 187.524L321.255 184.395L319.157 186.476ZM326 196C331.523 196 336 191.523 336 186C336 180.477 331.523 176 326 176C320.477 176 316 180.477 316 186C316 191.523 320.477 196 326 196Z" fill="white"/>
<path fill-rule="evenodd" clip-rule="evenodd" d="M319.157 64.476L324.424 69.7017L332.817 61.3465L330.719 59.2651L324.41 65.5241L321.255 62.3946L319.157 64.476ZM326 74C331.523 74 336 69.5228 336 64C336 58.4772 331.523 54 326 54C320.477 54 316 58.4772 316 64C316 69.5228 320.477 74 326 74Z" fill="white"/>
<line x1="4" y1="29.5" x2="574" y2="29.5" stroke="white" stroke-opacity="0.4"/>
<line x1="4" y1="156.5" x2="574" y2="156.5" stroke="white" stroke-opacity="0.4"/>
<defs>
<linearGradient id="paint0_linear_115_2116" x1="287" y1="40" x2="287" y2="269" gradientUnits="userSpaceOnUse">
<stop stop-color="#EB00FF"/>
<stop offset="1" stop-color="#0003FF"/>
</linearGradient>
</defs>
</svg>
