<svg width="574" height="283" viewBox="0 0 574 283" fill="none" xmlns="http://www.w3.org/2000/svg">
<path fill-rule="evenodd" clip-rule="evenodd" d="M5 0C2.23858 0 0 2.23858 0 5V46C0 48.7614 2.23858 51 5 51H281C283.761 51 286 48.7614 286 46V5C286 2.23858 283.761 0 281 0H5ZM0 112C0 109.239 2.23858 107 5 107H281C283.761 107 286 109.239 286 112V153C286 155.761 283.761 158 281 158H5C2.23858 158 0 155.761 0 153V112ZM0 237C0 234.239 2.23858 232 5 232H281C283.761 232 286 234.239 286 237V278C286 280.761 283.761 283 281 283H5C2.23858 283 0 280.761 0 278V237ZM289 5C289 2.23858 291.239 0 294 0H569C571.761 0 574 2.23858 574 5V46C574 48.7614 571.761 51 569 51H294C291.239 51 289 48.7614 289 46V5ZM5 54C2.23858 54 0 56.2386 0 59V99C0 101.761 2.23858 104 5 104H281C283.761 104 286 101.761 286 99V59C286 56.2386 283.761 54 281 54H5ZM289 59C289 56.2386 291.239 54 294 54H569C571.761 54 574 56.2386 574 59V99C574 101.761 571.761 104 569 104H294C291.239 104 289 101.761 289 99V59ZM294 232C291.239 232 289 234.239 289 237V278C289 280.761 291.239 283 294 283H569C571.761 283 574 280.761 574 278V237C574 234.239 571.761 232 569 232H294Z" fill="url(#paint0_linear_115_2115)" fill-opacity="0.19"/>
<path d="M95.1477 31H99.858C102.523 31 103.83 29.642 103.83 27.8295C103.83 26.0682 102.58 25.0341 101.341 24.9716V24.858C102.477 24.5909 103.375 23.7955 103.375 22.3807C103.375 20.6477 102.125 19.3636 99.6023 19.3636H95.1477V31ZM97.2557 29.2386V25.8295H99.5795C100.881 25.8295 101.688 26.625 101.688 27.6648C101.688 28.5909 101.051 29.2386 99.5227 29.2386H97.2557ZM97.2557 24.3125V21.1023H99.3864C100.625 21.1023 101.267 21.7557 101.267 22.6534C101.267 23.6761 100.438 24.3125 99.3409 24.3125H97.2557ZM108.084 31.1761C109.453 31.1761 110.271 30.5341 110.646 29.8011H110.714V31H112.692V25.1591C112.692 22.8523 110.811 22.1591 109.146 22.1591C107.311 22.1591 105.902 22.9773 105.447 24.5682L107.368 24.8409C107.572 24.2443 108.152 23.733 109.158 23.733C110.112 23.733 110.635 24.2216 110.635 25.0795V25.1136C110.635 25.7045 110.016 25.733 108.476 25.8977C106.783 26.0795 105.163 26.5852 105.163 28.5511C105.163 30.267 106.419 31.1761 108.084 31.1761ZM108.618 29.6648C107.76 29.6648 107.146 29.2727 107.146 28.517C107.146 27.7273 107.834 27.3977 108.754 27.267C109.294 27.1932 110.374 27.0568 110.641 26.8409V27.8693C110.641 28.8409 109.857 29.6648 108.618 29.6648ZM114.76 22.2727V31H126.197V22.2727H124.214V29.3068H121.47V22.2727H119.487V29.3068H116.743V22.2727H114.76ZM132.244 31H134.301V27.7102H135.307L137.699 31H140.188L136.92 26.5568L140.153 22.2727H137.676L135.051 25.7955H134.301V22.2727H132.244V31ZM143.865 31.1761C145.234 31.1761 146.053 30.5341 146.428 29.8011H146.496V31H148.473V25.1591C148.473 22.8523 146.592 22.1591 144.928 22.1591C143.092 22.1591 141.683 22.9773 141.229 24.5682L143.149 24.8409C143.354 24.2443 143.933 23.733 144.939 23.733C145.893 23.733 146.416 24.2216 146.416 25.0795V25.1136C146.416 25.7045 145.797 25.733 144.257 25.8977C142.564 26.0795 140.945 26.5852 140.945 28.5511C140.945 30.267 142.2 31.1761 143.865 31.1761ZM144.399 29.6648C143.541 29.6648 142.928 29.2727 142.928 28.517C142.928 27.7273 143.615 27.3977 144.536 27.267C145.075 27.1932 146.155 27.0568 146.422 26.8409V27.8693C146.422 28.8409 145.638 29.6648 144.399 29.6648ZM150.541 31H152.507V23.9602H155.928V31H157.911V22.2727H150.541V31ZM162.009 28.2159V22.2727H160.026V31H162.145L165.628 25.0511V31H167.616V22.2727H165.503L162.009 28.2159ZM168.751 23.9602H171.575V31H173.564V23.9602H176.388V22.2727H168.751V23.9602ZM180.178 31.1761C181.547 31.1761 182.365 30.5341 182.74 29.8011H182.808V31H184.786V25.1591C184.786 22.8523 182.905 22.1591 181.24 22.1591C179.405 22.1591 177.996 22.9773 177.541 24.5682L179.462 24.8409C179.666 24.2443 180.246 23.733 181.251 23.733C182.206 23.733 182.729 24.2216 182.729 25.0795V25.1136C182.729 25.7045 182.109 25.733 180.57 25.8977C178.876 26.0795 177.257 26.5852 177.257 28.5511C177.257 30.267 178.513 31.1761 180.178 31.1761ZM180.712 29.6648C179.854 29.6648 179.24 29.2727 179.24 28.517C179.24 27.7273 179.928 27.3977 180.848 27.267C181.388 27.1932 182.467 27.0568 182.734 26.8409V27.8693C182.734 28.8409 181.95 29.6648 180.712 29.6648ZM186.251 31H186.888C188.763 31 189.609 29.6818 189.746 26.7727L189.882 23.9602H192.388V31H194.376V22.2727H188.013L187.859 26.1364C187.763 28.5852 187.445 29.3068 186.541 29.3068H186.24L186.251 31Z" fill="white"/>
<path d="M26.5071 39.7358C33.8256 39.7489 38.3718 34.5064 38.3849 25.598C38.3981 16.7422 33.8256 11.723 26.5071 11.723C19.1754 11.723 14.6555 16.7159 14.6293 25.598C14.603 34.467 19.1754 39.7227 26.5071 39.7358ZM26.5071 33.7969C23.9844 33.7969 22.1712 31.261 22.1974 25.598C22.2237 20.0664 23.9844 17.6094 26.5071 17.6094C29.0298 17.6094 30.8036 20.0664 30.8168 25.598C30.8299 31.261 29.0298 33.7969 26.5071 33.7969ZM55.006 12.0909H48.2788L41.6566 16.1378V22.3395L47.543 18.8182H47.7006V39H55.006V12.0909Z" fill="white"/>
<path d="M316.507 39.7358C323.826 39.7489 328.372 34.5064 328.385 25.598C328.398 16.7422 323.826 11.723 316.507 11.723C309.175 11.723 304.656 16.7159 304.629 25.598C304.603 34.467 309.175 39.7227 316.507 39.7358ZM316.507 33.7969C313.984 33.7969 312.171 31.261 312.197 25.598C312.224 20.0664 313.984 17.6094 316.507 17.6094C319.03 17.6094 320.804 20.0664 320.817 25.598C320.83 31.261 319.03 33.7969 316.507 33.7969ZM331.551 34.7955H344.638V39H351.628V34.7955H354.729V29.1193H351.628V12.0909H342.378L331.551 29.1193V34.7955ZM344.796 29.1193H338.752V28.9091L344.586 19.6591H344.796V29.1193Z" fill="white"/>
<path d="M95.142 72.3636V84H97.017L102.5 76.0739H102.597V84H104.705V72.3636H102.818L97.3409 80.2955H97.2386V72.3636H95.142ZM108.899 75.2727H106.916V84H108.899V80.4716H112.28V84H114.257V75.2727H112.28V78.7841H108.899V75.2727ZM116.338 84H120.565C122.611 84 123.781 83.0739 123.781 81.6307C123.781 80.4091 122.832 79.5568 121.463 79.4375C122.628 79.2216 123.355 78.6023 123.355 77.6193C123.355 76.1477 122.065 75.2727 120.003 75.2727H116.338V84ZM118.264 82.3807V80.2159H120.565C121.321 80.2159 121.781 80.6534 121.781 81.375C121.781 82 121.321 82.3807 120.565 82.3807H118.264ZM118.264 78.8864V76.9205H120.003C120.861 76.9205 121.384 77.2841 121.384 77.8807C121.384 78.5057 120.878 78.8864 120.043 78.8864H118.264ZM129.342 84.1705C131.376 84.1705 132.774 83.1761 133.138 81.6591L131.217 81.4432C130.939 82.1818 130.257 82.5682 129.371 82.5682C128.041 82.5682 127.161 81.6932 127.143 80.1989H133.223V79.5682C133.223 76.5057 131.382 75.1591 129.234 75.1591C126.734 75.1591 125.104 76.9943 125.104 79.6875C125.104 82.4261 126.712 84.1705 129.342 84.1705ZM127.149 78.8125C127.212 77.6989 128.036 76.7614 129.263 76.7614C130.445 76.7614 131.24 77.625 131.251 78.8125H127.149ZM138.77 84.1705C140.963 84.1705 142.361 82.8693 142.509 81.017H140.543C140.366 81.9545 139.69 82.4943 138.787 82.4943C137.503 82.4943 136.673 81.4205 136.673 79.6364C136.673 77.875 137.52 76.8182 138.787 76.8182C139.776 76.8182 140.384 77.4545 140.543 78.2955H142.509C142.366 76.4034 140.889 75.1591 138.759 75.1591C136.202 75.1591 134.588 77.0057 134.588 79.6705C134.588 82.3125 136.162 84.1705 138.77 84.1705ZM143.58 76.9602H146.403V84H148.392V76.9602H151.216V75.2727H143.58V76.9602ZM154.837 81.2159V75.2727H152.854V84H154.973L158.456 78.0511V84H160.445V75.2727H158.331L154.837 81.2159ZM169.926 75.2727H167.96V82.3125H164.54V75.2727H162.557V84H169.25V86.8068H171.261V82.4659H169.926V75.2727ZM174.93 81.2159V75.2727H172.947V84H175.067L178.55 78.0511V84H180.538V75.2727H178.425L174.93 81.2159ZM184.634 81.2159V75.2727H182.651V84H184.77L188.253 78.0511V84H190.241V75.2727H188.128L184.634 81.2159Z" fill="white"/>
<path d="M26.5071 91.7358C33.8256 91.7489 38.3718 86.5064 38.3849 77.598C38.3981 68.7422 33.8256 63.723 26.5071 63.723C19.1754 63.723 14.6555 68.7159 14.6293 77.598C14.603 86.467 19.1754 91.7227 26.5071 91.7358ZM26.5071 85.7969C23.9844 85.7969 22.1712 83.261 22.1974 77.598C22.2237 72.0664 23.9844 69.6094 26.5071 69.6094C29.0298 69.6094 30.8036 72.0664 30.8168 77.598C30.8299 83.261 29.0298 85.7969 26.5071 85.7969ZM41.8143 91H62.4691V85.1662H51.9577V85.0085L54.4805 82.9062C60.6165 77.7951 62.18 75.141 62.18 72.027C62.18 67.0078 58.0675 63.723 51.6161 63.723C45.3487 63.723 41.2756 67.2049 41.2887 72.8679H48.2262C48.2131 70.608 49.5927 69.3466 51.6161 69.3466C53.6264 69.3466 55.0586 70.5948 55.0586 72.6577C55.0586 74.5629 53.8366 75.7979 51.8526 77.4403L41.8143 85.7443V91Z" fill="white"/>
<path d="M316.507 91.7358C323.826 91.7489 328.372 86.5064 328.385 77.598C328.398 68.7422 323.826 63.723 316.507 63.723C309.175 63.723 304.656 68.7159 304.629 77.598C304.603 86.467 309.175 91.7227 316.507 91.7358ZM316.507 85.7969C313.984 85.7969 312.171 83.261 312.197 77.598C312.224 72.0664 313.984 69.6094 316.507 69.6094C319.03 69.6094 320.804 72.0664 320.817 77.598C320.83 83.261 319.03 85.7969 316.507 85.7969ZM342.588 91.3679C349.145 91.3679 353.428 87.3867 353.415 81.75C353.428 76.6388 349.854 73.0256 345.059 73.0256C342.326 73.0256 340.118 74.2344 339.277 75.8636H339.12L339.645 69.9247H351.733V64.0909H333.654L332.603 78.9119L339.015 80.1733C339.632 78.8594 341.038 78.071 342.588 78.071C344.822 78.071 346.386 79.6083 346.373 81.9602C346.386 84.3121 344.822 85.8494 342.588 85.8494C340.657 85.8494 339.067 84.6669 339.015 82.8011H331.919C331.959 87.8203 336.387 91.3679 342.588 91.3679Z" fill="white"/>
<path d="M95.142 119.364V131H97.017L102.5 123.074H102.597V131H104.705V119.364H102.818L97.3409 127.295H97.2386V119.364H95.142ZM108.899 122.273H106.916V131H108.899V127.472H112.28V131H114.257V122.273H112.28V125.784H108.899V122.273ZM120.145 131.17C122.338 131.17 123.736 129.869 123.884 128.017H121.918C121.741 128.955 121.065 129.494 120.162 129.494C118.878 129.494 118.048 128.42 118.048 126.636C118.048 124.875 118.895 123.818 120.162 123.818C121.151 123.818 121.759 124.455 121.918 125.295H123.884C123.741 123.403 122.264 122.159 120.134 122.159C117.577 122.159 115.963 124.006 115.963 126.67C115.963 129.312 117.537 131.17 120.145 131.17ZM124.955 123.96H127.778V131H129.767V123.96H132.591V122.273H124.955V123.96ZM134.229 134.273H136.286V129.625H136.371C136.695 130.261 137.371 131.153 138.871 131.153C140.928 131.153 142.467 129.523 142.467 126.648C142.467 123.739 140.882 122.159 138.865 122.159C137.325 122.159 136.683 123.085 136.371 123.716H136.251V122.273H134.229V134.273ZM136.246 126.636C136.246 124.943 136.973 123.847 138.297 123.847C139.666 123.847 140.371 125.011 140.371 126.636C140.371 128.273 139.655 129.466 138.297 129.466C136.984 129.466 136.246 128.33 136.246 126.636ZM145.21 134.273C146.812 134.273 147.739 133.449 148.233 132.057L151.739 122.284L149.54 122.273L147.523 128.864H147.432L145.42 122.273H143.239L146.403 131.182L146.227 131.653C145.847 132.648 145.244 132.716 144.347 132.455L143.869 134.057C144.148 134.17 144.648 134.273 145.21 134.273ZM158.189 128.608L155.666 122.273H153.166V131H155.149V125.119L157.473 131H158.911L161.314 125.057V131H163.28V122.273H160.78L158.189 128.608ZM169.217 131.17C171.251 131.17 172.649 130.176 173.013 128.659L171.092 128.443C170.814 129.182 170.132 129.568 169.246 129.568C167.916 129.568 167.036 128.693 167.018 127.199H173.098V126.568C173.098 123.506 171.257 122.159 169.109 122.159C166.609 122.159 164.979 123.994 164.979 126.688C164.979 129.426 166.587 131.17 169.217 131.17ZM167.024 125.812C167.087 124.699 167.911 123.761 169.138 123.761C170.32 123.761 171.115 124.625 171.126 125.812H167.024ZM176.821 122.273H174.838V131H176.821V127.472H180.202V131H182.179V122.273H180.202V125.784H176.821V122.273ZM183.283 123.96H186.107V131H188.095V123.96H190.919V122.273H183.283V123.96ZM194.54 125.114V122.273H192.557V131H196.523C198.744 131 200.023 129.773 200.028 128.057C200.023 126.295 198.744 125.114 196.523 125.114H194.54ZM201.114 131H203.17V122.273H201.114V131ZM194.54 126.801H196.523C197.415 126.801 198.057 127.33 198.057 128.085C198.057 128.807 197.415 129.312 196.523 129.312H194.54V126.801ZM98.1705 137.852C99.358 137.864 99.9375 138.841 100.08 139.943H97.4375V141.307H100.085C99.9489 142.381 99.375 143.426 98.1705 143.438C97.2443 143.426 96.5739 142.688 96.5739 141.824H94.6818C94.6818 143.824 96.125 145.159 98.1705 145.159C100.727 145.159 102.102 143.199 102.102 140.773V140.528C102.102 138.108 100.716 136.142 98.1705 136.142C96.2557 136.142 94.6818 137.489 94.6818 139.25H96.5739C96.5739 138.443 97.3125 137.864 98.1705 137.852ZM103.838 145H105.895V141.71H106.901L109.293 145H111.781L108.514 140.557L111.747 136.273H109.27L106.645 139.795H105.895V136.273H103.838V145ZM116.395 145.17C118.952 145.17 120.577 143.369 120.577 140.67C120.577 137.966 118.952 136.159 116.395 136.159C113.838 136.159 112.213 137.966 112.213 140.67C112.213 143.369 113.838 145.17 116.395 145.17ZM116.406 143.523C114.991 143.523 114.298 142.261 114.298 140.665C114.298 139.068 114.991 137.79 116.406 137.79C117.798 137.79 118.491 139.068 118.491 140.665C118.491 142.261 117.798 143.523 116.406 143.523ZM124.305 136.273H122.322V145H124.305V141.472H127.686V145H129.663V136.273H127.686V139.784H124.305V136.273ZM135.551 145.17C138.108 145.17 139.733 143.369 139.733 140.67C139.733 137.966 138.108 136.159 135.551 136.159C132.994 136.159 131.369 137.966 131.369 140.67C131.369 143.369 132.994 145.17 135.551 145.17ZM135.562 143.523C134.148 143.523 133.455 142.261 133.455 140.665C133.455 139.068 134.148 137.79 135.562 137.79C136.955 137.79 137.648 139.068 137.648 140.665C137.648 142.261 136.955 143.523 135.562 143.523ZM146.501 142.608L143.979 136.273H141.479V145H143.462V139.119L145.786 145H147.223L149.626 139.057V145H151.592V136.273H149.092L146.501 142.608ZM155.649 142.216V136.273H153.666V145H155.786L159.268 139.051V145H161.257V136.273H159.143L155.649 142.216ZM165.352 142.216V136.273H163.369V145H165.489L168.972 139.051V145H170.96V136.273H168.847L165.352 142.216Z" fill="white"/>
<path d="M99.5455 245.659C96.8295 245.659 94.8523 247.534 94.8523 250.375C94.8523 253.165 96.8068 254.989 99.5455 254.989H99.7102V256.477H101.739V254.989H101.898C104.625 254.989 106.58 253.142 106.58 250.369C106.58 247.534 104.625 245.659 101.898 245.659H101.739V244.159H99.7102V245.659H99.5455ZM99.5455 247.443H99.7102V253.205H99.5455C97.9034 253.205 96.8466 252.193 96.8466 250.375C96.8466 248.483 97.8864 247.443 99.5455 247.443ZM101.739 247.443H101.903C103.557 247.443 104.58 248.489 104.58 250.369C104.58 252.176 103.557 253.205 101.903 253.205H101.739V247.443ZM110.477 253.216V247.273H108.494V256H110.614L114.097 250.051V256H116.085V247.273H113.972L110.477 253.216ZM120.18 247.273H118.197V256H120.18V252.472H123.561V256H125.538V247.273H123.561V250.784H120.18V247.273ZM130.131 256.176C131.5 256.176 132.318 255.534 132.693 254.801H132.761V256H134.739V250.159C134.739 247.852 132.858 247.159 131.193 247.159C129.358 247.159 127.949 247.977 127.494 249.568L129.415 249.841C129.619 249.244 130.199 248.733 131.205 248.733C132.159 248.733 132.682 249.222 132.682 250.08V250.114C132.682 250.705 132.062 250.733 130.523 250.898C128.83 251.08 127.21 251.585 127.21 253.551C127.21 255.267 128.466 256.176 130.131 256.176ZM130.665 254.665C129.807 254.665 129.193 254.273 129.193 253.517C129.193 252.727 129.881 252.398 130.801 252.267C131.341 252.193 132.42 252.057 132.688 251.841V252.869C132.688 253.841 131.903 254.665 130.665 254.665ZM138.79 247.273H136.807V256H138.79V252.472H142.17V256H144.148V247.273H142.17V250.784H138.79V247.273ZM150.036 256.17C152.229 256.17 153.626 254.869 153.774 253.017H151.808C151.632 253.955 150.956 254.494 150.053 254.494C148.768 254.494 147.939 253.42 147.939 251.636C147.939 249.875 148.786 248.818 150.053 248.818C151.041 248.818 151.649 249.455 151.808 250.295H153.774C153.632 248.403 152.155 247.159 150.024 247.159C147.467 247.159 145.854 249.006 145.854 251.67C145.854 254.312 147.428 256.17 150.036 256.17ZM159.27 256.17C161.827 256.17 163.452 254.369 163.452 251.67C163.452 248.966 161.827 247.159 159.27 247.159C156.713 247.159 155.088 248.966 155.088 251.67C155.088 254.369 156.713 256.17 159.27 256.17ZM159.281 254.523C157.866 254.523 157.173 253.261 157.173 251.665C157.173 250.068 157.866 248.79 159.281 248.79C160.673 248.79 161.366 250.068 161.366 251.665C161.366 253.261 160.673 254.523 159.281 254.523ZM165.197 256H169.425C171.47 256 172.641 255.074 172.641 253.631C172.641 252.409 171.692 251.557 170.322 251.438C171.487 251.222 172.214 250.602 172.214 249.619C172.214 248.148 170.925 247.273 168.862 247.273H165.197V256ZM167.124 254.381V252.216H169.425C170.18 252.216 170.641 252.653 170.641 253.375C170.641 254 170.18 254.381 169.425 254.381H167.124ZM167.124 250.886V248.92H168.862C169.72 248.92 170.243 249.284 170.243 249.881C170.243 250.506 169.737 250.886 168.902 250.886H167.124ZM178.145 256.17C180.702 256.17 182.327 254.369 182.327 251.67C182.327 248.966 180.702 247.159 178.145 247.159C175.588 247.159 173.963 248.966 173.963 251.67C173.963 254.369 175.588 256.17 178.145 256.17ZM178.156 254.523C176.741 254.523 176.048 253.261 176.048 251.665C176.048 250.068 176.741 248.79 178.156 248.79C179.548 248.79 180.241 250.068 180.241 251.665C180.241 253.261 179.548 254.523 178.156 254.523ZM187.936 256.17C189.97 256.17 191.368 255.176 191.732 253.659L189.811 253.443C189.533 254.182 188.851 254.568 187.964 254.568C186.635 254.568 185.754 253.693 185.737 252.199H191.817V251.568C191.817 248.506 189.976 247.159 187.828 247.159C185.328 247.159 183.697 248.994 183.697 251.688C183.697 254.426 185.305 256.17 187.936 256.17ZM185.743 250.812C185.805 249.699 186.629 248.761 187.857 248.761C189.038 248.761 189.834 249.625 189.845 250.812H185.743ZM100.08 267.608L97.5568 261.273H95.0568V270H97.0398V264.119L99.3636 270H100.801L103.205 264.057V270H105.17V261.273H102.67L100.08 267.608ZM111.051 270.17C113.608 270.17 115.233 268.369 115.233 265.67C115.233 262.966 113.608 261.159 111.051 261.159C108.494 261.159 106.869 262.966 106.869 265.67C106.869 268.369 108.494 270.17 111.051 270.17ZM111.062 268.523C109.648 268.523 108.955 267.261 108.955 265.665C108.955 264.068 109.648 262.79 111.062 262.79C112.455 262.79 113.148 264.068 113.148 265.665C113.148 267.261 112.455 268.523 111.062 268.523ZM116.979 261.273V270H128.416V261.273H126.433V268.307H123.689V261.273H121.706V268.307H118.962V261.273H116.979ZM134.358 270.17C136.392 270.17 137.79 269.176 138.153 267.659L136.233 267.443C135.955 268.182 135.273 268.568 134.386 268.568C133.057 268.568 132.176 267.693 132.159 266.199H138.239V265.568C138.239 262.506 136.398 261.159 134.25 261.159C131.75 261.159 130.119 262.994 130.119 265.688C130.119 268.426 131.727 270.17 134.358 270.17ZM132.165 264.812C132.227 263.699 133.051 262.761 134.278 262.761C135.46 262.761 136.256 263.625 136.267 264.812H132.165ZM141.962 261.273H139.979V270H141.962V266.472H145.342V270H147.32V261.273H145.342V264.784H141.962V261.273ZM151.384 261.273H149.401V270H151.384V266.472H154.764V270H156.741V261.273H154.764V264.784H151.384V261.273ZM160.805 267.216V261.273H158.822V270H160.942L164.425 264.051V270H166.413V261.273H164.3L160.805 267.216ZM175.815 261.273H173.838V265.534C173.338 265.659 172.844 265.727 172.304 265.727C171.088 265.727 170.491 265.295 170.491 264.17V261.261H168.526V264.17C168.526 266.398 169.974 267.415 172.304 267.415C172.815 267.415 173.349 267.347 173.838 267.233V270H175.815V261.273ZM181.749 270.17C183.783 270.17 185.18 269.176 185.544 267.659L183.624 267.443C183.345 268.182 182.663 268.568 181.777 268.568C180.447 268.568 179.567 267.693 179.55 266.199H185.629V265.568C185.629 262.506 183.788 261.159 181.641 261.159C179.141 261.159 177.51 262.994 177.51 265.688C177.51 268.426 179.118 270.17 181.749 270.17ZM179.555 264.812C179.618 263.699 180.442 262.761 181.669 262.761C182.851 262.761 183.646 263.625 183.658 264.812H179.555ZM191.176 270.17C193.369 270.17 194.767 268.869 194.915 267.017H192.949C192.773 267.955 192.097 268.494 191.193 268.494C189.909 268.494 189.08 267.42 189.08 265.636C189.08 263.875 189.926 262.818 191.193 262.818C192.182 262.818 192.79 263.455 192.949 264.295H194.915C194.773 262.403 193.295 261.159 191.165 261.159C188.608 261.159 186.994 263.006 186.994 265.67C186.994 268.312 188.568 270.17 191.176 270.17ZM195.986 262.96H198.81V270H200.798V262.96H203.622V261.273H195.986V262.96ZM205.26 270H209.487C211.533 270 212.703 269.074 212.703 267.631C212.703 266.409 211.754 265.557 210.385 265.438C211.55 265.222 212.277 264.602 212.277 263.619C212.277 262.148 210.987 261.273 208.925 261.273H205.26V270ZM207.186 268.381V266.216H209.487C210.243 266.216 210.703 266.653 210.703 267.375C210.703 268 210.243 268.381 209.487 268.381H207.186ZM207.186 264.886V262.92H208.925C209.783 262.92 210.305 263.284 210.305 263.881C210.305 264.506 209.8 264.886 208.964 264.886H207.186ZM218.207 270.17C220.764 270.17 222.389 268.369 222.389 265.67C222.389 262.966 220.764 261.159 218.207 261.159C215.651 261.159 214.026 262.966 214.026 265.67C214.026 268.369 215.651 270.17 218.207 270.17ZM218.219 268.523C216.804 268.523 216.111 267.261 216.111 265.665C216.111 264.068 216.804 262.79 218.219 262.79C219.611 262.79 220.304 264.068 220.304 265.665C220.304 267.261 219.611 268.523 218.219 268.523Z" fill="white"/>
<path d="M26.5071 146.736C33.8256 146.749 38.3718 141.506 38.3849 132.598C38.3981 123.742 33.8256 118.723 26.5071 118.723C19.1754 118.723 14.6555 123.716 14.6293 132.598C14.603 141.467 19.1754 146.723 26.5071 146.736ZM26.5071 140.797C23.9844 140.797 22.1712 138.261 22.1974 132.598C22.2237 127.066 23.9844 124.609 26.5071 124.609C29.0298 124.609 30.8036 127.066 30.8168 132.598C30.8299 138.261 29.0298 140.797 26.5071 140.797ZM52.3256 146.368C58.9084 146.368 63.5465 143.017 63.5202 138.274C63.5465 134.976 61.3391 132.651 57.0032 132.178V131.967C60.2092 131.626 62.5479 129.563 62.5217 126.554C62.5479 122.021 58.3434 118.723 52.3782 118.723C46.2816 118.723 41.9457 122.205 41.9194 127.132H48.9094C48.9357 125.503 50.3679 124.347 52.3782 124.347C54.2177 124.347 55.5053 125.463 55.479 127.027C55.5053 128.656 53.9812 129.812 51.8001 129.812H49.0671V134.858H51.8001C54.1651 134.858 55.8207 136.014 55.7944 137.643C55.8207 139.312 54.4016 140.482 52.3782 140.482C50.2759 140.482 48.7781 139.365 48.7518 137.801H41.3938C41.4201 142.82 45.9531 146.368 52.3256 146.368Z" fill="white"/>
<path d="M382.119 26H384.716L379.92 19.6705L384.517 14.3636H381.92L377.784 19.1477H377.256V14.3636H375.148V26H377.256V20.9148H378.29L382.119 26ZM388.568 26.1761C389.938 26.1761 390.756 25.5341 391.131 24.8011H391.199V26H393.176V20.1591C393.176 17.8523 391.295 17.1591 389.631 17.1591C387.795 17.1591 386.386 17.9773 385.932 19.5682L387.852 19.8409C388.057 19.2443 388.636 18.733 389.642 18.733C390.597 18.733 391.119 19.2216 391.119 20.0795V20.1136C391.119 20.7045 390.5 20.733 388.96 20.8977C387.267 21.0795 385.648 21.5852 385.648 23.5511C385.648 25.267 386.903 26.1761 388.568 26.1761ZM389.102 24.6648C388.244 24.6648 387.631 24.2727 387.631 23.517C387.631 22.7273 388.318 22.3977 389.239 22.267C389.778 22.1932 390.858 22.0568 391.125 21.8409V22.8693C391.125 23.8409 390.341 24.6648 389.102 24.6648ZM395.244 26H397.301V22.7102H398.307L400.699 26H403.188L399.92 21.5568L403.153 17.2727H400.676L398.051 20.7955H397.301V17.2727H395.244V26ZM408.322 26H410.288V18.9602H413.709V26H415.692V17.2727H408.322V26ZM421.614 26.1705C424.17 26.1705 425.795 24.3693 425.795 21.6705C425.795 18.9659 424.17 17.1591 421.614 17.1591C419.057 17.1591 417.432 18.9659 417.432 21.6705C417.432 24.3693 419.057 26.1705 421.614 26.1705ZM421.625 24.5227C420.21 24.5227 419.517 23.2614 419.517 21.6648C419.517 20.0682 420.21 18.7898 421.625 18.7898C423.017 18.7898 423.71 20.0682 423.71 21.6648C423.71 23.2614 423.017 24.5227 421.625 24.5227ZM427.541 26H431.768C433.814 26 434.984 25.0739 434.984 23.6307C434.984 22.4091 434.036 21.5568 432.666 21.4375C433.831 21.2216 434.558 20.6023 434.558 19.6193C434.558 18.1477 433.268 17.2727 431.206 17.2727H427.541V26ZM429.467 24.3807V22.2159H431.768C432.524 22.2159 432.984 22.6534 432.984 23.375C432.984 24 432.524 24.3807 431.768 24.3807H429.467ZM429.467 20.8864V18.9205H431.206C432.064 18.9205 432.587 19.2841 432.587 19.8807C432.587 20.5057 432.081 20.8864 431.246 20.8864H429.467ZM438.665 20.1136V17.2727H436.682V26H440.648C442.869 26 444.148 24.7727 444.153 23.0568C444.148 21.2955 442.869 20.1136 440.648 20.1136H438.665ZM445.239 26H447.295V17.2727H445.239V26ZM438.665 21.8011H440.648C441.54 21.8011 442.182 22.3295 442.182 23.0852C442.182 23.8068 441.54 24.3125 440.648 24.3125H438.665V21.8011ZM453.223 26.1705C455.416 26.1705 456.814 24.8693 456.962 23.017H454.996C454.82 23.9545 454.143 24.4943 453.24 24.4943C451.956 24.4943 451.126 23.4205 451.126 21.6364C451.126 19.875 451.973 18.8182 453.24 18.8182C454.229 18.8182 454.837 19.4545 454.996 20.2955H456.962C456.82 18.4034 455.342 17.1591 453.212 17.1591C450.655 17.1591 449.041 19.0057 449.041 21.6705C449.041 24.3125 450.615 26.1705 453.223 26.1705ZM460.634 23.2159V17.2727H458.651V26H460.77L464.253 20.0511V26H466.241V17.2727H464.128L460.634 23.2159ZM467.376 18.9602H470.2V26H472.189V18.9602H475.013V17.2727H467.376V18.9602ZM478.634 20.1136V17.2727H476.651V26H480.616C482.838 26 484.116 24.7727 484.122 23.0568C484.116 21.2955 482.838 20.1136 480.616 20.1136H478.634ZM478.634 21.8011H480.616C481.509 21.8011 482.151 22.3295 482.151 23.0852C482.151 23.8068 481.509 24.3125 480.616 24.3125H478.634V21.8011ZM374.284 42.5341H376.307V40H382.017V42.5341H384.006V38.3068H382.653V31.2727H376.347L376.097 34.3295C375.932 36.2841 375.716 37.733 374.977 38.3068H374.284V42.5341ZM377.091 38.3068C377.642 37.4943 377.847 36.1761 377.994 34.3295L378.131 32.9318H380.688V38.3068H377.091ZM389.348 40.1705C391.905 40.1705 393.53 38.3693 393.53 35.6705C393.53 32.9659 391.905 31.1591 389.348 31.1591C386.791 31.1591 385.166 32.9659 385.166 35.6705C385.166 38.3693 386.791 40.1705 389.348 40.1705ZM389.359 38.5227C387.945 38.5227 387.251 37.2614 387.251 35.6648C387.251 34.0682 387.945 32.7898 389.359 32.7898C390.751 32.7898 391.445 34.0682 391.445 35.6648C391.445 37.2614 390.751 38.5227 389.359 38.5227ZM396.629 31.2727H394.447L397.038 35.6364L394.379 40H396.561L398.391 36.858L400.237 40H402.402L399.726 35.6364L402.357 31.2727H400.18L398.391 34.4943L396.629 31.2727ZM407.426 40.1705C409.983 40.1705 411.608 38.3693 411.608 35.6705C411.608 32.9659 409.983 31.1591 407.426 31.1591C404.869 31.1591 403.244 32.9659 403.244 35.6705C403.244 38.3693 404.869 40.1705 407.426 40.1705ZM407.438 38.5227C406.023 38.5227 405.33 37.2614 405.33 35.6648C405.33 34.0682 406.023 32.7898 407.438 32.7898C408.83 32.7898 409.523 34.0682 409.523 35.6648C409.523 37.2614 408.83 38.5227 407.438 38.5227ZM412.581 42.5341H414.604V40H420.314V42.5341H422.303V38.3068H420.95V31.2727H414.643L414.393 34.3295C414.229 36.2841 414.013 37.733 413.274 38.3068H412.581V42.5341ZM415.388 38.3068C415.939 37.4943 416.143 36.1761 416.291 34.3295L416.428 32.9318H418.984V38.3068H415.388Z" fill="white"/>
<path d="M376.188 77.1591H377.017C378.881 77.1591 379.568 76.0795 380.119 74.8523L384.131 65.3636H381.96L379.455 71.5909L376.557 65.3636H374.352L378.511 73.9205L378.358 74.3125C378.119 74.9659 377.756 75.3864 376.852 75.3864H376.188V77.1591ZM387.723 77.1705C389.916 77.1705 391.314 75.8693 391.462 74.017H389.496C389.32 74.9545 388.643 75.4943 387.74 75.4943C386.456 75.4943 385.626 74.4205 385.626 72.6364C385.626 70.875 386.473 69.8182 387.74 69.8182C388.729 69.8182 389.337 70.4545 389.496 71.2955H391.462C391.32 69.4034 389.842 68.1591 387.712 68.1591C385.155 68.1591 383.541 70.0057 383.541 72.6705C383.541 75.3125 385.115 77.1705 387.723 77.1705ZM393.151 77H395.207V73.7102H396.213L398.605 77H401.094L397.827 72.5568L401.06 68.2727H398.582L395.957 71.7955H395.207V68.2727H393.151V77ZM405.707 77.1705C408.264 77.1705 409.889 75.3693 409.889 72.6705C409.889 69.9659 408.264 68.1591 405.707 68.1591C403.151 68.1591 401.526 69.9659 401.526 72.6705C401.526 75.3693 403.151 77.1705 405.707 77.1705ZM405.719 75.5227C404.304 75.5227 403.611 74.2614 403.611 72.6648C403.611 71.0682 404.304 69.7898 405.719 69.7898C407.111 69.7898 407.804 71.0682 407.804 72.6648C407.804 74.2614 407.111 75.5227 405.719 75.5227ZM411.635 80.2727H413.692V75.625H413.777C414.101 76.2614 414.777 77.1534 416.277 77.1534C418.334 77.1534 419.874 75.5227 419.874 72.6477C419.874 69.7386 418.288 68.1591 416.271 68.1591C414.732 68.1591 414.089 69.0852 413.777 69.7159H413.658V68.2727H411.635V80.2727ZM413.652 72.6364C413.652 70.9432 414.379 69.8466 415.703 69.8466C417.072 69.8466 417.777 71.0114 417.777 72.6364C417.777 74.2727 417.061 75.4659 415.703 75.4659C414.391 75.4659 413.652 74.3295 413.652 72.6364ZM423.618 74.2159V68.2727H421.635V77H423.754L427.237 71.0511V77H429.226V68.2727H427.112L423.618 74.2159ZM430.361 69.9602H433.185V77H435.173V69.9602H437.997V68.2727H430.361V69.9602ZM443.139 77.1705C445.173 77.1705 446.571 76.1761 446.935 74.6591L445.014 74.4432C444.736 75.1818 444.054 75.5682 443.168 75.5682C441.838 75.5682 440.957 74.6932 440.94 73.1989H447.02V72.5682C447.02 69.5057 445.179 68.1591 443.031 68.1591C440.531 68.1591 438.901 69.9943 438.901 72.6875C438.901 75.4261 440.509 77.1705 443.139 77.1705ZM440.946 71.8125C441.009 70.6989 441.832 69.7614 443.06 69.7614C444.241 69.7614 445.037 70.625 445.048 71.8125H440.946ZM448.158 77H448.794C450.669 77 451.516 75.6818 451.652 72.7727L451.788 69.9602H454.294V77H456.283V68.2727H449.919L449.766 72.1364C449.669 74.5852 449.351 75.3068 448.447 75.3068H448.146L448.158 77ZM460.337 74.2159V68.2727H458.354V77H460.473L463.956 71.0511V77H465.945V68.2727H463.831L460.337 74.2159ZM378.864 91.1705C381.057 91.1705 382.455 89.8693 382.602 88.017H380.636C380.46 88.9545 379.784 89.4943 378.881 89.4943C377.597 89.4943 376.767 88.4205 376.767 86.6364C376.767 84.875 377.614 83.8182 378.881 83.8182C379.869 83.8182 380.477 84.4545 380.636 85.2955H382.602C382.46 83.4034 380.983 82.1591 378.852 82.1591C376.295 82.1591 374.682 84.0057 374.682 86.6705C374.682 89.3125 376.256 91.1705 378.864 91.1705ZM391.286 79.0455C390.865 79.3636 390.2 79.358 389.297 79.358C389.041 79.358 388.774 79.358 388.484 79.3636C385.479 79.4034 383.933 81.4034 383.933 85.5057V86.2898C383.933 89.483 385.547 91.1705 388.087 91.1705C390.626 91.1705 392.229 89.4773 392.229 86.7841C392.229 84.1705 390.706 82.6648 388.541 82.6648C387.212 82.6648 386.206 83.2386 385.661 84.3068H385.564C385.768 82.1307 386.587 81.1477 388.541 81.1023C390.274 81.0625 391.246 81.0341 392.001 80.375L391.286 79.0455ZM388.098 89.5227C386.808 89.5227 386.018 88.4886 386.018 86.8409C386.036 85.2159 386.814 84.2841 388.087 84.2841C389.359 84.2841 390.143 85.2159 390.143 86.8409C390.143 88.4943 389.365 89.5227 388.098 89.5227ZM397.842 91.1705C399.876 91.1705 401.274 90.1761 401.638 88.6591L399.717 88.4432C399.439 89.1818 398.757 89.5682 397.871 89.5682C396.541 89.5682 395.661 88.6932 395.643 87.1989H401.723V86.5682C401.723 83.5057 399.882 82.1591 397.734 82.1591C395.234 82.1591 393.604 83.9943 393.604 86.6875C393.604 89.4261 395.212 91.1705 397.842 91.1705ZM395.649 85.8125C395.712 84.6989 396.536 83.7614 397.763 83.7614C398.945 83.7614 399.74 84.625 399.751 85.8125H395.649ZM403.463 94.2727H405.52V89.625H405.605C405.929 90.2614 406.605 91.1534 408.105 91.1534C410.162 91.1534 411.702 89.5227 411.702 86.6477C411.702 83.7386 410.116 82.1591 408.099 82.1591C406.56 82.1591 405.918 83.0852 405.605 83.7159H405.486V82.2727H403.463V94.2727ZM405.48 86.6364C405.48 84.9432 406.207 83.8466 407.531 83.8466C408.901 83.8466 409.605 85.0114 409.605 86.6364C409.605 88.2727 408.889 89.4659 407.531 89.4659C406.219 89.4659 405.48 88.3295 405.48 86.6364ZM417.327 91.1705C419.361 91.1705 420.759 90.1761 421.122 88.6591L419.202 88.4432C418.923 89.1818 418.241 89.5682 417.355 89.5682C416.026 89.5682 415.145 88.6932 415.128 87.1989H421.207V86.5682C421.207 83.5057 419.366 82.1591 417.219 82.1591C414.719 82.1591 413.088 83.9943 413.088 86.6875C413.088 89.4261 414.696 91.1705 417.327 91.1705ZM415.134 85.8125C415.196 84.6989 416.02 83.7614 417.247 83.7614C418.429 83.7614 419.224 84.625 419.236 85.8125H415.134ZM422.207 91H424.634L427.128 87.4773H427.582V91H429.639V87.4773H430.094L432.577 91H435.003L431.798 86.4943L434.974 82.2727H432.599L430.116 85.7898H429.639V82.2727H427.582V85.7898H427.094L424.611 82.2727H422.236L425.429 86.4943L422.207 91ZM440.077 91.1705C442.111 91.1705 443.509 90.1761 443.872 88.6591L441.952 88.4432C441.673 89.1818 440.991 89.5682 440.105 89.5682C438.776 89.5682 437.895 88.6932 437.878 87.1989H443.957V86.5682C443.957 83.5057 442.116 82.1591 439.969 82.1591C437.469 82.1591 435.838 83.9943 435.838 86.6875C435.838 89.4261 437.446 91.1705 440.077 91.1705ZM437.884 85.8125C437.946 84.6989 438.77 83.7614 439.997 83.7614C441.179 83.7614 441.974 84.625 441.986 85.8125H437.884ZM447.68 82.2727H445.697V91H447.68V87.4716H451.061V91H453.038V82.2727H451.061V85.7841H447.68V82.2727ZM457.102 88.2159V82.2727H455.119V91H457.239L460.722 85.0511V91H462.71V82.2727H460.597L457.102 88.2159ZM466.805 88.2159V82.2727H464.822V91H466.942L470.425 85.0511V91H472.413V82.2727H470.3L466.805 88.2159ZM469.737 79.2727C469.732 79.8295 469.413 80.3239 468.612 80.3239C467.8 80.3239 467.493 79.8182 467.493 79.2727H465.964C465.959 80.6023 466.987 81.5 468.612 81.5C470.249 81.5 471.277 80.6023 471.277 79.2727H469.737Z" fill="white"/>
<path d="M367.545 251.659C364.83 251.659 362.852 253.534 362.852 256.375C362.852 259.165 364.807 260.989 367.545 260.989H367.71V262.477H369.739V260.989H369.898C372.625 260.989 374.58 259.142 374.58 256.369C374.58 253.534 372.625 251.659 369.898 251.659H369.739V250.159H367.71V251.659H367.545ZM367.545 253.443H367.71V259.205H367.545C365.903 259.205 364.847 258.193 364.847 256.375C364.847 254.483 365.886 253.443 367.545 253.443ZM369.739 253.443H369.903C371.557 253.443 372.58 254.489 372.58 256.369C372.58 258.176 371.557 259.205 369.903 259.205H369.739V253.443ZM378.477 259.216V253.273H376.494V262H378.614L382.097 256.051V262H384.085V253.273H381.972L378.477 259.216ZM388.18 253.273H386.197V262H388.18V258.472H391.561V262H393.538V253.273H391.561V256.784H388.18V253.273ZM398.131 262.176C399.5 262.176 400.318 261.534 400.693 260.801H400.761V262H402.739V256.159C402.739 253.852 400.858 253.159 399.193 253.159C397.358 253.159 395.949 253.977 395.494 255.568L397.415 255.841C397.619 255.244 398.199 254.733 399.205 254.733C400.159 254.733 400.682 255.222 400.682 256.08V256.114C400.682 256.705 400.062 256.733 398.523 256.898C396.83 257.08 395.21 257.585 395.21 259.551C395.21 261.267 396.466 262.176 398.131 262.176ZM398.665 260.665C397.807 260.665 397.193 260.273 397.193 259.517C397.193 258.727 397.881 258.398 398.801 258.267C399.341 258.193 400.42 258.057 400.688 257.841V258.869C400.688 259.841 399.903 260.665 398.665 260.665ZM406.79 253.273H404.807V262H406.79V258.472H410.17V262H412.148V253.273H410.17V256.784H406.79V253.273ZM418.036 262.17C420.229 262.17 421.626 260.869 421.774 259.017H419.808C419.632 259.955 418.956 260.494 418.053 260.494C416.768 260.494 415.939 259.42 415.939 257.636C415.939 255.875 416.786 254.818 418.053 254.818C419.041 254.818 419.649 255.455 419.808 256.295H421.774C421.632 254.403 420.155 253.159 418.024 253.159C415.467 253.159 413.854 255.006 413.854 257.67C413.854 260.312 415.428 262.17 418.036 262.17ZM427.27 262.17C429.827 262.17 431.452 260.369 431.452 257.67C431.452 254.966 429.827 253.159 427.27 253.159C424.713 253.159 423.088 254.966 423.088 257.67C423.088 260.369 424.713 262.17 427.27 262.17ZM427.281 260.523C425.866 260.523 425.173 259.261 425.173 257.665C425.173 256.068 425.866 254.79 427.281 254.79C428.673 254.79 429.366 256.068 429.366 257.665C429.366 259.261 428.673 260.523 427.281 260.523ZM433.197 262H437.425C439.47 262 440.641 261.074 440.641 259.631C440.641 258.409 439.692 257.557 438.322 257.438C439.487 257.222 440.214 256.602 440.214 255.619C440.214 254.148 438.925 253.273 436.862 253.273H433.197V262ZM435.124 260.381V258.216H437.425C438.18 258.216 438.641 258.653 438.641 259.375C438.641 260 438.18 260.381 437.425 260.381H435.124ZM435.124 256.886V254.92H436.862C437.72 254.92 438.243 255.284 438.243 255.881C438.243 256.506 437.737 256.886 436.902 256.886H435.124ZM444.321 256.114V253.273H442.338V262H446.304C448.526 262 449.804 260.773 449.81 259.057C449.804 257.295 448.526 256.114 446.304 256.114H444.321ZM450.895 262H452.952V253.273H450.895V262ZM444.321 257.801H446.304C447.196 257.801 447.838 258.33 447.838 259.085C447.838 259.807 447.196 260.312 446.304 260.312H444.321V257.801ZM458.936 262.17C460.97 262.17 462.368 261.176 462.732 259.659L460.811 259.443C460.533 260.182 459.851 260.568 458.964 260.568C457.635 260.568 456.754 259.693 456.737 258.199H462.817V257.568C462.817 254.506 460.976 253.159 458.828 253.159C456.328 253.159 454.697 254.994 454.697 257.688C454.697 260.426 456.305 262.17 458.936 262.17ZM456.743 256.812C456.805 255.699 457.629 254.761 458.857 254.761C460.038 254.761 460.834 255.625 460.845 256.812H456.743ZM468.526 262H470.491V254.96H473.912V262H475.895V253.273H468.526V262ZM479.993 259.216V253.273H478.01V262H480.129L483.612 256.051V262H485.601V253.273H483.487L479.993 259.216ZM487.713 265.273H489.77V260.625H489.855C490.179 261.261 490.855 262.153 492.355 262.153C494.412 262.153 495.952 260.523 495.952 257.648C495.952 254.739 494.366 253.159 492.349 253.159C490.81 253.159 490.168 254.085 489.855 254.716H489.736V253.273H487.713V265.273ZM489.73 257.636C489.73 255.943 490.457 254.847 491.781 254.847C493.151 254.847 493.855 256.011 493.855 257.636C493.855 259.273 493.139 260.466 491.781 260.466C490.469 260.466 489.73 259.33 489.73 257.636ZM500.224 262.176C501.594 262.176 502.412 261.534 502.787 260.801H502.855V262H504.832V256.159C504.832 253.852 502.952 253.159 501.287 253.159C499.452 253.159 498.043 253.977 497.588 255.568L499.509 255.841C499.713 255.244 500.293 254.733 501.298 254.733C502.253 254.733 502.776 255.222 502.776 256.08V256.114C502.776 256.705 502.156 256.733 500.616 256.898C498.923 257.08 497.304 257.585 497.304 259.551C497.304 261.267 498.56 262.176 500.224 262.176ZM500.759 260.665C499.901 260.665 499.287 260.273 499.287 259.517C499.287 258.727 499.974 258.398 500.895 258.267C501.435 258.193 502.514 258.057 502.781 257.841V258.869C502.781 259.841 501.997 260.665 500.759 260.665ZM511.923 259.608L509.401 253.273H506.901V262H508.884V256.119L511.207 262H512.645L515.048 256.057V262H517.014V253.273H514.514L511.923 259.608ZM521.071 259.216V253.273H519.088V262H521.207L524.69 256.051V262H526.679V253.273H524.565L521.071 259.216ZM528.018 264.534H530.041V262H535.751V264.534H537.74V260.307H536.388V253.273H530.081L529.831 256.33C529.666 258.284 529.45 259.733 528.712 260.307H528.018V264.534ZM530.825 260.307C531.376 259.494 531.581 258.176 531.729 256.33L531.865 254.932H534.422V260.307H530.825ZM541.259 256.114V253.273H539.276V262H543.241C545.463 262 546.741 260.773 546.747 259.057C546.741 257.295 545.463 256.114 543.241 256.114H541.259ZM547.832 262H549.889V253.273H547.832V262ZM541.259 257.801H543.241C544.134 257.801 544.776 258.33 544.776 259.085C544.776 259.807 544.134 260.312 543.241 260.312H541.259V257.801Z" fill="white"/>
<path d="M24.098 198.547C23.6932 195.188 21.1506 193.256 17.7841 193.256C13.9418 193.256 11.0085 195.969 11.0085 200.727C11.0085 205.472 13.892 208.199 17.7841 208.199C21.5128 208.199 23.7642 205.72 24.098 203.043L20.9872 203.028C20.696 204.584 19.4744 205.479 17.8338 205.479C15.625 205.479 14.1264 203.838 14.1264 200.727C14.1264 197.702 15.6037 195.976 17.8551 195.976C19.5384 195.976 20.7528 196.949 20.9872 198.547H24.098ZM25.6783 199.47H29.1655V208H32.049V199.47H35.5646V197.091H25.6783V199.47ZM41.9371 208.213C45.2468 208.213 47.3065 205.947 47.3065 202.588C47.3065 199.207 45.2468 196.949 41.9371 196.949C38.6275 196.949 36.5678 199.207 36.5678 202.588C36.5678 205.947 38.6275 208.213 41.9371 208.213ZM41.9513 205.869C40.4244 205.869 39.6431 204.47 39.6431 202.567C39.6431 200.663 40.4244 199.257 41.9513 199.257C43.4499 199.257 44.2312 200.663 44.2312 202.567C44.2312 204.47 43.4499 205.869 41.9513 205.869ZM49.2738 208H52.1289V199.47H55.9215V208H58.8121V197.091H49.2738V208ZM74.1175 198.547C73.7127 195.188 71.1701 193.256 67.8036 193.256C63.9613 193.256 61.0281 195.969 61.0281 200.727C61.0281 205.472 63.9116 208.199 67.8036 208.199C71.5323 208.199 73.7837 205.72 74.1175 203.043L71.0067 203.028C70.7156 204.584 69.494 205.479 67.8533 205.479C65.6445 205.479 64.146 203.838 64.146 200.727C64.146 197.702 65.6232 195.976 67.8746 195.976C69.5579 195.976 70.7724 196.949 71.0067 198.547H74.1175ZM76.266 208H79.2915V204.129H80.4208L83.1126 208H86.7063L82.8072 202.503L86.6637 197.091H83.1126L80.1438 201.324H79.2915V197.091H76.266V208ZM91.0955 208.206C92.7077 208.206 93.7518 207.503 94.2844 206.487H94.3697V208H97.239V200.642C97.239 198.043 95.0373 196.949 92.6083 196.949C89.9947 196.949 88.2759 198.199 87.8569 200.188L90.6552 200.415C90.8612 199.69 91.5075 199.158 92.5941 199.158C93.6239 199.158 94.2134 199.676 94.2134 200.571V200.614C94.2134 201.317 93.4677 201.409 91.5714 201.594C89.4123 201.793 87.4734 202.517 87.4734 204.953C87.4734 207.112 89.0146 208.206 91.0955 208.206ZM91.962 206.118C91.0316 206.118 90.364 205.685 90.364 204.854C90.364 204.001 91.0671 203.582 92.1325 203.433C92.793 203.341 93.8725 203.185 94.2347 202.943V204.101C94.2347 205.244 93.2901 206.118 91.962 206.118ZM106.035 204.655L103.166 197.091H99.5863V208H102.477V201.303L105.027 208H107.037L109.743 201.061V208H112.598V197.091H108.99L106.035 204.655Z" fill="white"/>
<path fill-rule="evenodd" clip-rule="evenodd" d="M28.1565 256.476L33.4244 261.702L41.8172 253.346L39.719 251.265L33.4095 257.524L30.2547 254.395L28.1565 256.476ZM35 266C40.5228 266 45 261.523 45 256C45 250.477 40.5228 246 35 246C29.4772 246 25 250.477 25 256C25 261.523 29.4772 266 35 266Z" fill="white"/>
<path fill-rule="evenodd" clip-rule="evenodd" d="M319.157 256.476L324.424 261.702L332.817 253.346L330.719 251.265L324.41 257.524L321.255 254.395L319.157 256.476ZM326 266C331.523 266 336 261.523 336 256C336 250.477 331.523 246 326 246C320.477 246 316 250.477 316 256C316 261.523 320.477 266 326 266Z" fill="white"/>
<line x1="4" y1="220.5" x2="574" y2="220.5" stroke="white" stroke-opacity="0.25"/>
<defs>
<linearGradient id="paint0_linear_115_2115" x1="287" y1="0" x2="287" y2="283" gradientUnits="userSpaceOnUse">
<stop stop-color="#EB00FF"/>
<stop offset="1" stop-color="#0003FF"/>
</linearGradient>
</defs>
</svg>
