<svg width="574" height="228" viewBox="0 0 574 228" fill="none" xmlns="http://www.w3.org/2000/svg">
<path fill-rule="evenodd" clip-rule="evenodd" d="M0 5C0 2.23858 2.23858 0 5 0H569C571.761 0 574 2.23858 574 5V69C574 71.7614 571.761 74 569 74H5C2.23858 74 0 71.7614 0 69V5ZM0 159C0 156.239 2.23858 154 5 154H569C571.761 154 574 156.239 574 159V223C574 225.761 571.761 228 569 228H5C2.23858 228 0 225.761 0 223V159ZM5 77C2.23858 77 0 79.2386 0 82V146C0 148.761 2.23858 151 5 151H569C571.761 151 574 148.761 574 146V82C574 79.2386 571.761 77 569 77H5Z" fill="url(#paint0_linear_115_2118)" fill-opacity="0.19"/>
<path d="M96.1875 43.1591H97.017C98.8807 43.1591 99.5682 42.0795 100.119 40.8523L104.131 31.3636H101.96L99.4545 37.5909L96.5568 31.3636H94.3523L98.5114 39.9205L98.358 40.3125C98.1193 40.9659 97.7557 41.3864 96.8523 41.3864H96.1875V43.1591ZM107.723 43.1705C109.916 43.1705 111.314 41.8693 111.462 40.017H109.496C109.32 40.9545 108.643 41.4943 107.74 41.4943C106.456 41.4943 105.626 40.4205 105.626 38.6364C105.626 36.875 106.473 35.8182 107.74 35.8182C108.729 35.8182 109.337 36.4545 109.496 37.2955H111.462C111.32 35.4034 109.842 34.1591 107.712 34.1591C105.155 34.1591 103.541 36.0057 103.541 38.6705C103.541 41.3125 105.115 43.1705 107.723 43.1705ZM113.151 43H115.116V35.9602H118.537V43H120.52V34.2727H113.151V43ZM126.499 43.1705C128.533 43.1705 129.93 42.1761 130.294 40.6591L128.374 40.4432C128.095 41.1818 127.413 41.5682 126.527 41.5682C125.197 41.5682 124.317 40.6932 124.3 39.1989H130.379V38.5682C130.379 35.5057 128.538 34.1591 126.391 34.1591C123.891 34.1591 122.26 35.9943 122.26 38.6875C122.26 41.4261 123.868 43.1705 126.499 43.1705ZM124.305 37.8125C124.368 36.6989 125.192 35.7614 126.419 35.7614C127.601 35.7614 128.396 36.625 128.408 37.8125H124.305ZM133.629 34.2727H131.447L134.038 38.6364L131.379 43H133.561L135.391 39.858L137.237 43H139.402L136.726 38.6364L139.357 34.2727H137.18L135.391 37.4943L133.629 34.2727ZM144.916 43H149.143C151.189 43 152.359 42.0739 152.359 40.6307C152.359 39.4091 151.411 38.5568 150.041 38.4375C151.206 38.2216 151.933 37.6023 151.933 36.6193C151.933 35.1477 150.643 34.2727 148.581 34.2727H144.916V43ZM146.842 41.3807V39.2159H149.143C149.899 39.2159 150.359 39.6534 150.359 40.375C150.359 41 149.899 41.3807 149.143 41.3807H146.842ZM146.842 37.8864V35.9205H148.581C149.439 35.9205 149.962 36.2841 149.962 36.8807C149.962 37.5057 149.456 37.8864 148.621 37.8864H146.842ZM158.026 43H159.991V35.9602H163.412V43H165.395V34.2727H158.026V43ZM167.51 46.2727H169.567V41.625H169.652C169.976 42.2614 170.652 43.1534 172.152 43.1534C174.209 43.1534 175.749 41.5227 175.749 38.6477C175.749 35.7386 174.163 34.1591 172.146 34.1591C170.607 34.1591 169.964 35.0852 169.652 35.7159H169.533V34.2727H167.51V46.2727ZM169.527 38.6364C169.527 36.9432 170.254 35.8466 171.578 35.8466C172.947 35.8466 173.652 37.0114 173.652 38.6364C173.652 40.2727 172.936 41.4659 171.578 41.4659C170.266 41.4659 169.527 40.3295 169.527 38.6364ZM181.317 43.1705C183.874 43.1705 185.499 41.3693 185.499 38.6705C185.499 35.9659 183.874 34.1591 181.317 34.1591C178.76 34.1591 177.135 35.9659 177.135 38.6705C177.135 41.3693 178.76 43.1705 181.317 43.1705ZM181.328 41.5227C179.913 41.5227 179.22 40.2614 179.22 38.6648C179.22 37.0682 179.913 35.7898 181.328 35.7898C182.72 35.7898 183.413 37.0682 183.413 38.6648C183.413 40.2614 182.72 41.5227 181.328 41.5227ZM186.472 45.5341H188.494V43H194.205V45.5341H196.193V41.3068H194.841V34.2727H188.534L188.284 37.3295C188.119 39.2841 187.903 40.733 187.165 41.3068H186.472V45.5341ZM189.278 41.3068C189.83 40.4943 190.034 39.1761 190.182 37.3295L190.318 35.9318H192.875V41.3068H189.278ZM200.24 43.1761C201.609 43.1761 202.428 42.5341 202.803 41.8011H202.871V43H204.848V37.1591C204.848 34.8523 202.967 34.1591 201.303 34.1591C199.467 34.1591 198.058 34.9773 197.604 36.5682L199.524 36.8409C199.729 36.2443 200.308 35.733 201.314 35.733C202.268 35.733 202.791 36.2216 202.791 37.0795V37.1136C202.791 37.7045 202.172 37.733 200.632 37.8977C198.939 38.0795 197.32 38.5852 197.32 40.5511C197.32 42.267 198.575 43.1761 200.24 43.1761ZM200.774 41.6648C199.916 41.6648 199.303 41.2727 199.303 40.517C199.303 39.7273 199.99 39.3977 200.911 39.267C201.45 39.1932 202.53 39.0568 202.797 38.8409V39.8693C202.797 40.8409 202.013 41.6648 200.774 41.6648ZM206.348 43H208.774L211.268 39.4773H211.723V43H213.78V39.4773H214.234L216.717 43H219.143L215.939 38.4943L219.115 34.2727H216.74L214.257 37.7898H213.78V34.2727H211.723V37.7898H211.234L208.751 34.2727H206.376L209.57 38.4943L206.348 43ZM223.162 43.1761C224.531 43.1761 225.349 42.5341 225.724 41.8011H225.793V43H227.77V37.1591C227.77 34.8523 225.889 34.1591 224.224 34.1591C222.389 34.1591 220.98 34.9773 220.526 36.5682L222.446 36.8409C222.651 36.2443 223.23 35.733 224.236 35.733C225.19 35.733 225.713 36.2216 225.713 37.0795V37.1136C225.713 37.7045 225.094 37.733 223.554 37.8977C221.861 38.0795 220.241 38.5852 220.241 40.5511C220.241 42.267 221.497 43.1761 223.162 43.1761ZM223.696 41.6648C222.838 41.6648 222.224 41.2727 222.224 40.517C222.224 39.7273 222.912 39.3977 223.832 39.267C224.372 39.1932 225.452 39.0568 225.719 38.8409V39.8693C225.719 40.8409 224.935 41.6648 223.696 41.6648ZM231.52 34.2727H229.338L231.929 38.6364L229.27 43H231.452L233.281 39.858L235.128 43H237.293L234.616 38.6364L237.247 34.2727H235.071L233.281 37.4943L231.52 34.2727Z" fill="white"/>
<path d="M26.5071 50.7358C33.8256 50.7489 38.3718 45.5064 38.3849 36.598C38.3981 27.7422 33.8256 22.723 26.5071 22.723C19.1754 22.723 14.6555 27.7159 14.6293 36.598C14.603 45.467 19.1754 50.7227 26.5071 50.7358ZM26.5071 44.7969C23.9844 44.7969 22.1712 42.261 22.1974 36.598C22.2237 31.0664 23.9844 28.6094 26.5071 28.6094C29.0298 28.6094 30.8036 31.0664 30.8168 36.598C30.8299 42.261 29.0298 44.7969 26.5071 44.7969ZM55.006 23.0909H48.2788L41.6566 27.1378V33.3395L47.543 29.8182H47.7006V50H55.006V23.0909Z" fill="white"/>
<path d="M104.642 110.364H95.3693V122H97.4602V112.114H102.551V122H104.642V110.364ZM107.072 125.273H109.129V120.625H109.214C109.538 121.261 110.214 122.153 111.714 122.153C113.771 122.153 115.311 120.523 115.311 117.648C115.311 114.739 113.726 113.159 111.709 113.159C110.169 113.159 109.527 114.085 109.214 114.716H109.095V113.273H107.072V125.273ZM109.089 117.636C109.089 115.943 109.817 114.847 111.141 114.847C112.51 114.847 113.214 116.011 113.214 117.636C113.214 119.273 112.499 120.466 111.141 120.466C109.828 120.466 109.089 119.33 109.089 117.636ZM120.879 122.17C123.436 122.17 125.061 120.369 125.061 117.67C125.061 114.966 123.436 113.159 120.879 113.159C118.322 113.159 116.697 114.966 116.697 117.67C116.697 120.369 118.322 122.17 120.879 122.17ZM120.891 120.523C119.476 120.523 118.783 119.261 118.783 117.665C118.783 116.068 119.476 114.79 120.891 114.79C122.283 114.79 122.976 116.068 122.976 117.665C122.976 119.261 122.283 120.523 120.891 120.523ZM126.034 124.534H128.057V122H133.767V124.534H135.756V120.307H134.403V113.273H128.097L127.847 116.33C127.682 118.284 127.466 119.733 126.727 120.307H126.034V124.534ZM128.841 120.307C129.392 119.494 129.597 118.176 129.744 116.33L129.881 114.932H132.438V120.307H128.841ZM139.803 122.176C141.172 122.176 141.99 121.534 142.365 120.801H142.433V122H144.411V116.159C144.411 113.852 142.53 113.159 140.865 113.159C139.03 113.159 137.621 113.977 137.166 115.568L139.087 115.841C139.291 115.244 139.871 114.733 140.876 114.733C141.831 114.733 142.354 115.222 142.354 116.08V116.114C142.354 116.705 141.734 116.733 140.195 116.898C138.501 117.08 136.882 117.585 136.882 119.551C136.882 121.267 138.138 122.176 139.803 122.176ZM140.337 120.665C139.479 120.665 138.865 120.273 138.865 119.517C138.865 118.727 139.553 118.398 140.473 118.267C141.013 118.193 142.092 118.057 142.359 117.841V118.869C142.359 119.841 141.575 120.665 140.337 120.665ZM145.911 122H148.337L150.831 118.477H151.286V122H153.342V118.477H153.797L156.28 122H158.706L155.501 117.494L158.678 113.273H156.303L153.82 116.79H153.342V113.273H151.286V116.79H150.797L148.314 113.273H145.939L149.132 117.494L145.911 122ZM162.227 119.216V113.273H160.244V122H162.364L165.847 116.051V122H167.835V113.273H165.722L162.227 119.216ZM175.899 113.273H173.916V122H175.899V118.472H179.28V122H181.257V113.273H179.28V116.784H175.899V113.273ZM185.849 122.176C187.219 122.176 188.037 121.534 188.412 120.801H188.48V122H190.457V116.159C190.457 113.852 188.577 113.159 186.912 113.159C185.077 113.159 183.668 113.977 183.213 115.568L185.134 115.841C185.338 115.244 185.918 114.733 186.923 114.733C187.878 114.733 188.401 115.222 188.401 116.08V116.114C188.401 116.705 187.781 116.733 186.241 116.898C184.548 117.08 182.929 117.585 182.929 119.551C182.929 121.267 184.185 122.176 185.849 122.176ZM186.384 120.665C185.526 120.665 184.912 120.273 184.912 119.517C184.912 118.727 185.599 118.398 186.52 118.267C187.06 118.193 188.139 118.057 188.406 117.841V118.869C188.406 119.841 187.622 120.665 186.384 120.665ZM196.494 122H200.722C202.767 122 203.938 121.074 203.938 119.631C203.938 118.409 202.989 117.557 201.619 117.438C202.784 117.222 203.511 116.602 203.511 115.619C203.511 114.148 202.222 113.273 200.159 113.273H196.494V122ZM198.42 120.381V118.216H200.722C201.477 118.216 201.938 118.653 201.938 119.375C201.938 120 201.477 120.381 200.722 120.381H198.42ZM198.42 116.886V114.92H200.159C201.017 114.92 201.54 115.284 201.54 115.881C201.54 116.506 201.034 116.886 200.199 116.886H198.42ZM209.442 122.17C211.635 122.17 213.033 120.869 213.18 119.017H211.214C211.038 119.955 210.362 120.494 209.459 120.494C208.175 120.494 207.345 119.42 207.345 117.636C207.345 115.875 208.192 114.818 209.459 114.818C210.447 114.818 211.055 115.455 211.214 116.295H213.18C213.038 114.403 211.561 113.159 209.43 113.159C206.874 113.159 205.26 115.006 205.26 117.67C205.26 120.312 206.834 122.17 209.442 122.17ZM214.251 114.96H217.075V122H219.064V114.96H221.888V113.273H214.251V114.96ZM223.526 125.273H225.582V120.625H225.668C225.991 121.261 226.668 122.153 228.168 122.153C230.224 122.153 231.764 120.523 231.764 117.648C231.764 114.739 230.179 113.159 228.162 113.159C226.622 113.159 225.98 114.085 225.668 114.716H225.548V113.273H223.526V125.273ZM225.543 117.636C225.543 115.943 226.27 114.847 227.594 114.847C228.963 114.847 229.668 116.011 229.668 117.636C229.668 119.273 228.952 120.466 227.594 120.466C226.281 120.466 225.543 119.33 225.543 117.636ZM237.389 122.17C239.423 122.17 240.821 121.176 241.185 119.659L239.264 119.443C238.986 120.182 238.304 120.568 237.418 120.568C236.088 120.568 235.207 119.693 235.19 118.199H241.27V117.568C241.27 114.506 239.429 113.159 237.281 113.159C234.781 113.159 233.151 114.994 233.151 117.688C233.151 120.426 234.759 122.17 237.389 122.17ZM235.196 116.812C235.259 115.699 236.082 114.761 237.31 114.761C238.491 114.761 239.287 115.625 239.298 116.812H235.196ZM250.3 113.273H248.322V117.534C247.822 117.659 247.328 117.727 246.788 117.727C245.572 117.727 244.976 117.295 244.976 116.17V113.261H243.01V116.17C243.01 118.398 244.459 119.415 246.788 119.415C247.3 119.415 247.834 119.347 248.322 119.233V122H250.3V113.273ZM256.233 122.17C258.267 122.17 259.665 121.176 260.028 119.659L258.108 119.443C257.83 120.182 257.148 120.568 256.261 120.568C254.932 120.568 254.051 119.693 254.034 118.199H260.114V117.568C260.114 114.506 258.273 113.159 256.125 113.159C253.625 113.159 251.994 114.994 251.994 117.688C251.994 120.426 253.602 122.17 256.233 122.17ZM254.04 116.812C254.102 115.699 254.926 114.761 256.153 114.761C257.335 114.761 258.131 115.625 258.142 116.812H254.04Z" fill="white"/>
<path d="M26.5071 127.736C33.8256 127.749 38.3718 122.506 38.3849 113.598C38.3981 104.742 33.8256 99.723 26.5071 99.723C19.1754 99.723 14.6555 104.716 14.6293 113.598C14.603 122.467 19.1754 127.723 26.5071 127.736ZM26.5071 121.797C23.9844 121.797 22.1712 119.261 22.1974 113.598C22.2237 108.066 23.9844 105.609 26.5071 105.609C29.0298 105.609 30.8036 108.066 30.8168 113.598C30.8299 119.261 29.0298 121.797 26.5071 121.797ZM41.8143 127H62.4691V121.166H51.9577V121.009L54.4805 118.906C60.6165 113.795 62.18 111.141 62.18 108.027C62.18 103.008 58.0675 99.723 51.6161 99.723C45.3487 99.723 41.2756 103.205 41.2887 108.868H48.2262C48.2131 106.608 49.5927 105.347 51.6161 105.347C53.6264 105.347 55.0586 106.595 55.0586 108.658C55.0586 110.563 53.8366 111.798 51.8526 113.44L41.8143 121.744V127Z" fill="white"/>
<path fill-rule="evenodd" clip-rule="evenodd" d="M521.157 37.4763L526.424 42.702L534.817 34.3467L532.719 32.2653L526.41 38.5244L523.255 35.3948L521.157 37.4763ZM528 47C533.523 47 538 42.5228 538 37C538 31.4772 533.523 27 528 27C522.477 27 518 31.4772 518 37C518 42.5228 522.477 47 528 47Z" fill="white"/>
<path fill-rule="evenodd" clip-rule="evenodd" d="M521.157 114.476L526.424 119.702L534.817 111.347L532.719 109.265L526.41 115.524L523.255 112.395L521.157 114.476ZM528 124C533.523 124 538 119.523 538 114C538 108.477 533.523 104 528 104C522.477 104 518 108.477 518 114C518 119.523 522.477 124 528 124Z" fill="white"/>
<path d="M104.642 182.364H95.3693V194H97.4602V184.114H102.551V194H104.642V182.364ZM107.072 197.273H109.129V192.625H109.214C109.538 193.261 110.214 194.153 111.714 194.153C113.771 194.153 115.311 192.523 115.311 189.648C115.311 186.739 113.726 185.159 111.709 185.159C110.169 185.159 109.527 186.085 109.214 186.716H109.095V185.273H107.072V197.273ZM109.089 189.636C109.089 187.943 109.817 186.847 111.141 186.847C112.51 186.847 113.214 188.011 113.214 189.636C113.214 191.273 112.499 192.466 111.141 192.466C109.828 192.466 109.089 191.33 109.089 189.636ZM120.879 194.17C123.436 194.17 125.061 192.369 125.061 189.67C125.061 186.966 123.436 185.159 120.879 185.159C118.322 185.159 116.697 186.966 116.697 189.67C116.697 192.369 118.322 194.17 120.879 194.17ZM120.891 192.523C119.476 192.523 118.783 191.261 118.783 189.665C118.783 188.068 119.476 186.79 120.891 186.79C122.283 186.79 122.976 188.068 122.976 189.665C122.976 191.261 122.283 192.523 120.891 192.523ZM126.034 196.534H128.057V194H133.767V196.534H135.756V192.307H134.403V185.273H128.097L127.847 188.33C127.682 190.284 127.466 191.733 126.727 192.307H126.034V196.534ZM128.841 192.307C129.392 191.494 129.597 190.176 129.744 188.33L129.881 186.932H132.438V192.307H128.841ZM139.803 194.176C141.172 194.176 141.99 193.534 142.365 192.801H142.433V194H144.411V188.159C144.411 185.852 142.53 185.159 140.865 185.159C139.03 185.159 137.621 185.977 137.166 187.568L139.087 187.841C139.291 187.244 139.871 186.733 140.876 186.733C141.831 186.733 142.354 187.222 142.354 188.08V188.114C142.354 188.705 141.734 188.733 140.195 188.898C138.501 189.08 136.882 189.585 136.882 191.551C136.882 193.267 138.138 194.176 139.803 194.176ZM140.337 192.665C139.479 192.665 138.865 192.273 138.865 191.517C138.865 190.727 139.553 190.398 140.473 190.267C141.013 190.193 142.092 190.057 142.359 189.841V190.869C142.359 191.841 141.575 192.665 140.337 192.665ZM145.911 194H148.337L150.831 190.477H151.286V194H153.342V190.477H153.797L156.28 194H158.706L155.501 189.494L158.678 185.273H156.303L153.82 188.79H153.342V185.273H151.286V188.79H150.797L148.314 185.273H145.939L149.132 189.494L145.911 194ZM162.227 191.216V185.273H160.244V194H162.364L165.847 188.051V194H167.835V185.273H165.722L162.227 191.216ZM173.916 194H175.882V186.96H179.303V194H181.286V185.273H173.916V194ZM187.207 194.17C189.764 194.17 191.389 192.369 191.389 189.67C191.389 186.966 189.764 185.159 187.207 185.159C184.651 185.159 183.026 186.966 183.026 189.67C183.026 192.369 184.651 194.17 187.207 194.17ZM187.219 192.523C185.804 192.523 185.111 191.261 185.111 189.665C185.111 188.068 185.804 186.79 187.219 186.79C188.611 186.79 189.304 188.068 189.304 189.665C189.304 191.261 188.611 192.523 187.219 192.523ZM196.626 186.96H199.45V194H201.439V186.96H204.263V185.273H196.626V186.96ZM209.405 194.17C211.439 194.17 212.837 193.176 213.2 191.659L211.28 191.443C211.001 192.182 210.32 192.568 209.433 192.568C208.104 192.568 207.223 191.693 207.206 190.199H213.286V189.568C213.286 186.506 211.445 185.159 209.297 185.159C206.797 185.159 205.166 186.994 205.166 189.688C205.166 192.426 206.774 194.17 209.405 194.17ZM207.212 188.812C207.274 187.699 208.098 186.761 209.325 186.761C210.507 186.761 211.303 187.625 211.314 188.812H207.212ZM214.423 194H215.06C216.935 194 217.781 192.682 217.918 189.773L218.054 186.96H220.56V194H222.548V185.273H216.185L216.031 189.136C215.935 191.585 215.616 192.307 214.713 192.307H214.412L214.423 194ZM228.483 194.17C230.517 194.17 231.915 193.176 232.278 191.659L230.358 191.443C230.08 192.182 229.398 192.568 228.511 192.568C227.182 192.568 226.301 191.693 226.284 190.199H232.364V189.568C232.364 186.506 230.523 185.159 228.375 185.159C225.875 185.159 224.244 186.994 224.244 189.688C224.244 192.426 225.852 194.17 228.483 194.17ZM226.29 188.812C226.352 187.699 227.176 186.761 228.403 186.761C229.585 186.761 230.381 187.625 230.392 188.812H226.29ZM238.064 196.966H240.126V194.17C242.695 194.17 244.462 192.352 244.462 189.67C244.462 186.983 242.695 185.159 240.126 185.159V182.364H238.064V185.159C235.496 185.159 233.729 186.983 233.729 189.67C233.729 192.352 235.496 194.17 238.064 194.17V196.966ZM238.064 192.511C236.609 192.511 235.831 191.227 235.831 189.67C235.831 188.114 236.598 186.818 238.064 186.818V192.511ZM240.126 192.511V186.818C241.592 186.818 242.354 188.114 242.354 189.67C242.354 191.227 241.592 192.511 240.126 192.511ZM250.004 194.17C252.561 194.17 254.186 192.369 254.186 189.67C254.186 186.966 252.561 185.159 250.004 185.159C247.447 185.159 245.822 186.966 245.822 189.67C245.822 192.369 247.447 194.17 250.004 194.17ZM250.016 192.523C248.601 192.523 247.908 191.261 247.908 189.665C247.908 188.068 248.601 186.79 250.016 186.79C251.408 186.79 252.101 188.068 252.101 189.665C252.101 191.261 251.408 192.523 250.016 192.523ZM257.915 185.273H255.932V194H257.915V190.472H261.295V194H263.273V185.273H261.295V188.784H257.915V185.273ZM266.32 197.273C267.922 197.273 268.848 196.449 269.342 195.057L272.848 185.284L270.649 185.273L268.632 191.864H268.541L266.53 185.273H264.348L267.513 194.182L267.337 194.653C266.956 195.648 266.354 195.716 265.456 195.455L264.979 197.057C265.257 197.17 265.757 197.273 266.32 197.273Z" fill="white"/>
<path d="M26.5071 204.736C33.8256 204.749 38.3718 199.506 38.3849 190.598C38.3981 181.742 33.8256 176.723 26.5071 176.723C19.1754 176.723 14.6555 181.716 14.6293 190.598C14.603 199.467 19.1754 204.723 26.5071 204.736ZM26.5071 198.797C23.9844 198.797 22.1712 196.261 22.1974 190.598C22.2237 185.066 23.9844 182.609 26.5071 182.609C29.0298 182.609 30.8036 185.066 30.8168 190.598C30.8299 196.261 29.0298 198.797 26.5071 198.797ZM52.3256 204.368C58.9084 204.368 63.5465 201.017 63.5202 196.274C63.5465 192.976 61.3391 190.651 57.0032 190.178V189.967C60.2092 189.626 62.5479 187.563 62.5217 184.554C62.5479 180.021 58.3434 176.723 52.3782 176.723C46.2816 176.723 41.9457 180.205 41.9194 185.132H48.9094C48.9357 183.503 50.3679 182.347 52.3782 182.347C54.2177 182.347 55.5053 183.463 55.479 185.027C55.5053 186.656 53.9812 187.812 51.8001 187.812H49.0671V192.858H51.8001C54.1651 192.858 55.8207 194.014 55.7944 195.643C55.8207 197.312 54.4016 198.482 52.3782 198.482C50.2759 198.482 48.7781 197.365 48.7518 195.801H41.3938C41.4201 200.82 45.9531 204.368 52.3256 204.368Z" fill="white"/>
<path fill-rule="evenodd" clip-rule="evenodd" d="M521.157 191.476L526.424 196.702L534.817 188.347L532.719 186.265L526.41 192.524L523.255 189.395L521.157 191.476ZM528 201C533.523 201 538 196.523 538 191C538 185.477 533.523 181 528 181C522.477 181 518 185.477 518 191C518 196.523 522.477 201 528 201Z" fill="white"/>
<defs>
<linearGradient id="paint0_linear_115_2118" x1="287" y1="0" x2="287" y2="228" gradientUnits="userSpaceOnUse">
<stop stop-color="#EB00FF"/>
<stop offset="1" stop-color="#0003FF"/>
</linearGradient>
</defs>
</svg>
