<svg width="574" height="313" viewBox="0 0 574 313" fill="none" xmlns="http://www.w3.org/2000/svg">
<path fill-rule="evenodd" clip-rule="evenodd" d="M0 5C0 2.23858 2.23858 0 5 0H569C571.761 0 574 2.23858 574 5V55C574 57.7614 571.761 60 569 60H5C2.23858 60 0 57.7614 0 55V5ZM0 131C0 128.239 2.23858 126 5 126H569C571.761 126 574 128.239 574 131V181C574 183.761 571.761 186 569 186H5C2.23858 186 0 183.761 0 181V131ZM0 194C0 191.239 2.23858 189 5 189H569C571.761 189 574 191.239 574 194V244C574 246.761 571.761 249 569 249H5C2.23858 249 0 246.761 0 244V194ZM5 253C2.23858 253 0 255.239 0 258V308C0 310.761 2.23858 313 5 313H569C571.761 313 574 310.761 574 308V258C574 255.239 571.761 253 569 253H5ZM5 63C2.23858 63 0 65.2386 0 68V118C0 120.761 2.23858 123 5 123H569C571.761 123 574 120.761 574 118V68C574 65.2386 571.761 63 569 63H5Z" fill="url(#paint0_linear_115_2119)" fill-opacity="0.19"/>
<path d="M102.631 25.3636H95.1477V37H97.2557V27.1307H102.631V25.3636ZM103.416 40.2727H105.473V35.625H105.558C105.882 36.2614 106.558 37.1534 108.058 37.1534C110.115 37.1534 111.655 35.5227 111.655 32.6477C111.655 29.7386 110.07 28.1591 108.053 28.1591C106.513 28.1591 105.871 29.0852 105.558 29.7159H105.439V28.2727H103.416V40.2727ZM105.433 32.6364C105.433 30.9432 106.161 29.8466 107.484 29.8466C108.854 29.8466 109.558 31.0114 109.558 32.6364C109.558 34.2727 108.842 35.4659 107.484 35.4659C106.172 35.4659 105.433 34.3295 105.433 32.6364ZM115.928 37.1761C117.297 37.1761 118.115 36.5341 118.49 35.8011H118.558V37H120.536V31.1591C120.536 28.8523 118.655 28.1591 116.99 28.1591C115.155 28.1591 113.746 28.9773 113.291 30.5682L115.212 30.8409C115.416 30.2443 115.996 29.733 117.001 29.733C117.956 29.733 118.479 30.2216 118.479 31.0795V31.1136C118.479 31.7045 117.859 31.733 116.32 31.8977C114.626 32.0795 113.007 32.5852 113.007 34.5511C113.007 36.267 114.263 37.1761 115.928 37.1761ZM116.462 35.6648C115.604 35.6648 114.99 35.2727 114.99 34.517C114.99 33.7273 115.678 33.3977 116.598 33.267C117.138 33.1932 118.217 33.0568 118.484 32.8409V33.8693C118.484 34.8409 117.7 35.6648 116.462 35.6648ZM126.564 39.9659H128.626V37.1705C131.195 37.1705 132.962 35.3523 132.962 32.6705C132.962 29.983 131.195 28.1591 128.626 28.1591V25.3636H126.564V28.1591C123.996 28.1591 122.229 29.983 122.229 32.6705C122.229 35.3523 123.996 37.1705 126.564 37.1705V39.9659ZM126.564 35.5114C125.109 35.5114 124.331 34.2273 124.331 32.6705C124.331 31.1136 125.098 29.8182 126.564 29.8182V35.5114ZM128.626 35.5114V29.8182C130.092 29.8182 130.854 31.1136 130.854 32.6705C130.854 34.2273 130.092 35.5114 128.626 35.5114ZM136.68 34.2159V28.2727H134.697V37H136.817L140.3 31.0511V37H142.288V28.2727H140.175L136.68 34.2159ZM144.401 37H146.457V33.7102H147.463L149.855 37H152.344L149.077 32.5568L152.31 28.2727H149.832L147.207 31.7955H146.457V28.2727H144.401V37ZM155.493 34.2159V28.2727H153.51V37H155.629L159.112 31.0511V37H161.101V28.2727H158.987L155.493 34.2159Z" fill="white"/>
<path d="M26.5071 43.7358C33.8256 43.7489 38.3718 38.5064 38.3849 29.598C38.3981 20.7422 33.8256 15.723 26.5071 15.723C19.1754 15.723 14.6555 20.7159 14.6293 29.598C14.603 38.467 19.1754 43.7227 26.5071 43.7358ZM26.5071 37.7969C23.9844 37.7969 22.1712 35.261 22.1974 29.598C22.2237 24.0664 23.9844 21.6094 26.5071 21.6094C29.0298 21.6094 30.8036 24.0664 30.8168 29.598C30.8299 35.261 29.0298 37.7969 26.5071 37.7969ZM55.006 16.0909H48.2788L41.6566 20.1378V26.3395L47.543 22.8182H47.7006V43H55.006V16.0909Z" fill="white"/>
<path d="M105.108 94.2898C104.75 91.7045 102.761 90.2045 100.182 90.2045C97.142 90.2045 94.8523 92.4205 94.8523 96.1818C94.8523 99.9375 97.1136 102.159 100.182 102.159C102.949 102.159 104.784 100.369 105.108 98.1477L102.983 98.1364C102.716 99.5 101.602 100.267 100.21 100.267C98.3239 100.267 96.9716 98.8523 96.9716 96.1818C96.9716 93.5568 98.3125 92.0966 100.216 92.0966C101.631 92.0966 102.739 92.8977 102.983 94.2898H105.108ZM106.47 94.9602H109.294V102H111.283V94.9602H114.107V93.2727H106.47V94.9602ZM115.744 105.273H117.801V100.625H117.886C118.21 101.261 118.886 102.153 120.386 102.153C122.443 102.153 123.983 100.523 123.983 97.6477C123.983 94.7386 122.398 93.1591 120.381 93.1591C118.841 93.1591 118.199 94.0852 117.886 94.7159H117.767V93.2727H115.744V105.273ZM117.761 97.6364C117.761 95.9432 118.489 94.8466 119.812 94.8466C121.182 94.8466 121.886 96.0114 121.886 97.6364C121.886 99.2727 121.17 100.466 119.812 100.466C118.5 100.466 117.761 99.3295 117.761 97.6364ZM128.256 102.176C129.625 102.176 130.443 101.534 130.818 100.801H130.886V102H132.864V96.1591C132.864 93.8523 130.983 93.1591 129.318 93.1591C127.483 93.1591 126.074 93.9773 125.619 95.5682L127.54 95.8409C127.744 95.2443 128.324 94.733 129.33 94.733C130.284 94.733 130.807 95.2216 130.807 96.0795V96.1136C130.807 96.7045 130.188 96.733 128.648 96.8977C126.955 97.0795 125.335 97.5852 125.335 99.5511C125.335 101.267 126.591 102.176 128.256 102.176ZM128.79 100.665C127.932 100.665 127.318 100.273 127.318 99.517C127.318 98.7273 128.006 98.3977 128.926 98.267C129.466 98.1932 130.545 98.0568 130.812 97.8409V98.8693C130.812 99.8409 130.028 100.665 128.79 100.665ZM133.955 94.9602H136.778V102H138.767V94.9602H141.591V93.2727H133.955V94.9602ZM146.733 102.17C148.767 102.17 150.165 101.176 150.528 99.6591L148.608 99.4432C148.33 100.182 147.648 100.568 146.761 100.568C145.432 100.568 144.551 99.6932 144.534 98.1989H150.614V97.5682C150.614 94.5057 148.773 93.1591 146.625 93.1591C144.125 93.1591 142.494 94.9943 142.494 97.6875C142.494 100.426 144.102 102.17 146.733 102.17ZM144.54 96.8125C144.602 95.6989 145.426 94.7614 146.653 94.7614C147.835 94.7614 148.631 95.625 148.642 96.8125H144.54ZM158.126 93.2727H152.354V102H154.365V94.9602H158.126V93.2727ZM161.759 99.2159V93.2727H159.776V102H161.895L165.378 96.0511V102H167.366V93.2727H165.253L161.759 99.2159ZM171.462 99.2159V93.2727H169.479V102H171.598L175.081 96.0511V102H177.07V93.2727H174.956L171.462 99.2159Z" fill="white"/>
<path d="M26.5071 106.736C33.8256 106.749 38.3718 101.506 38.3849 92.598C38.3981 83.7422 33.8256 78.723 26.5071 78.723C19.1754 78.723 14.6555 83.7159 14.6293 92.598C14.603 101.467 19.1754 106.723 26.5071 106.736ZM26.5071 100.797C23.9844 100.797 22.1712 98.261 22.1974 92.598C22.2237 87.0664 23.9844 84.6094 26.5071 84.6094C29.0298 84.6094 30.8036 87.0664 30.8168 92.598C30.8299 98.261 29.0298 100.797 26.5071 100.797ZM41.8143 106H62.4691V100.166H51.9577V100.009L54.4805 97.9062C60.6165 92.7951 62.18 90.141 62.18 87.027C62.18 82.0078 58.0675 78.723 51.6161 78.723C45.3487 78.723 41.2756 82.2049 41.2887 87.8679H48.2262C48.2131 85.608 49.5927 84.3466 51.6161 84.3466C53.6264 84.3466 55.0586 85.5948 55.0586 87.6577C55.0586 89.5629 53.8366 90.7979 51.8526 92.4403L41.8143 100.744V106Z" fill="white"/>
<path d="M95.142 149.364V161H97.017L102.5 153.074H102.597V161H104.705V149.364H102.818L97.3409 157.295H97.2386V149.364H95.142ZM108.899 152.273H106.916V161H108.899V157.472H112.28V161H114.257V152.273H112.28V155.784H108.899V152.273ZM120.145 161.17C122.338 161.17 123.736 159.869 123.884 158.017H121.918C121.741 158.955 121.065 159.494 120.162 159.494C118.878 159.494 118.048 158.42 118.048 156.636C118.048 154.875 118.895 153.818 120.162 153.818C121.151 153.818 121.759 154.455 121.918 155.295H123.884C123.741 153.403 122.264 152.159 120.134 152.159C117.577 152.159 115.963 154.006 115.963 156.67C115.963 159.312 117.537 161.17 120.145 161.17ZM124.955 153.96H127.778V161H129.767V153.96H132.591V152.273H124.955V153.96ZM134.229 164.273H136.286V159.625H136.371C136.695 160.261 137.371 161.153 138.871 161.153C140.928 161.153 142.467 159.523 142.467 156.648C142.467 153.739 140.882 152.159 138.865 152.159C137.325 152.159 136.683 153.085 136.371 153.716H136.251V152.273H134.229V164.273ZM136.246 156.636C136.246 154.943 136.973 153.847 138.297 153.847C139.666 153.847 140.371 155.011 140.371 156.636C140.371 158.273 139.655 159.466 138.297 159.466C136.984 159.466 136.246 158.33 136.246 156.636ZM145.21 164.273C146.812 164.273 147.739 163.449 148.233 162.057L151.739 152.284L149.54 152.273L147.523 158.864H147.432L145.42 152.273H143.239L146.403 161.182L146.227 161.653C145.847 162.648 145.244 162.716 144.347 162.455L143.869 164.057C144.148 164.17 144.648 164.273 145.21 164.273ZM158.189 158.608L155.666 152.273H153.166V161H155.149V155.119L157.473 161H158.911L161.314 155.057V161H163.28V152.273H160.78L158.189 158.608ZM169.217 161.17C171.251 161.17 172.649 160.176 173.013 158.659L171.092 158.443C170.814 159.182 170.132 159.568 169.246 159.568C167.916 159.568 167.036 158.693 167.018 157.199H173.098V156.568C173.098 153.506 171.257 152.159 169.109 152.159C166.609 152.159 164.979 153.994 164.979 156.688C164.979 159.426 166.587 161.17 169.217 161.17ZM167.024 155.812C167.087 154.699 167.911 153.761 169.138 153.761C170.32 153.761 171.115 154.625 171.126 155.812H167.024ZM176.821 152.273H174.838V161H176.821V157.472H180.202V161H182.179V152.273H180.202V155.784H176.821V152.273ZM183.283 153.96H186.107V161H188.095V153.96H190.919V152.273H183.283V153.96ZM194.54 155.114V152.273H192.557V161H196.523C198.744 161 200.023 159.773 200.028 158.057C200.023 156.295 198.744 155.114 196.523 155.114H194.54ZM201.114 161H203.17V152.273H201.114V161ZM194.54 156.801H196.523C197.415 156.801 198.057 157.33 198.057 158.085C198.057 158.807 197.415 159.312 196.523 159.312H194.54V156.801Z" fill="white"/>
<path d="M95.142 212.364V224H97.017L102.5 216.074H102.597V224H104.705V212.364H102.818L97.3409 220.295H97.2386V212.364H95.142ZM108.899 215.273H106.916V224H108.899V220.472H112.28V224H114.257V215.273H112.28V218.784H108.899V215.273ZM115.565 226.534H117.588V224H123.298V226.534H125.287V222.307H123.935V215.273H117.628L117.378 218.33C117.213 220.284 116.997 221.733 116.259 222.307H115.565V226.534ZM118.372 222.307C118.923 221.494 119.128 220.176 119.276 218.33L119.412 216.932H121.969V222.307H118.372ZM128.805 221.216V215.273H126.822V224H128.942L132.425 218.051V224H134.413V215.273H132.3L128.805 221.216ZM136.526 224H138.582V220.71H139.588L141.98 224H144.469L141.202 219.557L144.435 215.273H141.957L139.332 218.795H138.582V215.273H136.526V224ZM148.146 224.176C149.516 224.176 150.334 223.534 150.709 222.801H150.777V224H152.754V218.159C152.754 215.852 150.874 215.159 149.209 215.159C147.374 215.159 145.964 215.977 145.51 217.568L147.43 217.841C147.635 217.244 148.214 216.733 149.22 216.733C150.175 216.733 150.697 217.222 150.697 218.08V218.114C150.697 218.705 150.078 218.733 148.538 218.898C146.845 219.08 145.226 219.585 145.226 221.551C145.226 223.267 146.482 224.176 148.146 224.176ZM148.68 222.665C147.822 222.665 147.209 222.273 147.209 221.517C147.209 220.727 147.896 220.398 148.817 220.267C149.357 220.193 150.436 220.057 150.703 219.841V220.869C150.703 221.841 149.919 222.665 148.68 222.665ZM153.845 216.96H156.669V224H158.658V216.96H161.482V215.273H153.845V216.96ZM166.567 224.17C169.124 224.17 170.749 222.369 170.749 219.67C170.749 216.966 169.124 215.159 166.567 215.159C164.01 215.159 162.385 216.966 162.385 219.67C162.385 222.369 164.01 224.17 166.567 224.17ZM166.578 222.523C165.163 222.523 164.47 221.261 164.47 219.665C164.47 218.068 165.163 216.79 166.578 216.79C167.97 216.79 168.663 218.068 168.663 219.665C168.663 221.261 167.97 222.523 166.578 222.523ZM172.494 227.273H174.551V222.625H174.636C174.96 223.261 175.636 224.153 177.136 224.153C179.193 224.153 180.733 222.523 180.733 219.648C180.733 216.739 179.148 215.159 177.131 215.159C175.591 215.159 174.949 216.085 174.636 216.716H174.517V215.273H172.494V227.273ZM174.511 219.636C174.511 217.943 175.239 216.847 176.562 216.847C177.932 216.847 178.636 218.011 178.636 219.636C178.636 221.273 177.92 222.466 176.562 222.466C175.25 222.466 174.511 221.33 174.511 219.636ZM184.477 218.114V215.273H182.494V224H186.46C188.682 224 189.96 222.773 189.966 221.057C189.96 219.295 188.682 218.114 186.46 218.114H184.477ZM191.051 224H193.108V215.273H191.051V224ZM184.477 219.801H186.46C187.352 219.801 187.994 220.33 187.994 221.085C187.994 221.807 187.352 222.312 186.46 222.312H184.477V219.801Z" fill="white"/>
<path d="M94.6364 278.131H98.233V288H100.324V278.131H103.92V276.364H94.6364V278.131ZM108.217 288.17C110.251 288.17 111.649 287.176 112.013 285.659L110.092 285.443C109.814 286.182 109.132 286.568 108.246 286.568C106.916 286.568 106.036 285.693 106.018 284.199H112.098V283.568C112.098 280.506 110.257 279.159 108.109 279.159C105.609 279.159 103.979 280.994 103.979 283.688C103.979 286.426 105.587 288.17 108.217 288.17ZM106.024 282.812C106.087 281.699 106.911 280.761 108.138 280.761C109.32 280.761 110.115 281.625 110.126 282.812H106.024ZM115.348 279.273H113.166L115.757 283.636L113.098 288H115.28L117.109 284.858L118.956 288H121.121L118.445 283.636L121.075 279.273H118.899L117.109 282.494L115.348 279.273ZM123.933 288.125C124.604 288.125 125.178 287.568 125.183 286.875C125.178 286.193 124.604 285.636 123.933 285.636C123.24 285.636 122.678 286.193 122.683 286.875C122.678 287.568 123.24 288.125 123.933 288.125ZM133.428 288.176C134.797 288.176 135.615 287.534 135.99 286.801H136.058V288H138.036V282.159C138.036 279.852 136.155 279.159 134.49 279.159C132.655 279.159 131.246 279.977 130.791 281.568L132.712 281.841C132.916 281.244 133.496 280.733 134.501 280.733C135.456 280.733 135.979 281.222 135.979 282.08V282.114C135.979 282.705 135.359 282.733 133.82 282.898C132.126 283.08 130.507 283.585 130.507 285.551C130.507 287.267 131.763 288.176 133.428 288.176ZM133.962 286.665C133.104 286.665 132.49 286.273 132.49 285.517C132.49 284.727 133.178 284.398 134.098 284.267C134.638 284.193 135.717 284.057 135.984 283.841V284.869C135.984 285.841 135.2 286.665 133.962 286.665ZM142.087 279.273H140.104V288H142.087V284.472H145.467V288H147.445V279.273H145.467V282.784H142.087V279.273ZM152.037 288.176C153.406 288.176 154.224 287.534 154.599 286.801H154.668V288H156.645V282.159C156.645 279.852 154.764 279.159 153.099 279.159C151.264 279.159 149.855 279.977 149.401 281.568L151.321 281.841C151.526 281.244 152.105 280.733 153.111 280.733C154.065 280.733 154.588 281.222 154.588 282.08V282.114C154.588 282.705 153.969 282.733 152.429 282.898C150.736 283.08 149.116 283.585 149.116 285.551C149.116 287.267 150.372 288.176 152.037 288.176ZM152.571 286.665C151.713 286.665 151.099 286.273 151.099 285.517C151.099 284.727 151.787 284.398 152.707 284.267C153.247 284.193 154.327 284.057 154.594 283.841V284.869C154.594 285.841 153.81 286.665 152.571 286.665ZM158.111 288H158.747C160.622 288 161.469 286.682 161.605 283.773L161.741 280.96H164.247V288H166.236V279.273H159.872L159.719 283.136C159.622 285.585 159.304 286.307 158.401 286.307H158.099L158.111 288ZM170.29 285.216V279.273H168.307V288H170.426L173.909 282.051V288H175.898V279.273H173.784L170.29 285.216ZM177.527 285.608C177.578 287.227 179.061 288.17 181.078 288.17C183.146 288.17 184.641 287.188 184.641 285.58C184.641 284.403 183.839 283.597 182.805 283.534V283.443C183.805 283.176 184.442 282.551 184.442 281.608C184.442 280.136 183.169 279.159 181.124 279.159C179.214 279.159 177.777 280.148 177.749 281.67H179.777C179.8 281.085 180.402 280.676 181.22 280.676C182.038 280.676 182.533 281.114 182.533 281.761C182.533 282.358 182.078 282.801 181.226 282.801H179.891V284.261H181.226C182.084 284.261 182.646 284.744 182.646 285.449C182.646 286.244 181.947 286.631 181.067 286.631C180.197 286.631 179.607 286.256 179.567 285.608H177.527Z" fill="white"/>
<path d="M26.5071 169.736C33.8256 169.749 38.3718 164.506 38.3849 155.598C38.3981 146.742 33.8256 141.723 26.5071 141.723C19.1754 141.723 14.6555 146.716 14.6293 155.598C14.603 164.467 19.1754 169.723 26.5071 169.736ZM26.5071 163.797C23.9844 163.797 22.1712 161.261 22.1974 155.598C22.2237 150.066 23.9844 147.609 26.5071 147.609C29.0298 147.609 30.8036 150.066 30.8168 155.598C30.8299 161.261 29.0298 163.797 26.5071 163.797ZM52.3256 169.368C58.9084 169.368 63.5465 166.017 63.5202 161.274C63.5465 157.976 61.3391 155.651 57.0032 155.178V154.967C60.2092 154.626 62.5479 152.563 62.5217 149.554C62.5479 145.021 58.3434 141.723 52.3782 141.723C46.2816 141.723 41.9457 145.205 41.9194 150.132H48.9094C48.9357 148.503 50.3679 147.347 52.3782 147.347C54.2177 147.347 55.5053 148.463 55.479 150.027C55.5053 151.656 53.9812 152.812 51.8001 152.812H49.0671V157.858H51.8001C54.1651 157.858 55.8207 159.014 55.7944 160.643C55.8207 162.312 54.4016 163.482 52.3782 163.482C50.2759 163.482 48.7781 162.365 48.7518 160.801H41.3938C41.4201 165.82 45.9531 169.368 52.3256 169.368Z" fill="white"/>
<path d="M26.5071 232.736C33.8256 232.749 38.3718 227.506 38.3849 218.598C38.3981 209.742 33.8256 204.723 26.5071 204.723C19.1754 204.723 14.6555 209.716 14.6293 218.598C14.603 227.467 19.1754 232.723 26.5071 232.736ZM26.5071 226.797C23.9844 226.797 22.1712 224.261 22.1974 218.598C22.2237 213.066 23.9844 210.609 26.5071 210.609C29.0298 210.609 30.8036 213.066 30.8168 218.598C30.8299 224.261 29.0298 226.797 26.5071 226.797ZM41.5515 227.795H54.6381V232H61.6282V227.795H64.7291V222.119H61.6282V205.091H52.3782L41.5515 222.119V227.795ZM54.7958 222.119H48.7518V221.909L54.5856 212.659H54.7958V222.119Z" fill="white"/>
<path d="M26.5071 296.736C33.8256 296.749 38.3718 291.506 38.3849 282.598C38.3981 273.742 33.8256 268.723 26.5071 268.723C19.1754 268.723 14.6555 273.716 14.6293 282.598C14.603 291.467 19.1754 296.723 26.5071 296.736ZM26.5071 290.797C23.9844 290.797 22.1712 288.261 22.1974 282.598C22.2237 277.066 23.9844 274.609 26.5071 274.609C29.0298 274.609 30.8036 277.066 30.8168 282.598C30.8299 288.261 29.0298 290.797 26.5071 290.797ZM52.5884 296.368C59.1449 296.368 63.4283 292.387 63.4151 286.75C63.4283 281.639 59.8544 278.026 55.0586 278.026C52.3256 278.026 50.1183 279.234 49.2773 280.864H49.1197L49.6452 274.925H61.7333V269.091H43.6538L42.6026 283.912L49.0146 285.173C49.6321 283.859 51.038 283.071 52.5884 283.071C54.8221 283.071 56.3857 284.608 56.3725 286.96C56.3857 289.312 54.8221 290.849 52.5884 290.849C50.657 290.849 49.0671 289.667 49.0146 287.801H41.9194C41.9588 292.82 46.3867 296.368 52.5884 296.368Z" fill="white"/>
<path fill-rule="evenodd" clip-rule="evenodd" d="M521.157 30.4763L526.424 35.702L534.817 27.3467L532.719 25.2653L526.41 31.5244L523.255 28.3948L521.157 30.4763ZM528 40C533.523 40 538 35.5228 538 30C538 24.4772 533.523 20 528 20C522.477 20 518 24.4772 518 30C518 35.5228 522.477 40 528 40Z" fill="white"/>
<path fill-rule="evenodd" clip-rule="evenodd" d="M521.157 93.4763L526.424 98.702L534.817 90.3467L532.719 88.2653L526.41 94.5244L523.255 91.3948L521.157 93.4763ZM528 103C533.523 103 538 98.5228 538 93C538 87.4772 533.523 83 528 83C522.477 83 518 87.4772 518 93C518 98.5228 522.477 103 528 103Z" fill="white"/>
<path fill-rule="evenodd" clip-rule="evenodd" d="M521.157 156.476L526.424 161.702L534.817 153.347L532.719 151.265L526.41 157.524L523.255 154.395L521.157 156.476ZM528 166C533.523 166 538 161.523 538 156C538 150.477 533.523 146 528 146C522.477 146 518 150.477 518 156C518 161.523 522.477 166 528 166Z" fill="white"/>
<path fill-rule="evenodd" clip-rule="evenodd" d="M521.157 219.476L526.424 224.702L534.817 216.347L532.719 214.265L526.41 220.524L523.255 217.395L521.157 219.476ZM528 229C533.523 229 538 224.523 538 219C538 213.477 533.523 209 528 209C522.477 209 518 213.477 518 219C518 224.523 522.477 229 528 229Z" fill="white"/>
<path fill-rule="evenodd" clip-rule="evenodd" d="M521.157 283.476L526.424 288.702L534.817 280.347L532.719 278.265L526.41 284.524L523.255 281.395L521.157 283.476ZM528 293C533.523 293 538 288.523 538 283C538 277.477 533.523 273 528 273C522.477 273 518 277.477 518 283C518 288.523 522.477 293 528 293Z" fill="white"/>
<defs>
<linearGradient id="paint0_linear_115_2119" x1="287" y1="0" x2="287" y2="313" gradientUnits="userSpaceOnUse">
<stop stop-color="#EB00FF"/>
<stop offset="1" stop-color="#0003FF"/>
</linearGradient>
</defs>
</svg>
