<svg width="574" height="228" viewBox="0 0 574 228" fill="none" xmlns="http://www.w3.org/2000/svg">
<path fill-rule="evenodd" clip-rule="evenodd" d="M5 0C2.23858 0 0 2.23858 0 5V69C0 71.7614 2.23858 74 5 74H281C283.761 74 286 71.7614 286 69V5C286 2.23858 283.761 0 281 0H5ZM5 154C2.23858 154 0 156.239 0 159V223C0 225.761 2.23858 228 5 228H281C283.761 228 286 225.761 286 223V159C286 156.239 283.761 154 281 154H5ZM289 5C289 2.23858 291.239 0 294 0H569C571.761 0 574 2.23858 574 5V69C574 71.7614 571.761 74 569 74H294C291.239 74 289 71.7614 289 69V5ZM5 77C2.23858 77 0 79.2386 0 82V146C0 148.761 2.23858 151 5 151H281C283.761 151 286 148.761 286 146V82C286 79.2386 283.761 77 281 77H5ZM289 82C289 79.2386 291.239 77 294 77H569C571.761 77 574 79.2386 574 82V146C574 148.761 571.761 151 569 151H294C291.239 151 289 148.761 289 146V82ZM294 154C291.239 154 289 156.239 289 159V223C289 225.761 291.239 228 294 228H569C571.761 228 574 225.761 574 223V159C574 156.239 571.761 154 569 154H294Z" fill="url(#paint0_linear_115_2114)" fill-opacity="0.19"/>
<path d="M94.392 43H94.9602C97.6818 43 98.4375 41.1648 98.6023 37.3409L98.7841 33.0966H102.381V43H104.443V31.3636H96.8182L96.625 36.6875C96.5 39.9886 96.0568 41.1591 94.7216 41.233L94.392 41.25V43ZM108.634 40.2159V34.2727H106.651V43H108.77L112.253 37.0511V43H114.241V34.2727H112.128L108.634 40.2159ZM123.643 34.2727H121.666V38.5341C121.166 38.6591 120.672 38.7273 120.132 38.7273C118.916 38.7273 118.32 38.2955 118.32 37.1705V34.2614H116.354V37.1705C116.354 39.3977 117.803 40.4148 120.132 40.4148C120.643 40.4148 121.178 40.3466 121.666 40.233V43H123.643V34.2727ZM127.696 34.2727H125.713V43H127.696V39.4716H131.077V43H133.054V34.2727H131.077V37.7841H127.696V34.2727ZM137.118 37.1136V34.2727H135.135V43H139.101C141.322 43 142.601 41.7727 142.607 40.0568C142.601 38.2955 141.322 37.1136 139.101 37.1136H137.118ZM143.692 43H145.749V34.2727H143.692V43ZM137.118 38.8011H139.101C139.993 38.8011 140.635 39.3295 140.635 40.0852C140.635 40.8068 139.993 41.3125 139.101 41.3125H137.118V38.8011ZM149.852 40.2159V34.2727H147.869V43H149.989L153.472 37.0511V43H155.46V34.2727H153.347L149.852 40.2159ZM152.784 31.2727C152.778 31.8295 152.46 32.3239 151.659 32.3239C150.847 32.3239 150.54 31.8182 150.54 31.2727H149.011C149.006 32.6023 150.034 33.5 151.659 33.5C153.295 33.5 154.324 32.6023 154.324 31.2727H152.784ZM168.536 31.0455C168.115 31.3636 167.45 31.358 166.547 31.358C166.291 31.358 166.024 31.358 165.734 31.3636C162.729 31.4034 161.183 33.4034 161.183 37.5057V38.2898C161.183 41.483 162.797 43.1705 165.337 43.1705C167.876 43.1705 169.479 41.4773 169.479 38.7841C169.479 36.1705 167.956 34.6648 165.791 34.6648C164.462 34.6648 163.456 35.2386 162.911 36.3068H162.814C163.018 34.1307 163.837 33.1477 165.791 33.1023C167.524 33.0625 168.496 33.0341 169.251 32.375L168.536 31.0455ZM165.348 41.5227C164.058 41.5227 163.268 40.4886 163.268 38.8409C163.286 37.2159 164.064 36.2841 165.337 36.2841C166.609 36.2841 167.393 37.2159 167.393 38.8409C167.393 40.4943 166.615 41.5227 165.348 41.5227ZM171.229 46.2727H173.286V41.625H173.371C173.695 42.2614 174.371 43.1534 175.871 43.1534C177.928 43.1534 179.467 41.5227 179.467 38.6477C179.467 35.7386 177.882 34.1591 175.865 34.1591C174.325 34.1591 173.683 35.0852 173.371 35.7159H173.251V34.2727H171.229V46.2727ZM173.246 38.6364C173.246 36.9432 173.973 35.8466 175.297 35.8466C176.666 35.8466 177.371 37.0114 177.371 38.6364C177.371 40.2727 176.655 41.4659 175.297 41.4659C173.984 41.4659 173.246 40.3295 173.246 38.6364ZM185.092 43.1705C187.126 43.1705 188.524 42.1761 188.888 40.6591L186.967 40.4432C186.689 41.1818 186.007 41.5682 185.121 41.5682C183.791 41.5682 182.911 40.6932 182.893 39.1989H188.973V38.5682C188.973 35.5057 187.132 34.1591 184.984 34.1591C182.484 34.1591 180.854 35.9943 180.854 38.6875C180.854 41.4261 182.462 43.1705 185.092 43.1705ZM182.899 37.8125C182.962 36.6989 183.786 35.7614 185.013 35.7614C186.195 35.7614 186.99 36.625 187.001 37.8125H182.899ZM192.696 34.2727H190.713V43H192.696V39.4716H196.077V43H198.054V34.2727H196.077V37.7841H192.696V34.2727ZM199.362 45.5341H201.385V43H207.095V45.5341H209.084V41.3068H207.732V34.2727H201.425L201.175 37.3295C201.01 39.2841 200.794 40.733 200.055 41.3068H199.362V45.5341ZM202.169 41.3068C202.72 40.4943 202.925 39.1761 203.072 37.3295L203.209 35.9318H205.766V41.3068H202.169Z" fill="white"/>
<path d="M26.5071 50.7358C33.8256 50.7489 38.3718 45.5064 38.3849 36.598C38.3981 27.7422 33.8256 22.723 26.5071 22.723C19.1754 22.723 14.6555 27.7159 14.6293 36.598C14.603 45.467 19.1754 50.7227 26.5071 50.7358ZM26.5071 44.7969C23.9844 44.7969 22.1712 42.261 22.1974 36.598C22.2237 31.0664 23.9844 28.6094 26.5071 28.6094C29.0298 28.6094 30.8036 31.0664 30.8168 36.598C30.8299 42.261 29.0298 44.7969 26.5071 44.7969ZM55.006 23.0909H48.2788L41.6566 27.1378V33.3395L47.543 29.8182H47.7006V50H55.006V23.0909Z" fill="white"/>
<path d="M316.507 50.7358C323.826 50.7489 328.372 45.5064 328.385 36.598C328.398 27.7422 323.826 22.723 316.507 22.723C309.175 22.723 304.656 27.7159 304.629 36.598C304.603 45.467 309.175 50.7227 316.507 50.7358ZM316.507 44.7969C313.984 44.7969 312.171 42.261 312.197 36.598C312.224 31.0664 313.984 28.6094 316.507 28.6094C319.03 28.6094 320.804 31.0664 320.817 36.598C320.83 42.261 319.03 44.7969 316.507 44.7969ZM331.551 45.7955H344.638V50H351.628V45.7955H354.729V40.1193H351.628V23.0909H342.378L331.551 40.1193V45.7955ZM344.796 40.1193H338.752V39.9091L344.586 30.6591H344.796V40.1193Z" fill="white"/>
<path d="M94.392 122H94.9602C97.6818 122 98.4375 120.165 98.6023 116.341L98.7841 112.097H102.381V122H104.443V110.364H96.8182L96.625 115.688C96.5 118.989 96.0568 120.159 94.7216 120.233L94.392 120.25V122ZM108.634 119.216V113.273H106.651V122H108.77L112.253 116.051V122H114.241V113.273H112.128L108.634 119.216ZM115.581 124.534H117.604V122H123.314V124.534H125.303V120.307H123.95V113.273H117.643L117.393 116.33C117.229 118.284 117.013 119.733 116.274 120.307H115.581V124.534ZM118.388 120.307C118.939 119.494 119.143 118.176 119.291 116.33L119.428 114.932H121.984V120.307H118.388ZM130.702 122.17C132.736 122.17 134.134 121.176 134.497 119.659L132.577 119.443C132.298 120.182 131.616 120.568 130.73 120.568C129.401 120.568 128.52 119.693 128.503 118.199H134.582V117.568C134.582 114.506 132.741 113.159 130.594 113.159C128.094 113.159 126.463 114.994 126.463 117.688C126.463 120.426 128.071 122.17 130.702 122.17ZM128.509 116.812C128.571 115.699 129.395 114.761 130.622 114.761C131.804 114.761 132.599 115.625 132.611 116.812H128.509ZM136.322 125.273H138.379V120.625H138.464C138.788 121.261 139.464 122.153 140.964 122.153C143.021 122.153 144.561 120.523 144.561 117.648C144.561 114.739 142.976 113.159 140.959 113.159C139.419 113.159 138.777 114.085 138.464 114.716H138.345V113.273H136.322V125.273ZM138.339 117.636C138.339 115.943 139.067 114.847 140.391 114.847C141.76 114.847 142.464 116.011 142.464 117.636C142.464 119.273 141.749 120.466 140.391 120.466C139.078 120.466 138.339 119.33 138.339 117.636ZM150.129 122.17C152.322 122.17 153.72 120.869 153.868 119.017H151.902C151.726 119.955 151.05 120.494 150.146 120.494C148.862 120.494 148.033 119.42 148.033 117.636C148.033 115.875 148.879 114.818 150.146 114.818C151.135 114.818 151.743 115.455 151.902 116.295H153.868C153.726 114.403 152.249 113.159 150.118 113.159C147.561 113.159 145.947 115.006 145.947 117.67C145.947 120.312 147.521 122.17 150.129 122.17ZM154.939 114.96H157.763V122H159.751V114.96H162.575V113.273H154.939V114.96ZM164.213 122H168.44C170.486 122 171.656 121.074 171.656 119.631C171.656 118.409 170.707 117.557 169.338 117.438C170.503 117.222 171.23 116.602 171.23 115.619C171.23 114.148 169.94 113.273 167.878 113.273H164.213V122ZM166.139 120.381V118.216H168.44C169.196 118.216 169.656 118.653 169.656 119.375C169.656 120 169.196 120.381 168.44 120.381H166.139ZM166.139 116.886V114.92H167.878C168.736 114.92 169.259 115.284 169.259 115.881C169.259 116.506 168.753 116.886 167.918 116.886H166.139ZM177.161 122.17C179.717 122.17 181.342 120.369 181.342 117.67C181.342 114.966 179.717 113.159 177.161 113.159C174.604 113.159 172.979 114.966 172.979 117.67C172.979 120.369 174.604 122.17 177.161 122.17ZM177.172 120.523C175.757 120.523 175.064 119.261 175.064 117.665C175.064 116.068 175.757 114.79 177.172 114.79C178.564 114.79 179.257 116.068 179.257 117.665C179.257 119.261 178.564 120.523 177.172 120.523Z" fill="white"/>
<path d="M26.5071 127.736C33.8256 127.749 38.3718 122.506 38.3849 113.598C38.3981 104.742 33.8256 99.723 26.5071 99.723C19.1754 99.723 14.6555 104.716 14.6293 113.598C14.603 122.467 19.1754 127.723 26.5071 127.736ZM26.5071 121.797C23.9844 121.797 22.1712 119.261 22.1974 113.598C22.2237 108.066 23.9844 105.609 26.5071 105.609C29.0298 105.609 30.8036 108.066 30.8168 113.598C30.8299 119.261 29.0298 121.797 26.5071 121.797ZM41.8143 127H62.4691V121.166H51.9577V121.009L54.4805 118.906C60.6165 113.795 62.18 111.141 62.18 108.027C62.18 103.008 58.0675 99.723 51.6161 99.723C45.3487 99.723 41.2756 103.205 41.2887 108.868H48.2262C48.2131 106.608 49.5927 105.347 51.6161 105.347C53.6264 105.347 55.0586 106.595 55.0586 108.658C55.0586 110.563 53.8366 111.798 51.8526 113.44L41.8143 121.744V127Z" fill="white"/>
<path d="M316.507 127.736C323.826 127.749 328.372 122.506 328.385 113.598C328.398 104.742 323.826 99.723 316.507 99.723C309.175 99.723 304.656 104.716 304.629 113.598C304.603 122.467 309.175 127.723 316.507 127.736ZM316.507 121.797C313.984 121.797 312.171 119.261 312.197 113.598C312.224 108.066 313.984 105.609 316.507 105.609C319.03 105.609 320.804 108.066 320.817 113.598C320.83 119.261 319.03 121.797 316.507 121.797ZM342.588 127.368C349.145 127.368 353.428 123.387 353.415 117.75C353.428 112.639 349.854 109.026 345.059 109.026C342.326 109.026 340.118 110.234 339.277 111.864H339.12L339.645 105.925H351.733V100.091H333.654L332.603 114.912L339.015 116.173C339.632 114.859 341.038 114.071 342.588 114.071C344.822 114.071 346.386 115.608 346.373 117.96C346.386 120.312 344.822 121.849 342.588 121.849C340.657 121.849 339.067 120.667 339.015 118.801H331.919C331.959 123.82 336.387 127.368 342.588 127.368Z" fill="white"/>
<path d="M95.1477 191H97.2557V187.068H99.483C102.17 187.068 103.614 185.455 103.614 183.216C103.614 180.994 102.188 179.364 99.5114 179.364H95.1477V191ZM97.2557 185.335V181.125H99.1875C100.767 181.125 101.466 181.977 101.466 183.216C101.466 184.455 100.767 185.335 99.1989 185.335H97.2557ZM107.709 191.176C109.078 191.176 109.896 190.534 110.271 189.801H110.339V191H112.317V185.159C112.317 182.852 110.436 182.159 108.771 182.159C106.936 182.159 105.527 182.977 105.072 184.568L106.993 184.841C107.197 184.244 107.777 183.733 108.783 183.733C109.737 183.733 110.26 184.222 110.26 185.08V185.114C110.26 185.705 109.641 185.733 108.101 185.898C106.408 186.08 104.788 186.585 104.788 188.551C104.788 190.267 106.044 191.176 107.709 191.176ZM108.243 189.665C107.385 189.665 106.771 189.273 106.771 188.517C106.771 187.727 107.459 187.398 108.379 187.267C108.919 187.193 109.999 187.057 110.266 186.841V187.869C110.266 188.841 109.482 189.665 108.243 189.665ZM121.379 179.045C120.959 179.364 120.294 179.358 119.391 179.358C119.135 179.358 118.868 179.358 118.578 179.364C115.572 179.403 114.027 181.403 114.027 185.506V186.29C114.027 189.483 115.641 191.17 118.18 191.17C120.72 191.17 122.322 189.477 122.322 186.784C122.322 184.17 120.8 182.665 118.635 182.665C117.305 182.665 116.3 183.239 115.754 184.307H115.658C115.862 182.131 116.68 181.148 118.635 181.102C120.368 181.062 121.339 181.034 122.095 180.375L121.379 179.045ZM118.192 189.523C116.902 189.523 116.112 188.489 116.112 186.841C116.129 185.216 116.908 184.284 118.18 184.284C119.453 184.284 120.237 185.216 120.237 186.841C120.237 188.494 119.459 189.523 118.192 189.523ZM127.879 191.17C130.436 191.17 132.061 189.369 132.061 186.67C132.061 183.966 130.436 182.159 127.879 182.159C125.322 182.159 123.697 183.966 123.697 186.67C123.697 189.369 125.322 191.17 127.879 191.17ZM127.891 189.523C126.476 189.523 125.783 188.261 125.783 186.665C125.783 185.068 126.476 183.79 127.891 183.79C129.283 183.79 129.976 185.068 129.976 186.665C129.976 188.261 129.283 189.523 127.891 189.523ZM132.861 183.96H135.685V191H137.673V183.96H140.497V182.273H132.861V183.96ZM144.287 191.176C145.656 191.176 146.474 190.534 146.849 189.801H146.918V191H148.895V185.159C148.895 182.852 147.014 182.159 145.349 182.159C143.514 182.159 142.105 182.977 141.651 184.568L143.571 184.841C143.776 184.244 144.355 183.733 145.361 183.733C146.315 183.733 146.838 184.222 146.838 185.08V185.114C146.838 185.705 146.219 185.733 144.679 185.898C142.986 186.08 141.366 186.585 141.366 188.551C141.366 190.267 142.622 191.176 144.287 191.176ZM144.821 189.665C143.963 189.665 143.349 189.273 143.349 188.517C143.349 187.727 144.037 187.398 144.957 187.267C145.497 187.193 146.577 187.057 146.844 186.841V187.869C146.844 188.841 146.06 189.665 144.821 189.665ZM158.739 191.17C160.932 191.17 162.33 189.869 162.477 188.017H160.511C160.335 188.955 159.659 189.494 158.756 189.494C157.472 189.494 156.642 188.42 156.642 186.636C156.642 184.875 157.489 183.818 158.756 183.818C159.744 183.818 160.352 184.455 160.511 185.295H162.477C162.335 183.403 160.858 182.159 158.727 182.159C156.17 182.159 154.557 184.006 154.557 186.67C154.557 189.312 156.131 191.17 158.739 191.17ZM95.0568 205H97.1136V201.71H98.1193L100.511 205H103L99.733 200.557L102.966 196.273H100.489L97.8636 199.795H97.1136V196.273H95.0568V205ZM107.614 205.17C110.17 205.17 111.795 203.369 111.795 200.67C111.795 197.966 110.17 196.159 107.614 196.159C105.057 196.159 103.432 197.966 103.432 200.67C103.432 203.369 105.057 205.17 107.614 205.17ZM107.625 203.523C106.21 203.523 105.517 202.261 105.517 200.665C105.517 199.068 106.21 197.79 107.625 197.79C109.017 197.79 109.71 199.068 109.71 200.665C109.71 202.261 109.017 203.523 107.625 203.523ZM118.564 202.608L116.041 196.273H113.541V205H115.524V199.119L117.848 205H119.286L121.689 199.057V205H123.655V196.273H121.155L118.564 202.608ZM128.24 205.176C129.609 205.176 130.428 204.534 130.803 203.801H130.871V205H132.848V199.159C132.848 196.852 130.967 196.159 129.303 196.159C127.467 196.159 126.058 196.977 125.604 198.568L127.524 198.841C127.729 198.244 128.308 197.733 129.314 197.733C130.268 197.733 130.791 198.222 130.791 199.08V199.114C130.791 199.705 130.172 199.733 128.632 199.898C126.939 200.08 125.32 200.585 125.32 202.551C125.32 204.267 126.575 205.176 128.24 205.176ZM128.774 203.665C127.916 203.665 127.303 203.273 127.303 202.517C127.303 201.727 127.99 201.398 128.911 201.267C129.45 201.193 130.53 201.057 130.797 200.841V201.869C130.797 202.841 130.013 203.665 128.774 203.665ZM136.899 196.273H134.916V205H136.899V201.472H140.28V205H142.257V196.273H140.28V199.784H136.899V196.273ZM143.565 207.534H145.588V205H151.298V207.534H153.287V203.307H151.935V196.273H145.628L145.378 199.33C145.213 201.284 144.997 202.733 144.259 203.307H143.565V207.534ZM146.372 203.307C146.923 202.494 147.128 201.176 147.276 199.33L147.412 197.932H149.969V203.307H146.372ZM158.629 205.17C161.186 205.17 162.811 203.369 162.811 200.67C162.811 197.966 161.186 196.159 158.629 196.159C156.072 196.159 154.447 197.966 154.447 200.67C154.447 203.369 156.072 205.17 158.629 205.17ZM158.641 203.523C157.226 203.523 156.533 202.261 156.533 200.665C156.533 199.068 157.226 197.79 158.641 197.79C160.033 197.79 160.726 199.068 160.726 200.665C160.726 202.261 160.033 203.523 158.641 203.523ZM166.54 202.216V196.273H164.557V205H166.676L170.159 199.051V205H172.148V196.273H170.034L166.54 202.216ZM169.472 193.273C169.466 193.83 169.148 194.324 168.347 194.324C167.534 194.324 167.227 193.818 167.227 193.273H165.699C165.693 194.602 166.722 195.5 168.347 195.5C169.983 195.5 171.011 194.602 171.011 193.273H169.472Z" fill="white"/>
<path d="M26.5071 204.736C33.8256 204.749 38.3718 199.506 38.3849 190.598C38.3981 181.742 33.8256 176.723 26.5071 176.723C19.1754 176.723 14.6555 181.716 14.6293 190.598C14.603 199.467 19.1754 204.723 26.5071 204.736ZM26.5071 198.797C23.9844 198.797 22.1712 196.261 22.1974 190.598C22.2237 185.066 23.9844 182.609 26.5071 182.609C29.0298 182.609 30.8036 185.066 30.8168 190.598C30.8299 196.261 29.0298 198.797 26.5071 198.797ZM52.3256 204.368C58.9084 204.368 63.5465 201.017 63.5202 196.274C63.5465 192.976 61.3391 190.651 57.0032 190.178V189.967C60.2092 189.626 62.5479 187.563 62.5217 184.554C62.5479 180.021 58.3434 176.723 52.3782 176.723C46.2816 176.723 41.9457 180.205 41.9194 185.132H48.9094C48.9357 183.503 50.3679 182.347 52.3782 182.347C54.2177 182.347 55.5053 183.463 55.479 185.027C55.5053 186.656 53.9812 187.812 51.8001 187.812H49.0671V192.858H51.8001C54.1651 192.858 55.8207 194.014 55.7944 195.643C55.8207 197.312 54.4016 198.482 52.3782 198.482C50.2759 198.482 48.7781 197.365 48.7518 195.801H41.3938C41.4201 200.82 45.9531 204.368 52.3256 204.368Z" fill="white"/>
<path d="M316.507 204.736C323.826 204.749 328.372 199.506 328.385 190.598C328.398 181.742 323.826 176.723 316.507 176.723C309.175 176.723 304.656 181.716 304.629 190.598C304.603 199.467 309.175 204.723 316.507 204.736ZM316.507 198.797C313.984 198.797 312.171 196.261 312.197 190.598C312.224 185.066 313.984 182.609 316.507 182.609C319.03 182.609 320.804 185.066 320.817 190.598C320.83 196.261 319.03 198.797 316.507 198.797ZM343.061 204.368C349.421 204.368 353.862 200.544 353.836 194.75C353.862 189.823 350.564 186.236 345.689 186.236C342.615 186.236 339.829 187.707 338.804 190.178H338.647C338.673 185.828 340.039 182.925 343.114 182.925C344.651 182.925 345.991 183.608 346.32 185.132H353.52C353.06 180.533 349.053 176.723 343.114 176.723C336.058 176.723 331.42 182.136 331.394 190.861C331.368 200.636 336.781 204.368 343.061 204.368ZM343.009 198.849C340.88 198.849 339.304 197.233 339.277 195.013C339.304 192.792 340.88 191.176 343.009 191.176C345.19 191.176 346.767 192.792 346.74 195.013C346.767 197.233 345.19 198.849 343.009 198.849Z" fill="white"/>
<path d="M384.642 33.3636H375.369V45H377.46V35.1136H382.551V45H384.642V33.3636ZM387.072 48.2727H389.129V43.625H389.214C389.538 44.2614 390.214 45.1534 391.714 45.1534C393.771 45.1534 395.311 43.5227 395.311 40.6477C395.311 37.7386 393.726 36.1591 391.709 36.1591C390.169 36.1591 389.527 37.0852 389.214 37.7159H389.095V36.2727H387.072V48.2727ZM389.089 40.6364C389.089 38.9432 389.817 37.8466 391.141 37.8466C392.51 37.8466 393.214 39.0114 393.214 40.6364C393.214 42.2727 392.499 43.4659 391.141 43.4659C389.828 43.4659 389.089 42.3295 389.089 40.6364ZM400.879 45.1705C403.436 45.1705 405.061 43.3693 405.061 40.6705C405.061 37.9659 403.436 36.1591 400.879 36.1591C398.322 36.1591 396.697 37.9659 396.697 40.6705C396.697 43.3693 398.322 45.1705 400.879 45.1705ZM400.891 43.5227C399.476 43.5227 398.783 42.2614 398.783 40.6648C398.783 39.0682 399.476 37.7898 400.891 37.7898C402.283 37.7898 402.976 39.0682 402.976 40.6648C402.976 42.2614 402.283 43.5227 400.891 43.5227ZM406.034 47.5341H408.057V45H413.767V47.5341H415.756V43.3068H414.403V36.2727H408.097L407.847 39.3295C407.682 41.2841 407.466 42.733 406.727 43.3068H406.034V47.5341ZM408.841 43.3068C409.392 42.4943 409.597 41.1761 409.744 39.3295L409.881 37.9318H412.438V43.3068H408.841ZM417.291 45H421.518C423.564 45 424.734 44.0739 424.734 42.6307C424.734 41.4091 423.786 40.5568 422.416 40.4375C423.581 40.2216 424.308 39.6023 424.308 38.6193C424.308 37.1477 423.018 36.2727 420.956 36.2727H417.291V45ZM419.217 43.3807V41.2159H421.518C422.274 41.2159 422.734 41.6534 422.734 42.375C422.734 43 422.274 43.3807 421.518 43.3807H419.217ZM419.217 39.8864V37.9205H420.956C421.814 37.9205 422.337 38.2841 422.337 38.8807C422.337 39.5057 421.831 39.8864 420.996 39.8864H419.217ZM428.415 42.2159V36.2727H426.432V45H428.551L432.034 39.0511V45H434.023V36.2727H431.909L428.415 42.2159ZM435.567 45H437.993L440.487 41.4773H440.942V45H442.999V41.4773H443.453L445.936 45H448.362L445.158 40.4943L448.334 36.2727H445.959L443.476 39.7898H442.999V36.2727H440.942V39.7898H440.453L437.97 36.2727H435.595L438.788 40.4943L435.567 45ZM453.436 45.1705C455.47 45.1705 456.868 44.1761 457.232 42.6591L455.311 42.4432C455.033 43.1818 454.351 43.5682 453.464 43.5682C452.135 43.5682 451.254 42.6932 451.237 41.1989H457.317V40.5682C457.317 37.5057 455.476 36.1591 453.328 36.1591C450.828 36.1591 449.197 37.9943 449.197 40.6875C449.197 43.4261 450.805 45.1705 453.436 45.1705ZM451.243 39.8125C451.305 38.6989 452.129 37.7614 453.357 37.7614C454.538 37.7614 455.334 38.625 455.345 39.8125H451.243ZM461.04 36.2727H459.057V45H461.04V41.4716H464.42V45H466.398V36.2727H464.42V39.7841H461.04V36.2727ZM470.462 42.2159V36.2727H468.479V45H470.598L474.081 39.0511V45H476.07V36.2727H473.956L470.462 42.2159ZM482.045 45.1705C484.08 45.1705 485.477 44.1761 485.841 42.6591L483.92 42.4432C483.642 43.1818 482.96 43.5682 482.074 43.5682C480.744 43.5682 479.864 42.6932 479.847 41.1989H485.926V40.5682C485.926 37.5057 484.085 36.1591 481.938 36.1591C479.438 36.1591 477.807 37.9943 477.807 40.6875C477.807 43.4261 479.415 45.1705 482.045 45.1705ZM479.852 39.8125C479.915 38.6989 480.739 37.7614 481.966 37.7614C483.148 37.7614 483.943 38.625 483.955 39.8125H479.852Z" fill="white"/>
<path d="M375.148 110.364V122H377.17V113.989H377.278L380.494 121.966H382.006L385.222 114.006H385.33V122H387.352V110.364H384.773L381.318 118.795H381.182L377.727 110.364H375.148ZM392.068 122.176C393.438 122.176 394.256 121.534 394.631 120.801H394.699V122H396.676V116.159C396.676 113.852 394.795 113.159 393.131 113.159C391.295 113.159 389.886 113.977 389.432 115.568L391.352 115.841C391.557 115.244 392.136 114.733 393.142 114.733C394.097 114.733 394.619 115.222 394.619 116.08V116.114C394.619 116.705 394 116.733 392.46 116.898C390.767 117.08 389.148 117.585 389.148 119.551C389.148 121.267 390.403 122.176 392.068 122.176ZM392.602 120.665C391.744 120.665 391.131 120.273 391.131 119.517C391.131 118.727 391.818 118.398 392.739 118.267C393.278 118.193 394.358 118.057 394.625 117.841V118.869C394.625 119.841 393.841 120.665 392.602 120.665ZM402.551 122.17C404.744 122.17 406.142 120.869 406.29 119.017H404.324C404.148 119.955 403.472 120.494 402.568 120.494C401.284 120.494 400.455 119.42 400.455 117.636C400.455 115.875 401.301 114.818 402.568 114.818C403.557 114.818 404.165 115.455 404.324 116.295H406.29C406.148 114.403 404.67 113.159 402.54 113.159C399.983 113.159 398.369 115.006 398.369 117.67C398.369 120.312 399.943 122.17 402.551 122.17ZM407.979 113.273V122H419.416V113.273H417.433V120.307H414.689V113.273H412.706V120.307H409.962V113.273H407.979ZM420.517 114.96H423.341V122H425.33V114.96H428.153V113.273H420.517V114.96ZM431.943 122.176C433.312 122.176 434.131 121.534 434.506 120.801H434.574V122H436.551V116.159C436.551 113.852 434.67 113.159 433.006 113.159C431.17 113.159 429.761 113.977 429.307 115.568L431.227 115.841C431.432 115.244 432.011 114.733 433.017 114.733C433.972 114.733 434.494 115.222 434.494 116.08V116.114C434.494 116.705 433.875 116.733 432.335 116.898C430.642 117.08 429.023 117.585 429.023 119.551C429.023 121.267 430.278 122.176 431.943 122.176ZM432.477 120.665C431.619 120.665 431.006 120.273 431.006 119.517C431.006 118.727 431.693 118.398 432.614 118.267C433.153 118.193 434.233 118.057 434.5 117.841V118.869C434.5 119.841 433.716 120.665 432.477 120.665ZM445.614 110.045C445.193 110.364 444.528 110.358 443.625 110.358C443.369 110.358 443.102 110.358 442.812 110.364C439.807 110.403 438.261 112.403 438.261 116.506V117.29C438.261 120.483 439.875 122.17 442.415 122.17C444.955 122.17 446.557 120.477 446.557 117.784C446.557 115.17 445.034 113.665 442.869 113.665C441.54 113.665 440.534 114.239 439.989 115.307H439.892C440.097 113.131 440.915 112.148 442.869 112.102C444.602 112.062 445.574 112.034 446.33 111.375L445.614 110.045ZM442.426 120.523C441.136 120.523 440.347 119.489 440.347 117.841C440.364 116.216 441.142 115.284 442.415 115.284C443.688 115.284 444.472 116.216 444.472 117.841C444.472 119.494 443.693 120.523 442.426 120.523ZM450.29 119.216V113.273H448.307V122H450.426L453.909 116.051V122H455.898V113.273H453.784L450.29 119.216ZM458.01 125.273H460.067V120.625H460.152C460.476 121.261 461.152 122.153 462.652 122.153C464.709 122.153 466.249 120.523 466.249 117.648C466.249 114.739 464.663 113.159 462.646 113.159C461.107 113.159 460.464 114.085 460.152 114.716H460.033V113.273H458.01V125.273ZM460.027 117.636C460.027 115.943 460.754 114.847 462.078 114.847C463.447 114.847 464.152 116.011 464.152 117.636C464.152 119.273 463.436 120.466 462.078 120.466C460.766 120.466 460.027 119.33 460.027 117.636ZM471.817 122.17C474.374 122.17 475.999 120.369 475.999 117.67C475.999 114.966 474.374 113.159 471.817 113.159C469.26 113.159 467.635 114.966 467.635 117.67C467.635 120.369 469.26 122.17 471.817 122.17ZM471.828 120.523C470.413 120.523 469.72 119.261 469.72 117.665C469.72 116.068 470.413 114.79 471.828 114.79C473.22 114.79 473.913 116.068 473.913 117.665C473.913 119.261 473.22 120.523 471.828 120.523ZM477.744 122H481.972C484.017 122 485.188 121.074 485.188 119.631C485.188 118.409 484.239 117.557 482.869 117.438C484.034 117.222 484.761 116.602 484.761 115.619C484.761 114.148 483.472 113.273 481.409 113.273H477.744V122ZM479.67 120.381V118.216H481.972C482.727 118.216 483.188 118.653 483.188 119.375C483.188 120 482.727 120.381 481.972 120.381H479.67ZM479.67 116.886V114.92H481.409C482.267 114.92 482.79 115.284 482.79 115.881C482.79 116.506 482.284 116.886 481.449 116.886H479.67ZM489.396 122.176C490.766 122.176 491.584 121.534 491.959 120.801H492.027V122H494.004V116.159C494.004 113.852 492.124 113.159 490.459 113.159C488.624 113.159 487.214 113.977 486.76 115.568L488.68 115.841C488.885 115.244 489.464 114.733 490.47 114.733C491.425 114.733 491.947 115.222 491.947 116.08V116.114C491.947 116.705 491.328 116.733 489.788 116.898C488.095 117.08 486.476 117.585 486.476 119.551C486.476 121.267 487.732 122.176 489.396 122.176ZM489.93 120.665C489.072 120.665 488.459 120.273 488.459 119.517C488.459 118.727 489.146 118.398 490.067 118.267C490.607 118.193 491.686 118.057 491.953 117.841V118.869C491.953 119.841 491.169 120.665 489.93 120.665ZM498.055 113.273H496.072V122H498.055V118.472H501.436V122H503.413V113.273H501.436V116.784H498.055V113.273ZM507.477 119.216V113.273H505.494V122H507.614L511.097 116.051V122H513.085V113.273H510.972L507.477 119.216ZM519.061 122.17C521.095 122.17 522.493 121.176 522.857 119.659L520.936 119.443C520.658 120.182 519.976 120.568 519.089 120.568C517.76 120.568 516.879 119.693 516.862 118.199H522.942V117.568C522.942 114.506 521.101 113.159 518.953 113.159C516.453 113.159 514.822 114.994 514.822 117.688C514.822 120.426 516.43 122.17 519.061 122.17ZM516.868 116.812C516.93 115.699 517.754 114.761 518.982 114.761C520.163 114.761 520.959 115.625 520.97 116.812H516.868Z" fill="white"/>
<path d="M382.119 191H384.716L379.92 184.67L384.517 179.364H381.92L377.784 184.148H377.256V179.364H375.148V191H377.256V185.915H378.29L382.119 191ZM388.568 191.176C389.938 191.176 390.756 190.534 391.131 189.801H391.199V191H393.176V185.159C393.176 182.852 391.295 182.159 389.631 182.159C387.795 182.159 386.386 182.977 385.932 184.568L387.852 184.841C388.057 184.244 388.636 183.733 389.642 183.733C390.597 183.733 391.119 184.222 391.119 185.08V185.114C391.119 185.705 390.5 185.733 388.96 185.898C387.267 186.08 385.648 186.585 385.648 188.551C385.648 190.267 386.903 191.176 388.568 191.176ZM389.102 189.665C388.244 189.665 387.631 189.273 387.631 188.517C387.631 187.727 388.318 187.398 389.239 187.267C389.778 187.193 390.858 187.057 391.125 186.841V187.869C391.125 188.841 390.341 189.665 389.102 189.665ZM395.244 191H397.301V187.71H398.307L400.699 191H403.188L399.92 186.557L403.153 182.273H400.676L398.051 185.795H397.301V182.273H395.244V191ZM408.322 191H410.288V183.96H413.709V191H415.692V182.273H408.322V191ZM417.807 194.273H419.864V189.625H419.949C420.273 190.261 420.949 191.153 422.449 191.153C424.506 191.153 426.045 189.523 426.045 186.648C426.045 183.739 424.46 182.159 422.443 182.159C420.903 182.159 420.261 183.085 419.949 183.716H419.83V182.273H417.807V194.273ZM419.824 186.636C419.824 184.943 420.551 183.847 421.875 183.847C423.244 183.847 423.949 185.011 423.949 186.636C423.949 188.273 423.233 189.466 421.875 189.466C420.562 189.466 419.824 188.33 419.824 186.636ZM429.79 188.216V182.273H427.807V191H429.926L433.409 185.051V191H435.398V182.273H433.284L429.79 188.216ZM437.51 191H441.737C443.783 191 444.953 190.074 444.953 188.631C444.953 187.409 444.004 186.557 442.635 186.438C443.8 186.222 444.527 185.602 444.527 184.619C444.527 183.148 443.237 182.273 441.175 182.273H437.51V191ZM439.436 189.381V187.216H441.737C442.493 187.216 442.953 187.653 442.953 188.375C442.953 189 442.493 189.381 441.737 189.381H439.436ZM439.436 185.886V183.92H441.175C442.033 183.92 442.555 184.284 442.555 184.881C442.555 185.506 442.05 185.886 441.214 185.886H439.436ZM446.048 191H446.685C448.56 191 449.406 189.682 449.543 186.773L449.679 183.96H452.185V191H454.173V182.273H447.81L447.656 186.136C447.56 188.585 447.241 189.307 446.338 189.307H446.037L446.048 191ZM460.108 191.17C462.142 191.17 463.54 190.176 463.903 188.659L461.983 188.443C461.705 189.182 461.023 189.568 460.136 189.568C458.807 189.568 457.926 188.693 457.909 187.199H463.989V186.568C463.989 183.506 462.148 182.159 460 182.159C457.5 182.159 455.869 183.994 455.869 186.688C455.869 189.426 457.477 191.17 460.108 191.17ZM457.915 185.812C457.977 184.699 458.801 183.761 460.028 183.761C461.21 183.761 462.006 184.625 462.017 185.812H457.915ZM473.018 182.273H471.041V186.534C470.541 186.659 470.047 186.727 469.507 186.727C468.291 186.727 467.695 186.295 467.695 185.17V182.261H465.729V185.17C465.729 187.398 467.178 188.415 469.507 188.415C470.018 188.415 470.553 188.347 471.041 188.233V191H473.018V182.273ZM477.071 185.114V182.273H475.088V191H479.054C481.276 191 482.554 189.773 482.56 188.057C482.554 186.295 481.276 185.114 479.054 185.114H477.071ZM477.071 186.801H479.054C479.946 186.801 480.588 187.33 480.588 188.085C480.588 188.807 479.946 189.312 479.054 189.312H477.071V186.801ZM488.291 191H490.257V183.96H493.678V191H495.661V182.273H488.291V191ZM501.639 191.17C503.673 191.17 505.071 190.176 505.435 188.659L503.514 188.443C503.236 189.182 502.554 189.568 501.668 189.568C500.338 189.568 499.457 188.693 499.44 187.199H505.52V186.568C505.52 183.506 503.679 182.159 501.531 182.159C499.031 182.159 497.401 183.994 497.401 186.688C497.401 189.426 499.009 191.17 501.639 191.17ZM499.446 185.812C499.509 184.699 500.332 183.761 501.56 183.761C502.741 183.761 503.537 184.625 503.548 185.812H499.446ZM507.26 194.273H509.317V189.625H509.402C509.726 190.261 510.402 191.153 511.902 191.153C513.959 191.153 515.499 189.523 515.499 186.648C515.499 183.739 513.913 182.159 511.896 182.159C510.357 182.159 509.714 183.085 509.402 183.716H509.283V182.273H507.26V194.273ZM509.277 186.636C509.277 184.943 510.004 183.847 511.328 183.847C512.697 183.847 513.402 185.011 513.402 186.636C513.402 188.273 512.686 189.466 511.328 189.466C510.016 189.466 509.277 188.33 509.277 186.636ZM517.26 191H521.487C523.533 191 524.703 190.074 524.703 188.631C524.703 187.409 523.754 186.557 522.385 186.438C523.55 186.222 524.277 185.602 524.277 184.619C524.277 183.148 522.987 182.273 520.925 182.273H517.26V191ZM519.186 189.381V187.216H521.487C522.243 187.216 522.703 187.653 522.703 188.375C522.703 189 522.243 189.381 521.487 189.381H519.186ZM519.186 185.886V183.92H520.925C521.783 183.92 522.305 184.284 522.305 184.881C522.305 185.506 521.8 185.886 520.964 185.886H519.186ZM528.384 185.114V182.273H526.401V191H530.366C532.588 191 533.866 189.773 533.872 188.057C533.866 186.295 532.588 185.114 530.366 185.114H528.384ZM534.957 191H537.014V182.273H534.957V191ZM528.384 186.801H530.366C531.259 186.801 531.901 187.33 531.901 188.085C531.901 188.807 531.259 189.312 530.366 189.312H528.384V186.801ZM540.817 182.273H538.635L541.226 186.636L538.567 191H540.749L542.578 187.858L544.425 191H546.589L543.913 186.636L546.544 182.273H544.368L542.578 185.494L540.817 182.273ZM375.057 208.273H377.114V203.625H377.199C377.523 204.261 378.199 205.153 379.699 205.153C381.756 205.153 383.295 203.523 383.295 200.648C383.295 197.739 381.71 196.159 379.693 196.159C378.153 196.159 377.511 197.085 377.199 197.716H377.08V196.273H375.057V208.273ZM377.074 200.636C377.074 198.943 377.801 197.847 379.125 197.847C380.494 197.847 381.199 199.011 381.199 200.636C381.199 202.273 380.483 203.466 379.125 203.466C377.812 203.466 377.074 202.33 377.074 200.636ZM388.92 205.17C390.955 205.17 392.352 204.176 392.716 202.659L390.795 202.443C390.517 203.182 389.835 203.568 388.949 203.568C387.619 203.568 386.739 202.693 386.722 201.199H392.801V200.568C392.801 197.506 390.96 196.159 388.812 196.159C386.312 196.159 384.682 197.994 384.682 200.688C384.682 203.426 386.29 205.17 388.92 205.17ZM386.727 199.812C386.79 198.699 387.614 197.761 388.841 197.761C390.023 197.761 390.818 198.625 390.83 199.812H386.727ZM398.501 207.966H400.564V205.17C403.132 205.17 404.899 203.352 404.899 200.67C404.899 197.983 403.132 196.159 400.564 196.159V193.364H398.501V196.159C395.933 196.159 394.166 197.983 394.166 200.67C394.166 203.352 395.933 205.17 398.501 205.17V207.966ZM398.501 203.511C397.047 203.511 396.268 202.227 396.268 200.67C396.268 199.114 397.036 197.818 398.501 197.818V203.511ZM400.564 203.511V197.818C402.03 197.818 402.791 199.114 402.791 200.67C402.791 202.227 402.03 203.511 400.564 203.511ZM410.499 205.17C412.533 205.17 413.93 204.176 414.294 202.659L412.374 202.443C412.095 203.182 411.413 203.568 410.527 203.568C409.197 203.568 408.317 202.693 408.3 201.199H414.379V200.568C414.379 197.506 412.538 196.159 410.391 196.159C407.891 196.159 406.26 197.994 406.26 200.688C406.26 203.426 407.868 205.17 410.499 205.17ZM408.305 199.812C408.368 198.699 409.192 197.761 410.419 197.761C411.601 197.761 412.396 198.625 412.408 199.812H408.305ZM416.119 208.273H418.176V203.625H418.261C418.585 204.261 419.261 205.153 420.761 205.153C422.818 205.153 424.358 203.523 424.358 200.648C424.358 197.739 422.773 196.159 420.756 196.159C419.216 196.159 418.574 197.085 418.261 197.716H418.142V196.273H416.119V208.273ZM418.136 200.636C418.136 198.943 418.864 197.847 420.188 197.847C421.557 197.847 422.261 199.011 422.261 200.636C422.261 202.273 421.545 203.466 420.188 203.466C418.875 203.466 418.136 202.33 418.136 200.636ZM428.631 205.176C430 205.176 430.818 204.534 431.193 203.801H431.261V205H433.239V199.159C433.239 196.852 431.358 196.159 429.693 196.159C427.858 196.159 426.449 196.977 425.994 198.568L427.915 198.841C428.119 198.244 428.699 197.733 429.705 197.733C430.659 197.733 431.182 198.222 431.182 199.08V199.114C431.182 199.705 430.562 199.733 429.023 199.898C427.33 200.08 425.71 200.585 425.71 202.551C425.71 204.267 426.966 205.176 428.631 205.176ZM429.165 203.665C428.307 203.665 427.693 203.273 427.693 202.517C427.693 201.727 428.381 201.398 429.301 201.267C429.841 201.193 430.92 201.057 431.188 200.841V201.869C431.188 202.841 430.403 203.665 429.165 203.665ZM434.705 205H435.341C437.216 205 438.062 203.682 438.199 200.773L438.335 197.96H440.841V205H442.83V196.273H436.466L436.312 200.136C436.216 202.585 435.898 203.307 434.994 203.307H434.693L434.705 205ZM448.707 205.17C451.264 205.17 452.889 203.369 452.889 200.67C452.889 197.966 451.264 196.159 448.707 196.159C446.151 196.159 444.526 197.966 444.526 200.67C444.526 203.369 446.151 205.17 448.707 205.17ZM448.719 203.523C447.304 203.523 446.611 202.261 446.611 200.665C446.611 199.068 447.304 197.79 448.719 197.79C450.111 197.79 450.804 199.068 450.804 200.665C450.804 202.261 450.111 203.523 448.719 203.523ZM454.635 205H458.862C460.908 205 462.078 204.074 462.078 202.631C462.078 201.409 461.129 200.557 459.76 200.438C460.925 200.222 461.652 199.602 461.652 198.619C461.652 197.148 460.362 196.273 458.3 196.273H454.635V205ZM456.561 203.381V201.216H458.862C459.618 201.216 460.078 201.653 460.078 202.375C460.078 203 459.618 203.381 458.862 203.381H456.561ZM456.561 199.886V197.92H458.3C459.158 197.92 459.68 198.284 459.68 198.881C459.68 199.506 459.175 199.886 458.339 199.886H456.561Z" fill="white"/>
<defs>
<linearGradient id="paint0_linear_115_2114" x1="287" y1="0" x2="287" y2="228" gradientUnits="userSpaceOnUse">
<stop stop-color="#EB00FF"/>
<stop offset="1" stop-color="#0003FF"/>
</linearGradient>
</defs>
</svg>
